<svg width="336" height="336" viewBox="0 0 336 336" fill="none" xmlns="http://www.w3.org/2000/svg">
<path class="swap-color" d="M122.273 192.999C119.46 192.999 117.567 195.198 117.567 198.027C117.567 200.855 119.46 203.055 122.273 203.055C125.087 203.055 126.98 200.855 126.98 198.027C126.954 195.198 125.061 192.999 122.273 192.999ZM121.642 189.882C123.904 189.882 125.797 191.034 126.691 192.291V190.196H130.162V205.883H127.48C127.271 205.883 127.07 205.8 126.923 205.653C126.775 205.505 126.692 205.306 126.691 205.098V203.788C125.797 205.045 123.93 206.198 121.642 206.198C117.33 206.198 114.043 202.531 114.043 198.053C114.043 193.575 117.304 189.882 121.642 189.882ZM134.106 190.196H137.577V192.318C138.524 190.746 140.312 189.882 142.363 189.882C146.018 189.882 148.384 192.449 148.384 196.429V205.883H145.729C145.52 205.883 145.319 205.8 145.172 205.653C145.024 205.505 144.94 205.306 144.94 205.098V197.005C144.94 194.518 143.678 193.025 141.653 193.025C139.365 193.025 137.577 194.806 137.577 198.158V205.883H134.921C134.712 205.883 134.512 205.8 134.364 205.653C134.216 205.505 134.133 205.306 134.132 205.098L134.106 190.196ZM159.323 192.999C156.51 192.999 154.616 195.198 154.616 198.027C154.616 200.855 156.51 203.055 159.323 203.055C162.137 203.055 164.03 200.855 164.03 198.027C164.03 195.198 162.137 192.999 159.323 192.999ZM158.692 189.882C160.954 189.882 162.847 191.034 163.741 192.291V182.34H167.212V205.883H164.556C164.347 205.883 164.147 205.8 163.999 205.653C163.851 205.505 163.768 205.306 163.767 205.098V203.788C162.873 205.045 161.006 206.198 158.718 206.198C154.406 206.198 151.119 202.531 151.119 198.053C151.119 193.575 154.38 189.882 158.692 189.882ZM171.156 190.196H174.627V192.999C174.932 192.141 175.494 191.397 176.237 190.868C176.98 190.339 177.868 190.049 178.782 190.039C179.232 190.031 179.682 190.075 180.123 190.17V193.706C179.563 193.519 178.977 193.422 178.387 193.418C176.415 193.418 174.601 195.094 174.601 198.21V205.857H171.945C171.736 205.857 171.536 205.774 171.388 205.626C171.24 205.479 171.157 205.28 171.156 205.072V190.196ZM189.457 202.977C192.218 202.977 194.191 200.803 194.191 198.027C194.191 195.225 192.245 193.077 189.457 193.077C186.644 193.077 184.698 195.251 184.698 198.027C184.724 200.829 186.644 202.977 189.457 202.977ZM189.457 206.198C187.84 206.185 186.262 205.695 184.923 204.79C183.585 203.886 182.545 202.606 181.935 201.114C181.326 199.621 181.174 197.982 181.498 196.404C181.823 194.825 182.609 193.378 183.759 192.244C184.908 191.11 186.369 190.34 187.957 190.032C189.545 189.724 191.189 189.892 192.682 190.513C194.175 191.134 195.449 192.182 196.345 193.524C197.24 194.866 197.717 196.442 197.714 198.053C197.72 199.131 197.509 200.199 197.095 201.194C196.681 202.19 196.072 203.094 195.303 203.852C194.534 204.611 193.621 205.209 192.618 205.611C191.614 206.014 190.539 206.213 189.457 206.198ZM200.528 190.196H203.999V205.883H201.343C201.134 205.883 200.934 205.8 200.786 205.653C200.638 205.505 200.555 205.306 200.554 205.098L200.528 190.196ZM202.263 186.766C201.644 186.76 201.052 186.512 200.615 186.077C200.177 185.641 199.929 185.051 199.923 184.435C199.935 183.825 200.188 183.245 200.625 182.819C201.063 182.393 201.651 182.155 202.263 182.156C202.877 182.156 203.465 182.399 203.899 182.831C204.333 183.264 204.577 183.85 204.577 184.461C204.577 185.072 204.333 185.658 203.899 186.091C203.465 186.523 202.877 186.766 202.263 186.766ZM215.069 192.999C212.255 192.999 210.362 195.198 210.362 198.027C210.362 200.855 212.255 203.055 215.069 203.055C217.883 203.055 219.776 200.855 219.776 198.027C219.723 195.198 217.883 192.999 215.069 192.999ZM214.438 189.882C216.699 189.882 218.593 191.034 219.487 192.291V182.34H222.958V205.883H220.302C220.093 205.883 219.892 205.8 219.745 205.653C219.597 205.505 219.513 205.306 219.513 205.098V203.788C218.619 205.045 216.752 206.198 214.464 206.198C210.152 206.198 206.865 202.531 206.865 198.053C206.865 193.575 210.125 189.882 214.438 189.882Z" fill="#20101E"/>
<path d="M195.19 129.7L204.262 114.066C204.505 113.635 204.568 113.127 204.438 112.651C204.308 112.174 203.994 111.768 203.566 111.52C203.137 111.272 202.627 111.203 202.147 111.326C201.667 111.45 201.256 111.756 201.001 112.18L191.824 127.998C184.499 124.718 176.558 123.022 168.527 123.022C160.495 123.022 152.554 124.718 145.229 127.998L136.052 112.18C135.797 111.756 135.386 111.45 134.906 111.326C134.426 111.203 133.916 111.272 133.487 111.52C133.059 111.768 132.745 112.174 132.615 112.651C132.485 113.127 132.548 113.635 132.791 114.066L141.863 129.7C126.218 138.133 115.594 153.82 114.043 172.336H222.905C221.354 153.82 210.704 138.133 195.19 129.7ZM143.441 156.884C142.546 156.884 141.672 156.62 140.928 156.125C140.184 155.63 139.605 154.927 139.262 154.104C138.92 153.281 138.831 152.375 139.005 151.501C139.18 150.627 139.61 149.825 140.243 149.195C140.875 148.565 141.681 148.136 142.559 147.962C143.436 147.788 144.345 147.877 145.172 148.218C145.998 148.559 146.705 149.137 147.201 149.877C147.698 150.618 147.964 151.489 147.964 152.38C147.964 153.574 147.487 154.72 146.639 155.565C145.791 156.41 144.64 156.884 143.441 156.884ZM193.56 156.884C192.665 156.884 191.791 156.62 191.047 156.125C190.303 155.63 189.723 154.927 189.381 154.104C189.039 153.281 188.949 152.375 189.124 151.501C189.298 150.627 189.729 149.825 190.361 149.195C190.994 148.565 191.8 148.136 192.677 147.962C193.555 147.788 194.464 147.877 195.29 148.218C196.117 148.559 196.823 149.137 197.32 149.877C197.817 150.618 198.082 151.489 198.082 152.38C198.082 153.574 197.606 154.72 196.758 155.565C195.909 156.41 194.759 156.884 193.56 156.884Z" fill="#3DDC84"/>
</svg>
