<svg width="336" height="336" viewBox="0 0 336 336" fill="none" xmlns="http://www.w3.org/2000/svg">
<path class="swap-color" d="M139.516 157.822C139.516 159.428 139.69 160.73 139.994 161.685C140.341 162.64 140.776 163.682 141.384 164.81C141.601 165.158 141.688 165.505 141.688 165.809C141.688 166.243 141.427 166.677 140.863 167.111L138.127 168.934C137.736 169.195 137.345 169.325 136.998 169.325C136.564 169.325 136.13 169.108 135.695 168.717C135.088 168.066 134.566 167.371 134.132 166.677C133.698 165.939 133.264 165.114 132.786 164.116C129.399 168.109 125.144 170.106 120.02 170.106C116.373 170.106 113.464 169.064 111.336 166.981C109.209 164.897 108.123 162.119 108.123 158.647C108.123 154.957 109.426 151.962 112.074 149.705C114.723 147.448 118.24 146.319 122.713 146.319C124.189 146.319 125.709 146.449 127.315 146.666C128.922 146.884 130.572 147.231 132.309 147.621V144.453C132.309 141.154 131.614 138.853 130.268 137.508C128.878 136.162 126.534 135.511 123.19 135.511C121.67 135.511 120.107 135.685 118.501 136.075C116.894 136.466 115.331 136.943 113.811 137.551C113.116 137.855 112.595 138.029 112.291 138.115C111.988 138.202 111.77 138.246 111.597 138.246C110.989 138.246 110.685 137.812 110.685 136.9V134.773C110.685 134.079 110.772 133.558 110.989 133.254C111.206 132.95 111.597 132.646 112.205 132.342C113.724 131.561 115.548 130.91 117.676 130.389C119.803 129.825 122.061 129.564 124.449 129.564C129.616 129.564 133.394 130.736 135.826 133.08C138.214 135.424 139.43 138.984 139.43 143.758V157.822H139.516ZM121.888 164.42C123.32 164.42 124.797 164.159 126.36 163.638C127.923 163.118 129.313 162.163 130.485 160.86C131.18 160.036 131.701 159.124 131.961 158.082C132.222 157.041 132.395 155.782 132.395 154.306V152.483C131.136 152.179 129.79 151.919 128.401 151.745C127.011 151.571 125.665 151.485 124.319 151.485C121.41 151.485 119.282 152.049 117.849 153.221C116.416 154.393 115.722 156.042 115.722 158.213C115.722 160.253 116.243 161.772 117.328 162.814C118.37 163.899 119.89 164.42 121.888 164.42ZM156.755 169.108C155.973 169.108 155.452 168.977 155.105 168.674C154.757 168.413 154.453 167.805 154.193 166.981L143.989 133.427C143.728 132.559 143.598 131.995 143.598 131.691C143.598 130.997 143.945 130.606 144.64 130.606H148.895C149.72 130.606 150.285 130.736 150.589 131.04C150.936 131.301 151.197 131.908 151.457 132.733L158.752 161.468L165.526 132.733C165.743 131.865 166.003 131.301 166.351 131.04C166.698 130.78 167.306 130.606 168.088 130.606H171.561C172.386 130.606 172.951 130.736 173.298 131.04C173.645 131.301 173.949 131.908 174.123 132.733L180.984 161.815L188.495 132.733C188.756 131.865 189.06 131.301 189.364 131.04C189.711 130.78 190.276 130.606 191.057 130.606H195.095C195.79 130.606 196.181 130.953 196.181 131.691C196.181 131.908 196.138 132.125 196.094 132.386C196.051 132.646 195.964 132.993 195.79 133.471L185.326 167.024C185.065 167.892 184.761 168.457 184.414 168.717C184.066 168.977 183.502 169.151 182.764 169.151H179.03C178.205 169.151 177.64 169.021 177.293 168.717C176.945 168.413 176.641 167.849 176.468 166.981L169.738 138.984L163.051 166.937C162.834 167.805 162.573 168.37 162.226 168.674C161.878 168.977 161.27 169.108 160.489 169.108H156.755ZM212.551 170.28C210.293 170.28 208.035 170.019 205.864 169.498C203.693 168.977 201.999 168.413 200.87 167.762C200.176 167.371 199.698 166.937 199.524 166.547C199.351 166.156 199.264 165.722 199.264 165.331V163.118C199.264 162.206 199.611 161.772 200.263 161.772C200.523 161.772 200.784 161.815 201.044 161.902C201.305 161.989 201.695 162.163 202.13 162.336C203.606 162.987 205.213 163.508 206.906 163.855C208.643 164.203 210.336 164.376 212.073 164.376C214.809 164.376 216.936 163.899 218.413 162.944C219.889 161.989 220.67 160.6 220.67 158.82C220.67 157.605 220.28 156.607 219.498 155.782C218.716 154.957 217.24 154.219 215.113 153.525L208.816 151.571C205.647 150.573 203.302 149.097 201.869 147.144C200.436 145.234 199.698 143.107 199.698 140.85C199.698 139.027 200.089 137.421 200.87 136.032C201.652 134.643 202.694 133.427 203.997 132.473C205.299 131.474 206.776 130.736 208.513 130.215C210.249 129.695 212.073 129.477 213.984 129.477C214.939 129.477 215.938 129.521 216.893 129.651C217.891 129.781 218.803 129.955 219.715 130.129C220.584 130.346 221.409 130.563 222.19 130.823C222.972 131.084 223.58 131.344 224.014 131.604C224.622 131.952 225.056 132.299 225.316 132.69C225.577 133.037 225.707 133.514 225.707 134.122V136.162C225.707 137.074 225.36 137.551 224.709 137.551C224.361 137.551 223.797 137.377 223.059 137.03C220.584 135.902 217.805 135.337 214.722 135.337C212.247 135.337 210.293 135.728 208.947 136.553C207.601 137.377 206.906 138.636 206.906 140.416C206.906 141.631 207.34 142.673 208.209 143.498C209.077 144.323 210.684 145.147 212.985 145.885L219.151 147.838C222.277 148.837 224.535 150.226 225.881 152.005C227.227 153.785 227.878 155.825 227.878 158.082C227.878 159.949 227.488 161.642 226.749 163.118C225.968 164.593 224.926 165.896 223.58 166.937C222.234 168.023 220.627 168.804 218.76 169.368C216.806 169.976 214.765 170.28 212.551 170.28Z" fill="#252F3E"/>
<path fill-rule="evenodd" clip-rule="evenodd" d="M220.757 191.375C206.471 201.923 185.716 207.522 167.87 207.522C142.86 207.522 120.324 198.277 103.303 182.911C101.957 181.696 103.173 180.046 104.779 181.001C123.19 191.679 145.899 198.147 169.39 198.147C185.239 198.147 202.65 194.848 218.673 188.076C221.061 186.991 223.102 189.639 220.757 191.375Z" fill="#FF9900"/>
<path fill-rule="evenodd" clip-rule="evenodd" d="M226.706 184.604C224.882 182.26 214.635 183.475 209.989 184.04C208.599 184.213 208.382 182.998 209.641 182.086C217.805 176.357 231.222 178.006 232.785 179.916C234.348 181.869 232.351 195.282 224.708 201.706C223.536 202.704 222.407 202.184 222.928 200.881C224.665 196.584 228.53 186.904 226.706 184.604Z" fill="#FF9900"/>
</svg>
