<svg width="336" height="336" viewBox="0 0 336 336" fill="none" xmlns="http://www.w3.org/2000/svg">
<path class="swap-color" d="M105.694 193.063C114.773 191.451 122.272 190.118 122.358 190.099L122.515 190.066L113.943 179.821C109.228 174.186 105.371 169.554 105.371 169.528C105.371 169.477 114.222 144.986 114.272 144.899C114.289 144.87 120.312 155.319 128.873 170.229C136.888 184.187 143.497 195.696 143.558 195.804L143.67 196L116.428 195.996L89.1855 195.993L105.694 193.063V193.063ZM210.164 190.585C206.017 190.318 203.605 187.945 202.966 183.504C202.796 182.323 202.795 182.292 202.778 174.623L202.761 167.2H204.596H206.432L206.446 174.38C206.459 180.851 206.467 181.61 206.529 182.065C206.779 183.912 207.276 185.154 208.123 186.046C208.801 186.76 209.594 187.178 210.693 187.399C211.211 187.504 212.685 187.504 213.158 187.4C214.271 187.154 215.164 186.667 215.951 185.876C216.848 184.975 217.512 183.696 217.833 182.25L217.942 181.762L217.954 174.522L217.966 167.281H219.84H221.713V178.664V190.046H219.859H218.004V188.24C218.004 187.013 217.991 186.438 217.963 186.448C217.94 186.456 217.845 186.602 217.751 186.773C217.112 187.944 216.047 189.015 214.881 189.66C213.482 190.434 212.08 190.709 210.164 190.585L210.164 190.585ZM252.254 190.567C250.79 190.456 249.249 189.951 247.989 189.168C245.334 187.517 243.763 184.797 243.303 181.053C243.143 179.758 243.124 178.018 243.257 176.917C243.554 174.458 244.516 172.043 245.885 170.319C246.237 169.877 247.033 169.077 247.473 168.724C248.66 167.772 250.05 167.105 251.524 166.781C252.384 166.592 253.897 166.504 254.81 166.589C257.103 166.802 259.205 167.887 260.634 169.595C262.085 171.33 262.883 173.754 262.985 176.739C263.001 177.207 263.005 178.028 262.994 178.562L262.973 179.534L254.941 179.545L246.909 179.555V179.915C246.909 181.011 247.174 182.26 247.632 183.323C248.028 184.239 248.709 185.239 249.266 185.724C250.409 186.716 251.808 187.31 253.338 187.453C253.906 187.506 255.352 187.451 255.999 187.351C257.844 187.066 259.599 186.339 261.015 185.271C261.182 185.146 261.341 185.029 261.37 185.011C261.411 184.985 261.421 185.313 261.42 186.692L261.419 188.405L261.039 188.641C259.436 189.637 257.6 190.276 255.656 190.516C255.076 190.587 252.948 190.619 252.254 190.567L252.254 190.567ZM259.244 176.116C259.244 174.279 258.474 172.239 257.384 171.189C256.606 170.439 255.666 169.981 254.548 169.807C254.019 169.724 252.904 169.756 252.347 169.869C251.168 170.109 250.193 170.629 249.343 171.474C248.448 172.362 247.777 173.442 247.355 174.671C247.203 175.114 247.025 175.839 246.97 176.243L246.944 176.436H253.094H259.244V176.116ZM150.288 189.995C150.297 189.967 153.025 182.767 156.349 173.995L162.393 158.046L164.335 158.046L166.277 158.046L166.438 158.461C166.931 159.73 178.538 190.011 178.538 190.027C178.538 190.037 177.609 190.046 176.472 190.045L174.406 190.045L172.733 185.569L171.06 181.094L164.324 181.094L157.588 181.094L157.53 181.246C157.497 181.329 156.783 183.343 155.941 185.721L154.411 190.044L152.341 190.045C150.702 190.045 150.274 190.035 150.288 189.995V189.995ZM169.831 177.678C169.831 177.671 168.705 174.605 167.329 170.863C164.755 163.864 164.611 163.443 164.407 162.319C164.312 161.793 164.264 161.778 164.207 162.259C164.167 162.602 163.991 163.371 163.856 163.798C163.789 164.01 162.629 167.207 161.28 170.902C159.93 174.598 158.826 177.638 158.826 177.657C158.826 177.676 161.302 177.691 164.328 177.691C167.355 177.691 169.831 177.686 169.831 177.678V177.678ZM179.788 189.463V188.88L186.499 179.61L193.211 170.34L187.134 170.319L181.058 170.299L181.047 168.75L181.037 167.2H189.825H198.614V167.724V168.247L191.902 177.568C188.21 182.694 185.19 186.897 185.19 186.908C185.19 186.918 188.174 186.927 191.821 186.927H198.453V188.486V190.046H189.12H179.788V189.463ZM229.037 190.019C229.022 190.004 229.01 184.864 229.01 178.596V167.2H230.844H232.678V169.55C232.678 170.842 232.694 171.899 232.713 171.899C232.732 171.899 232.821 171.688 232.911 171.429C233.324 170.244 234.039 169.138 234.96 168.258C235.79 167.465 236.739 166.991 237.858 166.81C238.173 166.759 238.439 166.749 239.068 166.766C239.858 166.787 240.27 166.845 240.751 167.002L240.902 167.052V168.965V170.878L240.469 170.66C239.703 170.275 238.948 170.123 238.04 170.17C237.449 170.201 237.061 170.277 236.589 170.455C235.617 170.822 234.828 171.469 234.277 172.352C233.48 173.631 232.911 175.274 232.743 176.785C232.713 177.056 232.695 179.263 232.688 183.615L232.677 190.046H230.871C229.877 190.046 229.051 190.033 229.037 190.019ZM73 189.939C73 189.924 77.039 182.879 81.9756 174.283L90.9512 158.654L101.411 149.834C107.164 144.982 111.887 141.007 111.906 141C111.925 140.993 111.849 141.184 111.737 141.426C111.626 141.667 106.515 152.682 100.379 165.904L89.2239 189.944L81.1119 189.955C76.6504 189.96 73 189.953 73 189.939V189.939Z" fill="#0089D6"/>
</svg>
