<svg width="336" height="336" viewBox="0 0 336 336" fill="none" xmlns="http://www.w3.org/2000/svg">
<path d="M211.842 193.5C212.556 192.268 213 190.88 213 189.633V146.366C213 145.12 212.557 143.732 211.843 142.5L167.5 168L211.842 193.5Z" fill="#00599C"/>
<path d="M171.44 218.065L209.06 196.431C210.143 195.808 211.128 194.732 211.842 193.5L167.5 168L123.158 193.5C123.872 194.732 124.857 195.809 125.94 196.431L163.56 218.065C165.727 219.311 169.273 219.311 171.44 218.065Z" fill="#004482"/>
<path d="M211.843 142.5C211.128 141.268 210.143 140.191 209.06 139.568L171.44 117.935C169.273 116.688 165.727 116.688 163.56 117.935L125.94 139.568C123.773 140.814 122 143.874 122 146.366V189.633C122 190.88 122.443 192.268 123.158 193.5L167.5 168L211.843 142.5Z" fill="#659AD2"/>
<path d="M167.5 198.213C150.774 198.213 137.167 184.66 137.167 168C137.167 151.34 150.774 137.786 167.5 137.786C178.293 137.786 188.358 143.571 193.768 152.884L180.641 160.45C177.933 155.789 172.898 152.893 167.5 152.893C159.137 152.893 152.333 159.67 152.333 168C152.333 176.33 159.137 183.107 167.5 183.107C172.898 183.107 177.934 180.211 180.642 175.549L193.769 183.115C188.359 192.428 178.293 198.213 167.5 198.213Z" fill="white"/>
<path d="M197.833 166.321H194.463V162.964H191.093V166.321H187.722V169.678H191.093V173.036H194.463V169.678H197.833V166.321Z" fill="white"/>
<path d="M210.472 166.321H207.102V162.964H203.732V166.321H200.361V169.678H203.732V173.036H207.102V169.678H210.472V166.321Z" fill="white"/>
</svg>
