<svg width="336" height="336" viewBox="0 0 336 336" fill="none" xmlns="http://www.w3.org/2000/svg">
<path class="swap-color" fill-rule="evenodd" clip-rule="evenodd" d="M124.705 200.963V192.974C124.705 191.924 125.356 191.081 126.434 191.081H126.732C127.81 191.081 128.458 191.925 128.458 192.974V209.793C128.458 213.895 126.448 217.159 122.945 219.238C121.34 220.196 119.509 220.7 117.644 220.695H116.899C112.829 220.695 109.596 218.667 107.53 215.139C106.578 213.521 106.079 211.674 106.085 209.793V209.044C106.085 204.941 108.096 201.679 111.596 199.596C113.201 198.636 115.033 198.132 116.899 198.139H117.644C120.398 198.139 122.734 199.215 124.705 200.963V200.963ZM109.838 209.418C109.838 212.381 111.262 214.608 113.838 216.029C114.879 216.603 116.01 216.912 117.198 216.912C120.083 216.912 122.223 215.54 123.699 213.076C124.385 211.929 124.705 210.675 124.705 209.341C124.705 206.773 123.499 204.769 121.446 203.28C120.201 202.377 118.799 201.925 117.271 201.925C114.127 201.925 111.864 203.526 110.505 206.371C110.047 207.333 109.838 208.354 109.838 209.418V209.418ZM141.479 198.139H141.999C146.348 198.139 149.656 200.265 151.751 204.092C152.589 205.623 153.038 207.293 153.038 209.044V209.793C153.038 213.895 151.032 217.163 147.523 219.238C145.899 220.199 144.105 220.695 142.223 220.695H141.479C137.41 220.695 134.175 218.667 132.11 215.139C131.158 213.521 130.658 211.674 130.664 209.793V209.044C130.664 204.94 132.683 201.689 136.174 199.597C137.798 198.625 139.593 198.139 141.479 198.139ZM134.417 209.418C134.417 212.294 135.817 214.41 138.227 215.897C139.358 216.596 140.604 216.912 141.926 216.912C144.745 216.912 146.829 215.471 148.279 213.073C148.971 211.929 149.284 210.673 149.284 209.341C149.284 206.667 148.006 204.624 145.822 203.144C144.625 202.332 143.292 201.925 141.851 201.925C138.706 201.925 136.443 203.526 135.086 206.371C134.626 207.333 134.417 208.354 134.417 209.418V209.418ZM168.641 202.227C168.074 201.959 167.014 201.871 166.401 201.847C163.265 201.728 160.997 203.508 159.666 206.297C159.206 207.259 158.996 208.277 158.996 209.341C158.996 212.582 160.684 214.851 163.554 216.234C164.602 216.739 165.955 216.835 167.101 216.835C168.108 216.835 169.532 216.213 170.426 215.785L170.581 215.71H171.276L171.352 215.726C172.206 215.905 172.85 216.451 172.85 217.376V217.751C172.85 220.055 168.674 220.582 167.08 220.694C161.456 221.086 157.251 217.973 155.647 212.566C155.369 211.627 155.243 210.694 155.243 209.716V208.967C155.243 204.864 157.263 201.614 160.754 199.524C162.377 198.552 164.172 198.064 166.058 198.064H166.802C168.802 198.064 170.645 198.637 172.297 199.774L172.432 199.869L172.518 200.011C172.696 200.309 172.85 200.654 172.85 201.008V201.383C172.85 202.349 172.133 202.868 171.268 203.036L171.196 203.049H170.974C170.414 203.049 169.141 202.464 168.641 202.227V202.227ZM180.815 204.789C182.273 203.317 183.736 201.849 185.216 200.401C185.628 199.998 187.189 198.289 187.804 198.289H188.476L188.553 198.305C189.409 198.484 190.05 199.03 190.05 199.958V200.332C190.05 200.965 189.315 201.7 188.91 202.133C188.048 203.055 187.14 203.946 186.257 204.848L181.723 209.489C183.675 211.461 185.626 213.436 187.562 215.423C188.099 215.972 188.632 216.525 189.161 217.082C189.348 217.279 189.623 217.525 189.779 217.799C189.947 218.056 190.05 218.346 190.05 218.655V219.045L190.029 219.136C189.818 219.999 189.274 220.695 188.326 220.695H188.027C187.406 220.695 186.704 219.987 186.279 219.583C185.402 218.749 184.556 217.874 183.697 217.022L180.815 214.171V218.728C180.815 219.778 180.163 220.622 179.087 220.622H178.791C177.713 220.622 177.062 219.778 177.062 218.728V193.047C177.062 191.997 177.713 191.157 178.791 191.157H179.087C180.163 191.157 180.815 191.997 180.815 193.047V204.789V204.789ZM227.595 198.289H227.968C229.093 198.289 229.845 199.053 229.845 200.182C229.845 201.748 228.359 202.149 227.074 202.149C225.388 202.149 223.779 203.178 222.617 204.332C221.168 205.771 220.534 207.616 220.534 209.643V218.803C220.534 219.853 219.884 220.695 218.805 220.695H218.508C217.43 220.695 216.78 219.853 216.78 218.803V209.117C216.78 205.398 218.576 202.362 221.57 200.232C223.358 198.96 225.406 198.289 227.595 198.289V198.289ZM200.918 216.441C202.284 216.922 203.842 216.853 205.243 216.607C205.96 216.3 207.793 215.494 208.467 215.612L208.572 215.63L208.669 215.678C209.081 215.879 209.473 216.164 209.684 216.586C210.175 217.576 209.939 218.571 208.974 219.133L208.653 219.32C205.093 221.391 201.306 221.104 197.757 219.169C196.06 218.245 194.762 216.872 193.804 215.199L193.581 214.808C191.295 210.817 191.603 206.62 194.181 202.826C195.071 201.514 196.234 200.501 197.594 199.708L198.108 199.409C201.461 197.458 205.054 197.592 208.498 199.304C210.35 200.225 211.85 201.598 212.883 203.403L213.069 203.728C213.82 205.04 212.848 206.182 211.843 206.963C210.678 207.87 209.501 208.96 208.385 209.932C205.894 212.1 203.407 214.272 200.918 216.441V216.441ZM197.695 214.159C200.48 211.751 203.266 209.342 206.044 206.924C206.993 206.099 208.034 205.243 208.976 204.375C208.22 203.415 206.958 202.723 205.886 202.311C203.72 201.479 201.586 201.758 199.6 202.914C197.002 204.426 195.895 206.835 195.992 209.833C196.031 211.013 196.345 212.151 196.967 213.155C197.186 213.509 197.43 213.842 197.695 214.159ZM177.439 138.34H188.515V149.753H194.115C196.701 149.753 199.361 149.289 201.81 148.453C203.014 148.041 204.364 147.469 205.551 146.749C203.988 144.691 203.19 142.093 202.955 139.532C202.635 136.048 203.333 131.514 205.672 128.787L206.836 127.43L208.223 128.554C211.716 131.383 214.654 135.336 215.172 139.842C219.377 138.595 224.316 138.89 228.023 141.047L229.543 141.932L228.743 143.507C225.608 149.675 219.053 151.586 212.645 151.248C203.055 175.324 182.178 186.723 156.865 186.723C143.787 186.723 131.789 181.794 124.957 170.098L124.845 169.908L123.849 167.866C121.54 162.717 120.773 157.077 121.293 151.441L121.449 149.753H130.921V138.34H141.996V127.175H164.148V116.01H177.439V138.34Z" fill="#364548"/>
<path fill-rule="evenodd" clip-rule="evenodd" d="M213.323 142.562C214.065 136.744 209.746 132.174 207.068 130.004C203.981 133.602 203.501 143.031 208.344 147C205.641 149.42 199.946 151.614 194.115 151.614H123.132C122.565 157.75 123.634 163.401 126.075 168.237L126.882 169.727C127.393 170.601 127.952 171.446 128.556 172.258C131.474 172.447 134.165 172.512 136.626 172.457H136.627C141.465 172.35 145.412 171.773 148.403 170.729C148.615 170.662 148.844 170.681 149.041 170.782C149.239 170.883 149.39 171.057 149.463 171.268C149.535 171.479 149.524 171.71 149.43 171.912C149.337 172.115 149.169 172.273 148.962 172.353C148.564 172.492 148.149 172.622 147.721 172.746H147.719C145.364 173.424 142.838 173.88 139.579 174.083C139.773 174.086 139.378 174.112 139.377 174.112C139.266 174.119 139.126 174.135 139.015 174.141C137.732 174.214 136.348 174.229 134.932 174.229C133.384 174.229 131.86 174.2 130.156 174.112L130.112 174.141C136.026 180.842 145.274 184.861 156.866 184.861C181.399 184.861 202.207 173.898 211.422 149.287C217.959 149.963 224.242 148.282 227.1 142.658C222.548 140.01 216.694 140.854 213.323 142.562" fill="#22A0C8"/>
<path fill-rule="evenodd" clip-rule="evenodd" d="M213.323 142.563C214.066 136.744 209.747 132.174 207.068 130.004C203.981 133.602 203.502 143.031 208.344 147C205.642 149.42 199.947 151.614 194.115 151.614H127.336C127.047 161.011 130.506 168.145 136.626 172.457H136.628C141.465 172.35 145.413 171.773 148.404 170.729C148.616 170.662 148.844 170.681 149.042 170.782C149.24 170.883 149.391 171.057 149.463 171.268C149.536 171.479 149.524 171.71 149.431 171.912C149.337 172.115 149.169 172.273 148.963 172.353C148.564 172.492 148.15 172.622 147.722 172.746H147.72C145.365 173.424 142.622 173.938 139.363 174.141C139.362 174.141 139.284 174.065 139.283 174.065C147.632 178.383 159.738 178.367 173.618 172.993C189.181 166.965 203.663 155.483 213.768 142.35C213.615 142.419 213.467 142.49 213.323 142.563" fill="#37B1D9"/>
<path fill-rule="evenodd" clip-rule="evenodd" d="M123.266 159.069C123.706 162.356 124.661 165.434 126.075 168.237L126.882 169.727C127.394 170.601 127.952 171.446 128.556 172.258C131.475 172.447 134.166 172.512 136.628 172.457C141.465 172.35 145.412 171.773 148.404 170.729C148.615 170.662 148.844 170.681 149.042 170.782C149.239 170.883 149.39 171.057 149.463 171.268C149.536 171.479 149.524 171.71 149.43 171.912C149.337 172.115 149.169 172.273 148.962 172.353C148.564 172.492 148.149 172.622 147.721 172.746H147.72C145.364 173.424 142.636 173.909 139.377 174.112C139.265 174.119 139.07 174.121 138.957 174.127C137.675 174.199 136.305 174.244 134.889 174.244C133.342 174.244 131.759 174.214 130.055 174.126C135.969 180.828 145.274 184.861 156.866 184.861C177.869 184.861 196.141 176.825 206.747 159.069H123.266Z" fill="#1B81A5"/>
<path fill-rule="evenodd" clip-rule="evenodd" d="M127.975 159.069C129.23 164.841 132.247 169.372 136.627 172.457C141.465 172.35 145.412 171.773 148.404 170.729C148.615 170.662 148.844 170.681 149.042 170.782C149.239 170.883 149.39 171.057 149.463 171.268C149.535 171.479 149.524 171.71 149.43 171.912C149.337 172.115 149.169 172.273 148.962 172.353C148.564 172.492 148.149 172.622 147.721 172.746H147.72C145.364 173.424 142.578 173.909 139.319 174.112C147.667 178.429 159.738 178.367 173.617 172.993C182.013 169.741 190.094 164.9 197.344 159.069H127.975Z" fill="#1D91B4"/>
<path fill-rule="evenodd" clip-rule="evenodd" d="M132.767 140.201H142.366V149.877H132.767V140.201ZM133.566 141.007H134.324V149.071H133.566V141.007ZM134.99 141.007H135.778V149.071H134.991V141.007H134.99ZM136.444 141.007H137.233V149.071H136.444V141.007ZM137.9 141.007H138.687V149.071H137.9V141.007ZM139.354 141.007H140.142V149.071H139.354V141.007ZM140.808 141.007H141.566V149.071H140.808V141.007ZM143.842 129.036H153.442V138.712H143.842V129.036H143.842ZM144.643 129.842H145.4V137.906H144.643V129.842ZM146.067 129.842H146.854V137.906H146.067V129.842H146.067ZM147.521 129.842H148.308V137.906H147.521V129.842ZM148.975 129.842H149.763V137.906H148.975V129.842ZM150.43 129.842H151.218V137.906H150.43V129.842ZM151.884 129.842H152.642V137.906H151.884V129.842Z" fill="#23A3C2"/>
<path fill-rule="evenodd" clip-rule="evenodd" d="M143.842 140.201H153.442V149.877H143.842V140.201H143.842ZM144.642 141.007H145.4V149.071H144.642V141.007ZM146.067 141.007H146.854V149.071H146.067V141.007H146.067ZM147.521 141.007H148.308V149.071H147.521V141.007ZM148.975 141.007H149.763V149.071H148.975V141.007ZM150.43 141.007H151.218V149.071H150.43V141.007ZM151.884 141.007H152.642V149.071H151.884V141.007Z" fill="#34BBDE"/>
<path fill-rule="evenodd" clip-rule="evenodd" d="M154.919 140.201H164.518V149.877H154.919V140.201ZM155.719 141.007H156.476V149.071H155.719V141.007ZM157.143 141.007H157.93V149.071H157.143V141.007ZM158.597 141.007H159.385V149.071H158.597V141.007ZM160.052 141.007H160.839V149.071H160.052V141.007ZM161.506 141.007H162.295V149.071H161.506V141.007ZM162.961 141.007H163.718V149.071H162.961V141.007V141.007Z" fill="#23A3C2"/>
<path fill-rule="evenodd" clip-rule="evenodd" d="M154.919 129.036H164.518V138.712H154.919V129.036ZM155.719 129.842H156.476V137.906H155.719V129.842ZM157.143 129.842H157.93V137.906H157.143V129.842ZM158.597 129.842H159.385V137.906H158.597V129.842ZM160.052 129.842H160.839V137.906H160.052V129.842ZM161.506 129.842H162.295V137.906H161.506V129.842ZM162.961 129.842H163.718V137.906H162.961V129.842V129.842ZM165.995 140.201H175.594V149.877H165.995V140.201ZM166.795 141.007H167.552V149.071H166.795V141.007ZM168.219 141.007H169.007V149.071H168.219V141.007ZM169.673 141.007H170.461V149.071H169.673V141.007ZM171.128 141.007H171.916V149.071H171.128V141.007ZM172.582 141.007H173.37V149.071H172.582V141.007ZM174.037 141.007H174.794V149.071H174.037V141.007Z" fill="#34BBDE"/>
<path fill-rule="evenodd" clip-rule="evenodd" d="M165.994 129.036H175.593V138.712H165.994V129.036ZM166.794 129.842H167.551V137.906H166.794V129.842ZM168.218 129.842H169.006V137.906H168.218V129.842ZM169.672 129.842H170.46V137.906H169.672V129.842ZM171.127 129.842H171.915V137.906H171.127V129.842ZM172.582 129.842H173.37V137.906H172.582V129.842ZM174.036 129.842H174.794V137.906H174.036V129.842Z" fill="#23A3C2"/>
<path fill-rule="evenodd" clip-rule="evenodd" d="M165.994 117.87H175.593V127.548H165.994V117.87ZM166.794 118.676H167.551V126.741H166.794V118.676V118.676ZM168.218 118.676H169.006V126.741H168.218V118.676V118.676ZM169.672 118.676H170.46V126.741H169.672V118.676V118.676ZM171.127 118.676H171.915V126.741H171.127V118.676V118.676ZM172.582 118.676H173.37V126.741H172.582V118.676V118.676ZM174.036 118.676H174.794V126.741H174.036V118.676V118.676Z" fill="#34BBDE"/>
<path fill-rule="evenodd" clip-rule="evenodd" d="M177.07 140.201H186.67V149.877H177.07V140.201ZM177.87 141.007H178.628V149.071H177.87V141.007H177.87ZM179.294 141.007H180.082V149.071H179.294V141.007H179.294ZM180.749 141.007H181.537V149.071H180.749V141.007ZM182.203 141.007H182.991V149.071H182.203V141.007ZM183.658 141.007H184.445V149.071H183.658V141.007ZM185.112 141.007H185.869V149.071H185.112V141.007Z" fill="#23A3C2"/>
<path fill-rule="evenodd" clip-rule="evenodd" d="M152.841 165.566C153.192 165.562 153.54 165.627 153.865 165.759C154.191 165.891 154.487 166.087 154.737 166.336C154.986 166.584 155.185 166.88 155.32 167.206C155.455 167.533 155.525 167.883 155.525 168.237C155.525 168.59 155.455 168.94 155.319 169.267C155.184 169.593 154.986 169.889 154.736 170.137C154.486 170.385 154.19 170.581 153.864 170.713C153.539 170.845 153.191 170.911 152.84 170.906C152.144 170.896 151.479 170.611 150.99 170.111C150.501 169.611 150.227 168.937 150.228 168.236C150.228 167.534 150.502 166.86 150.991 166.361C151.48 165.861 152.145 165.576 152.841 165.566Z" fill="#D3ECEC"/>
<path fill-rule="evenodd" clip-rule="evenodd" d="M152.841 166.324C153.083 166.324 153.314 166.37 153.527 166.453C153.38 166.539 153.265 166.672 153.201 166.83C153.136 166.989 153.124 167.164 153.168 167.33C153.212 167.495 153.309 167.642 153.444 167.746C153.579 167.851 153.744 167.908 153.914 167.908C154.207 167.908 154.461 167.745 154.593 167.502C154.749 167.881 154.78 168.301 154.681 168.699C154.583 169.096 154.36 169.452 154.046 169.712C153.731 169.973 153.342 170.124 152.936 170.145C152.529 170.165 152.127 170.053 151.789 169.825C151.45 169.598 151.194 169.266 151.056 168.88C150.919 168.494 150.909 168.074 151.027 167.681C151.145 167.289 151.385 166.945 151.711 166.7C152.038 166.456 152.434 166.324 152.841 166.324V166.324ZM106 160.034H229.19C226.508 159.349 220.703 158.422 221.661 154.878C216.783 160.567 205.021 158.87 202.052 156.064C198.747 160.897 179.502 159.06 178.16 155.295C174.016 160.198 161.175 160.198 157.03 155.295C155.687 159.06 136.443 160.897 133.138 156.064C130.169 158.87 118.408 160.567 113.53 154.878C114.487 158.422 108.683 159.349 106 160.035" fill="#364548"/>
<path fill-rule="evenodd" clip-rule="evenodd" d="M159.881 184.804C153.322 181.666 149.723 177.401 147.72 172.746C145.283 173.447 142.355 173.895 138.953 174.087C137.671 174.16 136.323 174.197 134.908 174.197C133.277 174.197 131.558 174.148 129.753 174.052C135.767 180.111 143.166 184.776 156.866 184.861C157.878 184.861 158.881 184.842 159.881 184.804" fill="#BDD9D7"/>
<path fill-rule="evenodd" clip-rule="evenodd" d="M150.155 177.042C149.248 175.8 148.368 174.24 147.721 172.745C145.284 173.447 142.355 173.895 138.952 174.088C141.29 175.367 144.632 176.552 150.156 177.042" fill="#D3ECEC"/>
</svg>
