<svg width="336" height="336" viewBox="0 0 336 336" fill="none" xmlns="http://www.w3.org/2000/svg">
<path class="swap-color" d="M104.819 199.072C104.313 199.063 103.81 199.161 103.343 199.361C102.877 199.56 102.457 199.856 102.111 200.23C101.369 201.004 101 201.935 101 203.036C101 204.108 101.367 205.039 102.111 205.823C102.854 206.608 103.756 206.999 104.819 206.999C105.338 207.008 105.854 206.908 106.332 206.706C106.811 206.503 107.243 206.203 107.601 205.823C108.368 205.04 108.76 204.111 108.76 203.036C108.76 201.961 108.379 201.029 107.601 200.245C107.244 199.865 106.812 199.565 106.333 199.363C105.854 199.161 105.338 199.062 104.819 199.072ZM200.337 161.222H214.72V206.19H220.56V161.222H234.917V155.891H200.346V161.222H200.337ZM174.264 183.285H192.266V177.954H174.265V161.222H193.694V155.891H168.442V206.19H194.857V200.859H174.289V183.284L174.264 183.285ZM151.584 191.319L151.935 198.712H151.8C151.452 198.03 150.776 196.917 149.772 195.35L124.819 155.883H117.262V206.181H123.104V169.86L122.826 162.954H123.038C123.478 164.099 123.997 165.148 124.598 166.111L150.32 206.202H157.408V155.904H151.614V191.33L151.584 191.319ZM220.605 145.834C220.605 148.527 221.788 149.875 224.159 149.875C225.003 149.875 225.684 149.729 226.2 149.431V147.56C225.802 147.856 225.335 148.004 224.795 148.004C224.071 148.004 223.556 147.809 223.242 147.417C222.931 147.027 222.781 146.378 222.781 145.468V137.74H226.199V135.882H222.781V131.828L220.604 132.539V135.882H218.273V137.74H220.604V145.844L220.605 145.834ZM211.721 149.571H213.894V137.731H217.075V135.872H213.894V133.761C213.894 131.826 214.649 130.857 216.171 130.857C216.675 130.85 217.172 130.974 217.614 131.218V129.238C217.234 129.082 216.71 129 216.04 129C214.881 129 213.916 129.367 213.108 130.111C212.177 130.964 211.721 132.157 211.721 133.652V135.874H209.403V137.733H211.721V149.571ZM196.906 142.798C196.906 141.05 197.331 139.703 198.185 138.748C199 137.856 200.084 137.41 201.435 137.41C202.802 137.41 203.87 137.85 204.629 138.733C205.415 139.653 205.807 140.99 205.807 142.746C205.807 144.423 205.44 145.713 204.706 146.627C203.957 147.562 202.867 148.03 201.436 148.03C200.057 148.03 198.958 147.568 198.129 146.644C197.313 145.724 196.906 144.437 196.906 142.798ZM206.206 147.921C207.423 146.605 208.041 144.851 208.041 142.659C208.041 140.44 207.466 138.692 206.334 137.426C205.195 136.165 203.619 135.529 201.603 135.529C199.542 135.529 197.896 136.138 196.672 137.347C195.349 138.652 194.683 140.49 194.683 142.872C194.683 144.961 195.268 146.641 196.433 147.913C197.624 149.233 199.234 149.891 201.286 149.891C203.352 149.891 204.997 149.231 206.215 147.913L206.206 147.921ZM191.29 148.689C191.691 148.347 192.011 147.919 192.227 147.436C192.443 146.954 192.55 146.428 192.539 145.899C192.539 144.88 192.205 144.041 191.54 143.385C191.032 142.863 190.196 142.356 189.035 141.868C188.005 141.425 187.319 141.043 187.008 140.728C186.646 140.392 186.463 139.919 186.463 139.315C186.458 139.05 186.514 138.786 186.627 138.547C186.741 138.307 186.908 138.097 187.116 137.934C187.546 137.581 188.125 137.403 188.854 137.403C190.017 137.403 191.04 137.727 191.944 138.38V136.17C191.088 135.742 190.123 135.529 189.042 135.529C187.635 135.529 186.488 135.904 185.595 136.664C184.702 137.423 184.256 138.364 184.256 139.49C184.256 140.506 184.546 141.341 185.12 141.965C185.596 142.501 186.406 143.014 187.534 143.518C188.637 144.007 189.381 144.424 189.761 144.785C190.14 145.146 190.333 145.565 190.333 146.108C190.333 147.383 189.472 148.023 187.75 148.023C186.461 148.023 185.288 147.585 184.221 146.712V149.07C185.186 149.622 186.303 149.894 187.601 149.894C189.167 149.894 190.414 149.505 191.323 148.691L191.29 148.689ZM171.95 138.751C172.761 137.859 173.843 137.413 175.195 137.413C176.566 137.413 177.628 137.853 178.381 138.736C179.154 139.656 179.559 140.993 179.559 142.749C179.559 144.425 179.192 145.716 178.459 146.63C177.709 147.565 176.624 148.033 175.188 148.033C173.807 148.033 172.706 147.571 171.889 146.647C171.066 145.727 170.658 144.441 170.658 142.802C170.658 141.054 171.087 139.707 171.942 138.752L171.95 138.751ZM175.027 149.904C177.093 149.904 178.737 149.243 179.952 147.926C181.166 146.608 181.786 144.856 181.786 142.664C181.786 140.445 181.207 138.697 180.087 137.43C178.947 136.169 177.366 135.534 175.341 135.534C173.285 135.534 171.643 136.143 170.417 137.351C169.089 138.657 168.427 140.495 168.427 142.877C168.427 144.966 169.012 146.646 170.166 147.918C171.356 149.238 172.966 149.896 175.016 149.896L175.027 149.904ZM164.038 136.366C163.378 136.912 162.887 137.679 162.567 138.682H162.513V135.856H160.342V149.557H162.513V142.57C162.513 140.982 162.851 139.739 163.536 138.838C164.138 138.037 164.888 137.637 165.761 137.637C166.487 137.637 167.038 137.78 167.422 138.076V135.801C167.128 135.678 166.698 135.606 166.12 135.606C165.352 135.606 164.656 135.856 164.04 136.355L164.038 136.366ZM153.335 149.874C154.77 149.874 156.012 149.554 157.053 148.899V146.814C156.01 147.599 154.901 147.983 153.712 147.983C152.307 147.983 151.201 147.52 150.355 146.593C149.509 145.665 149.1 144.402 149.1 142.807C149.1 141.148 149.561 139.818 150.467 138.824C151.339 137.851 152.463 137.364 153.847 137.364C155.006 137.364 156.07 137.719 157.082 138.436V136.195C156.169 135.735 155.121 135.499 153.941 135.499C151.785 135.499 150.079 136.181 148.794 137.572C147.514 138.954 146.877 140.768 146.877 143.012C146.877 145.012 147.462 146.647 148.615 147.909C149.812 149.211 151.377 149.862 153.324 149.862L153.335 149.874ZM141.328 149.533H143.496V135.831H141.328V149.533ZM142.438 132.356C142.836 132.356 143.176 132.217 143.452 131.939C143.729 131.661 143.871 131.325 143.871 130.923C143.874 130.735 143.838 130.548 143.766 130.374C143.694 130.201 143.587 130.044 143.452 129.914C143.319 129.781 143.161 129.676 142.987 129.606C142.813 129.536 142.627 129.502 142.439 129.507C142.053 129.507 141.715 129.64 141.437 129.914C141.303 130.044 141.196 130.201 141.125 130.375C141.054 130.548 141.02 130.735 141.024 130.923C141.024 131.345 141.163 131.686 141.437 131.954C141.711 132.222 142.05 132.356 142.438 132.356ZM119.395 136.676L119.292 132.934H119.34C119.533 133.835 119.726 134.493 119.906 134.903L126.403 149.536H127.49L133.973 134.795C134.141 134.41 134.334 133.792 134.541 132.944H134.593L134.408 136.662V149.545H136.629V130.361H133.829L127.873 143.683C127.642 144.199 127.342 144.985 126.962 146.034H126.869C126.732 145.512 126.447 144.746 126.006 143.738L120.173 130.36H117.231V149.544H119.38V136.686L119.395 136.676ZM229.081 134.312C229.689 133.694 230.452 133.386 231.369 133.386C231.788 133.378 232.204 133.455 232.593 133.612C232.981 133.77 233.334 134.005 233.631 134.304C234.246 134.918 234.555 135.688 234.555 136.604C234.555 137.52 234.246 138.298 233.624 138.909C233.004 139.532 232.249 139.84 231.368 139.84C230.48 139.84 229.724 139.536 229.109 138.92C228.486 138.305 228.17 137.527 228.17 136.604C228.17 135.698 228.473 134.932 229.078 134.311L229.081 134.312ZM231.35 140.21C232.377 140.21 233.238 139.859 233.938 139.165C234.638 138.471 235 137.611 235 136.583C235 135.538 234.649 134.673 233.942 133.99C233.254 133.324 232.404 132.987 231.388 132.987C230.355 132.987 229.491 133.338 228.796 134.039C228.457 134.374 228.19 134.776 228.01 135.219C227.831 135.662 227.744 136.138 227.754 136.617C227.754 137.657 228.092 138.514 228.777 139.196C229.46 139.872 230.322 140.213 231.359 140.213L231.35 140.21ZM230.6 134.794H231.173C231.559 134.794 231.853 134.863 232.019 134.989C232.168 135.116 232.241 135.303 232.241 135.57C232.241 136.101 231.926 136.366 231.29 136.366H230.6V134.785V134.794ZM230.6 136.931H231.023C231.321 136.931 231.603 137.207 231.844 137.769L232.346 138.88H233.119L232.515 137.644C232.264 137.133 232.008 136.848 231.743 136.786V136.767C232.11 136.689 232.399 136.537 232.612 136.311C232.824 136.085 232.921 135.819 232.921 135.498C232.926 135.333 232.895 135.169 232.83 135.017C232.765 134.865 232.667 134.73 232.544 134.621C232.247 134.358 231.815 134.231 231.238 134.231H229.944V138.875H230.591V136.926L230.6 136.931Z" fill="#20101E"/>
</svg>
