<svg width="336" height="336" viewBox="0 0 336 336" fill="none" xmlns="http://www.w3.org/2000/svg">
<path class="swap-color" d="M200.002 157.364C201.302 158.988 202.601 161.261 202.601 164.509C202.601 172.384 196.428 176.931 187.575 176.931C185.301 176.931 183.27 176.687 181.971 176.281L179.615 180.016L186.519 180.422C198.784 181.234 205.931 181.558 205.931 190.976C205.931 199.095 198.784 203.723 186.519 203.723C173.686 203.723 168.812 200.475 168.812 194.873C168.812 191.707 170.193 190.002 172.711 187.648C170.356 186.673 169.625 184.887 169.625 183.02C169.625 181.477 170.437 180.016 171.655 178.717C172.955 177.337 174.336 176.038 176.041 174.495C172.549 172.79 169.95 169.137 169.95 163.859C169.95 155.741 175.31 150.139 186.113 150.139C189.118 150.139 190.986 150.382 192.611 150.869H206.419V156.877L200.002 157.364ZM179.047 189.515C178.153 190.652 177.178 191.869 177.178 193.25C177.178 196.091 180.752 196.903 185.707 196.903C189.768 196.903 195.372 196.578 195.372 192.844C195.372 190.57 192.692 190.408 189.281 190.246L179.047 189.515ZM186.844 157.121C182.945 157.121 180.021 159.069 180.021 163.616C180.021 167.107 181.971 169.461 186.6 169.461C190.58 169.461 193.261 167.107 193.261 163.454C193.261 159.313 190.824 157.121 186.844 157.121Z" fill="#3E3200"/>
<path class="swap-color" d="M209.748 186.917V181.396L213.322 180.909C214.297 180.747 214.459 180.584 214.459 179.529V158.663C214.459 157.852 214.215 157.364 213.566 157.202L209.748 155.822L210.56 150.139H225.18V179.448C225.18 180.584 225.262 180.747 226.317 180.828L229.891 181.315V186.917H209.748ZM218.926 144.455C214.865 144.455 212.591 142.101 212.591 138.123C212.591 134.063 214.946 131.871 218.926 131.871C222.987 131.871 225.343 134.063 225.343 138.123C225.343 142.182 222.987 144.455 218.926 144.455Z" fill="#3E3200"/>
<path class="swap-color" d="M257.914 184.237C254.909 185.699 250.441 187.079 246.38 187.079C237.933 187.079 234.765 183.669 234.765 175.713V157.121C234.765 156.715 234.765 156.39 234.197 156.39H229.242V150.138C235.496 149.408 237.933 146.323 238.745 138.61H245.487V148.677C245.487 149.164 245.487 149.408 246.055 149.408H256.046V156.471H245.487V173.358C245.487 177.499 246.461 179.123 250.279 179.123C252.228 179.123 254.34 178.635 255.964 177.986L257.914 184.237Z" fill="#3E3200"/>
<path d="M153.136 165.646L120.81 133.333C118.942 131.466 115.936 131.466 114.068 133.333L107.327 140.071L115.855 148.596C117.804 147.947 120.079 148.353 121.703 149.976C123.328 151.6 123.734 153.873 123.084 155.822L131.287 164.022C133.237 163.372 135.592 163.778 137.135 165.402C139.328 167.594 139.328 171.167 137.135 173.44C134.942 175.632 131.369 175.632 129.094 173.44C127.389 171.735 126.983 169.299 127.876 167.27L120.241 159.638V179.772C120.81 180.016 121.297 180.422 121.703 180.828C123.896 183.02 123.896 186.592 121.703 188.866C119.51 191.058 115.855 191.058 113.662 188.866C111.469 186.673 111.469 183.02 113.662 180.828C114.231 180.26 114.88 179.854 115.53 179.61V159.313C114.88 159.07 114.231 158.664 113.662 158.095C111.956 156.39 111.55 153.955 112.444 151.925L104.078 143.4L81.904 165.565C80.0359 167.432 80.0359 170.436 81.904 172.303L114.231 204.616C116.099 206.483 119.104 206.483 120.972 204.616L153.136 172.466C155.004 170.517 155.004 167.513 153.136 165.646Z" fill="#E84427"/>
</svg>
