<svg width="336" height="336" viewBox="0 0 336 336" fill="none" xmlns="http://www.w3.org/2000/svg">
<path d="M187.805 146.479L198.237 136.108L198.932 131.742C179.923 114.558 149.707 116.507 132.572 135.807C127.813 141.168 124.281 147.851 122.398 154.752L126.134 154.229L146.996 150.809L148.607 149.171C157.887 139.039 173.577 137.676 184.292 146.297L187.805 146.479Z" fill="#EA4335"/>
<path d="M213.096 154.447C210.698 145.669 205.776 137.778 198.932 131.742L184.292 146.297C190.474 151.318 193.995 158.884 193.844 166.819V169.402C201.04 169.402 206.874 175.202 206.874 182.356C206.874 189.51 201.04 195.164 193.844 195.164H167.749L165.186 197.93V213.467L167.749 215.905H193.844C212.562 216.05 227.853 201.228 227.999 182.62C228.087 171.341 222.493 160.767 213.096 154.447Z" fill="#4285F4"/>
<path d="M141.689 215.905H167.748V195.164H141.689C139.833 195.164 138.034 194.767 136.346 194L132.649 195.128L122.145 205.498L121.23 209.028C127.121 213.45 134.308 215.936 141.689 215.905Z" fill="#34A853"/>
<path d="M141.689 148.625C122.972 148.736 107.889 163.912 108.001 182.52C108.063 192.911 112.945 202.693 121.23 209.028L136.346 194C129.788 191.054 126.873 183.381 129.836 176.862C132.799 170.342 140.517 167.445 147.075 170.39C149.965 171.688 152.279 173.989 153.584 176.862L168.701 161.834C162.269 153.475 152.275 148.588 141.689 148.625Z" fill="#FBBC05"/>
</svg>
