<svg width="336" height="336" viewBox="0 0 336 336" fill="none" xmlns="http://www.w3.org/2000/svg">
<path class="swap-color" d="M155.942 136.005C151.205 136.068 147.126 136.998 143.119 138.999C132.886 144.108 126.977 154.866 126.977 168.422C126.977 182.009 132.79 192.448 143.058 197.332C145.832 198.651 148.613 199.369 152.834 199.872C154.971 199.958 156.969 200.11 159.05 199.872C163.271 199.369 166.052 198.651 168.826 197.332C179.095 192.448 184.908 182.01 184.908 168.422C184.908 154.866 178.998 144.108 168.766 138.999C164.758 136.998 160.68 136.068 155.942 136.005ZM160.016 145.561C166.16 147.202 170.618 152.758 172.326 160.863C173.527 166.554 173.199 173.131 171.481 178.311C168.806 186.378 162.999 190.934 155.942 190.861C148.885 190.934 143.078 186.378 140.404 178.311C138.688 173.131 138.359 166.554 139.559 160.863C141.267 152.758 145.725 147.202 151.869 145.561C154.655 144.97 157.431 145.076 160.016 145.561ZM115.142 136.005C113.928 136.005 112.74 136.366 111.73 137.042C110.72 137.719 109.932 138.68 109.468 139.805C109.003 140.93 108.881 142.168 109.118 143.362C109.355 144.556 109.94 145.653 110.799 146.514C111.658 147.375 112.753 147.961 113.944 148.199C115.136 148.437 116.371 148.315 117.493 147.849C118.615 147.383 119.575 146.594 120.25 145.581C120.925 144.569 121.285 143.379 121.285 142.161C121.285 140.528 120.638 138.963 119.486 137.808C118.334 136.654 116.772 136.005 115.142 136.005ZM109.403 154.788V200H120.882V154.788H109.403ZM201.598 199.905C196.68 199.061 191.95 198.407 187.935 196.122C187.881 196.074 190.305 186.997 190.414 186.835C196.868 189.031 205.953 192.111 212.078 189.289C215.417 187.615 217.062 184.52 216.509 180.948C215.887 176.933 213.113 174.619 205.499 171.765C197.004 168.584 192.028 164.672 189.99 159.586C188.989 157.085 188.658 153.902 189.107 151.121C190.36 143.386 196.372 138.005 205.599 136.36C208.272 135.884 213.989 135.879 216.801 136.351C220.854 137.03 225.503 138.567 225.503 139.227C225.503 139.47 223.128 147.863 223.006 148.049C218.998 146.458 214.503 145.321 210.7 145.297C205.319 145.229 199.484 148.431 200.514 154.086C201.242 157.63 203.499 159.36 211.804 162.742C217.922 165.236 220.857 166.956 223.373 169.515C226.869 173.014 227.974 177.119 228 181.188C228.009 184.577 227.693 186.159 226.487 188.775C223.556 195.131 217.595 198.815 208.604 199.829C206.922 200.017 202.96 200.06 201.602 199.905H201.598Z" fill="#20101E"/>
</svg>
