<svg width="336" height="336" viewBox="0 0 336 336" fill="none" xmlns="http://www.w3.org/2000/svg">
<path d="M178.123 104.319C178.123 104.319 189.472 116.162 167.321 134.013C149.566 148.484 163.27 156.754 167.321 166.15C156.887 156.566 149.382 148.11 154.506 140.214C162.014 128.562 182.696 122.925 178.12 104.319H178.123ZM172.264 158.256C177.572 164.459 170.799 170.099 170.799 170.099C170.799 170.099 184.346 162.954 178.12 154.121C172.448 145.665 168.053 141.53 191.848 127.434C191.848 127.434 154.32 137.018 172.262 158.254L172.264 158.256Z" fill="#F58219"/>
<path class="swap-color" d="M152.862 191.332C152.862 191.332 148.651 193.962 155.794 194.716C164.374 195.842 168.973 195.656 178.492 193.776C178.492 193.776 181.054 195.465 184.534 196.786C163.115 206.182 136.024 196.223 152.864 191.337L152.862 191.332ZM150.116 179.118C150.116 179.118 145.54 182.69 152.679 183.441C162.014 184.381 169.362 184.567 181.97 181.939C181.97 181.939 183.614 183.818 186.362 184.758C160.551 192.651 131.627 185.509 150.116 179.12V179.118ZM200.643 200.542C200.643 200.542 203.756 203.172 197.163 205.24C184.899 208.998 145.724 210.126 134.739 205.24C130.895 203.551 138.219 201.08 140.597 200.73C142.981 200.168 144.258 200.168 144.258 200.168C140.049 197.158 116.249 206.37 132.175 208.976C175.926 216.304 211.988 205.781 200.638 200.52L200.643 200.542ZM154.874 166.338C154.874 166.338 134.92 171.224 147.733 172.915C153.224 173.666 164.026 173.478 174.093 172.727C182.33 171.975 190.569 170.471 190.569 170.471C190.569 170.471 187.637 171.787 185.626 173.101C165.305 178.55 126.314 176.111 137.482 170.471C147.001 165.773 154.874 166.311 154.874 166.311V166.338ZM190.571 186.823C211.073 175.922 201.554 165.398 194.964 166.715C193.319 167.092 192.58 167.466 192.58 167.466C192.58 167.466 193.128 166.34 194.411 165.964C207.407 161.266 217.66 180.057 190.199 187.388C190.199 187.388 190.383 187.199 190.566 186.825L190.571 186.823ZM156.89 216.515C176.66 217.831 206.868 215.764 207.598 206.179C207.598 206.179 206.134 209.938 191.305 212.756C174.465 215.952 153.596 215.575 141.327 213.508C141.327 213.508 143.889 215.764 156.89 216.517V216.515Z" fill="#3977A3"/>
</svg>
