<svg width="336" height="336" viewBox="0 0 336 336" fill="none" xmlns="http://www.w3.org/2000/svg">
<path fill-rule="evenodd" clip-rule="evenodd" d="M214.601 153.024C214.601 180.17 193.086 202.176 166.547 202.176C140.008 202.176 118.493 180.17 118.493 153.024C118.493 125.877 140.008 103.871 166.547 103.871C193.086 103.871 214.601 125.877 214.601 153.024Z" fill="#D33833"/>
<path d="M120.451 165.197C120.451 165.197 116.972 113.94 164.203 112.475L160.908 106.983L135.279 115.587L127.956 124.008L121.549 136.274L117.888 150.553L118.986 160.072" fill="#EF3D3A"/>
<path d="M133.634 119.493C125.203 128.12 119.986 140.031 119.986 153.208C119.986 166.381 125.203 178.294 133.634 186.919C142.069 195.544 153.694 200.866 166.546 200.866C179.398 200.866 191.024 195.544 199.459 186.919C207.889 178.294 213.108 166.381 213.108 153.208C213.108 140.031 207.889 128.12 199.459 119.493C191.024 110.87 179.398 105.548 166.546 105.547C153.694 105.548 142.069 110.87 133.634 119.493ZM131.5 189.005C122.54 179.842 117 167.177 117 153.208C117 139.236 122.54 126.572 131.5 117.408C140.458 108.242 152.859 102.561 166.546 102.562C180.234 102.561 192.636 108.242 201.592 117.408C210.553 126.572 216.094 139.237 216.093 153.208C216.094 167.177 210.553 179.842 201.592 189.005C192.636 198.171 180.234 203.852 166.546 203.852C152.859 203.852 140.458 198.171 131.5 189.005" fill="#231F20"/>
<path fill-rule="evenodd" clip-rule="evenodd" d="M186.775 153.296L179.452 154.395L169.567 155.493L163.159 155.676L156.935 155.493L152.175 154.028L147.965 149.452L144.67 140.116L143.937 138.102L139.544 136.638L136.981 132.427L135.15 126.386L137.164 121.077L141.924 119.429L145.768 121.26L147.599 125.287L149.796 124.921L150.528 124.006L149.796 119.796L149.612 114.487L150.711 107.164L150.668 102.982L154.006 97.6451L159.864 93.4344L170.116 89.0409L181.465 90.6885L191.351 97.8279L195.928 105.15L198.857 110.459L199.589 123.64L197.392 134.99L193.365 145.058L189.52 150.367" fill="#F0D6B7"/>
<path fill-rule="evenodd" clip-rule="evenodd" d="M180.551 184.966L154.372 186.065V190.458L156.569 205.835L155.471 207.117L137.165 200.893L135.883 198.696L134.052 178.01L129.842 165.562L128.927 162.633L143.571 152.564L148.148 150.733L152.176 155.676L155.654 158.788L159.681 160.07L161.512 160.619L163.708 170.138L165.356 172.152L169.567 170.687L166.637 176.363L182.564 183.868L180.551 184.966" fill="#335061"/>
<path fill-rule="evenodd" clip-rule="evenodd" d="M137.164 121.077L141.924 119.43L145.768 121.261L147.599 125.288L149.796 124.922L150.345 122.725L149.246 118.515L150.345 108.446L149.429 102.954L152.724 99.1099L159.864 93.4351L157.85 90.6891L147.782 95.6318L143.571 98.927L141.191 104.053L137.53 108.995L136.432 114.853L137.164 121.077Z" fill="#6D6B6D"/>
<path fill-rule="evenodd" clip-rule="evenodd" d="M144.67 103.869C144.67 103.869 147.416 97.0959 158.4 93.8007C169.384 90.5056 158.949 91.4206 158.949 91.4206L147.05 95.9975L142.473 100.574L140.46 104.235L144.67 103.869Z" fill="#DCD9D8"/>
<path fill-rule="evenodd" clip-rule="evenodd" d="M139.178 119.796C139.178 119.796 135.333 106.981 149.978 105.151L149.429 102.954L139.361 105.334L136.432 114.853L137.164 121.077L139.178 119.796Z" fill="#DCD9D8"/>
<path fill-rule="evenodd" clip-rule="evenodd" d="M145.036 136.821L147.433 134.498C147.433 134.498 148.515 134.624 148.698 135.905C148.88 137.187 149.43 148.72 157.301 154.945C158.019 155.513 151.444 154.029 151.444 154.029L145.585 144.876" fill="#F7E4CD"/>
<path fill-rule="evenodd" clip-rule="evenodd" d="M178.721 133.344C178.721 133.344 179.148 127.795 180.642 128.221C182.136 128.648 182.136 130.143 182.136 130.143C182.136 130.143 178.507 132.49 178.721 133.344" fill="#F7E4CD"/>
<path d="M193.914 113.024C193.914 113.024 190.897 113.661 190.619 116.319C190.341 118.977 193.914 116.868 194.463 116.685" fill="#F7E4CD"/>
<path d="M171.763 113.206C171.763 113.206 167.735 113.755 167.735 116.318C167.735 118.881 172.312 118.698 173.594 117.599" fill="#F7E4CD"/>
<path fill-rule="evenodd" clip-rule="evenodd" d="M146.867 125.105C146.867 125.105 139.91 120.894 139.178 124.922C138.446 128.949 136.798 131.879 140.276 136.089L137.896 135.357L135.7 129.682L134.968 124.19L139.178 119.796L143.938 120.162L146.684 122.359L146.867 125.105Z" fill="#F7E4CD"/>
<path fill-rule="evenodd" clip-rule="evenodd" d="M150.162 113.571C150.162 113.571 153.274 97.4619 169.018 94.3496C181.979 91.7877 188.788 94.8988 191.351 97.8277C191.351 97.8277 179.818 84.0985 168.834 88.3086C157.85 92.5192 149.796 100.208 149.979 105.15C150.29 113.568 150.162 113.571 150.162 113.571Z" fill="#F7E4CD"/>
<path fill-rule="evenodd" clip-rule="evenodd" d="M192.633 99.6591C192.633 99.6591 187.324 99.4762 187.141 104.236C187.141 104.236 187.14 104.968 187.506 105.7C187.506 105.7 191.718 100.94 194.28 103.503" fill="#F7E4CD"/>
<path fill-rule="evenodd" clip-rule="evenodd" d="M169.387 106.196C169.387 106.196 168.473 98.8905 162.244 103.138C158.217 105.884 158.583 109.728 159.315 110.46C160.047 111.193 159.848 112.667 160.406 111.655C160.963 110.643 160.779 107.348 162.793 106.433C164.807 105.518 168.108 104.495 169.387 106.196Z" fill="#F7E4CD"/>
<path fill-rule="evenodd" clip-rule="evenodd" d="M152.176 155.676L134.968 163.364C134.968 163.364 142.107 191.739 138.446 200.526L135.883 199.611L135.7 188.81L130.941 168.307L128.927 162.632L146.867 150.551L152.176 155.676Z" fill="#49728B"/>
<path fill-rule="evenodd" clip-rule="evenodd" d="M153.945 171.37L156.386 174.348V185.332H153.457C153.457 185.332 153.091 177.643 153.091 176.728C153.091 175.812 153.457 172.517 153.457 172.517" fill="#49728B"/>
<path fill-rule="evenodd" clip-rule="evenodd" d="M154.005 186.981L145.768 187.347L148.148 188.995L154.005 189.91" fill="#49728B"/>
<path fill-rule="evenodd" clip-rule="evenodd" d="M182.198 185.15L188.971 184.967L190.619 201.809L183.662 202.724L182.198 185.15" fill="#335061"/>
<path fill-rule="evenodd" clip-rule="evenodd" d="M184.029 185.149L194.281 184.6C194.281 184.6 198.491 173.983 198.491 173.433C198.491 172.884 202.153 158.056 202.153 158.056L193.915 149.453L192.267 147.988L187.874 152.381V169.406L184.029 185.149" fill="#335061"/>
<path fill-rule="evenodd" clip-rule="evenodd" d="M188.605 183.869L182.198 185.15L183.113 190.276C185.493 191.374 189.521 188.445 189.521 188.445" fill="#49728B"/>
<path fill-rule="evenodd" clip-rule="evenodd" d="M188.789 151.831L201.603 161.351L201.97 156.957L192.267 147.987L188.789 151.831Z" fill="#49728B"/>
<path fill-rule="evenodd" clip-rule="evenodd" d="M160.359 221.214L156.569 205.835L154.684 194.487L154.372 186.064L171.526 185.151L182.198 185.149L181.228 204.372L182.875 219.201L182.692 221.947L168.78 223.045L160.359 221.214" fill="white"/>
<path fill-rule="evenodd" clip-rule="evenodd" d="M179.818 184.967C179.818 184.967 178.903 204.005 181.649 217.552C181.649 217.552 176.157 221.03 168.102 221.945L183.479 221.396L185.31 220.298L183.113 190.276L182.564 183.868" fill="#DCD9D8"/>
<path fill-rule="evenodd" clip-rule="evenodd" d="M190.93 200.346L198.07 198.332L211.616 197.6L213.63 191.376L209.968 180.575L205.758 180.026L199.9 181.856L194.28 184.6L191.296 184.053L188.971 184.967" fill="white"/>
<path fill-rule="evenodd" clip-rule="evenodd" d="M190.802 196.682C190.802 196.682 195.561 194.486 196.294 194.669L194.28 184.6L196.66 183.685C196.66 183.685 198.308 193.204 198.308 194.302C198.308 194.302 208.559 194.851 209.474 194.851C209.474 194.851 211.671 190.641 211.122 186.247L213.136 192.105L213.319 195.401L210.39 199.794L207.095 200.526L201.603 200.343L199.772 197.964L193.365 198.879L191.351 199.611" fill="#DCD9D8"/>
<path d="M183.608 183.688L179.581 173.436L175.37 167.395C175.37 167.395 176.285 164.832 177.567 164.832C178.849 164.832 181.778 164.832 181.778 164.832L185.805 166.296L185.439 173.07L183.608 183.688Z" fill="white"/>
<path fill-rule="evenodd" clip-rule="evenodd" d="M184.395 180.207C184.395 180.207 179.269 170.322 179.269 168.858C179.269 168.858 180.184 166.661 181.465 167.21C182.747 167.759 185.493 169.223 185.493 169.223V165.745L179.269 164.463L175.059 165.013L182.198 181.855L183.662 182.038" fill="#DCD9D8"/>
<path d="M162.007 156.045L156.936 155.493L152.176 154.029V155.676L154.501 158.241L161.824 161.536" fill="white"/>
<path fill-rule="evenodd" clip-rule="evenodd" d="M153.824 156.594C153.824 156.594 159.499 158.974 161.329 158.425L161.512 160.619L156.387 159.523L153.274 157.326L153.824 156.594Z" fill="#DCD9D8"/>
<path fill-rule="evenodd" clip-rule="evenodd" d="M190.911 165.454C187.805 165.363 184.998 164.994 182.541 164.301C182.708 163.294 182.396 162.305 182.647 161.58C183.331 161.086 184.479 161.094 185.514 160.978C184.619 160.538 183.362 160.364 182.329 160.619C182.304 159.919 181.991 159.486 181.801 158.939C183.547 158.316 187.67 154.229 189.989 155.582C191.094 156.226 191.564 159.902 191.649 161.69C191.721 163.173 191.515 164.669 190.911 165.454Z" fill="#D33833"/>
<path d="M190.911 165.454C187.805 165.363 184.998 164.994 182.541 164.301C182.708 163.294 182.396 162.305 182.647 161.58C183.331 161.086 184.479 161.094 185.514 160.978C184.619 160.538 183.362 160.364 182.329 160.619C182.304 159.919 181.991 159.486 181.801 158.939C183.547 158.316 187.67 154.229 189.989 155.582C191.094 156.226 191.564 159.902 191.649 161.69C191.721 163.173 191.515 164.669 190.911 165.454Z" stroke="#D33833" stroke-width="2.5"/>
<path fill-rule="evenodd" clip-rule="evenodd" d="M176.057 160.377C176.049 160.612 176.039 160.848 176.03 161.086C175.06 161.723 173.494 161.715 172.43 162.25C173.999 162.319 175.234 162.697 176.303 163.23C176.279 163.822 176.257 164.413 176.234 165.005C174.456 166.222 172.832 168.034 170.739 169.176C169.749 169.715 166.276 171.104 165.223 170.859C164.628 170.721 164.574 169.981 164.336 169.284C163.828 167.792 162.66 165.417 162.558 163.171C162.429 160.334 162.142 155.579 165.2 156.163C167.666 156.634 170.535 157.77 172.445 158.814C173.612 159.452 174.287 160.24 176.057 160.377" fill="#D33833"/>
<path d="M176.057 160.377C176.049 160.612 176.039 160.848 176.03 161.086C175.06 161.723 173.494 161.715 172.43 162.25C173.999 162.319 175.234 162.697 176.303 163.23C176.279 163.822 176.257 164.413 176.234 165.005C174.456 166.222 172.832 168.034 170.739 169.176C169.749 169.715 166.276 171.104 165.223 170.859C164.628 170.721 164.574 169.981 164.336 169.284C163.828 167.792 162.66 165.417 162.558 163.171C162.429 160.334 162.142 155.579 165.2 156.163C167.666 156.634 170.535 157.77 172.445 158.814C173.612 159.452 174.287 160.24 176.057 160.377V160.377Z" stroke="#D33833" stroke-width="2.5"/>
<path fill-rule="evenodd" clip-rule="evenodd" d="M177.822 163.762C177.551 162.217 177.238 161.776 177.359 160.428C181.481 157.68 182.254 165.148 177.822 163.762Z" fill="#D33833"/>
<path d="M177.822 163.762C177.551 162.217 177.238 161.776 177.359 160.428C181.481 157.68 182.254 165.148 177.822 163.762Z" stroke="#D33833" stroke-width="2.5"/>
<path fill-rule="evenodd" clip-rule="evenodd" d="M183.791 165.015C183.791 165.015 182.509 163.184 183.424 162.635C184.34 162.085 185.255 162.635 185.804 161.72C186.354 160.804 185.804 160.255 185.987 159.157C186.17 158.058 187.086 157.875 188.001 157.692C188.916 157.509 191.48 157.143 191.846 158.058L190.747 154.763L188.55 154.031L181.594 158.058L181.228 160.072V164.099" fill="#EF3D3A"/>
<path fill-rule="evenodd" clip-rule="evenodd" d="M164.569 171.055C164.349 168.198 164.117 165.345 163.858 162.491C163.47 158.229 164.881 158.972 168.576 158.972C169.14 158.972 172.05 159.645 172.258 160.071C173.256 162.11 170.588 161.657 173.408 163.195C175.788 164.492 179.993 162.407 179.031 159.522C178.493 158.88 176.227 159.322 175.415 158.901C173.985 158.159 172.554 157.418 171.124 156.676C169.305 155.732 165.099 154.356 163.159 155.675C158.244 159.018 163.469 167.371 165.223 170.858" fill="#EF3D3A"/>
<path fill-rule="evenodd" clip-rule="evenodd" d="M169.387 106.195C164.397 105.033 161.918 108.283 160.406 111.654C159.055 111.327 159.593 109.491 159.934 108.555C160.827 106.099 164.426 102.829 167.367 103.273C168.632 103.463 170.345 104.62 169.387 106.195" fill="#231F20"/>
<path fill-rule="evenodd" clip-rule="evenodd" d="M193.697 111.877C193.776 111.88 193.855 111.883 193.934 111.886C195.061 114.229 196.037 116.71 197.46 118.778C196.507 120.997 190.244 122.961 190.341 118.976C191.695 118.384 194.033 118.855 195.234 118.099C194.54 116.194 193.538 114.572 193.697 111.877" fill="#231F20"/>
<path fill-rule="evenodd" clip-rule="evenodd" d="M171.941 111.938C173.011 113.899 173.359 115.96 174.88 117.442C175.565 118.109 176.897 118.923 176.237 120.779C176.082 121.216 174.955 122.192 174.304 122.384C171.927 123.086 166.387 122.529 168.263 119.565C170.229 119.657 172.872 120.842 174.341 119.414C173.213 117.61 171.201 114.041 171.941 111.938" fill="#231F20"/>
<path fill-rule="evenodd" clip-rule="evenodd" d="M192.805 131.871C189.225 134.17 185.233 136.671 179.368 136.091C178.115 135.001 177.637 132.577 178.855 130.975C179.488 132.065 179.09 134.069 180.856 134.37C184.185 134.94 188.058 132.334 190.452 131.424C191.936 128.921 190.324 128.001 188.987 126.39C186.249 123.09 182.577 118.999 182.71 114.059C183.817 113.257 183.912 115.284 184.071 115.653C185.5 118.998 189.098 123.277 191.724 126.141C192.369 126.846 193.43 127.522 193.548 127.989C193.889 129.345 192.662 130.969 192.805 131.871" fill="#231F20"/>
<path fill-rule="evenodd" clip-rule="evenodd" d="M145.614 129.451C144.492 128.81 144.225 125.99 142.907 125.909C141.025 125.795 141.368 129.569 141.376 131.775C140.08 130.599 139.852 126.977 140.804 125.117C139.719 124.584 139.235 125.705 138.633 126.1C139.406 120.481 146.851 123.494 145.614 129.451Z" fill="#231F20"/>
<path fill-rule="evenodd" clip-rule="evenodd" d="M195.083 134.211C193.417 137.382 191.06 140.875 186.171 140.977C186.071 139.952 185.995 138.394 186.176 137.777C189.914 137.418 192.221 135.515 195.083 134.211Z" fill="#231F20"/>
<path fill-rule="evenodd" clip-rule="evenodd" d="M171.659 136.266C174.778 137.906 180.509 138.082 184.748 137.958C184.975 138.887 184.97 140.034 184.978 141.166C179.53 141.438 173.088 140.09 171.659 136.266Z" fill="#231F20"/>
<path fill-rule="evenodd" clip-rule="evenodd" d="M171.066 139.325C173.223 144.74 180.635 144.116 186.885 143.967C186.61 144.67 186.014 145.5 185.272 145.801C183.269 146.616 177.745 147.234 174.964 145.757C173.201 144.82 172.068 142.701 171.102 141.46C170.635 140.86 168.312 139.328 171.066 139.325" fill="#231F20"/>
<path fill-rule="evenodd" clip-rule="evenodd" d="M192.544 169.191C190.014 173.525 187.592 177.977 184.59 181.8C185.849 178.099 186.387 171.904 186.577 167.182C189.211 165.95 191.466 167.459 192.544 169.191Z" fill="#81B0C4"/>
<path fill-rule="evenodd" clip-rule="evenodd" d="M206.162 184.77C203.329 185.337 201.338 188.09 198.574 187.914C200.093 185.772 202.755 184.87 206.162 184.77Z" fill="#231F20"/>
<path fill-rule="evenodd" clip-rule="evenodd" d="M207.412 189.203C205.103 189.447 202.39 189.821 200.048 189.628C201.157 187.935 205.429 188.519 207.412 189.203Z" fill="#231F20"/>
<path fill-rule="evenodd" clip-rule="evenodd" d="M208.212 193.026C205.617 193.082 202.391 193.03 199.924 192.823C201.383 191.256 206.529 192.242 208.212 193.026Z" fill="#231F20"/>
<path fill-rule="evenodd" clip-rule="evenodd" d="M187.661 203.488C188.033 206.747 189.326 210.05 189.164 213.62C187.729 214.104 186.904 214.527 184.982 214.524C184.846 211.491 184.44 206.853 184.561 203.961C185.507 204.023 186.902 203.285 187.661 203.488Z" fill="#DCD9D8"/>
<path fill-rule="evenodd" clip-rule="evenodd" d="M183.477 155.449C182.173 156.299 181.063 157.361 179.812 158.27C177.036 158.407 175.522 158.078 173.482 156.484C173.516 156.356 173.721 156.413 173.728 156.256C176.7 157.58 180.476 155.717 183.477 155.449" fill="#F0D6B7"/>
<path fill-rule="evenodd" clip-rule="evenodd" d="M167.88 175.702C168.696 172.165 171.895 170.333 174.799 168.385C177.797 172.19 179.621 177.083 181.629 181.805C176.885 180.375 172.038 178.054 167.88 175.702Z" fill="#81B0C4"/>
<path fill-rule="evenodd" clip-rule="evenodd" d="M184.561 203.96C184.44 206.852 184.846 211.49 184.982 214.524C186.904 214.527 187.729 214.103 189.164 213.619C189.326 210.05 188.033 206.747 187.661 203.487C186.902 203.285 185.507 204.023 184.561 203.96V203.96ZM154.623 187.513C155.891 199.168 157.727 208.966 161.095 219.287C168.57 221.557 177.582 221.755 184.189 219.707C182.976 213.881 183.506 206.789 182.797 200.573C182.263 195.901 182.535 191.199 181.802 186.432C173.796 184.767 162.48 186.043 154.623 187.513V187.513ZM183.695 186.506C183.628 191.511 183.919 196.449 184.302 201.461C186.224 201.173 187.528 200.98 189.314 200.588C188.734 195.763 188.806 190.334 187.624 186.066C186.259 186.079 185.057 186.05 183.695 186.506V186.506ZM193.446 185.699C192.534 185.49 191.472 185.691 190.6 185.707C191.01 189.788 192.004 194.291 192.354 198.574C193.725 198.617 194.458 197.97 195.586 197.752C195.646 193.993 195.257 188.813 193.446 185.699V185.699ZM208.211 199.188C211.069 198.494 212.867 194.993 212.067 191.398C211.531 188.981 210.575 184.431 209.552 182.885C208.797 181.742 206.748 180.245 205.112 181.293C202.45 182.997 197.762 183.491 195.821 185.554C196.794 188.795 197.096 193.245 197.498 197.351C200.822 197.558 204.913 196.436 207.679 197.627C205.748 198.252 203.243 198.257 201.575 199.168C202.938 199.827 206.13 199.694 208.211 199.188V199.188ZM181.628 181.804C179.62 177.082 177.797 172.189 174.799 168.384C171.894 170.332 168.696 172.164 167.88 175.702C172.037 178.054 176.884 180.374 181.628 181.804ZM186.578 167.182C186.388 171.905 185.849 178.099 184.59 181.8C187.592 177.977 190.014 173.525 192.544 169.191C191.466 167.46 189.211 165.95 186.578 167.182V167.182ZM180.967 165.189C179.83 165.066 178.864 166.496 177.385 165.878C177.046 166.252 176.738 166.658 176.393 167.024C179.659 170.961 181.144 176.546 183.667 181.172C185.021 176.728 184.865 171.86 185.163 167.009C183.303 167.127 182.271 165.327 180.967 165.189ZM177.359 160.427C177.238 161.775 177.552 162.216 177.823 163.762C182.255 165.147 181.481 157.679 177.359 160.427ZM172.445 158.814C170.535 157.77 167.666 156.634 165.2 156.163C162.142 155.578 162.428 160.334 162.558 163.171C162.66 165.417 163.828 167.792 164.336 169.285C164.574 169.981 164.627 170.721 165.223 170.859C166.276 171.104 169.749 169.716 170.739 169.176C172.832 168.035 174.456 166.222 176.234 165.005C176.257 164.413 176.279 163.822 176.303 163.23C175.234 162.697 173.999 162.319 172.43 162.25C173.494 161.715 175.06 161.723 176.03 161.086C176.039 160.848 176.049 160.612 176.057 160.377C174.287 160.24 173.612 159.452 172.445 158.814V158.814ZM154.204 155.5C152.619 157.109 158.65 159.303 160.57 159.421C160.559 158.403 161.15 157.443 161.031 156.712C158.75 156.312 155.753 156.576 154.204 155.5V155.5ZM173.729 156.256C173.721 156.413 173.516 156.356 173.483 156.484C175.522 158.078 177.036 158.407 179.812 158.27C181.064 157.362 182.174 156.299 183.477 155.449C180.477 155.717 176.7 157.58 173.729 156.256V156.256ZM191.65 161.69C191.564 159.903 191.095 156.226 189.99 155.583C187.67 154.229 183.548 158.316 181.801 158.939C181.991 159.486 182.305 159.92 182.329 160.619C183.362 160.365 184.62 160.539 185.515 160.979C184.48 161.094 183.332 161.087 182.647 161.58C182.396 162.305 182.709 163.294 182.542 164.301C184.999 164.994 187.805 165.363 190.911 165.454C191.515 164.669 191.721 163.173 191.65 161.69V161.69ZM151.536 157.057C151.038 156.702 147.671 152.321 147.21 152.503C141.117 154.906 135.42 159.06 130.33 162.99C135.183 173.405 137.143 186.164 137.489 198.463C143.049 201.063 147.933 204.812 155.478 205.204C154.605 199.026 153.808 193.515 153.312 187.699C151.416 186.9 148.697 187.736 146.922 187.452C146.907 185.314 149.632 186.515 149.859 185.078C150.03 183.99 148.36 183.908 148.904 182.195C150.29 182.7 151.019 183.813 152.498 184.231C153.85 181.275 152.479 176.043 152.674 173.571C152.711 173.107 152.906 171.001 153.945 171.37C154.865 171.698 153.892 176.973 153.993 179.312C154.085 181.467 153.733 183.552 154.606 184.905C161.896 183.913 169.305 183.271 177.194 183.055C175.458 182.31 173.396 181.606 171.136 180.331C169.911 179.641 166.048 178.203 165.695 177.039C165.13 175.185 167.175 174.197 167.524 172.607C163.844 174.614 163.126 170.683 162.256 167.898C161.467 165.376 161.018 163.492 160.824 162.037C157.654 160.525 154.265 158.995 151.536 157.057V157.057ZM188.43 153.033C193.506 150.571 194.421 162.232 192.431 165.989C192.739 167.109 193.797 167.538 194.228 168.545C191.396 173.62 188.249 178.356 185.359 183.371C187.509 182.033 190.58 183.132 193.11 182.13C194.035 181.764 194.704 179.647 195.405 177.953C197.331 173.294 199.353 167.419 200.252 162.972C200.456 161.959 201.009 159.751 200.885 158.849C200.664 157.235 198.473 156.037 197.359 155.039C195.306 153.195 194.013 151.572 191.872 149.848C191.003 151.129 189.14 151.99 188.43 153.033V153.033ZM139.927 108.017C137.508 110.678 138.014 115.665 138.307 119.213C142.679 116.462 148.482 119.43 148.427 124.108C150.515 124.053 149.207 121.501 148.83 119.857C147.596 114.489 150.908 108.656 148.98 103.746C145.235 104.03 142.159 105.559 139.927 108.017V108.017ZM157.234 92.5703C151.758 94.1224 144.74 98.1012 142.49 103.02C144.232 102.767 145.442 101.888 147.161 101.78C147.81 101.737 148.661 102.052 149.408 101.866C150.895 101.497 152.151 98.1616 153.273 96.9205C154.368 95.7084 155.683 95.1905 156.583 94.0856C157.161 93.8066 158.016 93.8258 158.048 92.9575C157.798 92.6895 157.534 92.4852 157.234 92.5703V92.5703ZM185.738 94.0301C180.055 90.8234 170.435 88.4113 164.389 91.4253C159.51 93.8576 152.916 97.8821 150.668 102.982C152.768 107.903 150.046 112.413 149.872 117.409C149.78 120.068 151.124 122.389 151.227 125.283C150.508 126.469 148.313 126.615 146.793 126.533C146.281 123.973 145.385 121.095 142.749 120.806C139.018 120.398 136.29 123.486 136.121 126.712C135.92 130.507 139.035 136.796 143.45 136.359C145.156 136.19 145.575 134.481 147.433 134.498C148.44 136.508 145.879 137.139 145.616 138.576C145.547 138.947 145.828 140.398 145.992 141.079C146.794 144.392 148.581 148.68 150.341 151.202C152.574 154.402 156.962 154.884 161.682 155.198C162.525 153.382 165.631 153.531 167.654 154.006C165.229 153.045 162.974 150.717 161.106 148.656C158.959 146.291 156.785 143.754 156.675 140.663C160.732 146.29 164.082 151.205 171.458 153.68C177.039 155.551 183.556 152.822 187.845 149.811C189.624 148.559 190.686 146.573 191.951 144.755C196.683 137.948 198.891 128.232 198.406 118.814C198.206 114.931 198.215 111.06 196.912 108.447C195.55 105.715 190.943 103.27 188.247 105.742C187.747 103.085 190.489 101.441 193.71 102.398C191.413 99.4336 189.003 95.8721 185.738 94.0301V94.0301ZM196.327 181.663C200.769 179.455 209.067 175.72 211.851 181.671C212.879 183.864 214.084 187.573 214.616 189.837C215.368 193.031 213.801 199.746 210.518 200.818C207.618 201.765 204.233 201.707 200.74 201.005C200.329 200.663 199.871 200.067 199.551 199.445C197.056 199.348 194.72 199.579 192.75 200.604C192.937 202.449 191.689 202.745 190.519 203.125C189.652 206.563 192.254 211.054 191.631 214.189C191.187 216.423 188.439 216.768 186.419 217.186C186.353 218.427 186.507 219.463 186.645 220.513C186.183 222.215 184.112 223.184 182.149 223.421C175.691 224.198 165.886 224.547 159.674 222.313C157.941 218.061 156.575 212.89 155.131 208.035C149.073 208.682 144.173 205.421 139.554 203.285C137.955 202.543 135.742 202.135 135.145 200.862C134.566 199.629 134.803 197.267 134.659 195.036C134.293 189.337 133.98 183.84 132.475 178.005C131.799 175.387 130.622 173.076 129.8 170.553C129.04 168.215 127.714 165.325 127.368 162.993C126.854 159.537 130.109 159.345 132.19 157.847C135.407 155.531 137.932 154.25 141.415 152.16C142.447 151.541 145.559 149.974 145.913 149.253C146.617 147.822 144.705 145.805 144.194 144.684C143.386 142.91 142.964 141.404 142.849 139.654C139.926 139.192 137.711 137.453 136.372 135.492C134.159 132.246 132.623 126.241 134.539 121.674C134.689 121.314 135.438 120.606 135.549 120.054C135.767 118.966 135.138 117.519 135.099 116.362C134.898 110.426 136.104 105.31 140.1 103.52C141.723 97.0567 147.53 94.9077 153.001 91.6955C155.046 90.495 157.301 89.7277 159.629 88.871C167.981 85.7972 180.796 86.376 187.728 91.6186C190.667 93.8417 195.365 98.5356 197.046 101.934C201.484 110.906 201.169 125.901 198.064 136.815C197.647 138.28 197.042 140.434 196.197 142.194C195.607 143.423 193.776 145.882 193.998 146.968C194.227 148.09 198.174 151.087 199.021 151.903C200.545 153.373 203.44 155.324 203.674 157.179C203.926 159.154 202.804 161.854 202.236 163.76C200.336 170.118 198.482 175.995 196.327 181.663" fill="#231F20"/>
<path fill-rule="evenodd" clip-rule="evenodd" d="M166.697 137.651C166.938 137.33 168.262 136.843 170.116 137.736C170.116 137.736 167.919 138.102 168.102 141.765L167.186 141.581C167.186 141.581 166.24 138.26 166.697 137.651" fill="#F7E4CD"/>
<path fill-rule="evenodd" clip-rule="evenodd" d="M182.747 169.132C182.747 169.688 182.296 170.139 181.74 170.139C181.184 170.139 180.733 169.688 180.733 169.132C180.733 168.576 181.184 168.125 181.74 168.125C182.296 168.125 182.747 168.576 182.747 169.132Z" fill="#1D1919"/>
<path fill-rule="evenodd" clip-rule="evenodd" d="M183.754 173.8C183.754 174.356 183.303 174.807 182.747 174.807C182.191 174.807 181.74 174.356 181.74 173.8C181.74 173.244 182.191 172.793 182.747 172.793C183.303 172.793 183.754 173.244 183.754 173.8Z" fill="#1D1919"/>
<path class="swap-color" d="M131.334 232.809C131.001 232.85 130.718 232.892 130.485 232.934C130.252 232.975 129.991 233.033 129.699 233.108C129.358 233.2 129.138 233.362 129.038 233.594C128.947 233.827 128.901 234.093 128.901 234.392V244.14C128.901 245.038 128.718 245.861 128.352 246.609C127.995 247.357 127.5 247.984 126.868 248.491C126.227 248.99 125.512 249.364 124.722 249.613C123.932 249.871 123.088 249.999 122.19 249.999C120.634 249.999 119.379 249.625 118.422 248.877C117.474 248.129 117 247.103 117 245.798C117 245.025 117.216 244.386 117.649 243.879C118.089 243.372 118.692 243.118 119.458 243.118C120.181 243.118 120.755 243.33 121.179 243.754C121.612 244.178 121.828 244.701 121.828 245.325C121.828 245.857 121.641 246.351 121.266 246.808C120.9 247.257 120.48 247.672 120.006 248.055V248.217C120.081 248.383 120.243 248.524 120.493 248.641C120.742 248.757 120.996 248.815 121.254 248.815C122.252 248.815 123.034 248.458 123.599 247.743C124.173 247.028 124.46 245.948 124.46 244.502V234.517C124.46 234.218 124.414 233.968 124.323 233.769C124.231 233.569 124.011 233.395 123.662 233.245C123.412 233.137 123.109 233.046 122.751 232.971C122.402 232.896 122.111 232.842 121.878 232.809V231.837H131.334V232.809Z" fill="black"/>
<path class="swap-color" d="M146.141 246.546C145.85 247.02 145.497 247.469 145.081 247.893C144.673 248.308 144.208 248.666 143.684 248.965C143.127 249.28 142.561 249.517 141.987 249.675C141.422 249.841 140.769 249.925 140.029 249.925C138.798 249.925 137.733 249.75 136.835 249.401C135.945 249.052 135.209 248.582 134.627 247.992C134.045 247.402 133.608 246.708 133.317 245.911C133.034 245.104 132.893 244.232 132.893 243.293C132.893 242.445 133.047 241.635 133.355 240.862C133.671 240.081 134.116 239.387 134.689 238.78C135.255 238.19 135.966 237.712 136.823 237.347C137.688 236.981 138.652 236.798 139.717 236.798C140.881 236.798 141.838 236.939 142.586 237.222C143.335 237.504 143.954 237.895 144.445 238.394C144.919 238.867 145.264 239.428 145.48 240.077C145.696 240.716 145.805 241.39 145.805 242.096V242.906H137.372C137.372 244.61 137.7 245.906 138.357 246.796C139.014 247.685 140.058 248.129 141.488 248.129C142.27 248.129 142.973 247.918 143.596 247.494C144.22 247.062 144.752 246.517 145.193 245.861L146.141 246.546ZM141.376 241.809C141.376 241.311 141.351 240.8 141.301 240.276C141.251 239.752 141.164 239.324 141.039 238.992C140.898 238.601 140.702 238.306 140.453 238.107C140.212 237.907 139.904 237.808 139.53 237.808C138.889 237.808 138.378 238.132 137.995 238.78C137.613 239.428 137.405 240.455 137.372 241.859L141.376 241.809Z" fill="black"/>
<path class="swap-color" d="M163.818 249.526H156.308V248.616C156.466 248.599 156.658 248.578 156.882 248.553C157.107 248.528 157.277 248.487 157.394 248.429C157.568 248.337 157.693 248.204 157.768 248.03C157.843 247.855 157.88 247.598 157.88 247.257V241.423C157.88 240.575 157.722 239.939 157.406 239.516C157.098 239.083 156.641 238.867 156.034 238.867C155.701 238.867 155.389 238.917 155.098 239.017C154.816 239.117 154.537 239.262 154.263 239.453C154.021 239.619 153.826 239.79 153.676 239.964C153.535 240.139 153.414 240.293 153.314 240.426V247.12C153.314 247.411 153.356 247.656 153.439 247.855C153.522 248.046 153.66 248.192 153.851 248.292C153.984 248.366 154.15 248.433 154.35 248.491C154.549 248.549 154.745 248.591 154.936 248.616V249.526H147.351V248.616C147.559 248.599 147.767 248.578 147.975 248.553C148.191 248.52 148.374 248.479 148.524 248.429C148.79 248.337 148.973 248.196 149.073 248.005C149.173 247.814 149.223 247.564 149.223 247.257V240.002C149.223 239.744 149.156 239.491 149.023 239.241C148.89 238.992 148.715 238.788 148.499 238.63C148.349 238.531 148.158 238.448 147.925 238.381C147.701 238.315 147.451 238.269 147.177 238.244V237.334L153.127 237.01L153.314 237.197V239.004H153.364C153.597 238.797 153.88 238.547 154.213 238.257C154.545 237.966 154.853 237.729 155.136 237.546C155.443 237.347 155.847 237.176 156.346 237.035C156.845 236.894 157.377 236.823 157.943 236.823C159.298 236.823 160.313 237.209 160.986 237.982C161.668 238.747 162.009 239.765 162.009 241.036V247.145C162.009 247.452 162.055 247.697 162.147 247.88C162.238 248.063 162.409 248.208 162.658 248.316C162.791 248.375 162.953 248.433 163.145 248.491C163.344 248.549 163.569 248.591 163.818 248.616V249.526Z" fill="black"/>
<path class="swap-color" d="M180.996 249.526H175.121C174.397 248.254 173.736 247.178 173.137 246.297C172.538 245.408 171.973 244.585 171.44 243.829L170.692 244.465V247.182C170.692 247.481 170.734 247.726 170.817 247.918C170.908 248.109 171.079 248.25 171.328 248.341C171.478 248.408 171.653 248.466 171.852 248.516C172.052 248.566 172.251 248.599 172.451 248.616V249.526H164.729V248.616C164.937 248.599 165.145 248.578 165.353 248.553C165.561 248.52 165.744 248.479 165.902 248.429C166.168 248.337 166.347 248.196 166.438 248.005C166.538 247.814 166.588 247.564 166.588 247.257V233.357C166.588 233.083 166.525 232.801 166.401 232.51C166.284 232.211 166.11 231.986 165.877 231.837C165.719 231.737 165.482 231.654 165.166 231.587C164.85 231.521 164.563 231.479 164.305 231.463V230.553L170.505 230.229L170.692 230.428V243.293C171.307 242.744 171.998 242.108 172.763 241.385C173.536 240.662 174.156 240.064 174.622 239.59C174.896 239.308 175.046 239.096 175.071 238.955C175.104 238.805 175.121 238.714 175.121 238.68C175.121 238.531 174.987 238.406 174.721 238.306C174.464 238.207 174.073 238.119 173.549 238.045V237.16H179.886V238.02C179.054 238.252 178.418 238.473 177.977 238.68C177.545 238.88 177.071 239.15 176.555 239.491C176.214 239.715 175.882 239.952 175.557 240.201C175.241 240.442 174.875 240.746 174.459 241.111C175.274 242.291 176.027 243.384 176.717 244.39C177.408 245.395 178.131 246.459 178.888 247.581C179.146 247.972 179.466 248.233 179.849 248.366C180.231 248.499 180.614 248.582 180.996 248.616V249.526Z" fill="black"/>
<path class="swap-color" d="M189.018 249.526H181.133V248.616C181.35 248.599 181.562 248.578 181.77 248.553C181.978 248.528 182.156 248.487 182.306 248.429C182.572 248.329 182.759 248.188 182.867 248.005C182.976 247.814 183.03 247.564 183.03 247.257V240.002C183.03 239.711 182.963 239.457 182.83 239.241C182.697 239.017 182.531 238.838 182.331 238.705C182.181 238.606 181.953 238.51 181.645 238.419C181.346 238.327 181.071 238.269 180.822 238.244V237.334L186.934 237.01L187.121 237.197V247.095C187.121 247.386 187.184 247.635 187.309 247.843C187.433 248.042 187.612 248.192 187.845 248.292C188.011 248.366 188.194 248.433 188.394 248.491C188.593 248.549 188.801 248.591 189.018 248.616V249.526ZM187.196 232.522C187.196 233.154 186.951 233.694 186.46 234.143C185.978 234.583 185.404 234.803 184.739 234.803C184.065 234.803 183.483 234.583 182.992 234.143C182.51 233.694 182.269 233.154 182.269 232.522C182.269 231.891 182.51 231.35 182.992 230.902C183.483 230.453 184.065 230.229 184.739 230.229C185.412 230.229 185.99 230.453 186.473 230.902C186.955 231.35 187.196 231.891 187.196 232.522Z" fill="black"/>
<path class="swap-color" d="M206.632 249.526H199.122V248.616C199.28 248.599 199.472 248.578 199.696 248.553C199.921 248.528 200.091 248.487 200.208 248.429C200.382 248.337 200.507 248.204 200.582 248.03C200.657 247.855 200.694 247.598 200.694 247.257V241.423C200.694 240.575 200.536 239.939 200.22 239.516C199.912 239.083 199.455 238.867 198.848 238.867C198.515 238.867 198.203 238.917 197.912 239.017C197.629 239.117 197.351 239.262 197.076 239.453C196.835 239.619 196.64 239.79 196.49 239.964C196.349 240.139 196.228 240.293 196.128 240.426V247.12C196.128 247.411 196.17 247.656 196.253 247.855C196.336 248.046 196.473 248.192 196.665 248.292C196.798 248.366 196.964 248.433 197.164 248.491C197.363 248.549 197.559 248.591 197.75 248.616V249.526H190.165V248.616C190.373 248.599 190.581 248.578 190.789 248.553C191.005 248.52 191.188 248.479 191.338 248.429C191.604 248.337 191.787 248.196 191.887 248.005C191.987 247.814 192.037 247.564 192.037 247.257V240.002C192.037 239.744 191.97 239.491 191.837 239.241C191.704 238.992 191.529 238.788 191.313 238.63C191.163 238.531 190.972 238.448 190.739 238.381C190.515 238.315 190.265 238.269 189.991 238.244V237.334L195.941 237.01L196.128 237.197V239.004H196.178C196.411 238.797 196.694 238.547 197.026 238.257C197.359 237.966 197.667 237.729 197.95 237.546C198.257 237.347 198.661 237.176 199.16 237.035C199.659 236.894 200.191 236.823 200.756 236.823C202.112 236.823 203.127 237.209 203.8 237.982C204.482 238.747 204.823 239.765 204.823 241.036V247.145C204.823 247.452 204.869 247.697 204.961 247.88C205.052 248.063 205.222 248.208 205.472 248.316C205.605 248.375 205.767 248.433 205.958 248.491C206.158 248.549 206.383 248.591 206.632 248.616V249.526Z" fill="black"/>
<path class="swap-color" d="M213.581 249.949C212.774 249.949 211.984 249.829 211.21 249.588C210.445 249.355 209.851 249.106 209.427 248.84L209.052 249.688H208.079L207.917 245.038H208.828C208.952 245.412 209.16 245.836 209.451 246.309C209.743 246.775 210.075 247.195 210.449 247.569C210.84 247.942 211.285 248.258 211.784 248.516C212.292 248.774 212.832 248.902 213.406 248.902C214.163 248.902 214.724 248.757 215.09 248.466C215.464 248.167 215.651 247.71 215.651 247.095C215.651 246.762 215.568 246.488 215.402 246.272C215.236 246.056 215.007 245.869 214.716 245.711C214.392 245.545 214.034 245.404 213.643 245.287C213.26 245.171 212.786 245.03 212.221 244.863C211.655 244.697 211.169 244.531 210.761 244.365C210.362 244.19 209.946 243.92 209.514 243.555C209.14 243.23 208.84 242.84 208.616 242.383C208.391 241.926 208.279 241.381 208.279 240.75C208.279 239.578 208.77 238.63 209.751 237.907C210.741 237.184 212.034 236.823 213.631 236.823C214.387 236.823 215.082 236.902 215.714 237.06C216.354 237.209 216.891 237.376 217.323 237.558L217.585 236.823H218.533L218.733 241.074H217.847C217.556 240.21 217.057 239.466 216.35 238.842C215.643 238.211 214.882 237.895 214.067 237.895C213.427 237.895 212.924 238.028 212.558 238.294C212.192 238.56 212.009 238.93 212.009 239.403C212.009 240.035 212.275 240.492 212.807 240.775C213.348 241.057 214.1 241.323 215.065 241.572C216.554 241.955 217.643 242.478 218.334 243.143C219.024 243.8 219.369 244.639 219.369 245.661C219.369 247.024 218.833 248.08 217.76 248.828C216.695 249.576 215.302 249.949 213.581 249.949Z" fill="black"/>
</svg>
