<svg width="336" height="336" viewBox="0 0 336 336" fill="none" xmlns="http://www.w3.org/2000/svg">
<path d="M215.595 137.86C214.933 135.771 213.343 134.073 211.355 133.029L170.944 113.964C169.884 113.442 168.691 113.312 167.631 113.312C166.571 113.312 165.379 113.312 164.319 113.573L123.907 132.768C121.92 133.682 120.462 135.379 119.932 137.599L109.995 180.559C109.597 182.779 110.127 184.998 111.452 186.827L139.409 220.907C140.999 222.474 143.252 223.519 145.504 223.649H190.023C192.408 223.91 194.661 222.866 196.118 220.907L224.075 186.827C225.4 184.998 225.93 182.779 225.665 180.559L215.595 137.86V137.86Z" fill="#326DE6"/>
<path d="M209.368 178.861C209.236 178.861 209.103 178.861 209.103 178.73C209.103 178.6 208.838 178.6 208.573 178.6C208.043 178.469 207.513 178.469 206.983 178.469C206.718 178.469 206.453 178.469 206.188 178.339H206.056C204.598 178.208 203.008 177.947 201.551 177.555C201.153 177.425 200.756 177.033 200.623 176.641C200.756 176.641 200.623 176.641 200.623 176.641L199.563 176.38C200.093 172.593 199.828 168.676 199.033 164.889C198.106 161.102 196.516 157.446 194.396 154.182L195.191 153.398V153.268C195.191 152.876 195.323 152.354 195.588 152.093C196.781 151.048 197.973 150.265 199.298 149.481C199.563 149.351 199.828 149.22 200.093 149.089C200.623 148.828 201.021 148.567 201.551 148.306C201.683 148.175 201.816 148.175 201.948 148.045C202.081 147.914 201.948 147.914 201.948 147.784C203.141 146.87 203.406 145.303 202.478 144.127C202.081 143.605 201.286 143.213 200.623 143.213C199.961 143.213 199.298 143.475 198.768 143.866L198.636 143.997C198.503 144.127 198.371 144.258 198.238 144.258C197.841 144.65 197.443 145.041 197.178 145.433C197.046 145.694 196.781 145.825 196.648 145.956C195.721 147 194.528 148.045 193.336 148.828C193.071 148.959 192.806 149.089 192.541 149.089C192.408 149.089 192.143 149.089 192.011 148.959H191.878L190.818 149.612C189.758 148.567 188.566 147.522 187.506 146.478C182.604 142.691 176.509 140.341 170.281 139.688L170.149 138.643V138.774C169.751 138.513 169.619 138.121 169.486 137.729C169.486 136.293 169.486 134.856 169.751 133.29V133.159C169.751 132.898 169.884 132.637 169.884 132.375C170.016 131.853 170.016 131.331 170.149 130.809V130.025C170.281 128.719 169.221 127.414 167.896 127.283C167.101 127.152 166.306 127.544 165.644 128.197C165.114 128.719 164.849 129.372 164.849 130.025V130.678C164.849 131.2 164.981 131.723 165.114 132.245C165.246 132.506 165.246 132.767 165.246 133.028V133.159C165.511 134.595 165.511 136.032 165.511 137.599C165.379 137.99 165.246 138.382 164.849 138.643V138.904L164.716 139.949C163.259 140.08 161.802 140.341 160.212 140.602C153.984 141.908 148.287 145.172 143.914 149.742L143.119 149.22H142.987C142.854 149.22 142.722 149.351 142.457 149.351C142.192 149.351 141.927 149.22 141.662 149.089C140.469 148.175 139.277 147.131 138.349 146.086C138.217 145.825 137.952 145.694 137.819 145.564C137.422 145.172 137.157 144.78 136.76 144.389C136.627 144.258 136.495 144.258 136.362 144.127C136.23 143.997 136.23 143.997 136.23 143.997C135.7 143.605 135.037 143.344 134.375 143.344C133.58 143.344 132.917 143.605 132.52 144.258C131.725 145.433 131.99 147 133.05 147.914C133.182 147.914 133.182 148.045 133.182 148.045C133.182 148.045 133.447 148.306 133.58 148.306C133.977 148.567 134.507 148.828 135.037 149.089C135.302 149.22 135.567 149.351 135.832 149.481C137.157 150.265 138.482 151.048 139.542 152.093C139.807 152.354 140.072 152.876 139.939 153.268V153.137L140.734 153.921C140.602 154.182 140.469 154.312 140.337 154.574C136.23 160.972 134.507 168.545 135.7 175.988L134.64 176.249C134.64 176.38 134.507 176.38 134.507 176.38C134.375 176.772 133.977 177.033 133.58 177.294C132.122 177.686 130.665 177.947 129.075 178.078C128.81 178.078 128.545 178.078 128.28 178.208C127.75 178.208 127.22 178.339 126.69 178.339C126.557 178.339 126.425 178.469 126.16 178.469C126.027 178.469 126.027 178.469 125.895 178.6C124.437 178.861 123.51 180.167 123.775 181.603C124.04 182.778 125.232 183.562 126.425 183.431C126.69 183.431 126.822 183.431 127.087 183.301C127.22 183.301 127.22 183.301 127.22 183.17C127.22 183.039 127.617 183.17 127.75 183.17C128.28 183.039 128.81 182.778 129.207 182.648C129.472 182.517 129.737 182.387 130.002 182.387H130.135C131.592 181.864 132.917 181.473 134.507 181.211H134.64C135.037 181.211 135.435 181.342 135.7 181.603C135.832 181.603 135.832 181.734 135.832 181.734L137.024 181.603C139.012 187.61 142.722 192.963 147.889 196.881C149.082 197.795 150.142 198.578 151.467 199.231L150.804 200.145C150.804 200.276 150.937 200.276 150.937 200.276C151.202 200.667 151.202 201.19 151.069 201.581C150.539 202.887 149.744 204.193 148.949 205.368V205.499C148.817 205.76 148.684 205.89 148.419 206.152C148.154 206.413 147.889 206.935 147.492 207.457C147.359 207.588 147.359 207.719 147.227 207.849C147.227 207.849 147.227 207.98 147.094 207.98C146.432 209.285 146.962 210.852 148.154 211.505C148.419 211.636 148.817 211.766 149.082 211.766C150.142 211.766 151.069 211.114 151.599 210.2C151.599 210.2 151.599 210.069 151.732 210.069C151.732 209.938 151.864 209.808 151.997 209.677C152.129 209.155 152.394 208.763 152.527 208.241L152.792 207.457C153.189 206.021 153.852 204.715 154.514 203.41C154.779 203.018 155.177 202.757 155.574 202.626C155.707 202.626 155.707 202.626 155.707 202.495L156.237 201.451C159.947 202.887 163.789 203.54 167.764 203.54C170.149 203.54 172.534 203.279 174.919 202.626C176.376 202.365 177.834 201.843 179.159 201.451L179.689 202.365C179.821 202.365 179.821 202.365 179.821 202.495C180.219 202.626 180.616 202.887 180.881 203.279C181.544 204.585 182.206 205.89 182.604 207.327V207.457L182.869 208.241C183.001 208.763 183.134 209.285 183.399 209.677C183.531 209.808 183.531 209.938 183.664 210.069C183.664 210.069 183.664 210.2 183.796 210.2C184.326 211.114 185.254 211.766 186.314 211.766C186.711 211.766 186.976 211.636 187.373 211.505C187.903 211.244 188.433 210.722 188.566 210.069C188.698 209.416 188.698 208.763 188.433 208.11C188.433 207.98 188.301 207.98 188.301 207.98C188.301 207.849 188.168 207.719 188.036 207.588C187.771 207.066 187.506 206.674 187.108 206.282C186.976 206.021 186.843 205.89 186.578 205.629V205.368C185.651 204.193 184.989 202.887 184.459 201.581C184.326 201.19 184.326 200.667 184.591 200.276C184.591 200.145 184.724 200.145 184.724 200.145L184.326 199.1C191.083 195.053 196.251 188.785 198.636 181.342L199.696 181.473C199.828 181.473 199.828 181.342 199.828 181.342C200.093 181.081 200.491 180.95 200.888 180.95H201.021C202.478 181.211 203.936 181.603 205.261 182.125H205.393C205.658 182.256 205.923 182.387 206.188 182.387C206.718 182.648 207.116 182.909 207.646 183.039C207.778 183.039 207.911 183.17 208.176 183.17C208.308 183.17 208.308 183.17 208.441 183.301C208.706 183.431 208.838 183.431 209.103 183.431C210.296 183.431 211.356 182.648 211.753 181.603C211.621 180.167 210.561 179.122 209.368 178.861V178.861ZM171.076 174.813L167.499 176.511L163.921 174.813L162.994 171.026L165.511 167.892H169.486L172.004 171.026L171.076 174.813V174.813ZM192.673 166.326C193.336 169.068 193.468 171.81 193.203 174.552L180.616 171.026C179.424 170.765 178.761 169.59 179.026 168.415C179.159 168.023 179.291 167.762 179.556 167.501L189.493 158.622C190.951 160.972 192.011 163.583 192.673 166.326V166.326ZM185.519 153.79L174.654 161.364C173.726 161.886 172.401 161.755 171.739 160.841C171.474 160.58 171.341 160.319 171.341 159.927L170.546 146.739C176.376 147.392 181.544 149.873 185.519 153.79V153.79ZM161.537 147.131L164.186 146.608L163.524 159.666C163.524 160.841 162.464 161.755 161.272 161.755C160.874 161.755 160.609 161.625 160.212 161.494L149.214 153.79C152.659 150.526 156.899 148.175 161.537 147.131ZM145.372 158.622L155.177 167.24C156.104 168.023 156.237 169.329 155.442 170.243C155.177 170.635 154.912 170.765 154.382 170.896L141.529 174.552C141.132 169.068 142.457 163.453 145.372 158.622V158.622ZM143.119 180.689L156.237 178.469C157.297 178.469 158.357 179.122 158.489 180.167C158.622 180.558 158.622 181.081 158.357 181.473L153.322 193.486C148.684 190.482 144.974 185.912 143.119 180.689V180.689ZM173.196 196.881C171.341 197.272 169.486 197.534 167.499 197.534C164.716 197.534 161.802 197.011 159.152 196.228L165.644 184.606C166.306 183.823 167.366 183.562 168.294 184.084C168.691 184.345 168.956 184.606 169.354 184.998L175.714 196.358C174.919 196.489 174.124 196.619 173.196 196.881V196.881ZM189.361 185.52C187.373 188.654 184.591 191.396 181.411 193.355L176.244 181.081C175.979 180.036 176.509 178.992 177.436 178.6C177.834 178.469 178.231 178.339 178.629 178.339L191.878 180.558C191.216 182.387 190.421 184.084 189.361 185.52Z" fill="white"/>
</svg>
