<svg width="336" height="336" viewBox="0 0 336 336" fill="none" xmlns="http://www.w3.org/2000/svg">
<path fill-rule="evenodd" clip-rule="evenodd" d="M225.401 205.423L171.727 236.434C169.416 237.776 166.584 237.776 164.273 236.434L110.598 205.423C108.287 204.081 106.871 201.621 106.871 199.012V136.988C106.871 134.305 108.287 131.919 110.598 130.577L164.273 99.5655C166.584 98.2236 169.416 98.2236 171.727 99.5655L225.401 130.577C227.712 131.919 229.129 134.379 229.129 136.988V199.012C229.054 201.621 227.638 204.081 225.401 205.423H225.401Z" fill="#8D6748"/>
<path d="M167.926 110.226C168.671 110.226 169.342 110.449 170.013 110.822L216.381 137.585C217.649 138.33 218.469 139.746 218.469 141.237V194.762C218.469 196.253 217.649 197.67 216.381 198.415L170.013 225.178C169.342 225.55 168.671 225.774 167.926 225.774C167.18 225.774 166.435 225.55 165.838 225.178L119.47 198.415C118.202 197.67 117.382 196.253 117.382 194.762V141.237C117.382 139.746 118.202 138.33 119.47 137.585L165.838 110.822C166.509 110.449 167.255 110.226 167.926 110.226V110.226ZM167.926 107.989C166.807 107.989 165.689 108.287 164.72 108.884L118.352 135.646C116.339 136.765 115.146 138.926 115.146 141.163V194.688C115.146 196.999 116.339 199.086 118.352 200.204L164.72 226.967C165.689 227.563 166.807 227.861 167.926 227.861C169.044 227.861 170.162 227.563 171.131 226.967L217.499 200.204C219.512 199.086 220.705 196.924 220.705 194.688V141.163C220.705 138.852 219.512 136.765 217.499 135.646L171.131 108.884C170.162 108.287 169.044 107.989 167.926 107.989V107.989Z" fill="white"/>
<path d="M174.523 141.163C174.523 140.79 174.225 140.417 173.777 140.417H159.763C159.39 140.417 159.017 140.716 159.017 141.163C159.017 143.697 159.39 152.419 163.117 156.669C163.266 156.818 163.415 156.892 163.639 156.892H169.901C170.125 156.892 170.274 156.818 170.423 156.669C174.15 152.494 174.523 143.772 174.523 141.163V141.163ZM169.006 154.73H164.608C164.385 154.73 164.235 154.656 164.086 154.507C161.552 151.525 161.254 145.561 161.179 143.474C161.179 143.101 161.477 142.728 161.924 142.728H171.765C172.137 142.728 172.51 143.027 172.51 143.474C172.51 145.561 172.137 151.45 169.603 154.507C169.379 154.656 169.23 154.73 169.006 154.73V154.73ZM168.186 138.926C168.186 138.926 170.87 137.361 169.23 134.528C168.261 133.037 167.814 131.77 168.186 131.248C167.217 132.441 165.577 133.708 167.366 136.392C167.963 137.063 168.261 138.479 168.186 138.926V138.926ZM165.205 139.15C165.205 139.15 166.994 138.106 165.875 136.168C165.205 135.199 164.906 134.304 165.205 134.006C164.534 134.826 163.49 135.646 164.683 137.51C165.055 137.883 165.205 138.852 165.205 139.15Z" fill="white"/>
<path d="M171.317 147.798C171.019 149.811 170.423 152.122 169.156 153.613C169.006 153.762 168.857 153.836 168.708 153.836H164.981C164.832 153.836 164.608 153.762 164.534 153.613C163.639 152.494 163.043 151.003 162.67 149.438C162.67 149.438 166.994 150.034 169.454 149.14C171.243 148.469 171.317 147.798 171.317 147.798V147.798Z" fill="white"/>
<path d="M122.34 159.874H125.098L129.645 166.882L134.193 159.874H136.951V174.784H134.342V164.124L129.645 171.131H129.571L124.949 164.198V174.858H122.34V159.874ZM150.444 175.007C149.326 175.007 148.282 174.784 147.313 174.411C146.344 174.038 145.524 173.442 144.853 172.771C144.182 172.1 143.66 171.28 143.288 170.311C142.915 169.416 142.691 168.373 142.691 167.329V167.255C142.691 166.211 142.915 165.242 143.288 164.273C143.66 163.378 144.182 162.558 144.928 161.813C145.599 161.142 146.419 160.545 147.388 160.173C148.357 159.725 149.401 159.576 150.519 159.576C151.637 159.576 152.681 159.8 153.65 160.173C154.619 160.545 155.439 161.142 156.11 161.813C156.781 162.484 157.303 163.304 157.675 164.273C158.048 165.167 158.272 166.211 158.272 167.255V167.329C158.272 168.373 158.048 169.342 157.675 170.311C157.303 171.206 156.781 172.026 156.035 172.771C155.364 173.442 154.544 174.038 153.575 174.411C152.606 174.858 151.562 175.007 150.444 175.007ZM150.444 172.622C151.19 172.622 151.861 172.473 152.457 172.175C153.053 171.876 153.575 171.504 154.022 171.056C154.47 170.609 154.768 170.013 155.066 169.416C155.29 168.745 155.439 168.075 155.439 167.404V167.329C155.439 166.584 155.29 165.913 155.066 165.242C154.842 164.571 154.47 164.049 154.022 163.527C153.575 163.08 153.053 162.707 152.457 162.409C151.861 162.111 151.19 161.962 150.444 161.962C149.699 161.962 149.028 162.111 148.431 162.409C147.835 162.707 147.313 163.08 146.866 163.527C146.419 163.974 146.12 164.571 145.822 165.167C145.599 165.838 145.45 166.509 145.45 167.18V167.255C145.45 168 145.599 168.671 145.822 169.342C146.046 170.013 146.419 170.535 146.866 171.056C147.313 171.504 147.835 171.876 148.431 172.175C149.028 172.473 149.773 172.622 150.444 172.622V172.622ZM170.87 175.007C169.752 175.007 168.783 174.784 167.888 174.411C166.994 174.038 166.174 173.442 165.503 172.771C164.832 172.1 164.31 171.28 163.937 170.311C163.565 169.342 163.341 168.373 163.341 167.329V167.255C163.341 166.211 163.565 165.167 163.937 164.273C164.31 163.378 164.832 162.558 165.503 161.813C166.174 161.142 166.994 160.545 167.963 160.173C168.932 159.8 169.901 159.576 171.094 159.576C171.765 159.576 172.361 159.651 172.957 159.725C173.554 159.874 174.001 160.023 174.523 160.173C174.97 160.396 175.418 160.62 175.79 160.918C176.163 161.216 176.536 161.514 176.909 161.887L175.194 163.825C174.598 163.304 174.001 162.856 173.33 162.484C172.659 162.111 171.914 161.962 171.019 161.962C170.274 161.962 169.677 162.111 169.081 162.409C168.485 162.707 167.963 163.08 167.516 163.527C167.068 163.974 166.77 164.571 166.472 165.167C166.248 165.838 166.099 166.509 166.099 167.18V167.255C166.099 168 166.248 168.671 166.472 169.342C166.696 170.013 167.068 170.535 167.516 171.056C167.963 171.504 168.485 171.951 169.081 172.175C169.677 172.398 170.348 172.622 171.019 172.622C171.914 172.622 172.734 172.473 173.33 172.1C173.927 171.727 174.598 171.28 175.268 170.684L176.983 172.398C176.61 172.846 176.238 173.144 175.79 173.517C175.343 173.889 174.896 174.113 174.448 174.337C174.001 174.56 173.405 174.784 172.883 174.858C172.212 175.007 171.541 175.007 170.87 175.007V175.007ZM182.201 159.874H184.811V166.062H191.967V159.874H194.576V174.784H191.967V168.522H184.811V174.784H182.201V159.874V159.874ZM206.131 159.8H208.517L215.077 174.784H212.318L210.828 171.206H203.82L202.255 174.784H199.571L206.131 159.8V159.8ZM209.858 168.895L207.324 162.931L204.789 168.895H209.858V168.895Z" fill="white"/>
<path d="M120.476 179.48H215.524V180.301H120.476V179.48ZM215.524 151.451H175.119C175.119 151.749 175.045 151.973 175.045 152.271H215.524V151.451V151.451ZM120.476 151.451V152.271H158.57C158.57 151.973 158.495 151.749 158.495 151.451H120.476V151.451Z" fill="white"/>
</svg>
