<svg width="336" height="336" viewBox="0 0 336 336" fill="none" xmlns="http://www.w3.org/2000/svg">
<path class="swap-color" fill-rule="evenodd" clip-rule="evenodd" d="M107.481 168.476C107.481 175.436 112.97 182.805 124.244 188.691C135.303 194.465 150.88 198.165 168.319 198.165C185.759 198.165 201.335 194.465 212.395 188.691C223.668 182.805 229.157 175.436 229.157 168.476C229.157 161.517 223.668 154.147 212.395 148.262C201.335 142.487 185.759 138.787 168.319 138.787C150.88 138.787 135.303 142.487 124.244 148.262C112.97 154.147 107.481 161.517 107.481 168.476ZM103.195 168.476C103.195 187.255 132.353 202.478 168.319 202.478C204.286 202.478 233.443 187.255 233.443 168.476C233.443 149.698 204.286 134.475 168.319 134.475C132.353 134.475 103.195 149.698 103.195 168.476ZM134.029 173.08H138.578C141.593 173.08 143.839 172.517 145.315 171.389C146.79 170.261 147.786 168.379 148.303 165.742C148.798 163.209 148.573 161.422 147.627 160.381C146.682 159.34 144.787 158.819 141.946 158.819H136.822L134.029 173.08L134.029 173.08ZM144.778 153.442C149.104 153.442 152.26 154.569 154.244 156.823C156.228 159.076 156.825 162.223 156.033 166.262C155.708 167.926 155.157 169.447 154.381 170.825C153.605 172.204 152.59 173.465 151.337 174.609C149.844 175.996 148.185 176.984 146.36 177.573C144.534 178.163 142.209 178.457 139.383 178.457H132.977L131.203 187.516H123.724L130.396 153.442H144.777H144.778ZM167.879 153.442L169.653 144.383H169.653H162.233L155.561 178.457H162.98L166.802 158.936H172.733C174.631 158.936 175.872 159.248 176.456 159.872C177.039 160.496 177.162 161.666 176.826 163.381L173.875 178.457H181.413L184.517 162.601C185.148 159.375 184.675 157.041 183.096 155.602C181.517 154.163 178.648 153.442 174.489 153.442H167.879ZM192.401 173.08H196.95C199.965 173.08 202.212 172.517 203.687 171.389C205.163 170.261 206.158 168.379 206.676 165.742C207.171 163.209 206.945 161.422 206 160.381C205.054 159.34 203.159 158.819 200.318 158.819H195.194L192.402 173.08L192.401 173.08ZM203.15 153.442C207.477 153.442 210.633 154.569 212.616 156.823C214.6 159.076 215.197 162.223 214.406 166.262C214.08 167.926 213.529 169.447 212.753 170.825C211.978 172.204 210.963 173.465 209.71 174.609C208.216 175.996 206.557 176.984 204.732 177.573C202.906 178.163 200.582 178.457 197.755 178.457H191.349L189.575 187.516H182.097L188.769 153.442H203.15L203.15 153.442Z" fill="#63679D"/>
</svg>
