<svg width="336" height="336" viewBox="0 0 336 336" fill="none" xmlns="http://www.w3.org/2000/svg">
<path d="M166.922 120.846C163.065 120.864 159.381 121.191 156.14 121.762C146.591 123.441 144.858 126.954 144.858 133.434V141.992H167.422V144.845H144.858H136.39C129.832 144.845 124.09 148.767 122.294 156.229C120.222 164.782 120.13 170.119 122.294 179.05C123.898 185.698 127.728 190.434 134.286 190.434H142.044V180.175C142.044 172.764 148.488 166.226 156.14 166.226H178.677C184.951 166.226 189.959 161.086 189.959 154.816V133.434C189.959 127.349 184.801 122.778 178.677 121.762C174.801 121.12 170.779 120.828 166.922 120.846ZM154.719 127.729C157.05 127.729 158.953 129.654 158.953 132.021C158.953 134.38 157.05 136.287 154.719 136.287C152.38 136.287 150.485 134.38 150.485 132.021C150.485 129.654 152.38 127.729 154.719 127.729Z" fill="url(#paint0_linear_164_76)"/>
<path d="M192.773 144.844V154.815C192.773 162.546 186.188 169.052 178.678 169.052H156.14C149.966 169.052 144.858 174.31 144.858 180.463V201.844C144.858 207.93 150.175 211.509 156.14 213.255C163.282 215.345 170.132 215.723 178.678 213.255C184.358 211.618 189.959 208.324 189.959 201.844V193.287H167.422V190.434H189.959H201.241C207.799 190.434 210.243 185.882 212.523 179.05C214.879 172.016 214.779 165.252 212.523 156.229C210.903 149.732 207.808 144.844 201.241 144.844H192.773ZM180.098 198.992C182.437 198.992 184.332 200.899 184.332 203.258C184.332 205.625 182.437 207.55 180.098 207.55C177.767 207.55 175.864 205.625 175.864 203.258C175.864 200.899 177.767 198.992 180.098 198.992Z" fill="url(#paint1_linear_164_76)"/>
<defs>
<linearGradient id="paint0_linear_164_76" x1="120.705" y1="120.845" x2="172.522" y2="165.216" gradientUnits="userSpaceOnUse">
<stop stop-color="#5A9FD4"/>
<stop offset="1" stop-color="#306998"/>
</linearGradient>
<linearGradient id="paint1_linear_164_76" x1="179.555" y1="202.538" x2="161.009" y2="176.423" gradientUnits="userSpaceOnUse">
<stop stop-color="#FFD43B"/>
<stop offset="1" stop-color="#FFE873"/>
</linearGradient>
</defs>
</svg>
