<svg width="336" height="336" viewBox="0 0 336 336" fill="none" xmlns="http://www.w3.org/2000/svg">
<path class="swap-color" d="M122.625 185.319C120.474 179.765 119.381 173.858 119.404 167.902C119.435 161.501 120.727 155.168 123.206 149.266C125.685 143.364 129.302 138.009 133.852 133.505C138.401 129.002 143.793 125.439 149.72 123.02C155.647 120.601 161.992 119.373 168.394 119.407C170.688 119.416 172.979 119.576 175.252 119.885L169.762 125.437H168.272C154.905 125.43 142.312 131.696 134.25 142.361C126.187 153.026 123.592 166.852 127.237 179.711H164.578L148.712 208.879L186.291 170.824H134.991L192.787 113.443C185.02 109.892 176.577 108.06 168.036 108.075C154.95 108.088 142.227 112.374 131.8 120.281C121.373 128.187 113.812 139.282 110.268 151.879C106.724 164.475 107.39 177.885 112.164 190.068C116.939 202.252 125.561 212.544 136.719 219.379L154.614 185.557L122.625 185.319ZM199.35 116.662L181.457 150.487H213.487C216.312 157.851 217.303 165.791 216.375 173.623C215.447 181.455 212.627 188.943 208.159 195.442C203.692 201.941 197.71 207.256 190.73 210.928C183.75 214.6 175.982 216.519 168.096 216.519C165.722 216.51 163.351 216.351 160.997 216.041L166.425 210.553H168.112C179.424 210.553 190.271 206.06 198.27 198.062C206.269 190.063 210.761 179.218 210.761 167.904C210.711 163.994 210.17 160.107 209.151 156.332H171.793L187.361 126.924L149.068 165.037H200.486L143.344 222.656C157.261 228.856 173.015 229.535 187.415 224.558C201.815 219.58 213.785 209.317 220.904 195.846C228.022 182.375 229.756 166.703 225.754 152.002C221.753 137.301 212.315 124.669 199.352 116.664L199.35 116.662Z" fill="#E1251B"/>
</svg>
