<svg width="336" height="336" viewBox="0 0 336 336" fill="none" xmlns="http://www.w3.org/2000/svg">
<path class="swap-color" fill-rule="evenodd" clip-rule="evenodd" d="M223.801 184.596H227.813V190.744C227.813 194.127 227.778 198.175 227.626 202.591L226.62 202.889C226.07 203.05 224.959 203.302 224.14 203.428C223.099 203.612 222.105 203.681 220.76 203.681C219.695 203.681 218.467 203.623 218.022 203.554C217.578 203.474 216.701 203.256 216.081 203.061C215.414 202.855 214.548 202.453 214.01 202.109C213.484 201.777 212.759 201.192 212.384 200.79C212.022 200.4 211.507 199.712 211.261 199.276C211.016 198.841 210.676 198.038 210.513 197.51C210.267 196.742 210.197 196.145 210.138 194.758C210.103 193.645 210.138 192.659 210.232 192.12C210.314 191.65 210.524 190.858 210.7 190.354C210.864 189.849 211.25 189.046 211.554 188.576C211.846 188.106 212.478 187.36 212.957 186.924C213.495 186.443 214.197 185.949 214.77 185.674C215.285 185.433 216.034 185.135 216.455 185.02C216.864 184.917 217.882 184.791 218.712 184.757C219.824 184.711 220.467 184.757 221.157 184.894C221.684 185.009 222.467 185.261 222.923 185.468C223.368 185.663 223.754 185.835 223.766 185.823C223.789 185.823 223.801 185.548 223.801 185.215V184.596ZM216.97 189.103C216.63 189.287 216.139 189.665 215.87 189.952C215.601 190.239 215.25 190.744 215.075 191.088C214.899 191.42 214.677 192.04 214.572 192.464C214.466 192.877 214.384 193.691 214.384 194.264C214.384 194.838 214.466 195.652 214.572 196.065C214.677 196.489 214.876 197.063 215.028 197.35C215.18 197.636 215.566 198.141 215.882 198.462C216.198 198.795 216.712 199.185 217.016 199.334C217.332 199.494 217.894 199.712 218.28 199.815C218.712 199.942 219.426 200.01 220.257 200.01C220.958 200.01 221.953 199.953 222.444 199.884C222.947 199.815 223.426 199.712 223.497 199.666C223.602 199.609 223.66 198.13 223.696 194.586L223.731 189.574C222.467 188.943 221.765 188.679 221.344 188.576C220.935 188.473 220.233 188.392 219.777 188.404C219.332 188.404 218.654 188.496 218.28 188.587C217.894 188.691 217.309 188.92 216.97 189.103Z" fill="#1F447E"/>
<path class="swap-color" fill-rule="evenodd" clip-rule="evenodd" d="M192.642 184.574C193.375 184.609 194.308 184.727 194.733 184.833C195.147 184.939 195.832 185.185 196.245 185.385C196.671 185.573 197.356 185.985 197.769 186.302C198.195 186.62 198.785 187.207 199.092 187.607C199.4 188.007 199.837 188.736 200.073 189.218C200.309 189.7 200.616 190.546 200.758 191.099C200.9 191.651 201.065 192.768 201.195 195.048H187.184L187.267 195.519C187.302 195.777 187.456 196.33 187.574 196.741C187.704 197.153 188.035 197.799 188.294 198.164C188.554 198.528 188.944 198.963 189.145 199.116C189.358 199.269 189.783 199.527 190.102 199.692C190.409 199.845 190.953 200.045 191.307 200.139C191.661 200.233 192.607 200.315 193.457 200.315C194.296 200.315 195.501 200.233 196.127 200.127C196.753 200.021 197.639 199.809 198.088 199.668C198.537 199.527 199.128 199.304 199.388 199.175C199.648 199.045 199.919 198.928 199.99 198.928C200.073 198.928 200.12 199.645 200.12 202.69L199.423 203.007C199.033 203.183 198.23 203.465 197.616 203.642C197.001 203.806 195.879 204.018 195.111 204.1C194.06 204.206 193.351 204.206 192.252 204.1C191.449 204.018 190.279 203.806 189.653 203.63C189.027 203.454 188.117 203.101 187.645 202.842C187.16 202.584 186.345 201.984 185.825 201.502C185.294 201.02 184.632 200.233 184.325 199.751C184.018 199.269 183.64 198.446 183.463 197.929C183.285 197.411 183.073 196.506 182.99 195.93C182.896 195.284 182.872 194.378 182.919 193.673C182.955 193.015 183.108 192.027 183.25 191.475C183.392 190.922 183.734 190.017 184.006 189.465C184.278 188.912 184.786 188.124 185.117 187.713C185.459 187.302 186.133 186.667 186.617 186.302C187.101 185.938 187.916 185.479 188.424 185.268C188.921 185.056 189.783 184.809 190.327 184.704C190.976 184.586 191.756 184.539 192.642 184.574ZM189.866 189.065C189.488 189.288 188.956 189.723 188.673 190.029C188.401 190.346 188.035 190.863 187.869 191.192C187.704 191.522 187.562 191.839 187.562 191.909C187.562 191.992 189.157 192.039 192.099 192.039H196.635C196.505 191.11 196.387 190.652 196.293 190.405C196.186 190.17 195.879 189.723 195.607 189.429C195.277 189.065 194.875 188.806 194.414 188.63C194.024 188.5 193.315 188.359 192.831 188.324C192.264 188.3 191.685 188.348 191.236 188.465C190.858 188.571 190.244 188.841 189.866 189.065Z" fill="#1F447E"/>
<path class="swap-color" fill-rule="evenodd" clip-rule="evenodd" d="M87.8845 176.797H91.9294V188.159H102.814V191.907H91.9294V204.148H87.8845V191.907H77V188.159H87.8845V176.797Z" fill="#1F447E"/>
<path class="swap-color" d="M172.422 172.028H168.466V207.171H172.422V172.028Z" fill="#1F447E"/>
<path class="swap-color" d="M241.713 185.061H237.588L237.634 191.752C237.669 198.05 237.681 198.478 237.924 199.171C238.063 199.576 238.353 200.188 238.561 200.524C238.781 200.87 239.175 201.344 239.43 201.598C239.697 201.852 240.242 202.257 240.647 202.5C241.064 202.742 241.841 203.077 242.397 203.251C243.011 203.447 243.857 203.597 244.633 203.644C245.317 203.69 246.429 203.69 247.125 203.655C247.901 203.597 248.735 203.447 249.361 203.251C249.906 203.077 250.694 202.742 251.099 202.5C251.505 202.257 252.061 201.852 252.316 201.598C252.583 201.344 252.965 200.87 253.185 200.524C253.405 200.188 253.695 199.576 253.834 199.171C254.066 198.466 254.077 198.085 254.089 191.752L254.112 185.061H250.045C250.045 197.091 250.033 197.496 249.801 198.247C249.662 198.709 249.373 199.252 249.141 199.53C248.921 199.784 248.457 200.131 248.11 200.292C247.774 200.454 247.125 200.639 246.684 200.697C246.209 200.766 245.537 200.766 245.062 200.697C244.622 200.639 243.973 200.454 243.637 200.292C243.289 200.131 242.826 199.784 242.605 199.53C242.374 199.252 242.096 198.709 241.945 198.247C241.713 197.496 241.702 197.091 241.702 191.255L241.713 185.061Z" fill="#1F447E"/>
<path class="swap-color" fill-rule="evenodd" clip-rule="evenodd" d="M124.297 184.828H128.202V191.988C128.202 195.931 128.156 199.93 128.02 202.604L127.041 202.899C126.505 203.057 125.378 203.307 124.536 203.454C123.249 203.669 122.668 203.692 120.813 203.646C119.093 203.601 118.399 203.533 117.636 203.341C117.089 203.193 116.156 202.842 115.552 202.548C114.915 202.23 114.152 201.732 113.719 201.358C113.321 200.995 112.751 200.35 112.478 199.93C112.194 199.5 111.818 198.82 111.658 198.424C111.499 198.027 111.26 197.234 111.146 196.679C110.987 195.863 110.953 195.263 110.998 193.835C111.055 192.464 111.135 191.796 111.328 191.116C111.476 190.618 111.818 189.802 112.08 189.303C112.342 188.805 112.865 188.046 113.252 187.627C113.651 187.196 114.3 186.63 114.698 186.358C115.097 186.097 115.757 185.746 116.167 185.587C116.566 185.429 117.294 185.213 117.784 185.123C118.274 185.032 119.184 184.953 119.799 184.953C120.425 184.953 121.314 185.043 121.792 185.134C122.259 185.236 122.999 185.485 123.443 185.689C123.498 185.714 123.551 185.738 123.604 185.761C123.965 185.922 124.253 186.05 124.262 186.04C124.274 186.04 124.297 185.769 124.297 185.44V184.828ZM117.647 189.281C117.317 189.462 116.839 189.836 116.577 190.119C116.315 190.403 115.962 190.901 115.803 191.241C115.632 191.569 115.416 192.181 115.313 192.6C115.211 193.008 115.131 193.756 115.131 194.255C115.131 194.753 115.188 195.489 115.256 195.886C115.336 196.283 115.541 196.94 115.735 197.336C115.962 197.812 116.327 198.299 116.794 198.73C117.249 199.149 117.784 199.5 118.251 199.681C118.82 199.908 119.276 199.976 120.448 200.033C121.28 200.067 122.327 200.021 122.885 199.942C123.42 199.863 123.921 199.761 124.001 199.715C124.092 199.659 124.16 198.084 124.217 194.708L124.297 189.791C123.295 189.247 122.737 188.998 122.395 188.884C122.065 188.76 121.291 188.646 120.687 188.624C119.936 188.59 119.378 188.635 118.911 188.771C118.547 188.873 117.978 189.1 117.647 189.281Z" fill="#1F447E"/>
<path class="swap-color" fill-rule="evenodd" clip-rule="evenodd" d="M137.744 224.277V214.852H139.839C140.421 214.852 143.163 214.902 143.33 217.412C143.446 219.158 141.701 219.739 141.701 219.739C141.701 219.739 142.473 220.549 143.097 221.369C143.814 222.312 145.075 224.277 145.075 224.277H143.446C143.446 224.277 142.11 222.004 141.235 221.02C140.304 219.972 139.141 220.205 139.141 220.205V224.277H137.744ZM139.141 219.041V216.015C139.141 216.015 141.817 215.666 141.933 217.295C142.091 219.507 139.141 219.041 139.141 219.041Z" fill="#5B6591"/>
<path class="swap-color" fill-rule="evenodd" clip-rule="evenodd" d="M110.863 224.278L112.143 221.602H116.124L117.263 224.278H118.776L114.587 214.736H113.656L109.467 224.278H110.863ZM112.609 220.322H115.634L114.471 217.064H113.772L112.609 220.322Z" fill="#5B6591"/>
<path class="swap-color" fill-rule="evenodd" clip-rule="evenodd" d="M86.6582 224.277H87.8219V220.205L89.5674 220.205C91.0802 220.205 92.593 219.041 92.593 217.644C92.593 215.783 90.8475 214.852 89.5674 214.852H86.6582V224.277ZM87.8219 216.015V218.924H89.451C90.4983 218.924 91.3129 218.332 91.3129 217.528C91.3129 216.724 90.6147 216.015 89.3347 216.015H87.8219Z" fill="#5B6591"/>
<path class="swap-color" fill-rule="evenodd" clip-rule="evenodd" d="M242.941 224.277V214.852H245.036C245.618 214.852 248.36 214.902 248.527 217.412C248.643 219.158 246.898 219.739 246.898 219.739C246.898 219.739 247.671 220.549 248.294 221.369C249.012 222.312 250.273 224.277 250.273 224.277H248.643C248.643 224.277 247.307 222.004 246.432 221.02C245.502 219.972 244.338 220.205 244.338 220.205V224.277H242.941ZM244.338 219.041V216.015C244.338 216.015 247.014 215.666 247.131 217.295C247.289 219.507 244.338 219.041 244.338 219.041Z" fill="#5B6591"/>
<path class="swap-color" d="M166.72 224.277H165.324V216.015H162.065L162.065 214.852H169.978V216.015H166.72V224.277Z" fill="#5B6591"/>
<path class="swap-color" d="M190.343 224.278H189.296V214.968H190.343L196.394 222.067H196.743V214.968H197.907V224.278H196.86L190.692 217.179H190.343V224.278Z" fill="#5B6591"/>
<path class="swap-color" d="M217.922 224.278V214.968H223.275V216.132H219.202V219.041H223.158V220.205H219.202V223.23H223.391V224.278H217.922Z" fill="#5B6591"/>
<rect class="swap-color" x="77" y="209.964" width="182" height="0.69821" fill="#5B6591"/>
<path class="swap-color" fill-rule="evenodd" clip-rule="evenodd" d="M141.003 175.918H145.07V180.803C145.07 185.387 145.094 185.665 145.292 185.607C145.377 185.576 145.671 185.495 146.04 185.393C146.228 185.341 146.435 185.284 146.644 185.225C147.378 185.028 148.264 184.901 149.208 184.843C150.28 184.797 150.909 184.831 151.702 184.982C152.378 185.109 153.182 185.387 153.893 185.734C154.511 186.035 155.327 186.545 155.711 186.88C156.084 187.205 156.678 187.888 157.016 188.397C157.366 188.906 157.797 189.717 157.984 190.215C158.182 190.701 158.427 191.615 158.543 192.252C158.683 193.085 158.718 193.803 158.671 194.938C158.636 195.783 158.508 196.836 158.392 197.276C158.287 197.716 158.007 198.469 157.786 198.943C157.564 199.418 157.121 200.147 156.807 200.552C156.504 200.957 155.886 201.559 155.443 201.895C155.012 202.231 154.219 202.694 153.707 202.925C153.194 203.169 152.343 203.47 151.83 203.608C151.026 203.828 150.513 203.863 148.206 203.875C146.026 203.886 145.315 203.84 144.453 203.655C143.87 203.527 142.903 203.284 142.32 203.122C141.737 202.96 141.224 202.775 141.178 202.729C141.131 202.682 141.073 196.639 141.05 189.288L141.003 175.918ZM146.073 189.092L145.14 189.416V199.684C147.098 200.193 147.518 200.228 148.823 200.193C150.105 200.159 150.525 200.101 151.143 199.869C151.55 199.707 152.122 199.406 152.39 199.186C152.669 198.978 153.066 198.584 153.275 198.318C153.485 198.052 153.788 197.496 153.94 197.091C154.103 196.686 154.289 195.91 154.359 195.366C154.464 194.625 154.464 194.116 154.348 193.329C154.254 192.622 154.056 191.986 153.765 191.384C153.532 190.886 153.124 190.272 152.867 190.018C152.611 189.763 152.145 189.404 151.83 189.23C151.527 189.045 150.933 188.814 150.513 188.71C150.105 188.594 149.371 188.513 148.893 188.524C148.415 188.536 147.786 188.594 147.518 188.652C147.238 188.71 146.597 188.906 146.073 189.092Z" fill="#1F447E"/>
<path class="swap-color" d="M169.402 107.635V110.281H164.67V112.001H169.402V117.271H171.252V112.001H176.102V110.281H171.252V105H169.402V107.635Z" fill="#7099A6"/>
<path class="swap-color" d="M153.937 114.346V118.186H146.774V120.595H153.937V128.392H156.594V120.595H163.864V118.186H156.594V110.507H153.937V114.346Z" fill="#EB912C"/>
<path class="swap-color" d="M183.954 114.346V118.186H176.791V120.713H183.954V128.392H186.718V120.713H193.881V118.186H186.718V110.507H183.954V114.346Z" fill="#59879B"/>
<path class="swap-color" d="M168.715 127.424V131.726H160.745V134.931H168.715V143.535H171.941V134.931H179.91V131.726H171.941V123.122H168.715V127.424Z" fill="#E8762C"/>
<path class="swap-color" d="M192.149 129.597V132.296H187.299V134.479H192.149V139.868H194.569V134.479H199.42V132.296H194.569V126.908H192.149V129.597Z" fill="#5B6591"/>
<path class="swap-color" d="M145.968 129.833V132.414H141.235V134.243H145.968V139.405H147.817V134.243L152.668 134.071V132.414H147.817V127.252H145.968V129.833Z" fill="#7099A6"/>
<path class="swap-color" d="M153.937 141.986V145.826H146.774V148.353H153.937V156.032H156.701V148.353H163.864V145.826H156.701V138.147H153.937V141.986Z" fill="#C72035"/>
<path class="swap-color" d="M183.954 141.986V145.826H176.791V148.235H183.954V156.032H186.718V148.235H193.881V145.826H186.718V138.147H183.954V141.986Z" fill="#1F447E"/>
<path class="swap-color" d="M169.177 151.741V154.43H164.326V156.613H169.177V162.001H171.596V156.613H176.447V154.43H171.596V149.042H169.177V151.741Z" fill="#5B6591"/>
</svg>
