<svg width="336" height="336" viewBox="0 0 336 336" fill="none" xmlns="http://www.w3.org/2000/svg">
<path class="swap-color" fill-rule="evenodd" clip-rule="evenodd" d="M117.359 202.397V224.941C117.359 225.313 117.629 225.61 117.998 225.634H119.94C120.309 225.634 120.604 225.337 120.604 224.966V202.397C120.604 202.026 120.899 201.729 121.267 201.729H128.102C128.47 201.729 128.765 201.432 128.765 201.061V199.18C128.765 198.809 128.47 198.512 128.102 198.512H109.91C109.541 198.512 109.246 198.809 109.246 199.18V201.061C109.246 201.432 109.541 201.729 109.91 201.729H116.695C117.064 201.729 117.359 202.026 117.359 202.397ZM145.432 219.374L143.957 219.621C143.515 219.695 143.22 220.116 143.367 220.487C143.785 222.17 144.523 223.482 145.555 224.397C146.76 225.486 148.53 226.006 150.841 226.006C152.242 226.006 153.496 225.733 154.602 225.214C155.708 224.694 156.544 223.952 157.134 222.962C157.724 221.997 158.019 220.957 158.019 219.844C158.019 218.705 157.749 217.74 157.282 216.998C156.79 216.256 156.126 215.686 155.29 215.266C154.455 214.845 152.955 214.325 150.816 213.707C149.341 213.286 148.432 212.989 148.137 212.865C147.62 212.643 147.227 212.346 146.981 211.974C146.735 211.628 146.612 211.257 146.612 210.811C146.612 210.118 146.907 209.525 147.497 209.03C148.087 208.535 149.095 208.287 150.472 208.287C151.652 208.287 152.562 208.559 153.201 209.129C153.692 209.549 154.061 210.118 154.233 210.836C154.332 211.207 154.7 211.405 155.069 211.356L156.52 211.133C156.962 211.059 157.257 210.663 157.159 210.217C156.962 209.327 156.667 208.584 156.274 207.99C155.782 207.223 154.995 206.629 153.938 206.184C152.906 205.738 151.677 205.516 150.275 205.516C149.341 205.516 148.481 205.639 147.67 205.912C146.858 206.159 146.219 206.481 145.752 206.877C145.137 207.372 144.646 207.99 144.277 208.733C143.908 209.475 143.736 210.292 143.736 211.158C143.736 212.123 143.957 212.989 144.4 213.781C144.842 214.598 145.482 215.216 146.342 215.662C147.202 216.132 148.727 216.652 150.939 217.27C152.562 217.716 153.594 218.087 154.012 218.384C154.602 218.829 154.897 219.423 154.897 220.166C154.897 221.032 154.577 221.749 153.889 222.368C153.25 222.987 152.193 223.308 150.816 223.308C149.44 223.308 148.358 222.987 147.596 222.269C146.981 221.7 146.539 220.933 146.317 219.968C146.219 219.572 145.85 219.299 145.432 219.374ZM167.287 223.358L167.508 224.892C167.582 225.288 167.312 225.659 166.918 225.733C166.353 225.832 165.812 225.882 165.32 225.882C164.239 225.882 163.378 225.709 162.788 225.313C162.198 224.917 161.756 224.422 161.51 223.803C161.264 223.185 161.141 221.873 161.141 219.869V209.327C161.141 208.906 160.822 208.584 160.404 208.584H159.666C159.248 208.584 158.929 208.262 158.929 207.842V206.728C158.929 206.307 159.248 205.986 159.666 205.986H160.404C160.822 205.986 161.141 205.664 161.141 205.243V201.531C161.141 201.284 161.264 201.061 161.461 200.913L164.116 199.156V205.243C164.116 205.664 164.435 205.986 164.853 205.986H166.451C166.869 205.986 167.189 206.307 167.189 206.728V207.842C167.189 208.262 166.869 208.584 166.451 208.584H164.853C164.435 208.584 164.116 208.906 164.116 209.327V220.067C164.116 221.032 164.165 221.626 164.263 221.898C164.386 222.17 164.534 222.368 164.78 222.541C165.025 222.69 165.37 222.789 165.812 222.789C165.965 222.789 166.156 222.769 166.369 222.747L166.451 222.739C166.894 222.69 167.213 222.962 167.287 223.358ZM170.04 199.379V224.793C170.04 225.239 170.409 225.61 170.827 225.635H174.145C174.588 225.635 174.957 225.263 174.957 224.818V215.167C174.957 214.721 175.325 214.35 175.768 214.35H175.94C177.071 214.35 177.907 214.449 178.423 214.647C178.939 214.845 179.431 215.192 179.898 215.761C180.365 216.33 181.225 217.642 182.504 219.745L185.823 225.239C185.995 225.486 186.24 225.635 186.535 225.635H190.567C191.182 225.635 191.6 224.942 191.28 224.397L188.994 220.364C187.814 218.26 186.904 216.8 186.191 215.984C185.831 215.548 185.399 215.16 184.944 214.749L184.913 214.721C184.446 214.326 184.593 213.509 185.208 213.311C186.535 212.865 187.617 212.173 188.379 211.207C189.461 209.871 190.002 208.213 190.002 206.184C190.002 204.575 189.658 203.14 188.945 201.903C188.256 200.641 187.298 199.775 186.118 199.304C184.938 198.809 183.02 198.562 180.414 198.562H170.851C170.409 198.562 170.04 198.933 170.04 199.379ZM175.793 209.995C175.35 209.995 174.981 209.624 174.981 209.178L174.932 203.932C174.932 203.487 175.301 203.115 175.743 203.115H178.792C180.783 203.115 181.988 203.14 182.405 203.214C183.217 203.338 183.831 203.66 184.274 204.254C184.716 204.848 184.938 205.565 184.938 206.481C184.938 207.298 184.79 207.966 184.446 208.51C184.102 209.055 183.659 209.426 183.069 209.648C182.479 209.871 180.98 209.995 178.62 209.995H175.793ZM196.099 211.851L193.296 211.282C192.854 211.183 192.583 210.737 192.731 210.292C193.222 208.807 193.984 207.669 194.943 206.902C196.099 205.986 197.844 205.541 200.155 205.541C202.244 205.541 203.818 205.813 204.826 206.357C205.858 206.902 206.571 207.594 206.989 208.436C207.407 209.277 207.628 210.836 207.628 213.063L207.579 219.102C207.579 220.809 207.653 222.096 207.8 222.913C207.899 223.432 208.046 223.952 208.243 224.546C208.415 225.016 208.046 225.56 207.53 225.56H204.531C204.187 225.56 203.916 225.362 203.793 225.041C203.717 224.831 203.656 224.577 203.587 224.291L203.558 224.172C203.547 224.124 203.535 224.076 203.523 224.026C203.497 223.924 203.472 223.833 203.45 223.754L203.45 223.754C203.407 223.602 203.375 223.489 203.375 223.407C202.589 224.274 201.728 224.917 200.819 225.338C199.909 225.783 198.926 225.981 197.893 225.981C196.074 225.981 194.624 225.437 193.591 224.348C192.559 223.259 191.993 221.848 191.993 220.19C191.993 219.077 192.239 218.087 192.731 217.221C193.198 216.355 193.886 215.687 194.746 215.241C195.607 214.796 196.861 214.375 198.459 214.029C200.278 213.633 201.63 213.286 202.515 212.964C202.81 212.841 203.006 212.569 203.006 212.247C203.006 211.232 202.785 210.539 202.343 210.119C201.9 209.673 201.04 209.475 199.835 209.475C198.999 209.475 198.36 209.648 197.893 210.02C197.524 210.292 197.205 210.762 196.959 211.356C196.811 211.752 196.443 211.925 196.099 211.851ZM203.006 217.221C203.006 216.726 202.539 216.355 202.048 216.478C201.531 216.627 200.892 216.8 200.13 216.949C198.827 217.246 197.967 217.567 197.574 217.864C196.959 218.334 196.664 218.953 196.664 219.695C196.664 220.438 196.91 221.032 197.401 221.576C197.893 222.096 198.508 222.368 199.27 222.368C200.106 222.368 200.917 222.071 201.704 221.452C202.269 221.007 202.638 220.413 202.81 219.745C202.957 219.3 203.006 218.458 203.006 217.221ZM211.586 199.329V202.546C211.586 202.991 211.955 203.338 212.373 203.338H215.47C215.888 203.338 216.257 202.991 216.257 202.546V199.329C216.257 198.908 215.913 198.537 215.47 198.537H212.373C211.955 198.537 211.586 198.884 211.586 199.329ZM211.586 206.802V224.818C211.586 225.239 211.955 225.61 212.373 225.61H215.47C215.888 225.61 216.257 225.263 216.257 224.818V206.802C216.257 206.382 215.913 206.011 215.47 206.011H212.373C211.955 206.011 211.586 206.357 211.586 206.802ZM220.338 224.892V199.23C220.338 198.834 220.657 198.512 221.051 198.512H224.345C224.738 198.512 225.058 198.834 225.058 199.23V224.892C225.058 225.288 224.738 225.61 224.345 225.61H221.051C220.657 225.61 220.338 225.288 220.338 224.892ZM132.944 205.565C135.329 205.565 137.246 206.456 138.77 208.238C140.294 210.019 141.056 212.519 141.081 215.785V215.884C141.081 216.305 140.761 216.651 140.319 216.651H128.544C128.101 216.651 127.781 217.023 127.831 217.418C128.052 219.2 128.593 220.586 129.453 221.601C130.436 222.739 131.666 223.308 133.165 223.308C134.271 223.308 135.206 222.986 135.992 222.343C136.631 221.799 137.197 220.957 137.639 219.844C137.787 219.571 138.057 219.373 138.377 219.373H138.475L140.098 219.596C140.466 219.646 140.761 219.967 140.761 220.363C140.761 220.438 140.737 220.512 140.712 220.586L140.712 220.586V220.611C140.171 222.195 139.36 223.457 138.229 224.397C136.877 225.511 135.181 226.055 133.116 226.055C130.51 226.055 128.445 225.164 126.921 223.407C125.397 221.65 124.635 219.175 124.635 215.983C124.635 212.692 125.397 210.143 126.946 208.312C128.47 206.481 130.486 205.565 132.944 205.565ZM128.765 213.929H137.025C137.516 213.929 137.861 213.484 137.836 213.014C137.467 210.341 135.796 208.287 132.919 208.287C130.436 208.287 128.396 210.341 128.003 213.014C127.929 213.484 128.298 213.929 128.765 213.929Z" fill="#222222"/>
<path d="M147.794 128.289H130.688C129.605 128.289 128.667 127.417 128.667 126.254V109.034C128.667 107.945 129.533 107 130.688 107H147.794C148.877 107 149.815 107.872 149.815 109.034V126.254C149.743 127.417 148.877 128.289 147.794 128.289Z" fill="#6ABF4B"/>
<path d="M147.506 186.56H130.977C129.678 186.56 128.739 185.543 128.739 184.307V167.669C128.739 166.361 129.75 165.417 130.977 165.417H147.506C148.805 165.417 149.743 166.434 149.743 167.669V184.307C149.743 185.47 148.733 186.56 147.506 186.56Z" fill="#6ABF4B"/>
<path d="M147.506 157.424H130.905C129.678 157.424 128.739 156.407 128.739 155.245V138.461C128.739 137.226 129.75 136.281 130.905 136.281H147.506C148.733 136.281 149.671 137.298 149.671 138.461V155.245C149.743 156.48 148.733 157.424 147.506 157.424Z" fill="#6ABF4B"/>
<path d="M176.304 186.56H159.776C158.476 186.56 157.538 185.543 157.538 184.307V167.669C157.538 166.361 158.549 165.417 159.776 165.417H176.304C177.604 165.417 178.542 166.434 178.542 167.669V184.307C178.542 185.47 177.604 186.56 176.304 186.56Z" fill="#6ABF4B"/>
<path d="M176.304 157.424H159.776C158.476 157.424 157.538 156.407 157.538 155.172V138.461C157.538 137.153 158.549 136.208 159.776 136.208H176.304C177.604 136.208 178.542 137.226 178.542 138.461V155.099C178.542 156.407 177.604 157.424 176.304 157.424Z" fill="#F5EA61"/>
<path d="M205.176 186.56H188.575C187.276 186.56 186.338 185.543 186.338 184.308V167.597C186.338 166.289 187.348 165.344 188.575 165.344H205.176C206.476 165.344 207.414 166.361 207.414 167.597V184.308C207.414 185.543 206.403 186.56 205.176 186.56Z" fill="#BC3B4A"/>
</svg>
