<svg width="336" height="336" viewBox="0 0 336 336" fill="none" xmlns="http://www.w3.org/2000/svg">
<path class="swap-color" fill-rule="evenodd" clip-rule="evenodd" d="M230.696 130V161.404H235.213V155.812L238.87 151.94L245.538 161.404H251.13L242.311 149.144L250.915 139.894H244.892L235.213 150.434V130H230.696ZM156.273 170.438L160.79 167.857V175.6H165.522V179.472H160.79V186.785V190.657C160.79 193.453 165.522 192.808 165.522 192.808V197.11C165.522 197.11 160.697 197.62 158.639 195.819C156.918 194.314 156.273 192.859 156.273 191.087V179.472H152.616V175.6H156.273V170.438ZM137.129 175.6V197.11H141.431V185.064C141.431 183.774 142.076 181.408 144.227 180.332C145.518 179.687 149.604 179.902 149.604 179.902V175.6C149.604 175.6 146.223 175.497 144.442 176.246C142.936 176.879 141.431 178.611 141.431 178.611V175.6H137.129ZM218.436 197.11V175.6H222.737V178.611C222.737 178.611 224.243 176.879 225.749 176.246C227.53 175.497 230.911 175.6 230.911 175.6V179.902C230.911 179.902 226.824 179.687 225.534 180.332C223.383 181.408 222.737 183.774 222.737 185.064V197.11H218.436ZM137.129 161.406H132.397C132.397 161.406 132.397 153.662 132.397 148.285C132.397 144.412 135.408 139.466 142.076 139.466C149.604 139.466 152.401 144.627 152.401 148.285V161.406H147.669V150.436C147.669 146.779 146.808 143.768 142.076 143.768C137.344 143.768 137.129 148.033 137.129 150.436V161.406ZM84.4302 143.766V139.894H103.359V144.196L90.2378 157.532H103.359V161.619H84V157.532L97.4662 143.766H84.4302ZM111.317 152.37L128.095 152.37C128.095 152.37 128.622 146.563 125.514 142.906C121.674 138.389 113.898 137.959 109.166 142.906C104.434 147.853 104.434 161.355 117.125 161.834C120.024 161.944 124.438 161.404 127.019 158.178L124.008 155.166C124.008 155.166 120.782 158.178 116.48 157.532C112.178 156.887 111.317 152.37 111.317 152.37ZM111.317 148.929H123.148C123.148 148.929 122.502 143.766 117.34 143.766C111.963 143.766 111.317 148.929 111.317 148.929ZM214.779 188.076L196.926 188.186C196.926 188.186 198.01 192.623 202.845 193.348C207.681 194.073 210.477 189.582 210.477 189.582L214.134 191.733C211.552 196.25 206.389 197.759 203.49 197.65C191.118 197.182 190.8 183.669 195.532 178.721C200.264 173.774 208.143 174.204 211.983 178.721C215.091 182.378 214.779 188.076 214.779 188.076ZM209.832 184.205H197.356C197.356 184.205 198.037 179.042 203.707 179.042C209.151 179.043 209.832 184.205 209.832 184.205ZM174.125 159.038V161.189H178.857V130H174.125V142.476C174.125 142.476 170.899 138.944 165.737 139.464C161.435 139.897 156.053 143.302 156.272 151.079C156.425 156.484 160.144 160.544 164.016 161.619C171.114 162.91 174.125 159.038 174.125 159.038ZM167.673 157.963C171.474 157.963 174.556 154.688 174.556 150.649C174.556 146.61 171.474 143.336 167.673 143.336C163.871 143.336 160.789 146.61 160.789 150.649C160.789 154.688 163.871 157.963 167.673 157.963ZM205.099 152.37H188.322C188.322 152.37 189.397 156.943 193.699 157.317C198.646 157.747 201.013 154.951 201.013 154.951L204.024 158.393C204.024 158.393 198.001 164.523 189.397 160.759C185.956 159.253 182.841 154.796 183.375 149.789C184.018 143.754 188.276 139.249 194.345 139.249C205.745 139.249 205.099 152.37 205.099 152.37ZM188.322 148.713H200.152C200.152 148.713 199.292 143.767 194.344 143.766C189.397 143.766 188.322 148.713 188.322 148.713ZM226.394 143.338L222.522 145.704C222.522 145.704 221.453 144.248 219.726 143.551C217.79 142.905 214.779 143.12 213.919 145.056C213.058 146.992 214.994 147.637 220.371 148.713C222.101 149.059 224.243 150.004 225.104 151.079C226.153 152.391 226.195 152.533 226.394 154.738C226.81 159.339 221.36 163.2 215.209 161.834C211.337 160.974 208.111 156.889 208.111 156.889L212.413 154.738C212.413 154.738 218.221 161.189 221.662 156.241C223.271 153.928 220.75 153.355 217.562 152.631C213.932 151.807 209.437 150.786 209.186 146.777C208.971 143.336 211.493 140.067 215.209 139.464C223.168 138.173 226.394 143.338 226.394 143.338ZM84.43 207V175.596H88.947V178.392C88.947 178.392 91.5282 175.17 96.9056 175.17C101.515 175.271 106.782 179.011 107.015 186.136C107.229 192.67 102.533 197.019 97.9811 197.541C92.8188 198.132 88.947 194.74 88.947 194.74V207H84.43ZM102.713 186.356C102.713 190.395 99.6315 193.669 95.83 193.669C92.0286 193.669 88.9469 190.395 88.9469 186.356C88.9469 182.317 92.0286 179.043 95.83 179.043C99.6315 179.043 102.713 182.317 102.713 186.356ZM127.665 194.527V197.108H132.397V175.383H127.665V177.749C127.665 177.749 123.793 174.389 118.846 175.17C113.468 176.019 110.027 181.193 110.027 185.925C110.027 191.951 113.255 196.606 119.061 197.538C124.438 198.401 127.665 194.527 127.665 194.527ZM121.212 193.239C125.013 193.239 128.095 190.061 128.095 186.141C128.095 182.221 125.013 179.043 121.212 179.043C117.41 179.043 114.329 182.221 114.329 186.141C114.329 190.061 117.41 193.239 121.212 193.239ZM169.178 197.118V175.608H173.695V178.189C173.695 178.189 175.846 175.171 180.148 175.171C186.386 175.172 189.182 179.903 189.182 183.99V197.118H184.45V187.647C184.45 183.775 184.235 179.043 179.288 179.043C176.707 179.043 173.695 180.979 173.695 184.857V197.118H169.178Z" fill="#05363D"/>
</svg>
