<svg width="56" height="56" viewBox="0 0 56 56" fill="none" xmlns="http://www.w3.org/2000/svg">
<path fill-rule="evenodd" clip-rule="evenodd" d="M34 10.5C34 20.1621 41.8304 27.9954 51.4914 28L51.5 28L51.5086 28C51.6729 27.9999 51.8367 27.9976 52 27.993L52 28L52 28.006L52 30.994L52 31L52 31.007C51.8367 31.0024 51.6729 31.0001 51.5086 31L51.5 31L51.4914 31C41.8304 31.0046 34 38.8379 34 48.5C34 48.6672 34.0023 48.8339 34.007 49L31.006 49C31.002 48.8338 31 48.6671 31 48.5C31 41.0921 34.9292 34.602 40.8173 31L4 31L4 28L40.8173 28C34.9292 24.398 31 17.9079 31 10.5C31 10.3329 31.002 10.1662 31.006 10L34.007 10C34.0023 10.1661 34 10.3328 34 10.5Z" fill="currentColor"/>
</svg>
