<svg width="28" height="28" viewBox="0 0 28 28" fill="none" xmlns="http://www.w3.org/2000/svg">
<path d="M24.8333 8.58366H17.25V6.41699H24.8333V8.58366ZM26.7032 19.417C26.2243 20.8221 24.5051 22.667 21.1771 22.667C17.8469 22.667 15.1494 20.7939 15.1494 16.5191C15.1494 12.2832 17.6682 10.1057 21.0709 10.1057C24.4097 10.1057 26.4486 12.0362 26.8938 14.9006C26.9783 15.4487 27.0119 16.1876 26.9967 17.2189H18.3008C18.4417 20.6975 22.0741 20.8069 23.2712 19.417H26.7032ZM18.3767 15.0837H23.7554C23.6417 13.4077 22.5247 12.6797 21.072 12.6797C19.4838 12.6797 18.6052 13.5117 18.3767 15.0837ZM8.00483 22.654H1V6.43974H8.53242C14.4647 6.52749 14.5774 12.3374 11.4791 13.9212C15.2285 15.2862 15.3542 22.654 8.00483 22.654ZM4.25 12.917H8.13267C10.8497 12.917 11.2808 9.66699 7.79467 9.66699H4.25V12.917ZM7.92358 16.167H4.25V19.4343H7.86942C11.179 19.4343 10.9764 16.167 7.92358 16.167Z" fill="currentColor"/>
</svg>
