<svg width="28" height="28" viewBox="0 0 28 28" fill="none" xmlns="http://www.w3.org/2000/svg">
<path fill-rule="evenodd" clip-rule="evenodd" d="M18.0086 4.29196C16.7379 3.76723 15.3763 3.49807 14.0015 3.49985H13.9985C12.5745 3.4981 11.1651 3.78694 9.85662 4.3487C8.5481 4.91046 7.36797 5.73333 6.38845 6.76693L6.38637 6.76912C4.53009 8.71779 3.4963 11.307 3.49997 13.9983L3.49997 13.9998C3.49997 19.799 8.2008 24.4998 14 24.4998H14.0015C15.3763 24.5016 16.7379 24.2325 18.0086 23.7077C19.2793 23.183 20.4342 22.413 21.4072 21.4417L21.4093 21.4396C22.3903 20.4654 23.1686 19.3065 23.699 18.0298C24.2295 16.7531 24.5017 15.3839 24.5 14.0013L25.6666 13.9998L24.5 13.9984C24.5017 12.6158 24.2295 11.2466 23.699 9.96992C23.1686 8.69321 22.3903 7.53428 21.4093 6.5601L21.4072 6.55795C20.4342 5.58668 19.2793 4.81668 18.0086 4.29196ZM26.8333 13.9998C26.8353 15.6902 26.5024 17.3641 25.8538 18.9251C25.2052 20.4861 24.2537 21.9031 23.0544 23.0943C21.8647 24.2816 20.4528 25.2229 18.8992 25.8644C17.3451 26.5062 15.6798 26.8354 13.9985 26.8332C6.9116 26.8324 1.16708 21.0876 1.16664 14.0007C1.16235 10.7098 2.42633 7.54387 4.69586 5.16083C5.89353 3.89732 7.33637 2.8914 8.93614 2.2046C10.5359 1.51781 12.259 1.16458 13.9999 1.16651C15.6808 1.16453 17.3456 1.49371 18.8992 2.13527C20.4528 2.77682 21.8648 3.71815 23.0545 4.9055C24.2538 6.0967 25.2052 7.51368 25.8538 9.07461C26.5024 10.6356 26.8353 12.3095 26.8333 13.9998Z" fill="currentColor"/>
<path fill-rule="evenodd" clip-rule="evenodd" d="M24.7175 12.7962C25.1118 12.8165 25.4336 12.833 25.6667 12.833C26.311 12.833 26.8333 13.3554 26.8333 13.9997C26.8333 14.644 26.311 15.1664 25.6667 15.1664C25.3249 15.1664 24.9074 15.147 24.43 15.1248C22.227 15.0226 18.7474 14.861 15.5347 16.2714C11.1623 18.1914 8.01463 21.1694 6.68904 22.949C6.30414 23.4658 5.57322 23.5727 5.05648 23.1878C4.53975 22.8029 4.43288 22.0719 4.81778 21.5552C6.37384 19.4662 9.83761 16.2247 14.5967 14.1349L14.5968 14.1349C18.3881 12.4705 22.5992 12.6872 24.7175 12.7962Z" fill="currentColor"/>
<path fill-rule="evenodd" clip-rule="evenodd" d="M8.76768 2.39003C9.2047 1.91655 9.9428 1.887 10.4163 2.32402C12.2738 4.0385 16.4385 8.49085 18.0186 13.0332C18.7894 15.2491 19.3096 17.6936 19.6778 19.742C19.8536 20.7198 19.9965 21.6176 20.1149 22.3616L20.1327 22.4736C20.2578 23.2591 20.3487 23.8193 20.4227 24.1453C20.5653 24.7736 20.1716 25.3987 19.5433 25.5413C18.9149 25.6839 18.2899 25.2902 18.1473 24.6618C18.0521 24.2427 17.9476 23.5893 17.8284 22.8405L17.8112 22.7324C17.6924 21.9862 17.5528 21.109 17.3813 20.1549C17.0204 18.1473 16.5256 15.8434 15.8147 13.7998C14.4315 9.82312 10.6279 5.69464 8.83369 4.03862C8.36022 3.6016 8.33066 2.8635 8.76768 2.39003Z" fill="currentColor"/>
<path fill-rule="evenodd" clip-rule="evenodd" d="M23.1333 4.9902C23.549 5.4825 23.4868 6.21858 22.9945 6.63427C22.8958 6.71767 22.7768 6.82021 22.6389 6.93897C21.3061 8.08747 18.2138 10.752 14.6524 12.2729C12.6061 13.1467 10.0601 13.5266 7.81588 13.6824C5.55064 13.8396 3.48834 13.7747 2.35283 13.7062C1.70967 13.6673 1.21975 13.1145 1.25856 12.4713C1.29738 11.8282 1.85023 11.3383 2.49339 11.3771C3.56172 11.4415 5.51829 11.5029 7.6543 11.3546C9.81135 11.2049 12.049 10.8474 13.736 10.127C16.9371 8.76005 19.7528 6.34143 21.111 5.17469C21.2535 5.05228 21.38 4.94365 21.4892 4.85146C21.9815 4.43577 22.7176 4.49789 23.1333 4.9902ZM2.76282 17.3626C3.35834 17.1166 4.04054 17.3999 4.28656 17.9954C5.21216 20.2359 6.88152 22.0891 9.01354 23.2429C9.58022 23.5496 9.791 24.2575 9.48433 24.8242C9.17767 25.3909 8.46969 25.6017 7.90301 25.295C5.2992 23.8859 3.26043 21.6227 2.13 18.8863C1.88398 18.2908 2.16731 17.6086 2.76282 17.3626Z" fill="currentColor"/>
<path fill-rule="evenodd" clip-rule="evenodd" d="M8.93614 2.2046C10.5364 1.51761 12.2599 1.16437 14.0014 1.16651C14.6457 1.16731 15.1674 1.69028 15.1666 2.33461C15.1658 2.97894 14.6429 3.50064 13.9985 3.49985C12.5745 3.4981 11.1651 3.78694 9.85662 4.3487C8.54822 4.91041 7.36818 5.73318 6.38871 6.76666M17.5978 2.83619C17.8561 2.24589 18.544 1.97673 19.1343 2.23501C20.5952 2.87422 21.9245 3.77966 23.0542 4.90512C24.2536 6.0964 25.2051 7.51351 25.8538 9.07461C26.5026 10.636 26.8355 12.3105 26.8333 14.0013C26.8331 15.5785 26.5478 17.0924 26.0244 18.4919C25.7986 19.0954 25.1264 19.4016 24.5229 19.1759C23.9194 18.9502 23.6132 18.278 23.8389 17.6745C24.2661 16.5323 24.5 15.2945 24.5 13.9998V13.9984C24.5017 12.6158 24.2295 11.2466 23.699 9.96992C23.1686 8.69321 22.3903 7.53428 21.4093 6.5601L21.4079 6.55871C20.4832 5.63727 19.395 4.89597 18.199 4.37268C17.6087 4.11441 17.3395 3.4265 17.5978 2.83619ZM8.93614 2.2046C7.33637 2.8914 5.89353 3.89732 4.69586 5.16083L8.93614 2.2046ZM4.69586 5.16083C2.42615 7.54405 1.16215 10.7103 1.16664 14.0014C1.16752 14.6458 1.69056 15.1674 2.33489 15.1665C2.97923 15.1656 3.50085 14.6426 3.49997 13.9983C3.4963 11.307 4.53009 8.71779 6.38637 6.76912C6.38707 6.76839 6.38776 6.76766 6.38845 6.76693M23.0571 21.4432C23.5123 21.8992 23.5116 22.6379 23.0556 23.0931C21.8657 24.281 20.4533 25.2227 18.8992 25.8644C17.3451 26.5062 15.6798 26.8354 13.9985 26.8332C13.3541 26.8323 12.8325 26.3093 12.8333 25.665C12.8341 25.0207 13.3572 24.499 14.0015 24.4998C15.3763 24.5016 16.7379 24.2325 18.0086 23.7077C19.2793 23.183 20.4342 22.413 21.4072 21.4417C21.8632 20.9865 22.6019 20.9872 23.0571 21.4432Z" fill="currentColor"/>
</svg>
