<svg width="24" height="24" viewBox="0 0 24 24" fill="none" xmlns="http://www.w3.org/2000/svg">
<path d="M19.6804 1.91992H4.32041C2.99561 1.91992 1.92041 2.99512 1.92041 4.31992V19.6799C1.92041 21.0047 2.99561 22.0799 4.32041 22.0799H19.6804C21.0052 22.0799 22.0804 21.0047 22.0804 19.6799V4.31992C22.0804 2.99512 21.0052 1.91992 19.6804 1.91992ZM8.16041 9.59992V18.7199H5.28041V9.59992H8.16041ZM5.28041 6.94552C5.28041 6.27352 5.85641 5.75992 6.72041 5.75992C7.58441 5.75992 8.12681 6.27352 8.16041 6.94552C8.16041 7.61752 7.62281 8.15992 6.72041 8.15992C5.85641 8.15992 5.28041 7.61752 5.28041 6.94552ZM18.7204 18.7199H15.8404C15.8404 18.7199 15.8404 14.2751 15.8404 13.9199C15.8404 12.9599 15.3604 11.9999 14.1604 11.9807H14.122C12.9604 11.9807 12.4804 12.9695 12.4804 13.9199C12.4804 14.3567 12.4804 18.7199 12.4804 18.7199H9.60041V9.59992H12.4804V10.8287C12.4804 10.8287 13.4068 9.59992 15.2692 9.59992C17.1748 9.59992 18.7204 10.9103 18.7204 13.5647V18.7199Z" fill="currentColor"/>
</svg>
