<svg width="136" height="50" viewBox="0 0 136 50" fill="none" xmlns="http://www.w3.org/2000/svg">
<path d="M1.39746 46.7113V37.4226H2.34863V41.6067H7.51691V37.4226H8.46808V46.7113H7.51691V42.5188H2.34863V46.7113H1.39746Z" fill="currentColor"/>
<path d="M14.0235 46.9037C13.3417 46.9037 12.744 46.7531 12.2474 46.4518C11.7508 46.1505 11.3551 45.7238 11.0858 45.1798C10.808 44.6359 10.6733 43.9916 10.6733 43.2551C10.6733 42.4936 10.808 41.8326 11.0858 41.2803C11.3636 40.728 11.7424 40.3012 12.239 39.9999C12.7356 39.6987 13.3164 39.548 13.9982 39.548C14.6884 39.548 15.2777 39.707 15.7659 40.025C16.2541 40.343 16.6244 40.7949 16.877 41.3807C17.1295 41.9664 17.2389 42.6694 17.2221 43.4895H16.2457V43.1547C16.2288 42.251 16.0352 41.5731 15.6564 41.1129C15.2861 40.6526 14.7389 40.4183 14.0151 40.4183C13.2659 40.4183 12.6851 40.661 12.2811 41.1464C11.877 41.6317 11.6834 42.3263 11.6834 43.2217C11.6834 44.1003 11.8854 44.7782 12.2811 45.2635C12.6851 45.7489 13.2491 45.9916 13.9814 45.9916C14.4864 45.9916 14.9241 45.8744 15.2945 45.6485C15.6649 45.4225 15.9679 45.0878 16.1783 44.6526L17.0706 44.9957C16.7928 45.5982 16.3888 46.0752 15.85 46.4016C15.3113 46.7363 14.7053 46.9037 14.0235 46.9037ZM11.3467 43.4895V42.6945H16.7002V43.4895H11.3467Z" fill="currentColor"/>
<path d="M19.5537 46.7112V37.2217H20.5049V46.7029H19.5537V46.7112Z" fill="currentColor"/>
<path d="M23.2324 46.7112V39.7405H24.091V41.456H24.192V46.7112H23.2324ZM27.4243 46.7112L27.4327 42.2007C27.4327 41.6484 27.2812 41.2049 26.9866 40.8869C26.692 40.5689 26.2964 40.41 25.8166 40.41C25.3368 40.41 24.9412 40.5773 24.6381 40.9037C24.3435 41.23 24.192 41.6736 24.192 42.2175L23.6196 41.9079C23.6196 41.4643 23.729 41.0627 23.9395 40.7028C24.1499 40.3514 24.4445 40.0669 24.8065 39.866C25.1684 39.6652 25.5893 39.5564 26.0607 39.5564C26.5068 39.5564 26.9024 39.6484 27.2475 39.8409C27.5926 40.0334 27.8704 40.3095 28.0724 40.6694C28.2744 41.0292 28.367 41.4727 28.367 41.9832L28.3586 46.7112H27.4243V46.7112ZM31.5909 46.7112L31.5993 42.1338C31.5993 41.5982 31.4478 41.1715 31.1448 40.8618C30.8418 40.5522 30.463 40.4016 30 40.4016C29.7391 40.4016 29.4781 40.4602 29.2256 40.5857C28.9731 40.7028 28.7711 40.9037 28.6027 41.1631C28.4428 41.4309 28.3586 41.774 28.3586 42.2091L27.7947 42.0501C27.7778 41.548 27.8788 41.1129 28.0893 40.7363C28.2997 40.3597 28.5859 40.0752 28.9563 39.866C29.3266 39.6568 29.7475 39.5564 30.2104 39.5564C30.9175 39.5564 31.4815 39.774 31.9023 40.2007C32.3232 40.6359 32.5421 41.2133 32.5421 41.9497L32.5336 46.7028H31.5909V46.7112Z" fill="currentColor"/>
<path d="M37.9375 46.9037C37.2557 46.9037 36.6581 46.7531 36.1615 46.4518C35.6648 46.1505 35.2692 45.7238 34.9999 45.1798C34.7221 44.6359 34.5874 43.9916 34.5874 43.2551C34.5874 42.4936 34.7221 41.8326 34.9999 41.2803C35.2776 40.728 35.6564 40.3012 36.153 39.9999C36.6497 39.6987 37.2305 39.548 37.9123 39.548C38.6025 39.548 39.1917 39.707 39.6799 40.025C40.1681 40.343 40.5385 40.7949 40.791 41.3807C41.0435 41.9664 41.153 42.6694 41.1361 43.4895H40.1513V43.1547C40.1345 42.251 39.9409 41.5731 39.5621 41.1129C39.1917 40.6526 38.6446 40.4183 37.9207 40.4183C37.1715 40.4183 36.5907 40.661 36.1867 41.1464C35.7827 41.6317 35.5891 42.3263 35.5891 43.2217C35.5891 44.1003 35.7911 44.7782 36.1867 45.2635C36.5907 45.7489 37.1547 45.9916 37.887 45.9916C38.3921 45.9916 38.8298 45.8744 39.2001 45.6485C39.5705 45.4225 39.8735 45.0878 40.084 44.6526L40.9762 44.9957C40.6984 45.5982 40.2944 46.0752 39.7557 46.4016C39.2338 46.7363 38.6193 46.9037 37.9375 46.9037ZM35.2608 43.4895V42.6945H40.6143V43.4895H35.2608Z" fill="currentColor"/>
<path d="M45.9591 46.8953C45.1342 46.8953 44.4608 46.7196 43.9305 46.3681C43.4002 46.0167 43.0719 45.5229 42.9541 44.8953L43.9305 44.7363C44.0315 45.1296 44.2672 45.4476 44.6376 45.6819C45.008 45.9162 45.4625 46.0334 46.0096 46.0334C46.5399 46.0334 46.9608 45.9246 47.2722 45.6987C47.5837 45.4811 47.7352 45.1715 47.7352 44.7949C47.7352 44.5773 47.6847 44.4016 47.5921 44.2677C47.4911 44.1338 47.2975 44.0083 46.9945 43.8911C46.6999 43.774 46.2537 43.6401 45.6561 43.4811C45.0164 43.3054 44.5197 43.138 44.1662 42.9623C43.8127 42.7865 43.5517 42.5941 43.4002 42.3681C43.2487 42.1422 43.173 41.866 43.173 41.5397C43.173 41.1464 43.2824 40.7949 43.5097 40.4936C43.7369 40.1924 44.0484 39.9664 44.444 39.7991C44.8396 39.6317 45.3026 39.548 45.8329 39.548C46.3632 39.548 46.8345 39.6317 47.247 39.7991C47.6594 39.9664 48.0046 40.2091 48.2571 40.5104C48.5096 40.8116 48.6611 41.1715 48.7116 41.5731L47.7352 41.7489C47.6679 41.3388 47.4658 41.0125 47.1207 40.7782C46.7756 40.5439 46.3379 40.4183 45.816 40.41C45.3194 40.3932 44.9154 40.4936 44.6039 40.6945C44.2925 40.8953 44.1325 41.1631 44.1325 41.4895C44.1325 41.6736 44.1915 41.8326 44.3009 41.9664C44.4103 42.1003 44.6208 42.2175 44.9154 42.3346C45.21 42.4518 45.6308 42.5773 46.1864 42.7112C46.8345 42.8786 47.3396 43.0459 47.7015 43.23C48.0635 43.4141 48.3328 43.6234 48.4843 43.866C48.6359 44.1087 48.72 44.4183 48.72 44.7782C48.72 45.4393 48.4759 45.9497 47.9793 46.3263C47.4911 46.7112 46.8177 46.8953 45.9591 46.8953Z" fill="currentColor"/>
<path d="M61.4302 46.9036C60.7737 46.9036 60.176 46.7865 59.6541 46.5606C59.1238 46.3346 58.6777 46.0083 58.3074 45.5898C57.937 45.1714 57.6592 44.661 57.4572 44.0668C57.2552 43.4727 57.1626 42.8032 57.1626 42.0668C57.1626 41.0961 57.3309 40.2426 57.6761 39.5229C58.0127 38.7949 58.501 38.2342 59.1407 37.8325C59.7804 37.4308 60.538 37.23 61.4302 37.23C62.4235 37.23 63.2315 37.4643 63.8628 37.9246C64.4857 38.3848 64.9234 39.0041 65.1675 39.7823L64.208 40.0166C64.0059 39.4476 63.6692 38.9957 63.2063 38.6526C62.7433 38.3095 62.1625 38.1421 61.4723 38.1421C60.74 38.1338 60.1339 38.3011 59.6457 38.6275C59.1575 38.9539 58.7956 39.4141 58.5515 40.0083C58.3074 40.6024 58.1811 41.2802 58.1811 42.0585C58.1727 42.8367 58.2989 43.5145 58.543 44.1003C58.7872 44.6861 59.1575 45.1463 59.6457 45.4811C60.1339 45.8158 60.7484 45.9831 61.4723 45.9831C62.1457 45.9831 62.6928 45.8576 63.1305 45.5982C63.5682 45.3388 63.8965 44.9706 64.1238 44.4852C64.351 43.9999 64.4773 43.4308 64.511 42.7781H62.3561V41.9664H65.5127C65.5295 42.0668 65.5295 42.1672 65.5379 42.276C65.5379 42.3848 65.5379 42.4685 65.5379 42.5103C65.5379 43.3472 65.3864 44.1003 65.0834 44.7614C64.7803 45.4225 64.3258 45.9413 63.7197 46.3262C63.1053 46.7112 62.3477 46.9036 61.4302 46.9036Z" fill="currentColor"/>
<path d="M67.6172 46.7112V39.7405H68.4758V41.4142L68.3074 41.1966C68.3832 40.9874 68.4842 40.8033 68.6104 40.6275C68.7367 40.4518 68.8714 40.3095 69.0229 40.2008C69.2081 40.0418 69.4185 39.9162 69.6626 39.8326C69.9067 39.7489 70.1508 39.6987 70.3949 39.6819C70.639 39.6652 70.8663 39.6819 71.0683 39.7405V40.6275C70.8158 40.5606 70.5296 40.5439 70.235 40.5857C69.932 40.6192 69.6542 40.7363 69.4017 40.9455C69.166 41.1296 68.9892 41.3388 68.8798 41.5899C68.762 41.8409 68.6862 42.1087 68.6441 42.3932C68.602 42.6778 68.5852 42.9539 68.5852 43.2301V46.7112H67.6172V46.7112Z" fill="currentColor"/>
<path d="M75.8663 46.9037C75.1676 46.9037 74.5784 46.7447 74.0818 46.4351C73.5851 46.1254 73.2064 45.6903 72.9454 45.1296C72.6845 44.5773 72.5498 43.9413 72.5498 43.2217C72.5498 42.4936 72.6845 41.8493 72.9538 41.297C73.2232 40.7447 73.602 40.3179 74.0986 40.0083C74.5952 39.6987 75.1845 39.548 75.8663 39.548C76.5649 39.548 77.1625 39.707 77.6592 40.0167C78.1558 40.3263 78.5346 40.7614 78.7955 41.3137C79.0565 41.866 79.1911 42.502 79.1911 43.2217C79.1911 43.9497 79.0565 44.5941 78.7955 45.1464C78.5346 45.6987 78.1474 46.1338 77.6508 46.4434C77.1541 46.7531 76.5649 46.9037 75.8663 46.9037ZM75.8663 45.9916C76.6491 45.9916 77.2215 45.7321 77.6087 45.2217C77.9875 44.7112 78.1811 44.0418 78.1811 43.2217C78.1811 42.3765 77.9875 41.707 77.6087 41.2049C77.2299 40.7028 76.6491 40.4602 75.8747 40.4602C75.3528 40.4602 74.9235 40.5773 74.5784 40.8116C74.2417 41.0459 73.9892 41.3723 73.8208 41.7823C73.6525 42.2008 73.5683 42.6777 73.5683 43.2217C73.5683 44.0585 73.7619 44.7363 74.1491 45.2384C74.5363 45.7405 75.1087 45.9916 75.8663 45.9916Z" fill="currentColor"/>
<path d="M84.0815 46.887C83.6607 46.887 83.2987 46.82 82.9789 46.6945C82.6674 46.569 82.3981 46.3932 82.1792 46.1757C81.9604 45.9581 81.7836 45.707 81.6489 45.4225C81.5142 45.138 81.4132 44.8451 81.3543 44.5271C81.2954 44.2091 81.2617 43.8995 81.2617 43.5815V39.7489H82.2213V43.3054C82.2213 43.6903 82.255 44.0418 82.3307 44.3681C82.4065 44.6945 82.5243 44.979 82.6843 45.2217C82.8442 45.4644 83.0546 45.6568 83.3156 45.7824C83.5765 45.9162 83.8879 45.9832 84.2499 45.9832C84.5866 45.9832 84.8812 45.9246 85.1421 45.8075C85.4031 45.6903 85.6135 45.5229 85.7903 45.3054C85.967 45.0878 86.1017 44.82 86.1859 44.5104C86.2785 44.2008 86.3206 43.8493 86.3206 43.456L86.994 43.6066C86.994 44.3179 86.8677 44.9204 86.6152 45.4058C86.3627 45.8911 86.0175 46.2593 85.5798 46.5104C85.159 46.7614 84.6539 46.887 84.0815 46.887ZM86.4384 46.7112V44.9957H86.3374V39.7405H87.2886V46.7112H86.4384Z" fill="currentColor"/>
<path d="M89.8813 49.8075V39.7405H90.7399V44.9874H90.8409V49.8075H89.8813ZM93.0379 46.9037C92.3897 46.9037 91.851 46.7447 91.4049 46.4183C90.9588 46.092 90.6221 45.6485 90.3948 45.0962C90.1675 44.5355 90.0497 43.9162 90.0497 43.2217C90.0497 42.5188 90.1675 41.8911 90.3948 41.3305C90.6221 40.7782 90.9672 40.343 91.4133 40.025C91.8594 39.707 92.415 39.548 93.0715 39.548C93.7113 39.548 94.2584 39.707 94.7213 40.0334C95.1759 40.3598 95.5294 40.7949 95.7735 41.3472C96.0176 41.8995 96.1439 42.5271 96.1439 43.2217C96.1439 43.9162 96.0176 44.5439 95.7735 45.0962C95.5294 45.6485 95.1759 46.092 94.7129 46.4183C94.25 46.7447 93.686 46.9037 93.0379 46.9037ZM92.9369 46.0167C93.4251 46.0167 93.8291 45.8911 94.1574 45.6485C94.4857 45.4058 94.7213 45.0711 94.8897 44.6443C95.0496 44.2175 95.1338 43.7405 95.1338 43.2133C95.1338 42.6861 95.0496 42.2175 94.8897 41.7907C94.7298 41.3723 94.4857 41.0376 94.1574 40.7949C93.8291 40.5522 93.4166 40.4267 92.9116 40.4267C92.4234 40.4267 92.0194 40.5439 91.6911 40.7782C91.3628 41.0125 91.1271 41.3388 90.9672 41.7656C90.8073 42.184 90.7231 42.6694 90.7231 43.2133C90.7231 43.7489 90.8073 44.2342 90.9672 44.6526C91.1271 45.0794 91.3712 45.4058 91.6911 45.6485C92.0278 45.8995 92.4402 46.0167 92.9369 46.0167Z" fill="currentColor"/>
<path fill-rule="evenodd" clip-rule="evenodd" d="M18.7035 13.8075H12.9628C12.7945 12.0167 11.6665 11.1213 9.58742 11.1213C8.60259 11.1213 7.85344 11.2803 7.34839 11.6067C6.84335 11.9247 6.59083 12.3431 6.59083 12.8452C6.59083 13.3473 6.82651 13.7573 7.30631 14.0586C7.7861 14.3682 8.51841 14.6527 9.50325 14.8954C12.9628 15.7657 15.1345 16.41 16.0015 16.8285C18.1984 17.8661 19.2927 19.5816 19.2927 21.9916C19.2927 24.0921 18.5435 25.7406 17.0537 26.9456C15.5638 28.1506 13.2658 28.7531 10.1682 28.7531C6.96119 28.7531 4.47806 28.1088 2.71882 26.8201C0.968002 25.5314 0.0589218 23.7824 0 21.5732H6.24571C6.24571 22.41 6.59083 23.0879 7.28105 23.6067C7.97128 24.1255 8.9477 24.3849 10.2187 24.3849C12.2978 24.3849 13.3416 23.7406 13.3416 22.4519C13.3416 21.9498 13.1396 21.5649 12.7271 21.2971C12.3231 21.0293 11.6076 20.7699 10.5975 20.5188C7.61775 19.7908 5.57232 19.1715 4.47806 18.6276C1.99492 17.4142 0.757566 15.5732 0.757566 13.1381C0.757566 11.2887 1.46463 9.80753 2.88717 8.68619C4.30971 7.56485 6.58241 7.00418 9.70527 7.00418C12.685 7.00418 14.8988 7.57322 16.3382 8.70293C17.7776 9.841 18.5604 11.5397 18.7035 13.8075ZM26.9273 17.8828C26.9273 21.7406 28.434 23.6736 31.4474 23.6736C34.4609 23.6736 35.9676 21.7406 35.9676 17.8828C35.9676 14.0753 34.4609 12.1757 31.4474 12.1757C28.434 12.1757 26.9273 14.0753 26.9273 17.8828ZM31.439 28.7531C28.0889 28.7531 25.4542 27.7573 23.5266 25.7741C21.5991 23.7908 20.6311 21.1548 20.6311 17.8828C20.6311 14.5774 21.5991 11.9414 23.5435 9.9749C25.4879 8 28.1141 7.01255 31.439 7.01255C34.7302 7.01255 37.3396 8 39.2504 9.9749C41.1611 11.9498 42.1207 14.5858 42.1207 17.8828C42.1207 21.1548 41.1527 23.7908 39.2251 25.7741C37.3059 27.7573 34.705 28.7531 31.439 28.7531ZM50.4455 28.2092H44.326V0H50.4455V28.2092V28.2092ZM63.0295 23.7992C64.2921 23.7992 65.3022 23.2971 66.0514 22.2845C66.8005 21.2803 67.1709 19.8494 67.1709 18C67.1709 14.1423 65.7904 12.2092 63.0295 12.2092C60.2434 12.2092 58.8461 14.1925 58.8461 18.1674C58.8461 19.9582 59.2333 21.3473 60.0077 22.3264C60.7905 23.3054 61.7922 23.7992 63.0295 23.7992ZM58.9387 28.2092H53.0717V0H59.0649V10.0753C60.3023 8.03347 62.2635 7.01255 64.9319 7.01255C67.5497 7.01255 69.6119 8.00837 71.1186 9.99163C72.6254 11.9749 73.3745 14.5356 73.3745 17.6736C73.3745 21.0879 72.5412 23.7908 70.883 25.7741C69.2247 27.7573 67.053 28.7531 64.3847 28.7531C61.9353 28.7531 60.1339 27.7573 58.9807 25.7741L58.9387 28.2092ZM81.4889 15.7824H89.0898C89.0056 14.4686 88.6268 13.4812 87.9534 12.8201C87.2801 12.159 86.3878 11.8326 85.2936 11.8326C84.2245 11.8326 83.3491 12.1674 82.6757 12.8368C81.9939 13.5146 81.5983 14.4937 81.4889 15.7824ZM95.2093 19.431H81.3626C81.4468 20.7448 81.8593 21.8243 82.6084 22.6611C83.3575 23.4979 84.3003 23.9163 85.4619 23.9163C86.2531 23.9163 86.9434 23.749 87.5494 23.4142C88.1555 23.0795 88.5258 22.6444 88.6689 22.1088H94.9567C94.3338 24.2092 93.2143 25.841 91.5814 26.9958C89.9484 28.159 88.004 28.7364 85.7565 28.7364C78.7448 28.7364 75.2432 24.9874 75.2432 17.4895C75.2432 14.2678 76.1354 11.7155 77.9283 9.83264C79.7128 7.94142 82.1959 6.99582 85.3777 6.99582C88.5848 6.99582 91.0258 7.96653 92.7009 9.91632C94.3759 11.8577 95.2093 14.7364 95.2093 18.5439V19.431ZM111.531 28.8787V26.0251C111.16 26.728 110.512 27.2887 109.569 27.7238C108.627 28.159 107.507 28.3766 106.211 28.3766C104.519 28.3766 103.054 28.0753 101.817 27.4728C100.58 26.8703 99.62 26.0418 98.9466 24.9958C98.2732 23.9498 97.7766 22.8201 97.4651 21.6151C97.1537 20.41 97.0022 19.1213 97.0022 17.7573C97.0022 14.569 97.8439 11.9749 99.5105 9.99163C101.186 8.00837 103.374 7.01255 106.076 7.01255C108.526 7.01255 110.369 8.00837 111.606 9.99163V7.55648H117.642V28.4184C117.642 31.4644 116.69 33.8243 114.788 35.4895C112.886 37.1548 110.335 37.9833 107.128 37.9833C104.031 37.9833 101.573 37.205 99.7378 35.6569C97.9112 34.1004 96.9937 32 96.9937 29.3389H102.65C102.65 30.4017 103.029 31.2385 103.787 31.8326C104.544 32.4351 105.613 32.7364 106.994 32.7364C108.399 32.7364 109.502 32.3849 110.31 31.6904C111.127 30.9874 111.531 30.0502 111.531 28.8787ZM104.46 22.159C105.209 23.1381 106.211 23.6318 107.482 23.6318C108.753 23.6318 109.771 23.1548 110.546 22.2008C111.32 21.2469 111.707 19.8912 111.707 18.1255C111.707 14.1506 110.302 12.1674 107.482 12.1674C104.721 12.1674 103.34 14.1004 103.34 17.9582C103.34 19.7824 103.711 21.1799 104.46 22.159Z" fill="currentColor"/>
<path d="M136 33.4142H120.335V37.5983H136V33.4142Z" fill="currentColor"/>
</svg>
