<svg width="18" height="18" viewBox="0 0 18 18" fill="none" xmlns="http://www.w3.org/2000/svg">
<path fill-rule="evenodd" clip-rule="evenodd" d="M16.5023 12.3862C16.4614 12.4037 16.4205 12.4208 16.3794 12.4376C15.0046 12.9998 13.4975 13.1839 12.0172 12.9621C10.2387 12.6956 8.59587 11.8576 7.33795 10.5753C6.08002 9.29295 5.27566 7.63627 5.0469 5.85659C4.8622 4.41969 5.06086 2.96593 5.61418 1.63948C5.63376 1.59254 5.65378 1.54577 5.67425 1.49916C5.73877 1.35221 5.80769 1.20691 5.88098 1.06346C5.88198 1.0615 5.88298 1.05954 5.88398 1.05759C5.94326 0.941762 6.0054 0.827143 6.07035 0.713836C6.28326 0.192335 5.8457 -0.14166 5.41402 0.05903C5.32593 0.100486 5.23857 0.143263 5.15197 0.187339C5.09731 0.215153 5.04295 0.243485 4.98891 0.272328C4.86692 0.337425 4.7465 0.405129 4.62771 0.475378C4.56559 0.512116 4.50392 0.54955 4.4427 0.587672C3.48462 1.18431 2.63897 1.94926 1.94826 2.84829C1.0324 4.04039 0.41552 5.43368 0.149068 6.91196C-0.117384 8.39025 -0.025682 9.91067 0.416526 11.3464C0.858733 12.7821 1.63863 14.0916 2.69116 15.1655C3.74369 16.2394 5.03835 17.0467 6.46716 17.52C7.89596 17.9933 9.41749 18.1189 10.9048 17.8864C12.3922 17.6538 13.8022 17.0698 15.0174 16.1831C15.9754 15.484 16.7903 14.6128 17.422 13.617C17.4562 13.563 17.4898 13.5087 17.523 13.4541C17.5997 13.3275 17.6735 13.199 17.7443 13.0687C17.7455 13.0665 17.7467 13.0642 17.748 13.0619C17.7601 13.0395 17.7722 13.0171 17.7842 12.9946C17.7875 12.9882 17.7909 12.9819 17.7942 12.9756C17.8269 12.9138 17.8589 12.8515 17.8903 12.7889L17.9417 12.6878C17.9919 12.5934 18.0104 12.4854 17.9945 12.3797C17.9786 12.2741 17.9291 12.1762 17.8533 12.1007C17.7776 12.0251 17.6796 11.9757 17.5736 11.9599C17.4677 11.944 17.3594 11.9625 17.2648 12.0125L17.1928 12.0521C17.1181 12.0926 17.0429 12.1319 16.9672 12.17C16.9598 12.1737 16.9524 12.1774 16.945 12.1811C16.9027 12.2023 16.8602 12.2231 16.8175 12.2435C16.8146 12.2448 16.8118 12.2462 16.809 12.2476C16.7076 12.2959 16.6053 12.3421 16.5023 12.3862ZM14.7971 14.4297C13.8095 14.5884 12.797 14.5957 11.7949 14.4456C9.69444 14.1308 7.75362 13.141 6.26715 11.6257C4.78062 10.1103 3.82962 8.15207 3.55914 6.04783C3.43659 5.09438 3.4568 4.13469 3.61374 3.1989C3.44677 3.37879 3.2879 3.5667 3.13775 3.76214C2.36769 4.76446 1.84921 5.93568 1.62528 7.17804C1.40135 8.4204 1.47841 9.69818 1.85007 10.9049C2.22174 12.1116 2.87732 13.2125 3.76244 14.1156C4.64757 15.0187 5.7366 15.6979 6.93884 16.0961C8.14109 16.4944 9.42147 16.6001 10.6731 16.4044C11.9247 16.2087 13.1111 15.7173 14.1332 14.9714C14.3647 14.8025 14.5863 14.6216 14.7971 14.4297Z" fill="currentColor"/>
</svg>
