<svg width="20" height="20" viewBox="0 0 20 20" fill="none" xmlns="http://www.w3.org/2000/svg">
<path d="M9.16667 0V2.5H10.8333V0H9.16667ZM3.51888 2.34049L2.34049 3.51888L4.10807 5.28646L5.28646 4.10807L3.51888 2.34049ZM16.4811 2.34049L14.7135 4.10807L15.8919 5.28646L17.6595 3.51888L16.4811 2.34049ZM10 4.16667C6.78821 4.16667 4.16667 6.78821 4.16667 10C4.16667 13.2118 6.78821 15.8333 10 15.8333C13.2118 15.8333 15.8333 13.2118 15.8333 10C15.8333 6.78821 13.2118 4.16667 10 4.16667ZM10 5.83333C12.3111 5.83333 14.1667 7.68894 14.1667 10C14.1667 12.3111 12.3111 14.1667 10 14.1667C7.68894 14.1667 5.83333 12.3111 5.83333 10C5.83333 7.68894 7.68894 5.83333 10 5.83333ZM0 9.16667V10.8333H2.5V9.16667H0ZM17.5 9.16667V10.8333H20V9.16667H17.5ZM4.10807 14.7135L2.34049 16.4811L3.51888 17.6595L5.28646 15.8919L4.10807 14.7135ZM15.8919 14.7135L14.7135 15.8919L16.4811 17.6595L17.6595 16.4811L15.8919 14.7135ZM9.16667 17.5V20H10.8333V17.5H9.16667Z" fill="currentColor"/>
</svg>
