<svg width="24" height="24" viewBox="0 0 24 24" fill="none" xmlns="http://www.w3.org/2000/svg">
<path d="M24.0303 5.01004C23.1434 5.40379 22.1928 5.66816 21.1934 5.78816C22.2134 5.17691 22.9972 4.20941 23.3647 3.05816C22.4122 3.62254 21.3528 4.03316 20.2297 4.25441C19.3297 3.29441 18.0472 2.69629 16.6278 2.69629C13.9015 2.69629 11.6909 4.90504 11.6909 7.63129C11.6909 8.01754 11.7359 8.39441 11.8203 8.75629C7.71779 8.55004 4.08217 6.58504 1.64654 3.59816C1.22092 4.32941 0.979043 5.17691 0.979043 6.08066C0.979043 7.79254 1.84904 9.30379 3.17467 10.1907C2.36467 10.1644 1.60342 9.94129 0.937793 9.57191C0.937793 9.59254 0.937793 9.61316 0.937793 9.63379C0.937793 12.0263 2.64029 14.0194 4.89592 14.475C4.48342 14.5875 4.04654 14.6475 3.59654 14.6475C3.27779 14.6475 2.96842 14.6175 2.66654 14.5575C3.29654 16.5169 5.11904 17.9475 7.27717 17.9869C5.58967 19.3107 3.46154 20.0982 1.14779 20.0982C0.748418 20.0982 0.356543 20.0757 -0.027832 20.0288C2.15467 21.4313 4.74967 22.2469 7.53779 22.2469C16.6165 22.2469 21.5815 14.7263 21.5815 8.20504C21.5815 7.99129 21.5759 7.77566 21.5684 7.56566C22.5322 6.87004 23.3684 6.00004 24.0303 5.01004Z" fill="currentColor"/>
</svg>
