<svg width="262" height="168" viewBox="0 0 262 168" fill="none" xmlns="http://www.w3.org/2000/svg">
<path d="M73.4772 112.783C73.0159 112.775 72.5581 112.865 72.1333 113.046C71.7085 113.228 71.3262 113.497 71.0111 113.837C70.3358 114.542 70 115.39 70 116.392C70 117.368 70.3341 118.215 71.0111 118.929C71.688 119.643 72.5092 120 73.4772 120C73.9498 120.007 74.4189 119.916 74.8548 119.732C75.2908 119.548 75.6842 119.274 76.0101 118.929C76.7082 118.216 77.0651 117.37 77.0651 116.392C77.0651 115.413 76.7178 114.565 76.0101 113.851C75.6846 113.506 75.2912 113.232 74.8551 113.048C74.419 112.864 73.9497 112.774 73.4772 112.783ZM160.441 78.3303H173.536V119.262H178.854V78.3303H191.924V73.4781H160.45V78.3303H160.441ZM136.703 98.4132H153.093V93.561H136.704V78.3303H154.393V73.4781H131.402V119.262H155.452V114.41H136.726V98.4123L136.703 98.4132ZM116.054 105.726L116.373 112.456H116.25C115.934 111.835 115.318 110.822 114.404 109.396L91.6859 73.4702H84.8055V119.254H90.1245V86.1931L89.8713 79.9066H90.0647C90.4648 80.9489 90.9378 81.9043 91.4846 82.7807L114.903 119.274H121.357V73.4897H116.082V105.737L116.054 105.726ZM178.894 64.3229C178.894 66.7747 179.971 68.0015 182.129 68.0015C182.899 68.0015 183.519 67.8684 183.988 67.5979V65.8948C183.626 66.1635 183.2 66.2984 182.709 66.2984C182.049 66.2984 181.581 66.121 181.295 65.7644C181.012 65.4095 180.875 64.8188 180.875 63.9903V56.956H183.987V55.2643H180.875V51.5742L178.893 52.2218V55.2643H176.771V56.956H178.893V64.3327L178.894 64.3229ZM170.806 67.7247H172.784V56.9471H175.681V55.2555H172.784V53.3341C172.784 51.5724 173.471 50.6907 174.857 50.6907C175.316 50.6837 175.769 50.7967 176.171 51.0189V49.2164C175.825 49.0745 175.348 49 174.738 49C173.683 49 172.804 49.3344 172.069 50.0112C171.22 50.7874 170.806 51.874 170.806 53.2348V55.2572H168.695V56.9489H170.806V67.7247ZM157.317 61.5598C157.317 59.9684 157.704 58.7425 158.482 57.8732C159.224 57.0615 160.21 56.6552 161.44 56.6552C162.685 56.6552 163.658 57.0562 164.349 57.8598C165.064 58.6972 165.421 59.9143 165.421 61.5127C165.421 63.0385 165.087 64.2129 164.419 65.045C163.737 65.8965 162.744 66.3223 161.441 66.3223C160.186 66.3223 159.185 65.9019 158.431 65.0609C157.688 64.2236 157.317 63.0518 157.317 61.5598ZM165.784 66.223C166.892 65.0254 167.455 63.4288 167.455 61.4329C167.455 59.4131 166.932 57.8226 165.901 56.6694C164.864 55.5216 163.429 54.9432 161.593 54.9432C159.717 54.9432 158.219 55.4976 157.104 56.5976C155.9 57.7862 155.293 59.4592 155.293 61.6272C155.293 63.529 155.826 65.0583 156.887 66.2159C157.971 67.4169 159.437 68.0166 161.305 68.0166C163.187 68.0166 164.684 67.4152 165.792 66.2159L165.784 66.223ZM152.205 66.922C152.57 66.6107 152.861 66.2212 153.058 65.7819C153.254 65.3425 153.351 64.8643 153.341 64.3823C153.341 63.4545 153.037 62.6916 152.432 62.0937C151.97 61.6192 151.208 61.157 150.152 60.7135C149.214 60.3099 148.589 59.9622 148.305 59.6756C147.977 59.3696 147.81 58.9394 147.81 58.3894C147.805 58.1477 147.856 57.9081 147.959 57.6899C148.062 57.4717 148.215 57.2808 148.404 57.1325C148.796 56.8105 149.323 56.649 149.986 56.649C151.045 56.649 151.977 56.9435 152.8 57.5379V55.5269C152.021 55.1366 151.142 54.9432 150.158 54.9432C148.877 54.9432 147.832 55.2847 147.019 55.9758C146.206 56.6668 145.801 57.5237 145.801 58.5482C145.801 59.4734 146.064 60.2336 146.587 60.8013C147.02 61.2892 147.758 61.7567 148.785 62.2153C149.789 62.6606 150.466 63.0402 150.812 63.3684C151.158 63.6967 151.333 64.0781 151.333 64.5731C151.333 65.7333 150.549 66.3161 148.982 66.3161C147.808 66.3161 146.74 65.9169 145.768 65.1221V67.2688C146.647 67.7709 147.664 68.0192 148.845 68.0192C150.271 68.0192 151.407 67.6644 152.235 66.9237L152.205 66.922ZM134.596 57.8758C135.335 57.0642 136.32 56.6579 137.55 56.6579C138.799 56.6579 139.766 57.0589 140.452 57.8625C141.155 58.6999 141.524 59.9169 141.524 61.5154C141.524 63.0411 141.19 64.2156 140.522 65.0476C139.84 65.8992 138.852 66.325 137.544 66.325C136.287 66.325 135.285 65.9045 134.541 65.0636C133.791 64.2262 133.42 63.0553 133.42 61.5633C133.42 59.9719 133.81 58.746 134.589 57.8767L134.596 57.8758ZM137.397 68.0281C139.279 68.0281 140.775 67.4267 141.881 66.2274C142.987 65.0281 143.552 63.4332 143.552 61.4373C143.552 59.4175 143.024 57.827 142.004 56.6739C140.967 55.526 139.528 54.9477 137.684 54.9477C135.811 54.9477 134.317 55.5021 133.2 56.602C131.991 57.7907 131.389 59.4636 131.389 61.6316C131.389 63.5334 131.921 65.0627 132.972 66.2203C134.056 67.4214 135.521 68.021 137.388 68.021L137.397 68.0281ZM127.393 55.7052C126.792 56.202 126.345 56.9001 126.053 57.8128H126.004V55.2404H124.028V67.7123H126.004V61.3522C126.004 59.9063 126.312 58.7753 126.936 57.9548C127.484 57.2256 128.167 56.8619 128.962 56.8619C129.623 56.8619 130.124 56.9923 130.474 57.2611V55.1907C130.206 55.0789 129.814 55.0133 129.289 55.0133C128.589 55.0133 127.956 55.2404 127.395 55.6946L127.393 55.7052ZM117.648 68.0006C118.955 68.0006 120.085 67.7097 121.033 67.1136V65.2153C120.084 65.9303 119.074 66.2797 117.991 66.2797C116.712 66.2797 115.705 65.8584 114.935 65.0139C114.165 64.1694 113.792 63.0198 113.792 61.5677C113.792 60.058 114.212 58.8471 115.037 57.9424C115.831 57.0571 116.854 56.6135 118.114 56.6135C119.169 56.6135 120.138 56.9364 121.06 57.5893V55.5491C120.229 55.1304 119.275 54.9157 118.2 54.9157C116.237 54.9157 114.684 55.5367 113.514 56.8025C112.349 58.0603 111.768 59.712 111.768 61.7549C111.768 63.5751 112.301 65.0636 113.351 66.2123C114.441 67.3974 115.865 67.99 117.639 67.99L117.648 68.0006ZM106.716 67.6901H108.69V55.2182H106.716V67.6901ZM107.728 52.055C108.09 52.055 108.399 51.9281 108.651 51.6753C108.902 51.4225 109.031 51.1165 109.031 50.7501C109.034 50.5789 109.002 50.4089 108.936 50.2509C108.871 50.0929 108.773 49.9503 108.651 49.832C108.53 49.7107 108.386 49.6154 108.227 49.5516C108.069 49.4879 107.899 49.4572 107.728 49.4613C107.377 49.4613 107.069 49.5828 106.816 49.832C106.693 49.9504 106.597 50.0931 106.532 50.2512C106.467 50.4092 106.436 50.5791 106.44 50.7501C106.44 51.1342 106.566 51.4447 106.816 51.6886C107.066 51.9326 107.374 52.055 107.728 52.055ZM86.7476 55.9873L86.6535 52.581H86.6975C86.8733 53.4006 87.0491 54.0003 87.2127 54.3728L93.1278 67.6928H94.1178L100.021 54.2753C100.174 53.9249 100.349 53.3616 100.538 52.5899H100.585L100.416 55.974V67.7008H102.438V50.2392H99.8888L94.4668 62.3652C94.2558 62.8353 93.9833 63.5503 93.6369 64.5056H93.5525C93.4276 64.0302 93.1683 63.333 92.7665 62.4158L87.4562 50.2383H84.7773V67.6999H86.7344V55.9962L86.7476 55.9873ZM186.611 53.8353C187.165 53.2729 187.859 52.9926 188.694 52.9926C189.076 52.9848 189.455 53.0547 189.808 53.1983C190.162 53.3419 190.484 53.5562 190.753 53.8282C191.313 54.3871 191.595 55.0878 191.595 55.9216C191.595 56.7555 191.313 57.4634 190.747 58.0195C190.183 58.5872 189.495 58.8675 188.693 58.8675C187.885 58.8675 187.196 58.5908 186.636 58.0302C186.069 57.4696 185.782 56.7617 185.782 55.9216C185.782 55.0967 186.058 54.3995 186.608 53.8344L186.611 53.8353ZM188.677 59.2037C189.612 59.2037 190.396 58.8844 191.033 58.2528C191.67 57.6212 192 56.838 192 55.9021C192 54.9512 191.68 54.1635 191.036 53.5426C190.41 52.9358 189.637 52.6289 188.712 52.6289C187.771 52.6289 186.984 52.9483 186.351 53.5869C186.043 53.892 185.8 54.2575 185.636 54.661C185.473 55.0645 185.394 55.4975 185.403 55.9332C185.403 56.8797 185.71 57.6603 186.335 58.2812C186.956 58.8959 187.741 59.2064 188.685 59.2064L188.677 59.2037ZM187.994 54.2744H188.516C188.867 54.2744 189.135 54.3365 189.286 54.4518C189.421 54.5671 189.488 54.7374 189.488 54.9805C189.488 55.4639 189.202 55.7052 188.622 55.7052H187.994V54.2655V54.2744ZM187.994 56.2188H188.38C188.65 56.2188 188.907 56.4707 189.127 56.9817L189.584 57.9929H190.287L189.738 56.8681C189.509 56.4033 189.276 56.1434 189.035 56.0875V56.0698C189.369 55.9988 189.632 55.8604 189.826 55.6546C190.019 55.4488 190.107 55.2067 190.107 54.9149C190.112 54.7645 190.084 54.615 190.024 54.4769C189.965 54.3389 189.876 54.2158 189.764 54.1165C189.493 53.877 189.1 53.7617 188.575 53.7617H187.397V57.9885H187.986V56.2144L187.994 56.2188Z" fill="#20101E"/>
</svg>
