<svg width="200" height="130" viewBox="0 0 200 130" fill="none" xmlns="http://www.w3.org/2000/svg">
<path d="M53.0509 79.2367C53.0509 79.2367 51.0777 80.4551 54.4244 80.8041C58.4444 81.3255 60.5995 81.2393 65.0595 80.3689C65.0595 80.3689 66.2599 81.1509 67.8902 81.7629C57.8548 86.1149 45.1616 81.5023 53.052 79.239L53.0509 79.2367ZM51.7645 73.5791C51.7645 73.5791 49.6205 75.2338 52.9649 75.5817C57.3389 76.0169 60.7815 76.1031 66.6887 74.8859C66.6887 74.8859 67.4592 75.7563 68.7467 76.1915C56.6532 79.8476 43.1014 76.5394 51.7645 73.5803V73.5791ZM75.4378 83.5026C75.4378 83.5026 76.8962 84.7209 73.8075 85.6786C68.0611 87.4194 49.7064 87.9419 44.5597 85.6786C42.7585 84.8966 46.1901 83.7519 47.3045 83.5899C48.4212 83.3292 49.0197 83.3292 49.0197 83.3292C47.0477 81.9352 35.8966 86.2022 43.3582 87.4092C63.8568 90.8035 80.7531 85.9291 75.4356 83.4924L75.4378 83.5026ZM53.9933 67.6597C53.9933 67.6597 44.6446 69.923 50.6478 70.7061C53.2206 71.0541 58.2813 70.9668 62.9981 70.6189C66.8573 70.2709 70.7176 69.5739 70.7176 69.5739C70.7176 69.5739 69.3441 70.1837 68.4017 70.7923C58.881 73.3162 40.6123 72.1863 45.845 69.5739C50.305 67.3979 53.9933 67.6473 53.9933 67.6473V67.6597ZM70.7188 77.148C80.3243 72.099 75.8644 67.2245 72.7768 67.8343C72.0063 68.0088 71.6601 68.1822 71.6601 68.1822C71.6601 68.1822 71.9169 67.6609 72.5177 67.4863C78.6069 65.3103 83.4108 74.0143 70.5446 77.4098C70.5446 77.4098 70.6305 77.3225 70.7165 77.1491L70.7188 77.148ZM54.938 90.901C64.2008 91.5107 78.3545 90.5531 78.6962 86.1138C78.6962 86.1138 78.0106 87.8546 71.0627 89.1602C63.1723 90.6403 53.3948 90.4658 47.6462 89.5081C47.6462 89.5081 48.8466 90.5531 54.938 90.9021V90.901Z" fill="#3977A3"/>
<path d="M64.8865 38.9331C64.8865 38.9331 70.204 44.4184 59.8257 52.6872C51.5066 59.3898 57.9274 63.2204 59.8257 67.5724C54.937 63.1332 51.4206 59.2164 53.8214 55.5591C57.3389 50.1622 67.0294 47.551 64.8854 38.9331H64.8865ZM62.1417 63.9163C64.6285 66.7893 61.455 69.4016 61.455 69.4016C61.455 69.4016 67.8021 66.0923 64.8854 62.001C62.2277 58.0842 60.1685 56.1688 71.3173 49.6397C71.3173 49.6397 53.7343 54.079 62.1406 63.9152L62.1417 63.9163Z" fill="#F58219"/>
<path d="M117.105 74.2503V61.0164C117.105 57.639 115.243 55.3452 110.586 55.3452C107.925 55.3452 105.662 56.0206 103.667 56.8298L104.333 59.2608C105.796 58.7202 107.66 58.1808 109.655 58.1808C112.183 58.1808 113.38 59.2608 113.38 61.4221V63.1788H112.06C105.673 63.1788 102.747 65.6098 102.747 69.5254C102.747 72.7668 104.742 74.6572 108.335 74.6572C110.597 74.6572 112.327 73.5771 113.923 72.2262L114.188 74.2514H117.114L117.105 74.2503ZM113.378 69.93C112.049 71.145 110.584 71.8204 109.253 71.8204C107.522 71.8204 106.459 70.7404 106.459 68.8511C106.459 66.9618 107.523 65.6098 111.781 65.6098H113.378V69.9312V69.93ZM129.61 74.2514H124.953L119.366 55.752H123.358L126.818 67.0967L127.616 70.474C129.347 65.612 130.676 60.6163 131.209 55.7554H135.2C134.135 61.8324 132.274 68.4488 129.612 74.2548L129.61 74.2514ZM151.163 74.2514V61.0164C151.163 57.639 149.301 55.3452 144.642 55.3452C141.981 55.3452 139.72 56.0206 137.723 56.8298L138.256 59.2608C139.853 58.7202 141.715 58.1808 143.711 58.1808C146.239 58.1808 147.436 59.2608 147.436 61.4221V63.1788H146.107C139.72 63.1788 136.794 65.6098 136.794 69.5254C136.794 72.7668 138.657 74.6572 142.249 74.6572C144.644 74.6572 146.374 73.5771 147.97 72.2262L148.236 74.2514H151.161H151.163ZM147.438 69.93C146.109 71.145 144.644 71.8204 143.313 71.8204C141.582 71.8204 140.519 70.7404 140.519 68.8511C140.519 66.9618 141.584 65.6098 145.841 65.6098H147.438V69.9312V69.93ZM98.6086 77.3568C97.5445 78.9774 95.9476 80.1924 93.9521 80.8678L92.2213 78.7077C93.5524 77.8974 94.8823 76.6824 95.415 75.6024C95.9476 74.6572 96.0805 73.3062 96.0805 70.2009V49.1334H100.073V69.93C100.073 74.1166 99.6728 75.7361 98.6098 77.3568H98.6086Z" fill="#3977A3"/>
</svg>
