<svg width="141" height="50" viewBox="0 0 141 50" fill="none" xmlns="http://www.w3.org/2000/svg">
<path fill-rule="evenodd" clip-rule="evenodd" d="M19.4145 14.3465H13.4582C13.2791 12.4869 12.1199 11.5571 9.95228 11.5571C8.93444 11.5571 8.16163 11.7261 7.63385 12.0548C7.10608 12.393 6.8422 12.8156 6.8422 13.3415C6.8422 13.8675 7.08723 14.2901 7.58673 14.6095C8.08623 14.9288 8.84019 15.2199 9.85804 15.4829C13.4488 16.3845 15.6918 17.0608 16.5966 17.4928C18.8679 18.5729 20.0082 20.3573 20.0082 22.8556C20.0082 25.0345 19.2354 26.7533 17.6898 28.0024C16.1442 29.2515 13.7692 29.8808 10.5555 29.8808C7.2286 29.8808 4.65571 29.2139 2.82735 27.8709C1.00842 26.5372 0.0659716 24.7152 0 22.4236H6.47464C6.47464 23.297 6.83277 24.0014 7.54903 24.5367C8.2653 25.0721 9.27372 25.3445 10.5932 25.3445C12.7514 25.3445 13.8352 24.6776 13.8352 23.3346C13.8352 22.8086 13.6278 22.4142 13.2037 22.1324C12.7796 21.86 12.0445 21.5877 10.9984 21.3247C7.90717 20.564 5.78665 19.9253 4.65571 19.3618C2.08282 18.0939 0.801084 16.1779 0.801084 13.6515C0.801084 11.7355 1.5362 10.1952 3.00642 9.03064C4.47664 7.86604 6.83277 7.28374 10.0748 7.28374C13.166 7.28374 15.4562 7.87543 16.9453 9.04942C18.4532 10.2328 19.2731 11.9985 19.4145 14.3465ZM27.9343 18.5823C27.9343 22.5926 29.4987 24.6025 32.6182 24.6025C35.7378 24.6025 37.3022 22.5926 37.3022 18.5823C37.3022 14.6282 35.7378 12.6465 32.6182 12.6465C29.4987 12.6465 27.9343 14.6282 27.9343 18.5823ZM32.6182 29.8808C29.15 29.8808 26.4075 28.8477 24.4095 26.7814C22.4115 24.7152 21.4125 21.9821 21.4125 18.5823C21.4125 15.1542 22.4209 12.4117 24.4283 10.3643C26.4452 8.31685 29.1689 7.29313 32.6088 7.29313C36.0205 7.29313 38.7253 8.31685 40.7045 10.3643C42.6836 12.4117 43.6826 15.1542 43.6826 18.5823C43.6826 21.9821 42.6836 24.7152 40.6856 26.7814C38.697 28.8477 36.0016 29.8808 32.6182 29.8808ZM52.3249 29.3079H45.9822V0.00497437H52.3249V29.3079ZM65.3684 24.734C66.6784 24.734 67.7245 24.208 68.4974 23.1655C69.2702 22.123 69.6566 20.6391 69.6566 18.7137C69.6566 14.7034 68.224 12.6935 65.3684 12.6935C62.4845 12.6935 61.0331 14.7597 61.0331 18.8828C61.0331 20.7424 61.4384 22.1794 62.2395 23.2031C63.0406 24.2174 64.0867 24.734 65.3684 24.734ZM61.118 29.3079H55.0392V0.00497437H61.2499V10.477C62.5316 8.35442 64.5579 7.29313 67.3287 7.29313C70.043 7.29313 72.1823 8.32624 73.7374 10.3925C75.3018 12.4587 76.0747 15.1166 76.0747 18.3756C76.0747 21.9258 75.217 24.7246 73.4923 26.7908C71.7677 28.857 69.5246 29.8902 66.7538 29.8902C64.2186 29.8902 62.3431 28.857 61.1557 26.7908L61.118 29.3079ZM92.3791 16.4033C92.2942 15.0321 91.8984 14.0084 91.201 13.3322C90.5036 12.6465 89.58 12.3084 88.4396 12.3084C87.3275 12.3084 86.4228 12.6559 85.7254 13.3509C85.0185 14.0459 84.6133 15.0603 84.5002 16.4033H92.3791ZM98.7218 20.1977H84.3682C84.453 21.5689 84.8866 22.6865 85.6594 23.56C86.4322 24.4334 87.4218 24.8655 88.6093 24.8655C89.4292 24.8655 90.1455 24.687 90.7769 24.3395C91.4083 23.992 91.7947 23.5412 91.9361 22.9871H98.4579C97.817 25.166 96.6484 26.866 94.952 28.0681C93.2555 29.2703 91.2481 29.8808 88.9108 29.8808C81.6445 29.8808 78.0161 25.9831 78.0161 18.1878C78.0161 14.8443 78.9397 12.1863 80.7963 10.2328C82.653 8.26989 85.2259 7.29313 88.5244 7.29313C91.8513 7.29313 94.3771 8.30746 96.1206 10.3267C97.8547 12.346 98.7218 15.3326 98.7218 19.2866V20.1977ZM115.639 30.0123V27.0444C115.262 27.7676 114.583 28.3593 113.603 28.8101C112.623 29.2609 111.464 29.4863 110.125 29.4863C108.372 29.4863 106.855 29.1764 105.573 28.5471C104.292 27.9179 103.293 27.0632 102.595 25.9737C101.898 24.8843 101.389 23.7103 101.068 22.4611C100.748 21.212 100.588 19.8689 100.588 18.4508C100.588 15.1354 101.455 12.4493 103.189 10.3831C104.923 8.31685 107.194 7.28374 109.993 7.28374C112.529 7.28374 114.442 8.31685 115.724 10.3831V7.85665H121.981V29.5333C121.981 32.6984 120.992 35.1497 119.032 36.8872C117.062 38.6153 114.414 39.4793 111.087 39.4793C107.873 39.4793 105.328 38.6716 103.425 37.0562C101.53 35.4408 100.578 33.2525 100.578 30.4912H106.44C106.44 31.5995 106.836 32.4636 107.619 33.0834C108.41 33.7127 109.513 34.0226 110.945 34.0226C112.406 34.0226 113.547 33.6563 114.385 32.9332C115.224 32.2006 115.639 31.2332 115.639 30.0123ZM108.306 23.034C109.079 24.0484 110.125 24.5649 111.435 24.5649C112.745 24.5649 113.81 24.0672 114.611 23.081C115.413 22.0948 115.818 20.6861 115.818 18.8546C115.818 14.7222 114.357 12.6653 111.445 12.6653C108.589 12.6653 107.157 14.6752 107.157 18.6856C107.147 20.5546 107.534 22.0103 108.306 23.034ZM19.8856 36.9718V46.7864H20.8752V36.9718H19.8856ZM0.866936 46.7863V37.1689H1.85651V41.4986H7.19078V37.1689H8.17093V46.7863H7.19078V42.4472H1.85651V46.7863H0.866936ZM14.0425 46.9836C13.3357 46.9836 12.7231 46.8239 12.2047 46.514C11.6864 46.204 11.2905 45.7626 10.9984 45.1991C10.7156 44.6356 10.5648 43.9688 10.5648 43.208C10.5648 42.4191 10.7062 41.7429 10.989 41.1606C11.2717 40.5877 11.6675 40.1462 12.1764 39.8269C12.6854 39.517 13.2885 39.3573 13.9859 39.3573C14.7022 39.3573 15.3148 39.517 15.8143 39.8457C16.3232 40.1744 16.7002 40.644 16.9641 41.2545C17.2186 41.865 17.3411 42.5975 17.3222 43.4428H16.8039V43.4522H11.6174C11.6554 44.2324 11.8606 44.846 12.233 45.293C12.6477 45.7908 13.232 46.0444 13.9954 46.0444C14.5137 46.0444 14.9661 45.9223 15.3525 45.6875C15.7389 45.4527 16.0405 45.1052 16.2667 44.6544L17.1809 45.0113C16.8981 45.6405 16.474 46.1289 15.918 46.467C15.3714 46.8145 14.7399 46.9836 14.0425 46.9836ZM11.638 42.6351H16.2876C16.2203 41.9271 16.0297 41.3793 15.7106 40.9915C15.3242 40.5125 14.7588 40.2777 14.0142 40.2777C13.2414 40.2777 12.6382 40.5313 12.233 41.0291C11.9107 41.425 11.7076 41.9635 11.638 42.6351ZM23.8156 46.7863V39.5733H24.7015V40.3223C24.8985 40.0656 25.145 39.8552 25.4366 39.6954C25.8136 39.4794 26.2471 39.3761 26.7278 39.3761C27.1896 39.3761 27.5949 39.47 27.953 39.6672C28.3111 39.8645 28.5939 40.1462 28.8012 40.5219C28.8154 40.5477 28.8291 40.5738 28.8424 40.6003C29.0589 40.2181 29.3593 39.9197 29.7342 39.7048C30.1206 39.4888 30.5447 39.3761 31.0348 39.3761C31.7605 39.3761 32.3448 39.6015 32.7878 40.0429C33.2213 40.4937 33.4475 41.0948 33.4475 41.8556L33.4381 46.7769H32.4485L32.4579 42.0528C32.4579 41.4987 32.2977 41.0572 31.9961 40.7379C31.6851 40.4186 31.2893 40.2589 30.818 40.2589C30.5447 40.2589 30.2808 40.3247 30.017 40.4468C29.7625 40.5689 29.5457 40.7755 29.3761 41.0479C29.2064 41.3202 29.1216 41.6865 29.1216 42.1279L29.1117 42.1251L29.1028 46.7769H28.1415L28.1509 42.1185C28.1509 41.5456 28.0001 41.0948 27.6891 40.7567C27.3875 40.428 26.9823 40.2589 26.4828 40.2589C25.9833 40.2589 25.578 40.428 25.267 40.7661C24.956 41.1042 24.8052 41.5644 24.8052 42.1279V46.7863H23.8156ZM37.3021 46.514C37.8205 46.8239 38.4331 46.9836 39.1399 46.9836C39.8373 46.9836 40.4688 46.8145 41.0154 46.467C41.5714 46.1289 41.9955 45.6405 42.2783 45.0113L41.3641 44.6544C41.1379 45.1052 40.8363 45.4527 40.4499 45.6875C40.0635 45.9223 39.6111 46.0444 39.0928 46.0444C38.3294 46.0444 37.7451 45.7908 37.3304 45.293C36.958 44.846 36.7529 44.2324 36.7149 43.4522H41.9013V43.4428H42.4197C42.4385 42.5975 42.316 41.865 42.0615 41.2545C41.7976 40.644 41.4207 40.1744 40.9117 39.8457C40.4122 39.517 39.7996 39.3573 39.0834 39.3573C38.386 39.3573 37.7828 39.517 37.2739 39.8269C36.7649 40.1462 36.3691 40.5877 36.0864 41.1606C35.8036 41.7429 35.6623 42.4191 35.6623 43.208C35.6623 43.9688 35.8131 44.6356 36.0958 45.1991C36.388 45.7626 36.7838 46.204 37.3021 46.514ZM41.385 42.6351H36.7345C36.8021 41.966 37.0008 41.4323 37.3304 41.0291C37.7357 40.5313 38.3388 40.2777 39.1116 40.2777C39.8562 40.2777 40.4217 40.5125 40.8081 40.9915C41.1271 41.3793 41.3177 41.9271 41.385 42.6351ZM47.5467 46.9836C46.6985 46.9836 46.0011 46.8051 45.4545 46.4388C44.9078 46.0725 44.5686 45.5654 44.446 44.9173L45.4545 44.7483C45.5581 45.1615 45.8032 45.4809 46.1896 45.725C46.576 45.9692 47.0472 46.0913 47.6033 46.0913C48.1499 46.0913 48.5834 45.9786 48.9038 45.7438C49.2243 45.5184 49.3751 45.1991 49.3751 44.8046C49.3751 44.5792 49.3279 44.4008 49.2243 44.2599C49.1206 44.119 48.9227 43.9875 48.6117 43.8654C48.3007 43.7433 47.8389 43.6025 47.2263 43.4428C46.5666 43.2644 46.0576 43.0859 45.6807 42.9075C45.3131 42.729 45.0492 42.5224 44.889 42.2876C44.7288 42.0528 44.6534 41.771 44.6534 41.4329C44.6534 41.0197 44.7665 40.6628 45.0021 40.3529C45.2377 40.0429 45.5581 39.7987 45.9634 39.6297C46.3781 39.4606 46.8493 39.3761 47.3959 39.3761C47.9425 39.3761 48.4326 39.4606 48.8567 39.6391C49.2902 39.8175 49.639 40.0617 49.9028 40.381C50.1667 40.7004 50.3269 41.0666 50.3741 41.4799L49.3656 41.6583C49.2997 41.2357 49.0923 40.8976 48.7342 40.6534C48.3761 40.4092 47.9331 40.2777 47.3865 40.2683C46.8681 40.2589 46.4535 40.3528 46.133 40.5595C45.8126 40.7661 45.6524 41.0385 45.6524 41.386C45.6524 41.5738 45.7089 41.7429 45.8314 41.8743C45.9445 42.0152 46.1613 42.1373 46.4629 42.2594C46.7645 42.3815 47.2074 42.513 47.7729 42.6539C48.442 42.8229 48.9604 43.0014 49.3374 43.1892C49.7143 43.3771 49.9877 43.5931 50.1479 43.8467C50.3081 44.1002 50.3929 44.4102 50.3929 44.7859C50.3929 45.4715 50.1385 46.0068 49.6295 46.3919C49.13 46.7863 48.4326 46.9836 47.5467 46.9836ZM58.4696 46.6267C59.0162 46.8615 59.6288 46.9836 60.3073 46.9836C61.2498 46.9836 62.0415 46.7864 62.6541 46.4107C63.2855 46.0162 63.7567 45.4809 64.0677 44.7953C64.3787 44.1097 64.539 43.3395 64.539 42.4661V42.2219C64.539 42.0998 64.5295 41.9965 64.5201 41.8932H61.2592V42.7384H63.4834C63.4551 43.4147 63.3232 44.0063 63.0876 44.5041C62.852 45.0019 62.5127 45.387 62.0603 45.6499C61.6079 45.9223 61.033 46.0538 60.345 46.0538C59.5817 46.0444 58.9596 45.8753 58.4507 45.5278C57.9418 45.1803 57.5554 44.7107 57.3103 44.1003C57.0653 43.4898 56.9428 42.7854 56.9428 41.9871C56.9522 41.1794 57.0747 40.475 57.3292 39.8645C57.5837 39.254 57.9606 38.775 58.4601 38.4369C58.9596 38.0894 59.5911 37.9298 60.345 37.9298C61.0613 37.9298 61.6551 38.1082 62.1357 38.4557C62.6164 38.8032 62.9651 39.2728 63.1724 39.8645L64.1526 39.6297C63.8981 38.822 63.4457 38.1833 62.8048 37.7043C62.164 37.2254 61.3252 36.9812 60.2979 36.9812C59.3743 36.9812 58.5921 37.1878 57.9324 37.601C57.2821 38.0143 56.7732 38.5966 56.4244 39.3479C56.0757 40.0899 55.8967 40.9727 55.8967 41.9777C55.8967 42.7384 56.0003 43.424 56.1983 44.0439C56.4056 44.6544 56.6883 45.1803 57.0747 45.6218C57.4611 46.0538 57.9229 46.3919 58.4696 46.6267ZM66.8292 46.7863V39.5733H67.7151V40.706C67.7563 40.6325 67.8003 40.5617 67.847 40.4937C67.979 40.3152 68.1203 40.165 68.2711 40.0523C68.4596 39.8832 68.6764 39.7611 68.9308 39.6766C69.1853 39.592 69.4304 39.5357 69.6848 39.5263C69.9393 39.5075 70.1749 39.5263 70.3822 39.5827V40.5031C70.1183 40.4373 69.8262 40.4185 69.5152 40.4561C69.2042 40.4937 68.912 40.6158 68.6481 40.8318C68.4031 41.0196 68.224 41.245 68.1015 41.508C67.979 41.771 67.9036 42.0433 67.8564 42.3345C67.8187 42.6256 67.7999 42.9168 67.7999 43.1986V46.7957H66.8292V46.7863ZM73.6335 46.4952C74.1519 46.8239 74.7645 46.9836 75.4807 46.9836C76.197 46.9836 76.8096 46.8239 77.3374 46.5046C77.8463 46.1759 78.2421 45.7344 78.5154 45.1615C78.7793 44.5886 78.9207 43.9312 78.9207 43.1704C78.9207 42.4285 78.7887 41.771 78.5154 41.1981C78.2515 40.6252 77.8557 40.1744 77.3468 39.8551C76.8284 39.5264 76.2158 39.3667 75.4902 39.3667C74.7833 39.3667 74.1707 39.5264 73.6618 39.8457C73.1434 40.165 72.7476 40.6064 72.4743 41.1793C72.201 41.7523 72.0596 42.4097 72.0596 43.1704C72.0596 43.9124 72.201 44.5605 72.4649 45.1428C72.7288 45.7251 73.1246 46.1665 73.6335 46.4952ZM77.2808 45.2461C76.885 45.7814 76.2818 46.0444 75.4807 46.0444C74.6985 46.0444 74.1142 45.7814 73.7183 45.2555C73.3131 44.7389 73.1152 44.0345 73.1152 43.1704C73.1152 42.6069 73.2 42.1185 73.3696 41.6865C73.5393 41.2639 73.8032 40.9258 74.1519 40.6816C74.5006 40.4374 74.953 40.3153 75.4902 40.3153C76.2912 40.3153 76.885 40.5689 77.2808 41.0854C77.6766 41.602 77.8746 42.297 77.8746 43.1704C77.8746 44.0251 77.6766 44.7107 77.2808 45.2461ZM84.0949 46.9647C83.6613 46.9647 83.2843 46.899 82.9639 46.7675C82.6435 46.636 82.3607 46.4575 82.144 46.2227C81.9178 45.9973 81.7387 45.7344 81.5974 45.4432C81.456 45.1521 81.3617 44.8421 81.2958 44.5134C81.2298 44.1847 81.2015 43.856 81.2015 43.5366V39.5732H82.1911V43.2549C82.1911 43.6493 82.2288 44.0156 82.3042 44.3537C82.3796 44.6919 82.5021 44.983 82.6718 45.2366C82.8414 45.4902 83.0582 45.6874 83.322 45.8189C83.5859 45.9598 83.9064 46.0255 84.2928 46.0255C84.6415 46.0255 84.9525 45.9692 85.2164 45.8471C85.4803 45.725 85.7065 45.5559 85.8855 45.3305C86.0646 45.1051 86.206 44.8327 86.3002 44.5134C86.36 44.3107 86.4009 44.089 86.4227 43.8509V39.5732H87.4123V46.7863H86.5264V45.8126C86.2993 46.1337 86.0166 46.3869 85.6782 46.5796C85.2069 46.8332 84.6792 46.9647 84.0949 46.9647ZM90.2209 39.5733V49.989H91.2104V45.9247C91.3772 46.1346 91.5689 46.3179 91.7853 46.4764C92.2471 46.8145 92.8032 46.9836 93.4723 46.9836C94.1509 46.9836 94.7258 46.8145 95.197 46.4576C95.6777 46.1289 96.0452 45.6687 96.2997 45.0958C96.5541 44.5229 96.6861 43.8748 96.6861 43.1517C96.6861 42.4379 96.5636 41.7898 96.3091 41.2169C96.0546 40.644 95.6871 40.1932 95.2159 39.8551C94.7352 39.5264 94.1697 39.3573 93.51 39.3573C92.8315 39.3573 92.2566 39.5264 91.7948 39.8551C91.5302 40.0434 91.2997 40.2717 91.1068 40.5402V39.5733H90.2209ZM94.641 45.6875C94.3017 45.9411 93.887 46.0726 93.3781 46.0726C92.8597 46.0726 92.4356 45.9505 92.1246 45.6969C91.7853 45.4433 91.5403 45.1052 91.3707 44.6638C91.2104 44.2223 91.1256 43.7246 91.1256 43.1704C91.1256 42.5975 91.201 42.0998 91.3707 41.6677C91.5309 41.2357 91.7853 40.8976 92.1152 40.6534C92.4451 40.4092 92.8597 40.2871 93.3687 40.2871C93.887 40.2871 94.3111 40.4186 94.6504 40.6722C94.9897 40.9258 95.2347 41.2639 95.4043 41.7053C95.5646 42.1373 95.6494 42.6257 95.6494 43.1704C95.6494 43.7246 95.5646 44.213 95.3949 44.6544C95.2253 45.0864 94.9802 45.4339 94.641 45.6875ZM124.762 34.7177H141V39.0568H124.762V34.7177Z" fill="#E84419"/>
</svg>
