<svg width="179" height="114" viewBox="0 0 179 114" fill="none" xmlns="http://www.w3.org/2000/svg">
<path fill-rule="evenodd" clip-rule="evenodd" d="M46.6367 56.9833C46.6367 61.8245 50.4795 66.9512 58.3706 71.0456C66.1124 75.0625 77.0159 77.6365 89.2236 77.6365C101.431 77.6365 112.335 75.0625 120.077 71.0456C127.968 66.9512 131.81 61.8245 131.81 56.9833C131.81 52.142 127.968 47.0153 120.077 42.9209C112.335 38.904 101.431 36.3301 89.2236 36.3301C77.0159 36.3301 66.1124 38.904 58.3706 42.921C50.4795 47.0154 46.6367 52.1421 46.6367 56.9833ZM43.6367 56.9833C43.6367 70.0464 64.0471 80.6365 89.2236 80.6365C114.4 80.6365 134.81 70.0464 134.81 56.9833C134.81 43.9202 114.4 33.3301 89.2236 33.3301C64.0471 33.3301 43.6367 43.9203 43.6367 56.9833ZM65.2204 60.1861H68.4048C70.5153 60.1861 72.0876 59.7941 73.1204 59.0096C74.1533 58.225 74.8504 56.9157 75.2125 55.0809C75.5587 53.3192 75.4011 52.0761 74.7393 51.3517C74.0774 50.6274 72.7508 50.2653 70.7623 50.2653H67.1754L65.2206 60.1859L65.2204 60.1861ZM72.7447 46.5248C75.7731 46.5248 77.9823 47.3087 79.371 48.8765C80.7596 50.4442 81.1776 52.6329 80.6236 55.4427C80.3956 56.6002 80.0099 57.6584 79.4669 58.6173C78.924 59.5762 78.2135 60.4539 77.3363 61.2493C76.291 62.2142 75.1297 62.9017 73.8519 63.3115C72.574 63.7222 70.9466 63.9266 68.968 63.9266H64.4839L63.2423 70.2286H58.0073L62.6774 46.5248H72.7443H72.7447ZM88.9158 46.5246L90.1573 40.2227H90.1572H84.9633L80.2925 63.9263H85.4864L88.1617 50.3465H92.3132C93.642 50.3465 94.5109 50.5638 94.9191 50.9977C95.3274 51.4316 95.4138 52.2454 95.1787 53.4385L93.1127 63.9263H98.3889L100.562 52.8959C101.004 50.6519 100.673 49.0282 99.5675 48.027C98.4622 47.0259 96.454 46.5246 93.5427 46.5246H88.9158ZM106.081 60.1861H109.265C111.376 60.1861 112.948 59.7941 113.981 59.0096C115.014 58.225 115.711 56.9157 116.073 55.0809C116.42 53.3192 116.262 52.0761 115.6 51.3517C114.938 50.6274 113.611 50.2653 111.623 50.2653H108.036L106.081 60.1859L106.081 60.1861ZM113.605 46.5248C116.634 46.5248 118.843 47.3087 120.232 48.8765C121.62 50.4442 122.038 52.6329 121.484 55.4427C121.256 56.6002 120.871 57.6584 120.328 58.6173C119.785 59.5762 119.074 60.4539 118.197 61.2493C117.152 62.2142 115.99 62.9017 114.713 63.3115C113.435 63.7222 111.807 63.9266 109.829 63.9266H105.345L104.103 70.2286H98.8679L103.539 46.525H113.605L113.605 46.5248Z" fill="#63679D"/>
</svg>
