<svg width="179" height="114" viewBox="0 0 179 114" fill="none" xmlns="http://www.w3.org/2000/svg">
<g clip-path="url(#clip0_431_17)">
<path d="M78.2738 58.7712C78.2738 54.5931 77.0756 52.4467 74.678 52.329C73.7245 52.2843 72.7932 52.4353 71.8876 52.785C71.1647 53.0423 70.6781 53.2969 70.4221 53.554V63.5287C71.9551 64.4854 73.3167 64.9299 74.5028 64.8601C77.0147 64.6951 78.2718 62.6672 78.2718 58.7709L78.2738 58.7712ZM81.229 58.9446C81.229 61.0675 80.7283 62.83 79.7214 64.2303C78.599 65.8164 77.0435 66.633 75.0549 66.6778C73.5556 66.7253 72.0102 66.2583 70.423 65.2792V74.3441L67.8519 73.4322V53.3108C68.2738 52.7963 68.8167 52.3541 69.475 51.9793C71.0051 51.0926 72.8659 50.6366 75.0534 50.6143L75.09 50.6506C77.0899 50.6254 78.631 51.442 79.7132 53.0981C80.723 54.6169 81.2295 56.5645 81.2295 58.9434L81.229 58.9446Z" fill="#646464"/>
<path d="M96.9456 64.8949C96.9456 67.7423 96.6587 69.7129 96.0848 70.8119C95.5082 71.9084 94.4109 72.7839 92.7919 73.4355C91.4783 73.9501 90.0578 74.2298 88.5324 74.2775L88.1075 72.6665C89.6576 72.4567 90.749 72.247 91.383 72.0372C92.6292 71.6177 93.4843 70.9743 93.9541 70.1129C94.331 69.4107 94.5166 68.0712 94.5166 66.0869V65.4211C92.7585 66.2154 90.915 66.61 88.9901 66.61C87.7243 66.61 86.6075 66.2157 85.6453 65.4211C84.5651 64.5568 84.0251 63.4604 84.0251 62.1326V51.4923L86.5962 50.6168V61.326C86.5962 62.4701 86.9676 63.351 87.7102 63.9691C88.4527 64.5872 89.4149 64.8837 90.5935 64.8613C91.7721 64.8361 93.0349 64.3829 94.3769 63.4962V51.0021H96.9479V64.8937L96.9456 64.8949Z" fill="#646464"/>
<path d="M106.989 66.5392C106.682 66.5643 106.401 66.5755 106.142 66.5755C104.688 66.5755 103.554 66.2314 102.745 65.5407C101.938 64.8498 101.533 63.8962 101.533 62.6795V52.6102H99.7718V51.0018H101.533V46.7319L104.101 45.8228V51.0024H106.99V52.6108H104.101V62.6112C104.101 63.5705 104.36 64.2503 104.877 64.6474C105.322 64.9746 106.028 65.162 106.99 65.2096V66.5411L106.989 66.5392Z" fill="#646464"/>
<path d="M122.544 66.3297H119.973V56.4612C119.973 55.4572 119.736 54.5929 119.266 53.8712C118.724 53.0545 117.97 52.6461 117.002 52.6461C115.823 52.6461 114.349 53.2642 112.581 54.5005V66.3288H110.01V42.741L112.581 41.9355V52.6791C114.224 51.4903 116.018 50.8946 117.969 50.8946C119.33 50.8946 120.433 51.3505 121.276 52.2596C122.123 53.1687 122.545 54.3013 122.545 55.6543V66.3262L122.544 66.3297Z" fill="#646464"/>
<path d="M136.223 58.3695C136.223 56.7639 135.916 55.4396 135.306 54.3894C134.58 53.1113 133.452 52.4372 131.926 52.3672C129.108 52.5294 127.701 54.5377 127.701 58.3875C127.701 60.1523 127.994 61.6273 128.585 62.8095C129.338 64.3172 130.469 65.061 131.978 65.036C134.808 65.0137 136.224 62.7929 136.224 58.37L136.223 58.3695ZM139.039 58.3862C139.039 60.6713 138.451 62.5729 137.278 64.0909C135.986 65.7914 134.204 66.6446 131.927 66.6446C129.671 66.6446 127.913 65.7914 126.643 64.0909C125.492 62.5721 124.919 60.6704 124.919 58.3862C124.919 56.2381 125.54 54.432 126.784 52.9599C128.097 51.3991 129.825 50.616 131.958 50.616C134.093 50.616 135.831 51.3991 137.17 52.9599C138.413 54.4311 139.035 56.2369 139.035 58.3862H139.039Z" fill="#646464"/>
<path d="M153.769 66.3296H151.198V55.9016C151.198 54.7575 150.852 53.8654 150.16 53.222C149.468 52.5816 148.545 52.2711 147.395 52.2963C146.174 52.3187 145.012 52.7159 143.909 53.4852V66.3294H141.338V53.1695C142.817 52.0983 144.179 51.399 145.421 51.0719C146.594 50.7671 147.629 50.6159 148.521 50.6159C149.131 50.6159 149.705 50.6746 150.245 50.7921C151.255 51.0243 152.076 51.455 152.709 52.0872C153.415 52.7865 153.767 53.6255 153.767 54.6072V66.3294L153.769 66.3296Z" fill="#646464"/>
<path d="M42.4626 42.8359C41.1397 42.8421 39.8765 42.9542 38.7657 43.1499C35.4902 43.7252 34.8957 44.929 34.8957 47.15V50.0827H42.6329V51.0601H34.8957H31.9925C29.7438 51.0601 27.7733 52.4042 27.1586 54.9599C26.4481 57.8897 26.4167 59.7205 27.1586 62.7794C27.7087 65.0573 29.0224 66.6792 31.2711 66.6792H33.9316V63.1639C33.9316 60.6244 36.1413 58.3832 38.7655 58.3832H46.4939C48.6454 58.3832 50.3639 56.6219 50.3639 54.4749V47.1489C50.3639 45.0639 48.5949 43.4988 46.4939 43.1487C45.1647 42.9287 43.7855 42.8288 42.4623 42.8348L42.4626 42.8359ZM38.278 45.1944C39.0774 45.1944 39.7299 45.8541 39.7299 46.6651C39.7299 47.4732 39.0771 48.1268 38.278 48.1268C37.476 48.1268 36.8261 47.4734 36.8261 46.6651C36.8261 45.8541 37.476 45.1944 38.278 45.1944V45.1944Z" fill="url(#paint0_linear_431_17)"/>
<path d="M51.3281 51.0578V54.4755C51.3281 57.1243 49.0696 59.3537 46.4942 59.3537H38.7658C36.6487 59.3537 34.8958 61.1552 34.8958 63.2621V70.5881C34.8958 72.6731 36.7194 73.8995 38.7658 74.4964C41.215 75.2127 43.565 75.3421 46.4942 74.4964C48.4422 73.9357 50.3642 72.8068 50.3642 70.5881V67.6554H42.6358V66.678H50.3642H54.2342C56.4829 66.678 57.3221 65.1184 58.1042 62.7783C58.912 60.3681 58.8776 58.0492 58.1042 54.9587C57.5484 52.7328 56.4869 51.0589 54.2342 51.0589H51.331L51.3281 51.0578ZM46.9819 69.6124C47.7839 69.6124 48.4338 70.2658 48.4338 71.0742C48.4338 71.8851 47.7839 72.5448 46.9819 72.5448C46.1825 72.5448 45.53 71.8851 45.53 71.0742C45.53 70.2661 46.1828 69.6124 46.9819 69.6124Z" fill="url(#paint1_linear_431_17)"/>
</g>
<defs>
<linearGradient id="paint0_linear_431_17" x1="26.6134" y1="42.8353" x2="44.3767" y2="58.0527" gradientUnits="userSpaceOnUse">
<stop stop-color="#5A9FD4"/>
<stop offset="1" stop-color="#306998"/>
</linearGradient>
<linearGradient id="paint1_linear_431_17" x1="46.7994" y1="70.8372" x2="40.4342" y2="61.8807" gradientUnits="userSpaceOnUse">
<stop stop-color="#FFD43B"/>
<stop offset="1" stop-color="#FFE873"/>
</linearGradient>
<clipPath id="clip0_431_17">
<rect width="129" height="33" fill="white" transform="translate(25 41)"/>
</clipPath>
</defs>
</svg>
