<svg width="192" height="64" viewBox="0 0 192 64" fill="none" xmlns="http://www.w3.org/2000/svg">
<path fill-rule="evenodd" clip-rule="evenodd" d="M48.6553 48.9717C47.5405 48.9717 47.0134 48.5029 47.0134 47.5171C47.0134 46.0626 48.0202 45.2285 49.7634 45.2285C50.0404 45.2285 50.5742 45.2492 50.9323 45.2699L50.9661 45.1458C51.0337 44.746 51.0337 44.7115 51.0337 44.5806C51.0337 44.1325 50.6688 43.9119 49.9256 43.9119C49.358 43.9119 48.8107 44.0015 48.1013 44.2014L48.3175 43.2846C48.3648 43.2984 48.3918 43.2984 48.4188 43.2984C48.5877 43.2984 48.8715 43.2708 49.2499 43.2295C49.5742 43.195 49.9053 43.1743 50.2094 43.1743C51.5134 43.1743 52.0945 43.519 52.0945 44.291C52.0945 44.491 52.0607 44.7115 51.9729 45.2079L51.7972 46.2212C51.608 47.3035 51.4931 48.1651 51.4931 48.6683C51.4931 48.7097 51.4931 48.7786 51.5067 48.8476H50.5269V48.758C50.5269 48.5994 50.5607 48.2547 50.608 47.9308C50.1148 48.6683 49.5337 48.9717 48.6553 48.9717ZM50.7026 45.911C50.385 45.8765 50.2094 45.8765 49.9796 45.8765C49.3107 45.8765 48.9188 45.9661 48.6148 46.2074C48.2837 46.4694 48.0877 46.8899 48.0877 47.3586C48.0877 47.917 48.4188 48.2203 49.0202 48.2203C49.6215 48.2203 50.1553 47.8894 50.4188 47.3379C50.581 46.9795 50.7026 46.5452 50.8175 45.9179L50.7026 45.911Z" fill="currentColor"/>
<path fill-rule="evenodd" clip-rule="evenodd" d="M56.8582 47.5931C57.6352 47.9446 58.5204 48.1583 59.1893 48.1583C60.4055 48.1583 61.2501 47.4828 61.2501 46.5315C61.2501 45.9869 60.8785 45.7181 59.6825 45.3872C58.6217 45.0908 58.3109 44.9598 58.0001 44.622C57.7771 44.3808 57.6623 44.0223 57.6623 43.6294C57.6623 42.2369 58.8717 41.2719 60.6352 41.2719C60.9055 41.2719 61.1825 41.2856 61.4731 41.3201L62.1961 41.3753L62.7163 41.4166H62.8244L62.642 42.4989C61.9055 42.2369 61.196 42.0991 60.5812 42.0991C59.5406 42.0991 58.8852 42.5816 58.8852 43.3399C58.8852 43.5536 58.9663 43.7328 59.1082 43.8638C59.2906 44.0292 59.5406 44.1188 60.3515 44.3463C61.9798 44.7668 62.5001 45.2149 62.5001 46.1868C62.5001 47.8275 61.1285 48.9718 59.1352 48.9718C58.5879 48.9718 57.919 48.9166 57.419 48.827C57.1352 48.7719 57.0204 48.7443 56.6758 48.6547L56.8582 47.5931Z" fill="currentColor"/>
<path fill-rule="evenodd" clip-rule="evenodd" d="M67.4191 43.1744C68.9529 43.1744 69.6015 43.788 69.6015 45.27C69.6015 46.1248 69.3718 46.9796 68.9529 47.7172C68.4867 48.5582 67.6015 48.9787 66.3718 48.9787C65.5948 48.9787 64.9867 48.7925 64.6286 48.4203C64.3178 48.1239 64.1826 47.6276 64.1826 46.9175C64.1826 46.6349 64.2029 46.3592 64.2569 46.0766C64.615 44.0637 65.5948 43.1744 67.4191 43.1744ZM66.1691 44.2636C65.6691 44.7048 65.3042 45.856 65.3042 46.9038C65.3042 47.8619 65.6556 48.2549 66.5205 48.2549C66.9934 48.2549 67.3853 48.1239 67.6691 47.8413C68.1218 47.4208 68.4867 46.2696 68.4867 45.2838C68.4867 44.2981 68.1421 43.8982 67.2772 43.8982C66.8042 43.8982 66.4326 44.0223 66.1691 44.2636Z" fill="currentColor"/>
<path fill-rule="evenodd" clip-rule="evenodd" d="M70.9054 48.7371L71.2568 46.8552L71.6149 44.8699L71.946 42.8778L72.2365 41.0165L72.25 40.9062H73.3649L73.3311 41.0165L72.9865 42.8778L72.6217 44.8699L72.2973 46.8552C72.1352 47.9099 72.0338 48.5303 72.0068 48.7371C72.0068 48.7785 72.0068 48.7785 71.9865 48.8474H70.8784L70.9054 48.7371Z" fill="currentColor"/>
<path fill-rule="evenodd" clip-rule="evenodd" d="M76.3987 48.9717C74.919 48.9717 74.196 48.3237 74.196 46.9795C74.196 46.2419 74.3852 45.4147 74.7028 44.7253C75.1825 43.6844 76.0812 43.1743 77.4123 43.1743C78.669 43.1743 79.2906 43.6637 79.2906 44.6357C79.2906 44.9114 79.2231 45.3526 79.115 45.8558L78.9933 45.8421C78.7974 45.8283 78.1893 45.8283 77.1555 45.8283C76.2771 45.8283 75.7433 45.8283 75.5339 45.8421L75.4258 45.8558C75.3244 46.3591 75.3177 46.4762 75.3177 46.8347C75.3177 47.7308 75.8244 48.2134 76.7636 48.2134C77.3785 48.2134 77.9731 48.0893 78.6285 47.7998L78.4596 48.689C77.8244 48.8683 77.0812 48.9717 76.3987 48.9717ZM75.6893 45.2079C75.8177 45.2148 76.2163 45.2148 76.8987 45.2148H77.0677C77.5609 45.2148 77.8987 45.2148 78.0947 45.2079H78.2028L78.2163 45.0631C78.2366 44.9252 78.2501 44.8012 78.2501 44.6909C78.2501 44.1463 77.892 43.8774 77.196 43.8774C76.3042 43.8774 75.7974 44.2773 75.5677 45.2079H75.6893Z" fill="currentColor"/>
<path fill-rule="evenodd" clip-rule="evenodd" d="M80.5474 48.7374L80.7974 47.4828L81.0541 46.0766L81.2703 44.7117C81.3852 44.0223 81.4528 43.588 81.4663 43.4088C81.4663 43.3812 81.4798 43.3537 81.4798 43.2985H82.4663L82.446 43.4088L82.3176 44.1119L82.2771 44.2636C82.4663 43.9672 82.5339 43.8845 82.6757 43.719C82.9798 43.3606 83.392 43.1744 83.8176 43.1744C84.0406 43.1744 84.2163 43.2158 84.4257 43.3192L84.2839 44.1188C84.0474 44.043 83.8447 44.0085 83.642 44.0085C82.9798 44.0085 82.3987 44.6152 82.169 45.5389C82.0879 45.8904 82.0068 46.2902 81.9325 46.759C81.7095 48.1584 81.6893 48.2687 81.6555 48.8477H80.5271L80.5474 48.7374Z" fill="currentColor"/>
<path fill-rule="evenodd" clip-rule="evenodd" d="M86.2975 48.9718C85.1961 48.9718 84.6624 48.503 84.6624 47.5173C84.6624 46.0628 85.6691 45.2287 87.4124 45.2287C87.6894 45.2287 88.2232 45.2493 88.588 45.27L88.6083 45.1459C88.6826 44.7461 88.6826 44.7117 88.6826 44.5807C88.6826 44.1326 88.3178 43.912 87.5745 43.912C87.0069 43.912 86.4596 44.0016 85.7434 44.2016L85.9732 43.2847C86.0069 43.2985 86.0407 43.2985 86.0678 43.2985C86.2367 43.2985 86.5137 43.2709 86.8988 43.2296C87.2232 43.1951 87.5542 43.1744 87.8583 43.1744C89.1624 43.1744 89.7434 43.5191 89.7434 44.2912C89.7434 44.4911 89.7096 44.7117 89.6218 45.208L89.4529 46.2213C89.2502 47.3036 89.1421 48.1652 89.1421 48.6685C89.1421 48.7098 89.1421 48.7788 89.1556 48.8477H88.1691V48.7581C88.1691 48.5995 88.2096 48.2549 88.2569 47.9309C87.7637 48.6685 87.1826 48.9718 86.2975 48.9718ZM88.3583 45.9111C88.0272 45.8766 87.8583 45.8766 87.6286 45.8766C86.9597 45.8766 86.5678 45.9663 86.2637 46.2075C85.9326 46.4695 85.7367 46.89 85.7367 47.3587C85.7367 47.9171 86.0678 48.2204 86.6691 48.2204C87.2772 48.2204 87.8042 47.8895 88.0678 47.338C88.2299 46.9796 88.3583 46.5453 88.4664 45.918L88.3583 45.9111Z" fill="currentColor"/>
<path fill-rule="evenodd" clip-rule="evenodd" d="M99.2636 44.167C98.7974 44.0015 98.3109 43.9119 97.8649 43.9119C97.3244 43.9119 96.919 44.0429 96.642 44.3117C96.196 44.746 95.8447 45.8283 95.8447 46.8002C95.8447 47.7515 96.2501 48.2134 97.0879 48.2134C97.5744 48.2134 98.2095 48.0548 98.6487 47.8274L98.4933 48.6821C97.9325 48.8683 97.3447 48.9717 96.7433 48.9717C95.8852 48.9717 95.419 48.7717 95.0609 48.2685C94.8177 47.9101 94.7163 47.5378 94.7163 46.945C94.7163 46.1798 94.8987 45.3733 95.2501 44.6702C95.4055 44.3462 95.6217 44.0567 95.8987 43.8085C96.3785 43.3604 97.0001 43.1743 97.9933 43.1743C98.3379 43.1743 98.7095 43.195 99.3041 43.2501L99.4122 43.2639L99.2636 44.167Z" fill="currentColor"/>
<path fill-rule="evenodd" clip-rule="evenodd" d="M103.642 43.1743C105.176 43.1743 105.818 43.7878 105.818 45.2699C105.818 46.1247 105.588 46.9795 105.176 47.7171C104.703 48.5581 103.818 48.9785 102.588 48.9785C101.811 48.9785 101.209 48.7924 100.845 48.4202C100.547 48.1238 100.399 47.6274 100.399 46.9174C100.399 46.6348 100.419 46.3591 100.48 46.0764C100.838 44.0636 101.811 43.1743 103.642 43.1743ZM102.378 44.2635C101.885 44.7046 101.514 45.8558 101.514 46.9036C101.514 47.8618 101.865 48.2547 102.73 48.2547C103.216 48.2547 103.595 48.1238 103.892 47.8411C104.351 47.4206 104.703 46.2694 104.703 45.2837C104.703 44.2979 104.372 43.8981 103.507 43.8981C103.027 43.8981 102.655 44.0222 102.378 44.2635Z" fill="currentColor"/>
<path fill-rule="evenodd" clip-rule="evenodd" d="M107.122 48.7373L107.365 47.4827L107.628 46.0764L107.845 44.7115C107.953 44.0222 108.027 43.5948 108.047 43.4087C108.047 43.3811 108.054 43.3535 108.054 43.2984H109.041C109.027 43.3604 109.013 43.4087 109.013 43.4363C109.007 43.4845 108.986 43.5879 108.959 43.7534L108.939 43.8499C109.162 43.6637 109.236 43.6086 109.392 43.5052C109.77 43.2984 110.223 43.1743 110.723 43.1743C111.074 43.1743 111.419 43.2295 111.676 43.3398C111.953 43.4501 112.095 43.5879 112.257 43.8981C112.48 43.6844 112.574 43.6155 112.75 43.5052C113.115 43.2846 113.615 43.1743 114.176 43.1743C115.216 43.1743 115.811 43.5948 115.811 44.3462C115.811 44.5254 115.784 44.7598 115.743 45.0149L115.486 46.3797C115.284 47.5172 115.176 48.3237 115.149 48.8476H114C114.034 48.5305 114.047 48.4202 114.095 48.2134L114.372 46.6693L114.588 45.5319C114.669 45.0907 114.709 44.7943 114.709 44.6357C114.709 44.1739 114.351 43.9395 113.669 43.9395C113.203 43.9395 112.885 44.0429 112.642 44.2773C112.439 44.491 112.324 44.7598 112.196 45.5319L111.986 46.6141C111.851 47.3517 111.73 48.2961 111.689 48.8476H110.541C110.541 48.7993 110.547 48.758 110.547 48.7373C110.574 48.5305 110.595 48.3995 110.865 46.9174C111.155 45.4078 111.209 45.0286 111.209 44.6909C111.209 44.1532 110.946 43.9395 110.277 43.9395C109.804 43.9395 109.473 44.0429 109.223 44.2773C108.905 44.5668 108.831 44.8149 108.5 47.0277C108.351 48.0204 108.263 48.5925 108.243 48.7373L108.216 48.8476H107.101L107.122 48.7373Z" fill="currentColor"/>
<path fill-rule="evenodd" clip-rule="evenodd" d="M116.811 51.2051C116.865 50.9569 117 50.2676 117.209 49.1026L117.567 47.1035L117.885 45.1803C118.04 44.2428 118.128 43.65 118.162 43.4087C118.162 43.3604 118.162 43.3604 118.169 43.2984H119.149L119.122 43.4087L119.074 43.7189L119.054 43.843C119.574 43.3742 120.108 43.1743 120.831 43.1743C122.061 43.1743 122.716 43.8499 122.716 45.1251C122.716 45.8283 122.534 46.621 122.209 47.3241C121.696 48.434 120.845 48.9923 119.703 48.9923C118.973 48.9923 118.642 48.7924 118.378 48.2134L118.358 48.3444L118.108 49.9988C118.02 50.5571 117.953 50.9569 117.932 51.1913C117.932 51.2051 117.932 51.2465 117.919 51.3292H116.784C116.804 51.2465 116.804 51.2465 116.811 51.2051ZM119.007 44.6564L118.642 46.7382C118.628 46.883 118.601 47.0139 118.601 47.1587C118.601 47.8894 118.959 48.241 119.669 48.241C120.149 48.241 120.527 48.0755 120.811 47.7515C121.263 47.2276 121.567 46.2005 121.567 45.263C121.567 44.3531 121.169 43.9119 120.317 43.9119C119.804 43.9119 119.378 44.1118 119.04 44.491L119.007 44.6564Z" fill="currentColor"/>
<path fill-rule="evenodd" clip-rule="evenodd" d="M125.568 48.9717C124.473 48.9717 123.939 48.5029 123.939 47.5171C123.939 46.0626 124.946 45.2285 126.689 45.2285C126.959 45.2285 127.507 45.2492 127.858 45.2699L127.878 45.1458C127.959 44.746 127.959 44.7115 127.959 44.5806C127.959 44.1325 127.595 43.9119 126.858 43.9119C126.284 43.9119 125.737 44.0015 125.02 44.2014L125.243 43.2846C125.284 43.2984 125.324 43.2984 125.345 43.2984C125.514 43.2984 125.791 43.2708 126.176 43.2295C126.5 43.195 126.838 43.1743 127.142 43.1743C128.439 43.1743 129.02 43.519 129.02 44.291C129.02 44.491 128.987 44.7115 128.899 45.2079L128.723 46.2212C128.527 47.3035 128.419 48.1651 128.419 48.6683C128.419 48.7097 128.419 48.7786 128.426 48.8476H127.446V48.758C127.446 48.5994 127.493 48.2547 127.527 47.9308C127.041 48.6683 126.459 48.9717 125.568 48.9717ZM127.628 45.911C127.297 45.8765 127.142 45.8765 126.905 45.8765C126.237 45.8765 125.845 45.9661 125.547 46.2074C125.209 46.4694 125.014 46.8899 125.014 47.3586C125.014 47.917 125.345 48.2203 125.939 48.2203C126.547 48.2203 127.081 47.8894 127.345 47.3379C127.507 46.9795 127.628 46.5452 127.737 45.9179L127.628 45.911Z" fill="currentColor"/>
<path fill-rule="evenodd" clip-rule="evenodd" d="M130.466 48.7373L130.71 47.4827L130.966 46.0764L131.189 44.7115C131.297 44.0222 131.365 43.5879 131.392 43.4087C131.392 43.3811 131.399 43.3535 131.399 43.2984H132.412L132.392 43.4087L132.351 43.7327L132.331 43.8499C132.797 43.3949 133.419 43.1743 134.243 43.1743C135.338 43.1743 135.953 43.5879 135.953 44.3324C135.953 44.5323 135.885 45.0286 135.777 45.5594C135.73 45.7731 135.676 46.1109 135.601 46.559C135.358 48.0893 135.304 48.4202 135.304 48.7442V48.8476H134.156C134.169 48.5305 134.176 48.434 134.257 48.0066L134.561 46.3797L134.75 45.3733C134.791 45.1389 134.811 44.9252 134.811 44.746C134.811 44.167 134.493 43.9119 133.71 43.9119C133.223 43.9119 132.865 44.0291 132.588 44.291C132.351 44.5254 132.23 44.8012 132.115 45.4629L131.919 46.5107L131.723 47.7308L131.568 48.7373L131.561 48.8476H130.446L130.466 48.7373Z" fill="currentColor"/>
<path fill-rule="evenodd" clip-rule="evenodd" d="M138.412 50.1435L138.845 49.3507L138.899 49.2266L138.878 49.1026C138.703 48.0065 138.52 46.9449 138.358 46.166L138.081 44.7666L137.791 43.4086L137.77 43.2983H138.973C138.987 43.3604 138.987 43.3604 138.987 43.4086C139.034 43.7947 139.135 44.4978 139.291 45.518C139.466 46.6003 139.595 47.2965 139.642 47.6205C139.642 47.6274 139.662 47.6825 139.683 47.7997L139.784 47.6205L140.926 45.3939C141.412 44.4426 141.737 43.7878 141.899 43.4086C141.905 43.4086 141.919 43.3604 141.953 43.2983H142.885L142.818 43.4086C141.919 45.0148 141.514 45.7662 140.703 47.3172C139.872 48.9233 139.412 49.8539 138.764 51.2188L138.71 51.3291H137.737C137.953 50.9914 138 50.9224 138.412 50.1435Z" fill="currentColor"/>
<path fill-rule="evenodd" clip-rule="evenodd" d="M56.6622 3.42032C25.1892 1.89688 1.89866 6.51545 0.63515 15.6767C0.155419 19.151 2.89866 22.8803 8.15542 26.5821C7.92569 25.8031 7.80407 25.0173 7.81758 24.2245C7.9865 14.2705 28.3176 6.1501 56.6622 3.42032Z" fill="currentColor"/>
<path fill-rule="evenodd" clip-rule="evenodd" d="M99.9863 38.5974C96.1214 38.5974 94.3376 37.0395 94.3376 33.6204C94.3376 28.7192 97.7228 26.0032 103.77 26.0032C104.716 26.0032 106.027 26.0446 106.946 26.079L107.412 26.1204L107.486 25.7068C107.669 24.852 107.703 24.5969 107.703 24.1833C107.703 22.7702 106.54 22.1015 104.142 22.0671C102.135 22.0671 100.203 22.4049 97.7971 23.1838L98.6755 19.5441H98.8579C99.4728 19.5441 100.642 19.4683 102.385 19.3166C103.628 19.2063 104.75 19.1305 105.669 19.1305C110.25 19.1305 112.29 20.323 112.29 23.0321C112.29 23.7353 112.182 24.5969 111.858 26.341L111.311 29.4637C110.73 32.6898 110.324 35.7367 110.324 37.3014C110.324 37.4462 110.324 37.6323 110.365 37.784V38.1562H106.284V37.9287C106.284 37.5565 106.432 36.3364 106.574 35.2955C104.939 37.6737 103.04 38.5974 99.9863 38.5974ZM106.648 28.6434C105.885 28.5675 105.371 28.5675 104.797 28.5675C102.75 28.5675 101.473 28.8639 100.601 29.5326C99.6214 30.2771 98.9998 31.6489 98.9998 33.0276C98.9998 34.6613 99.9458 35.5919 101.696 35.5919C102.824 35.5919 103.878 35.1438 104.716 34.3649C105.77 33.3584 106.358 31.9108 106.905 28.9053L106.946 28.6778L106.648 28.6434Z" fill="currentColor"/>
<path fill-rule="evenodd" clip-rule="evenodd" d="M120.176 38.597C117.156 38.597 115.662 37.4458 115.662 35.1434C115.662 34.5506 115.818 33.5855 116.392 30.9453C116.534 30.0147 116.534 30.0147 116.906 28.2362L117.412 25.2996L117.885 22.5836L117.96 22.1011L117.629 22.1425H115.703L116.135 19.5781H116.392L117.196 19.6126H118.034L118.358 19.654L118.433 19.2817L118.649 17.7169L118.939 15.7868L119.014 15.4559L123.899 14.3047L123.831 14.7114C123.75 15.1181 123.568 15.9729 123.345 17.1999C123.169 18.165 123.02 18.8336 122.953 19.2059L122.872 19.654H123.237L125.5 19.6126L128.081 19.5437L128.372 19.5023L127.608 22.1769C126.737 22.1425 126.48 22.1011 125.02 22.1011H122.439L122.365 22.4389C122.297 22.9972 122.081 24.369 121.676 26.5611C121.379 28.1949 121.27 28.9807 120.906 31.2831C120.689 32.6204 120.656 33.1029 120.656 33.6199C120.656 34.8814 121.311 35.5156 122.656 35.5156C123.392 35.5156 124.007 35.4053 125.277 35.0676L124.804 37.8594C123.095 38.3764 121.743 38.597 120.176 38.597Z" fill="currentColor"/>
<path fill-rule="evenodd" clip-rule="evenodd" d="M135.878 38.5973C130.601 38.5973 128.115 36.4052 128.115 31.7246C128.115 29.3877 128.662 26.8992 129.655 24.7071C131.324 20.9502 134.527 19.1304 139.446 19.1304C143.885 19.1304 146.108 20.8399 146.108 24.259C146.108 25.1897 145.892 26.6717 145.453 28.5674L145.088 28.5329C143.851 28.4916 141.959 28.4916 139.378 28.4916C136.75 28.4916 134.784 28.4916 133.507 28.5329L133.142 28.5674C132.926 29.9461 132.899 30.2011 132.899 31.2834C132.899 34.027 134.567 35.5504 137.554 35.5504C139.696 35.5504 141.959 35.0334 144.034 34.027L143.412 37.5977C140.98 38.2664 138.5 38.5973 135.878 38.5973ZM134.094 25.9686C134.567 25.9686 136.419 26.0031 137.986 26.0031C139.554 26.0031 140.574 25.9686 141.081 25.9686C141.155 25.9341 141.263 25.9341 141.412 25.9341L141.486 25.4861C141.561 25.1138 141.561 24.7761 141.561 24.4452C141.561 22.8873 140.473 22.0325 138.459 22.0325C135.919 22.0325 134.493 23.1837 133.73 25.9341C133.872 25.9341 134.02 25.9341 134.094 25.9686Z" fill="currentColor"/>
<path fill-rule="evenodd" clip-rule="evenodd" d="M145.561 37.7835C146.655 36.5565 148.148 34.9228 150.007 32.8755C151.534 31.2073 152.628 29.9802 153.317 29.2013L153.682 28.7877L153.466 28.4223L151.459 24.631L148.804 19.9504L148.581 19.5781H154.088C154.155 19.7642 154.196 19.8745 154.23 19.9504C154.371 20.2812 154.777 21.1016 155.432 22.4044C156.047 23.6659 156.459 24.4449 156.635 24.7757C156.676 24.8516 156.743 25.0032 156.851 25.1893C157 25.0032 157.115 24.886 157.182 24.8171C157.615 24.369 158.378 23.4798 159.547 22.1425C160.459 21.0602 161.115 20.3571 161.446 19.9504L161.736 19.5781H165.777L165.412 19.9504C164.426 21.0257 163.263 22.2872 161.912 23.7762C160.236 25.596 159.149 26.8231 158.561 27.4159L158.236 27.7537L158.426 28.119L160.75 32.3929C162.203 35.1089 163.189 36.9288 163.696 37.7835C163.696 37.818 163.77 37.9283 163.919 38.1558H158.378L158.236 37.818L156.743 34.7022L155.209 31.6898L155.034 31.352L154.743 31.6898C151.973 34.7711 150.804 36.1498 149.493 37.7835L149.169 38.1558H145.236L145.561 37.7835Z" fill="currentColor"/>
<path fill-rule="evenodd" clip-rule="evenodd" d="M25.4191 37.5974L28.6285 32.062C30.1555 29.4218 31.7231 26.6369 35.5474 19.6125C36.9258 17.0482 37.9934 15.0836 38.6758 13.7463L38.8582 13.374H44.5474L44.5745 13.7463C44.8312 15.0836 45.1623 17.0482 45.6353 19.5436C46.142 22.2872 46.5407 24.4103 46.8447 25.8166L48.1826 32.1378L49.4596 37.8593L49.5272 38.1557H43.669L43.6285 37.818C43.5204 36.9632 43.338 35.7017 43.088 33.9577C42.8312 32.3239 42.6488 31.1314 42.5001 30.3524L42.4663 30.056L42.1353 30.0146C41.5204 29.9802 40.2434 29.9802 38.3515 29.9802C36.0542 29.9802 34.5339 29.9802 33.7636 30.0146L33.4393 30.056L33.2501 30.3524C33.0001 30.8005 32.338 32.0964 31.3245 34.1438C30.3718 36.0326 29.7636 37.2596 29.5001 37.7835C29.4663 37.8593 29.4258 38.0041 29.3582 38.1557H25.0947L25.4191 37.5974ZM35.3245 27.0436C36.1285 27.085 37.2231 27.085 38.5339 27.085C39.8042 27.085 40.8245 27.085 41.669 27.0436H41.9934L41.919 26.6714C41.7366 25.4857 41.4799 24.0381 41.1555 22.2527C40.6826 19.7642 40.392 18.2407 40.2772 17.6824L40.169 17.1654L39.8785 17.7169C39.3312 18.6888 38.4934 20.2123 37.4393 22.2527C36.3447 24.3345 35.5812 25.8579 35.1082 26.7472L34.9663 27.0091L35.3245 27.0436Z" fill="currentColor"/>
<path fill-rule="evenodd" clip-rule="evenodd" d="M58.8311 38.597C54.6824 38.597 52.75 37.3768 52.75 34.7367C52.75 34.0267 52.7838 33.3235 52.9324 32.6204C53.1486 31.3176 53.3716 30.0147 53.6284 28.7532C54.5338 23.852 54.7162 22.5836 54.973 19.9504L55.0068 19.5781H59.8176C59.777 19.8401 59.777 19.9504 59.777 19.9848C59.7027 20.6949 59.4122 22.3631 58.9459 25.0032L57.9932 30.1319C57.7365 31.4692 57.6284 32.5446 57.6284 33.3235C57.6284 34.8125 58.6892 35.5915 60.6149 35.5915C61.8919 35.5915 62.8716 35.2192 63.7162 34.4403C64.1554 33.9922 64.5135 33.5096 64.7297 32.9926C65.3851 31.614 65.6757 30.2767 66.4459 25.4099L67.2838 19.9504L67.3513 19.5781H72.1351C72.0878 19.7642 72.0878 19.8745 72.0541 19.9504C71.9054 20.619 71.6149 22.0322 71.2162 24.2243L70.3784 28.8635C70.2297 29.7941 69.9865 31.3176 69.6824 33.5096C69.3243 36.2601 69.2838 36.6668 69.25 38.1558H64.8041C64.8378 37.3768 64.8784 37.1907 65.0608 36.1085C65.0946 35.9982 65.1351 35.7776 65.1689 35.5156C63.7905 37.6733 61.8919 38.597 58.8311 38.597Z" fill="currentColor"/>
<path fill-rule="evenodd" clip-rule="evenodd" d="M80.5813 38.5972C76.2772 38.5972 74.2029 36.4809 74.2029 32.0967C74.2029 29.6841 74.784 27.1197 75.8786 24.8173C77.6623 21.1018 80.8313 19.1303 84.9799 19.1303C86.4731 19.1303 87.9394 19.3509 88.9461 19.7645L89.0204 19.3164C89.1691 18.5719 89.3853 17.3863 89.6083 15.7525C89.8988 14.043 90.0407 12.8159 90.1488 12.037L90.1894 11.6992H94.9934L94.9596 11.9956C94.6353 13.4846 94.2029 15.6767 93.6826 18.5719C92.6623 24.1487 92.1894 27.0094 91.7164 30.0149C91.1353 33.7305 90.8448 36.2259 90.8448 37.7838V38.1147L86.5475 38.156C86.5475 37.4115 86.6894 36.5223 86.9123 35.3297C85.4191 37.7424 83.7772 38.5972 80.5813 38.5972ZM85.3786 22.1013C83.9259 22.1013 82.7569 22.5149 81.9191 23.2939C80.284 24.8518 79.1556 28.1606 79.1556 31.5039C79.1556 34.3302 80.1421 35.5917 82.284 35.5917C83.9934 35.5917 85.6353 34.3991 86.365 32.6206C86.6894 31.9106 86.9123 31.0558 87.1286 30.0563C87.4596 28.4226 88.0069 25.4446 88.4056 23.0319L88.4731 22.6597C87.284 22.253 86.4056 22.1013 85.3786 22.1013Z" fill="currentColor"/>
<path fill-rule="evenodd" clip-rule="evenodd" d="M185.318 37.5146C183.385 44.601 171.115 50.5914 153.237 54.107C121.622 60.0353 75.1218 56.0096 75.1218 56.0096C139.825 65.3846 171.493 58.4774 173.629 57.9811C184.338 55.9062 191.021 52.363 191.683 47.5721C192.122 44.3667 189.818 40.9338 185.318 37.5146Z" fill="currentColor"/>
</svg>
