<svg width="98" height="64" viewBox="0 0 98 64" fill="none" xmlns="http://www.w3.org/2000/svg">
<path fill-rule="evenodd" clip-rule="evenodd" d="M97.8202 55.8243H41.9865V23.6725L58.9787 44.7501C59.1291 44.9486 59.3674 45.0658 59.6176 45.0658C59.7018 45.0658 59.7852 45.0527 59.8656 45.027C60.1914 44.9228 60.4102 44.6284 60.4102 44.2944V7.17489H57.8266V39.2601L40.8348 18.1691C40.6843 17.9705 40.4462 17.8533 40.1957 17.8533C40.1115 17.8533 40.028 17.8664 39.9475 17.8922C39.6222 17.9966 39.4034 18.2909 39.4034 18.6247V55.8243H0.180176V7.17488H97.8202V55.8243ZM69.1798 42.4378H76.4834C83.6555 42.4378 83.6555 38.2628 83.6555 36.8907C83.6555 34.0476 81.1227 32.0619 77.4962 32.0619H69.1798V42.4378ZM75.3588 20.5626H69.1798V29.5527H77.4962C78.4947 29.5527 81.7525 29.2398 81.7525 25.2127C81.7525 22.9638 80.8588 22.0897 80.1868 21.628C79.1585 20.9211 77.5343 20.5626 75.3588 20.5626ZM86.2327 36.8907C86.2327 38.2856 85.9738 39.5321 85.4633 40.5955C84.965 41.6323 84.2264 42.5024 83.2682 43.1818C81.6159 44.3534 79.3332 44.9474 76.4834 44.9474H67.439C66.9778 44.9468 66.6026 44.5811 66.6026 44.1324V18.8664C66.6038 18.4182 66.9794 18.0535 67.4397 18.0535H75.3588C78.1149 18.0535 80.1803 18.5521 81.6732 19.5782C83.4359 20.7896 84.3297 22.6852 84.3297 25.2127C84.3297 27.9774 83.1458 29.5733 82.1525 30.4251L82.0352 30.5257L82.1743 30.5951C82.6994 30.8575 83.1853 31.1659 83.6182 31.5117C85.3042 32.8573 86.2327 34.7676 86.2327 36.8907ZM16.164 42.4381H21.9341C24.0533 42.4381 27.0268 41.9036 29.1585 39.3573C31.3052 36.7929 31.6265 33.4341 31.6269 31.66C31.6269 30.4712 31.4489 26.3794 29.1585 23.6435C27.0267 21.0971 24.0532 20.5626 21.9341 20.5626H16.164V42.4381ZM34.204 31.6604C34.2033 33.7682 33.8064 37.7769 31.1558 40.9427C29.9901 42.3351 28.5223 43.3859 26.7934 44.0658C25.3065 44.6508 23.6716 44.9474 21.9341 44.9474H14.4227C13.9617 44.9468 13.5866 44.5811 13.5866 44.1324V18.8685C13.5866 18.4191 13.9622 18.0535 14.4238 18.0535H21.9341C23.672 18.0535 25.3069 18.35 26.7934 18.9347C28.5225 19.6149 29.9902 20.6658 31.1558 22.0581C33.907 25.3438 34.204 29.8678 34.204 31.6604Z" fill="currentColor"/>
</svg>
