<svg width="162" height="64" viewBox="0 0 162 64" fill="none" xmlns="http://www.w3.org/2000/svg">
<path d="M20.9771 24.0282V29.7711H34.3525C33.6879 37.7854 27.1664 41.214 20.9771 41.214C13.0848 41.214 6.18944 34.8711 6.18944 25.9568C6.18944 17.2997 12.7525 10.614 20.9771 10.614C27.3325 10.614 31.071 14.7711 31.071 14.7711L34.9756 10.614C34.9756 10.614 29.9494 4.87109 20.7694 4.87109C9.0556 4.87109 0.041748 14.9425 0.041748 25.8282C0.041748 36.4997 8.55713 46.914 21.0602 46.914C32.0679 46.914 40.1264 39.1997 40.1264 27.7997C40.1264 25.3997 39.7941 23.9854 39.7941 23.9854L20.9771 24.0282ZM55.3294 19.914C47.5618 19.914 42.0371 26.0854 42.0371 33.3282C42.0371 40.6568 47.4371 46.9568 55.4125 46.9568C62.6402 46.9568 68.5802 41.2997 68.5802 33.4997C68.6218 24.4997 61.7264 19.914 55.3294 19.914ZM55.4125 25.1854C59.2341 25.1854 62.8479 28.314 62.8479 33.414C62.8479 38.3854 59.2341 41.5997 55.4125 41.5997C51.1756 41.5997 47.8525 38.1282 47.8525 33.3711C47.8525 28.6997 51.1341 25.1854 55.4125 25.1854ZM84.2818 19.914C76.5141 19.914 70.9894 26.0854 70.9894 33.3282C70.9894 40.6568 76.3894 46.9568 84.3648 46.9568C91.5925 46.9568 97.5325 41.2997 97.5325 33.4997C97.5325 24.4997 90.6371 19.914 84.2818 19.914ZM84.3648 25.1854C88.1864 25.1854 91.8002 28.314 91.8002 33.414C91.8002 38.3854 88.1864 41.5997 84.3648 41.5997C80.1279 41.5997 76.8048 38.1282 76.8048 33.3711C76.7633 28.6997 80.0448 25.1854 84.3648 25.1854ZM112.653 19.914C105.549 19.914 99.9418 26.2568 99.9418 33.414C99.9418 41.5568 106.422 46.9568 112.528 46.9568C116.308 46.9568 118.302 45.414 119.797 43.6568V46.3139C119.797 50.9854 117.014 53.7711 112.86 53.7711C108.831 53.7711 106.796 50.6854 106.089 48.9711L101.022 51.1568C102.808 55.0568 106.463 59.1282 112.902 59.1282C119.963 59.1282 125.363 54.5854 125.363 45.0282V20.7282H119.797V22.9997C118.053 21.114 115.726 19.914 112.653 19.914ZM113.151 25.2282C116.64 25.2282 120.213 28.2711 120.213 33.4568C120.213 38.7282 116.64 41.6425 113.068 41.6425C109.288 41.6425 105.757 38.514 105.757 33.4997C105.757 28.314 109.413 25.2282 113.151 25.2282ZM149.996 19.8711C143.308 19.8711 137.659 25.314 137.659 33.3711C137.659 41.8997 143.931 46.914 150.66 46.914C156.268 46.914 159.674 43.7854 161.751 40.9997L157.182 37.8711C155.977 39.7568 154.025 41.5997 150.702 41.5997C146.963 41.5997 145.26 39.4997 144.222 37.4854L161.959 29.9854L161.045 27.7997C159.259 23.4711 155.271 19.8711 149.996 19.8711ZM150.203 25.0568C152.613 25.0568 154.357 26.3854 155.105 27.9282L143.266 32.9854C142.768 29.0854 146.382 25.0568 150.203 25.0568ZM129.185 46.1425H135V6.28538H129.185V46.1425Z" fill="currentColor"/>
</svg>
