<svg width="166" height="64" viewBox="0 0 166 64" fill="none" xmlns="http://www.w3.org/2000/svg">
<g clip-path="url(#clip0_135_200)">
<path fill-rule="evenodd" clip-rule="evenodd" d="M108.679 35.1234C109.381 35.1234 109.965 35.4052 110.55 35.7675V26.2662C109.965 26.6688 109.381 26.9104 108.679 26.9104H98.4699V24.8974H111.953C112.615 24.8974 113.238 25.1792 113.784 25.5416V16H79.6878C80.2723 16.4831 80.8178 17.1273 80.8178 17.9727V44.7857C80.8178 45.6312 80.2723 46.2351 79.6878 46.7584H113.784V36.2104C113.238 36.5727 112.615 36.8545 111.953 36.8545H98.4699V35.1234H108.679ZM135.567 40.5987H143.126L144.724 44.987C144.802 45.1883 144.841 45.3896 144.841 45.6312C144.841 46.0338 144.763 46.4364 144.607 46.7987H166.312C165.883 46.3961 165.571 45.9935 165.377 45.4299L155.128 19.5831C154.894 18.939 154.7 18.2948 154.7 17.6104C154.7 17.0468 154.894 16.5636 155.128 16.0403H127.033C127.267 16.4831 127.461 17.0065 127.461 17.5701C127.461 18.2143 127.267 18.8987 127.033 19.5429L117.759 45.3896C117.564 45.913 117.291 46.3559 116.901 46.7584H134.281C134.086 46.4364 133.969 46.074 133.969 45.7117C133.969 45.5105 134.008 45.3495 134.047 45.1885L134.047 45.1883L135.567 40.5987ZM47.8906 44.7455V35.4455L53.1122 44.7857C53.307 45.1078 53.5019 45.5104 53.5019 45.913C53.5019 46.1828 53.3378 46.4244 53.1929 46.6377C53.1648 46.679 53.1375 46.7192 53.1122 46.7584H76.7653C75.908 46.2753 75.1676 45.6312 74.661 44.7857L64.8413 28.7221L71.9723 18.013C72.5178 17.1675 73.2972 16.4831 74.1544 16H53.8526C54.0084 16.3221 54.1643 16.6844 54.1643 17.0468C54.1643 17.4091 54.0084 17.7312 53.8526 18.013L47.8906 27.2727V18.013C47.8906 17.1273 48.3972 16.5234 48.9817 16H28.407C28.9526 16.5636 29.4981 17.1675 29.4981 18.013V44.7455C29.4981 45.5909 28.9915 46.1948 28.407 46.7182H48.9817C48.3972 46.1948 47.8906 45.5909 47.8906 44.7455ZM21.0812 16H0C0.584507 16.5234 1.09108 17.1273 1.09108 17.9727V44.7455C1.09108 45.5909 0.584507 46.1948 0 46.7182H21.0812C20.4967 46.1948 19.9901 45.5909 19.9901 44.7455V17.9727C19.9901 17.1273 20.4967 16.5234 21.0812 16ZM140.749 34.4791H137.398L138.996 29.5674L140.749 34.4791Z" fill="currentColor"/>
</g>
<defs>
<clipPath id="clip0_135_200">
<rect width="166" height="64" fill="white"/>
</clipPath>
</defs>
</svg>
