<svg width="166" height="64" viewBox="0 0 166 64" fill="none" xmlns="http://www.w3.org/2000/svg">
<path fill-rule="evenodd" clip-rule="evenodd" d="M25.7137 47L25.7258 24.6457H27.4974L38.5867 46.9746H45.9831L57.0779 24.6457H58.8817L58.8812 47H67.7383V16.0938H51.7817L42.327 34.5734L32.781 16.1183L16.8978 16.1671L16.8735 47H25.7137Z" fill="currentColor"/>
<path fill-rule="evenodd" clip-rule="evenodd" d="M0 46.9987H9.91999V16.0938H0V46.9987Z" fill="currentColor"/>
<path fill-rule="evenodd" clip-rule="evenodd" d="M85.4177 16.0938L69.4827 47H80.0808L82.8535 41.7436H102.656L105.357 47H115.981L100.037 16.0938H85.4177ZM93.2344 23.1193H92.259L86.2268 34.8244H99.1995L93.2344 23.1193Z" fill="currentColor"/>
<path fill-rule="evenodd" clip-rule="evenodd" d="M131.078 16.0938H118.766L131.193 30.5989L116.354 47H129.478L139.464 35.8331L149.338 47H162.42L147.665 30.585L160.021 16.0938H147.928L139.38 26.1351L131.078 16.0938Z" fill="currentColor"/>
<path fill-rule="evenodd" clip-rule="evenodd" d="M166 18.3527C166 19.6518 164.931 20.7064 163.613 20.7064C162.295 20.7064 161.226 19.6518 161.226 18.3527C161.226 17.0554 162.297 16 163.613 16C164.931 16 166 17.0554 166 18.3527ZM165.59 18.3527C165.59 17.2765 164.705 16.4058 163.613 16.4058C162.523 16.4058 161.637 17.2773 161.637 18.3527C161.637 19.4292 162.523 20.3006 163.613 20.3006C164.705 20.3008 165.59 19.4294 165.59 18.3527ZM163.795 17.4675H163.097V18.3309H163.807C163.895 18.3309 163.962 18.3241 164.008 18.31C164.055 18.2966 164.101 18.2727 164.133 18.2331C164.185 18.1747 164.206 18.0598 164.206 17.8859C164.206 17.7252 164.188 17.6146 164.147 17.5589C164.118 17.518 164.07 17.4948 164.015 17.484C163.959 17.473 163.885 17.4675 163.795 17.4675ZM163.882 17.049C164.218 17.049 164.444 17.1137 164.562 17.2426C164.668 17.3573 164.72 17.5463 164.72 17.8068C164.72 18.0907 164.679 18.2753 164.605 18.3648C164.535 18.4466 164.446 18.5029 164.284 18.5319V18.5419C164.437 18.5566 164.534 18.6009 164.605 18.6947C164.674 18.7865 164.698 18.937 164.698 19.1273V19.5809H164.185V19.2267C164.185 19.1385 164.181 19.0639 164.172 19.0061C164.164 18.9483 164.141 18.8991 164.106 18.8601C164.071 18.8215 164.028 18.7955 163.981 18.784C163.932 18.7729 163.868 18.7674 163.788 18.7674H163.736H163.097V19.5809H162.6L162.606 17.0492H163.882V17.049Z" fill="currentColor"/>
</svg>
