<svg width="215" height="64" viewBox="0 0 215 64" fill="none" xmlns="http://www.w3.org/2000/svg">
<g clip-path="url(#clip0_130_146)">
<path d="M73.9242 49.6859H70.0951C69.9093 49.6721 69.7346 49.5924 69.6029 49.4612C69.4711 49.3301 69.391 49.1562 69.3772 48.9713V16.9343C69.391 16.7494 69.4711 16.5755 69.6029 16.4443C69.7346 16.3132 69.9093 16.2335 70.0951 16.2197H73.9242C74.11 16.2335 74.2847 16.3132 74.4165 16.4443C74.5482 16.5755 74.6283 16.7494 74.6421 16.9343V35.8706L82.6592 26.5811C82.8227 26.4317 83.0355 26.347 83.2574 26.3429H87.5651C87.7031 26.3451 87.8378 26.3849 87.9546 26.458C88.0714 26.5311 88.1659 26.6348 88.2276 26.7576C88.2893 26.8805 88.3159 27.0178 88.3046 27.1547C88.2933 27.2916 88.2444 27.4227 88.1634 27.5339L79.3087 37.538L88.7617 48.4949C88.8526 48.6034 88.9098 48.736 88.9263 48.8763C88.9427 49.0167 88.9176 49.1588 88.8541 49.2852C88.7906 49.4116 88.6914 49.5169 88.5687 49.588C88.4461 49.6592 88.3052 49.6932 88.1634 49.6859H83.8557C83.6164 49.6859 83.4968 49.5667 83.2574 49.4477L74.6421 39.6817V48.8522C74.6421 49.4477 74.4028 49.6859 73.9242 49.6859Z" fill="currentColor"/>
<path d="M88.1635 49.9239H83.8558C83.7182 49.9152 83.5838 49.8791 83.4604 49.8178C83.3371 49.7564 83.2274 49.671 83.1379 49.5666L74.8816 40.158V48.9711C74.8849 49.0815 74.8655 49.1914 74.8245 49.294C74.7836 49.3966 74.722 49.4898 74.6436 49.5679C74.5651 49.646 74.4715 49.7073 74.3684 49.748C74.2652 49.7888 74.1548 49.8081 74.0439 49.8048H70.2149C70.104 49.8081 69.9936 49.7888 69.8905 49.748C69.7874 49.7073 69.6937 49.646 69.6153 49.5679C69.5368 49.4898 69.4752 49.3966 69.4343 49.294C69.3934 49.1914 69.374 49.0815 69.3773 48.9711V16.9341C69.374 16.8238 69.3934 16.7139 69.4343 16.6112C69.4752 16.5086 69.5368 16.4154 69.6153 16.3373C69.6937 16.2592 69.7874 16.1979 69.8905 16.1572C69.9936 16.1165 70.104 16.0972 70.2149 16.1005H73.9243C74.0352 16.0972 74.1456 16.1165 74.2487 16.1572C74.3518 16.1979 74.4455 16.2592 74.5239 16.3373C74.6024 16.4154 74.664 16.5086 74.7049 16.6112C74.7458 16.7139 74.7652 16.8238 74.7619 16.9341V35.3941L82.5396 26.4619C82.6099 26.3379 82.7158 26.2377 82.8437 26.174C82.9716 26.1104 83.1157 26.0862 83.2576 26.1046H87.5652C87.7338 26.1077 87.8988 26.153 88.0452 26.2362C88.1916 26.3194 88.3145 26.438 88.4028 26.581C88.4761 26.7346 88.5037 26.9059 88.4825 27.0747C88.4613 27.2435 88.3922 27.4027 88.2832 27.5337L79.5482 37.5378L88.8814 48.3756C88.9905 48.5066 89.0596 48.6658 89.0808 48.8346C89.102 49.0034 89.0744 49.1747 89.0011 49.3284C88.7618 49.6857 88.5225 49.9239 88.1635 49.9239ZM74.5226 39.3243L83.3772 49.3284C83.4342 49.401 83.5067 49.4601 83.5895 49.5013C83.6723 49.5425 83.7633 49.5648 83.8558 49.5666H88.1635C88.4028 49.5666 88.6421 49.4475 88.6421 49.2093C88.6421 48.9711 88.7618 48.7329 88.5225 48.6138L78.9499 37.6569L87.9242 27.5337C88.0038 27.4591 88.0581 27.3617 88.0795 27.255C88.101 27.1483 88.0885 27.0376 88.0438 26.9382C87.9242 26.7 87.8045 26.581 87.5652 26.581H83.2576C83.0776 26.6108 82.9109 26.6938 82.7789 26.8191L74.5226 36.3469V17.0532C74.502 16.9286 74.4616 16.808 74.4029 16.6959C74.3556 16.6509 74.2989 16.6169 74.2369 16.5963C74.1748 16.5757 74.1089 16.5691 74.0439 16.5768H70.2149C70.135 16.5716 70.0548 16.5834 69.9799 16.6114C69.9049 16.6395 69.8368 16.6832 69.7801 16.7396C69.7235 16.796 69.6796 16.8637 69.6514 16.9384C69.6232 17.013 69.6113 17.0928 69.6166 17.1723V49.2093C69.6113 49.2888 69.6232 49.3686 69.6514 49.4433C69.6796 49.5179 69.7235 49.5857 69.7801 49.642C69.8368 49.6984 69.9049 49.7421 69.9799 49.7702C70.0548 49.7982 70.135 49.81 70.2149 49.8048H73.9243C74.0495 49.7843 74.1707 49.7441 74.2833 49.6857C74.3285 49.6386 74.3627 49.5822 74.3834 49.5204C74.4041 49.4586 74.4107 49.393 74.4029 49.3284L74.5226 39.3243Z" fill="currentColor"/>
<path d="M103.24 45.5175C101.74 45.5649 100.26 45.1655 98.989 44.3704C97.7182 43.5753 96.7149 42.4207 96.1074 41.0546C95.5 39.6884 95.3161 38.1729 95.5794 36.7021C95.8427 35.2313 96.5411 33.8722 97.5852 32.7989C98.6293 31.7257 99.9716 30.987 101.44 30.6777C102.908 30.3683 104.436 30.5024 105.828 31.0626C107.219 31.6228 108.411 32.5837 109.25 33.8222C110.09 35.0607 110.539 36.5204 110.539 38.0144C110.56 38.9853 110.387 39.9507 110.03 40.8548C109.674 41.7588 109.141 42.5835 108.462 43.2812C107.783 43.9789 106.972 44.5358 106.076 44.9196C105.18 45.3035 104.216 45.5067 103.24 45.5175V45.5175ZM115.565 48.9713V27.0575C115.551 26.8725 115.471 26.6987 115.339 26.5675C115.208 26.4364 115.033 26.3567 114.847 26.3429H111.018C110.832 26.3567 110.657 26.4364 110.526 26.5675C110.394 26.6987 110.314 26.8725 110.3 27.0575V29.9158L110.061 29.5585C109.145 28.3501 107.948 27.3823 106.572 26.7389C105.195 26.0955 103.682 25.7961 102.163 25.8665C95.7019 25.8665 90.6763 31.2259 90.6763 38.1335C90.6763 45.0411 95.7019 50.4004 102.163 50.4004C103.703 50.4408 105.228 50.1033 106.606 49.4179C107.983 48.7325 109.17 47.7201 110.061 46.4702L110.3 46.1129V49.0904C110.314 49.2753 110.394 49.4492 110.526 49.5803C110.657 49.7115 110.832 49.7912 111.018 49.8049H114.727C115.206 49.6858 115.565 49.4476 115.565 48.9713Z" fill="currentColor"/>
<path d="M102.044 50.4002C95.5823 50.4002 90.437 44.9217 90.437 38.0141C90.437 31.1065 95.5823 25.6281 102.044 25.6281C103.589 25.5782 105.124 25.8983 106.519 26.5615C107.914 27.2247 109.129 28.2116 110.061 29.4392V27.0573C110.057 26.9469 110.077 26.837 110.118 26.7344C110.159 26.6317 110.22 26.5385 110.299 26.4604C110.377 26.3824 110.471 26.3211 110.574 26.2803C110.677 26.2396 110.787 26.2203 110.898 26.2236H114.608C114.719 26.2203 114.829 26.2396 114.932 26.2803C115.035 26.3211 115.129 26.3824 115.207 26.4604C115.286 26.5385 115.347 26.6317 115.388 26.7344C115.429 26.837 115.449 26.9469 115.445 27.0573V48.971C115.449 49.0814 115.429 49.1913 115.388 49.2939C115.347 49.3966 115.286 49.4898 115.207 49.5679C115.129 49.6459 115.035 49.7072 114.932 49.748C114.829 49.7887 114.719 49.808 114.608 49.8047H111.018C110.907 49.808 110.797 49.7887 110.694 49.748C110.591 49.7072 110.497 49.6459 110.418 49.5679C110.34 49.4898 110.278 49.3966 110.237 49.2939C110.197 49.1913 110.177 49.0814 110.18 48.971V46.47C109.24 47.7259 108.01 48.7385 106.594 49.4225C105.178 50.1064 103.617 50.4418 102.044 50.4002V50.4002ZM102.044 25.9854C95.7019 25.9854 90.796 31.3447 90.796 38.1332C90.796 44.9217 95.7019 50.2811 102.044 50.2811C103.564 50.308 105.068 49.9639 106.424 49.2788C107.78 48.5936 108.946 47.5884 109.821 46.3509L110.42 45.6363V49.0901C110.414 49.1697 110.426 49.2495 110.455 49.3241C110.483 49.3987 110.527 49.4665 110.583 49.5229C110.64 49.5793 110.708 49.6229 110.783 49.651C110.858 49.6791 110.938 49.6909 111.018 49.6856H114.727C114.807 49.6909 114.887 49.6791 114.962 49.651C115.037 49.6229 115.106 49.5793 115.162 49.5229C115.219 49.4665 115.263 49.3987 115.291 49.3241C115.319 49.2495 115.331 49.1697 115.326 49.0901V27.0573C115.331 26.9777 115.319 26.8979 115.291 26.8233C115.263 26.7487 115.219 26.6809 115.162 26.6245C115.106 26.5681 115.037 26.5244 114.962 26.4964C114.887 26.4683 114.807 26.4565 114.727 26.4618H111.018C110.938 26.4565 110.858 26.4683 110.783 26.4964C110.708 26.5244 110.64 26.5681 110.583 26.6245C110.527 26.6809 110.483 26.7487 110.455 26.8233C110.426 26.8979 110.414 26.9777 110.42 27.0573V30.392L109.821 29.6774C108.94 28.4619 107.766 27.4867 106.407 26.8415C105.048 26.1963 103.547 25.9019 102.044 25.9854V25.9854ZM103.24 45.6363C101.716 45.6837 100.213 45.2773 98.9225 44.4691C97.6321 43.661 96.6134 42.4878 95.9969 41.0999C95.3804 39.7119 95.1942 38.1724 95.4621 36.6785C95.73 35.1846 96.4398 33.8043 97.5007 32.7144C98.5615 31.6245 99.9251 30.8745 101.417 30.5606C102.908 30.2466 104.46 30.383 105.874 30.9523C107.287 31.5215 108.497 32.4977 109.35 33.7558C110.202 35.0139 110.658 36.4966 110.659 38.0141C110.689 39.0033 110.52 39.9884 110.161 40.9112C109.802 41.834 109.261 42.6757 108.569 43.3865C107.877 44.0972 107.049 44.6626 106.134 45.049C105.218 45.4355 104.235 45.6352 103.24 45.6363V45.6363ZM103.24 30.7493C102.28 30.7585 101.331 30.9575 100.448 31.3348C99.5658 31.7121 98.7674 32.2602 98.0994 32.9471C97.4315 33.6341 96.9073 34.4463 96.5574 35.3366C96.2074 36.2269 96.0387 37.1775 96.0609 38.1332C96.0288 39.0915 96.1907 40.0464 96.5371 40.941C96.8835 41.8357 97.4073 42.6518 98.0772 43.3408C98.7471 44.0298 99.5494 44.5775 100.436 44.9514C101.323 45.3253 102.277 45.5178 103.24 45.5172C104.201 45.508 105.15 45.309 106.032 44.9317C106.915 44.5544 107.713 44.0063 108.381 43.3193C109.049 42.6324 109.573 41.8202 109.923 40.9299C110.273 40.0396 110.442 39.089 110.42 38.1332C110.452 37.175 110.29 36.2201 109.944 35.3255C109.597 34.4308 109.073 33.6147 108.403 32.9257C107.734 32.2367 106.931 31.689 106.044 31.3151C105.157 30.9411 104.204 30.7487 103.24 30.7493V30.7493Z" fill="currentColor"/>
<path d="M120.231 16.9343V48.9713C120.245 49.1562 120.325 49.3301 120.457 49.4612C120.589 49.5924 120.764 49.6721 120.949 49.6859H124.778C124.964 49.6721 125.139 49.5924 125.271 49.4612C125.402 49.3301 125.483 49.1562 125.496 48.9713V16.9343C125.483 16.7494 125.402 16.5755 125.271 16.4443C125.139 16.3132 124.964 16.2335 124.778 16.2197H120.949C120.764 16.2335 120.589 16.3132 120.457 16.4443C120.325 16.5755 120.245 16.7494 120.231 16.9343V16.9343Z" fill="currentColor"/>
<path d="M124.898 49.9239H121.069C120.958 49.9272 120.848 49.9078 120.745 49.8671C120.642 49.8264 120.548 49.7651 120.47 49.687C120.391 49.6089 120.33 49.5157 120.289 49.4131C120.248 49.3104 120.228 49.2006 120.232 49.0902V16.9341C120.228 16.8238 120.248 16.7139 120.289 16.6112C120.33 16.5086 120.391 16.4154 120.47 16.3373C120.548 16.2592 120.642 16.1979 120.745 16.1572C120.848 16.1165 120.958 16.0972 121.069 16.1005H124.898C125.009 16.0972 125.119 16.1165 125.223 16.1572C125.326 16.1979 125.419 16.2592 125.498 16.3373C125.576 16.4154 125.638 16.5086 125.679 16.6112C125.72 16.7139 125.739 16.8238 125.736 16.9341V48.9711C125.746 49.2066 125.665 49.437 125.509 49.6144C125.353 49.7918 125.134 49.9027 124.898 49.9239ZM120.95 16.3387C120.87 16.3334 120.789 16.3452 120.714 16.3732C120.639 16.4013 120.571 16.445 120.515 16.5014C120.458 16.5578 120.414 16.6255 120.386 16.7002C120.358 16.7748 120.346 16.8546 120.351 16.9341V48.9711C120.346 49.0507 120.358 49.1304 120.386 49.2051C120.414 49.2797 120.458 49.3475 120.515 49.4038C120.571 49.4602 120.639 49.5039 120.714 49.532C120.789 49.56 120.87 49.5718 120.95 49.5666H124.779C124.858 49.5718 124.939 49.56 125.014 49.532C125.089 49.5039 125.157 49.4602 125.213 49.4038C125.27 49.3475 125.314 49.2797 125.342 49.2051C125.37 49.1304 125.382 49.0507 125.377 48.9711V16.9341C125.382 16.8546 125.37 16.7748 125.342 16.7002C125.314 16.6255 125.27 16.5578 125.213 16.5014C125.157 16.445 125.089 16.4013 125.014 16.3732C124.939 16.3452 124.858 16.3334 124.779 16.3387H120.95Z" fill="currentColor"/>
<path d="M139.975 50.2811C141.239 50.3285 142.499 50.1261 143.684 49.6856C143.823 49.6232 143.942 49.5231 144.027 49.3967C144.111 49.2703 144.158 49.1229 144.163 48.9711V45.8746C144.159 45.7602 144.13 45.6481 144.077 45.5466C144.024 45.4451 143.949 45.3568 143.857 45.2881C143.765 45.2195 143.659 45.1723 143.546 45.1502C143.433 45.128 143.317 45.1313 143.206 45.16C142.7 45.3063 142.177 45.3863 141.65 45.3982C139.018 45.3982 137.821 44.2072 137.821 41.468V30.7493H143.445C143.631 30.7355 143.805 30.6558 143.937 30.5247C144.069 30.3936 144.149 30.2197 144.163 30.0347V27.0573C144.149 26.8724 144.069 26.6985 143.937 26.5673C143.805 26.4362 143.631 26.3565 143.445 26.3427H137.821V21.3407C137.807 21.1557 137.727 20.9818 137.595 20.8507C137.464 20.7196 137.289 20.6399 137.103 20.6261H133.274C133.088 20.6399 132.914 20.7196 132.782 20.8507C132.65 20.9818 132.57 21.1557 132.556 21.3407V26.3427H129.804C129.618 26.3565 129.443 26.4362 129.312 26.5673C129.18 26.6985 129.1 26.8724 129.086 27.0573V30.0347C129.1 30.2197 129.18 30.3936 129.312 30.5247C129.443 30.6558 129.618 30.7355 129.804 30.7493H132.556V42.5399C132.436 47.4228 135.308 50.2811 139.975 50.2811Z" fill="currentColor"/>
<path d="M139.975 50.4006C135.189 50.4006 132.317 47.4232 132.317 42.5402V30.8688H129.684C129.574 30.8721 129.463 30.8527 129.36 30.812C129.257 30.7713 129.163 30.71 129.085 30.6319C129.006 30.5538 128.945 30.4606 128.904 30.358C128.863 30.2553 128.843 30.1455 128.847 30.0351V27.0577C128.843 26.9473 128.863 26.8374 128.904 26.7348C128.945 26.6321 129.006 26.5389 129.085 26.4608C129.163 26.3828 129.257 26.3215 129.36 26.2807C129.463 26.24 129.574 26.2207 129.684 26.224H132.317V21.4601C132.314 21.3498 132.333 21.2399 132.374 21.1372C132.415 21.0346 132.476 20.9414 132.555 20.8633C132.633 20.7852 132.727 20.7239 132.83 20.6832C132.933 20.6425 133.044 20.6232 133.154 20.6265H136.983C137.094 20.6232 137.205 20.6425 137.308 20.6832C137.411 20.7239 137.505 20.7852 137.583 20.8633C137.662 20.9414 137.723 21.0346 137.764 21.1372C137.805 21.2399 137.824 21.3498 137.821 21.4601V26.224H143.206C143.317 26.2207 143.427 26.24 143.53 26.2807C143.633 26.3215 143.727 26.3828 143.805 26.4608C143.884 26.5389 143.945 26.6321 143.986 26.7348C144.027 26.8374 144.047 26.9473 144.043 27.0577V30.0351C144.047 30.1455 144.027 30.2553 143.986 30.358C143.945 30.4606 143.884 30.5538 143.805 30.6319C143.727 30.71 143.633 30.7713 143.53 30.812C143.427 30.8527 143.317 30.8721 143.206 30.8688H137.821V41.4684C137.821 44.0885 138.898 45.2794 141.53 45.2794C142.017 45.2585 142.499 45.1785 142.966 45.0412C143.107 45.0024 143.254 44.9929 143.398 45.0134C143.542 45.0339 143.68 45.0839 143.804 45.1603C143.918 45.2408 144.011 45.3481 144.074 45.4728C144.136 45.5974 144.167 45.7356 144.163 45.8749V48.9714C144.161 49.1547 144.103 49.333 143.996 49.4821C143.889 49.6313 143.738 49.744 143.565 49.8051C142.429 50.2732 141.201 50.4769 139.975 50.4006V50.4006ZM129.684 26.4622C129.604 26.4569 129.524 26.4687 129.449 26.4968C129.374 26.5248 129.306 26.5685 129.25 26.6249C129.193 26.6813 129.149 26.7491 129.121 26.8237C129.093 26.8983 129.081 26.9781 129.086 27.0577V30.0351C129.081 30.1146 129.093 30.1944 129.121 30.2691C129.149 30.3437 129.193 30.4115 129.25 30.4678C129.306 30.5242 129.374 30.5679 129.449 30.596C129.524 30.624 129.604 30.6358 129.684 30.6306H132.676V42.5402C132.676 47.3041 135.428 50.1624 139.975 50.1624C141.198 50.1795 142.414 49.9778 143.565 49.5669C143.675 49.5111 143.766 49.4257 143.83 49.3204C143.893 49.2151 143.926 49.0942 143.924 48.9714V45.8749C143.922 45.7828 143.899 45.6922 143.858 45.6098C143.817 45.5274 143.757 45.4552 143.684 45.3985C143.544 45.3038 143.374 45.2616 143.206 45.2794C142.698 45.4168 142.176 45.4967 141.65 45.5176C139.018 45.5176 137.701 44.2076 137.701 41.4684V30.5115H143.445C143.525 30.5167 143.605 30.5049 143.68 30.4769C143.755 30.4488 143.823 30.4051 143.88 30.3487C143.936 30.2924 143.98 30.2246 144.009 30.1499C144.037 30.0753 144.049 29.9955 144.043 29.916V26.9386C144.049 26.859 144.037 26.7792 144.009 26.7046C143.98 26.63 143.936 26.5622 143.88 26.5058C143.823 26.4494 143.755 26.4058 143.68 26.3777C143.605 26.3496 143.525 26.3378 143.445 26.3431H137.701V21.341C137.707 21.2615 137.695 21.1817 137.667 21.1071C137.638 21.0324 137.595 20.9647 137.538 20.9083C137.481 20.8519 137.413 20.8082 137.338 20.7801C137.263 20.7521 137.183 20.7403 137.103 20.7456H133.274C133.194 20.7403 133.114 20.7521 133.039 20.7801C132.964 20.8082 132.896 20.8519 132.839 20.9083C132.783 20.9647 132.739 21.0324 132.711 21.1071C132.682 21.1817 132.671 21.2615 132.676 21.341V26.4622H129.684Z" fill="currentColor"/>
<path d="M157.684 50.2817C159.081 50.3223 160.464 50.0038 161.701 49.3571C162.937 48.7104 163.985 47.7572 164.744 46.5897L164.983 46.1133V48.8525C164.997 49.0375 165.077 49.2113 165.209 49.3425C165.341 49.4736 165.515 49.5533 165.701 49.5671H169.53C169.716 49.5533 169.891 49.4736 170.023 49.3425C170.154 49.2113 170.234 49.0375 170.248 48.8525V27.0578C170.234 26.8729 170.154 26.699 170.023 26.5679C169.891 26.4367 169.716 26.357 169.53 26.3433H165.701C165.515 26.357 165.341 26.4367 165.209 26.5679C165.077 26.699 164.997 26.8729 164.983 27.0578V38.6102C164.983 42.6595 162.71 45.3987 159.359 45.3987C156.009 45.3987 154.095 43.1359 154.095 39.3248V27.0578C154.081 26.8729 154.001 26.699 153.869 26.5679C153.737 26.4367 153.562 26.357 153.377 26.3433H149.548C149.362 26.357 149.187 26.4367 149.055 26.5679C148.924 26.699 148.843 26.8729 148.83 27.0578V40.3967C148.71 46.4706 152.18 50.2817 157.684 50.2817Z" fill="currentColor"/>
<path d="M157.684 50.4002C152.06 50.4002 148.59 46.5891 148.59 40.3961V27.0573C148.587 26.9469 148.606 26.837 148.647 26.7344C148.688 26.6318 148.75 26.5386 148.828 26.4605C148.907 26.3824 149 26.3211 149.103 26.2804C149.207 26.2396 149.317 26.2203 149.428 26.2236H153.257C153.368 26.2203 153.478 26.2396 153.581 26.2804C153.684 26.3211 153.778 26.3824 153.856 26.4605C153.935 26.5386 153.997 26.6318 154.037 26.7344C154.078 26.837 154.098 26.9469 154.094 27.0573V39.3242C154.094 43.0162 156.009 45.16 159.24 45.16C162.47 45.16 164.744 42.5399 164.744 38.6097V27.0573C164.741 26.9469 164.76 26.837 164.801 26.7344C164.842 26.6318 164.903 26.5386 164.982 26.4605C165.06 26.3824 165.154 26.3211 165.257 26.2804C165.36 26.2396 165.471 26.2203 165.582 26.2236H169.411C169.521 26.2203 169.632 26.2396 169.735 26.2804C169.838 26.3211 169.932 26.3824 170.01 26.4605C170.089 26.5386 170.15 26.6318 170.191 26.7344C170.232 26.837 170.251 26.9469 170.248 27.0573V48.9711C170.251 49.0814 170.232 49.1913 170.191 49.294C170.15 49.3966 170.089 49.4898 170.01 49.5679C169.932 49.646 169.838 49.7073 169.735 49.748C169.632 49.7887 169.521 49.808 169.411 49.8047H165.582C165.471 49.808 165.36 49.7887 165.257 49.748C165.154 49.7073 165.06 49.646 164.982 49.5679C164.903 49.4898 164.842 49.3966 164.801 49.294C164.76 49.1913 164.741 49.0814 164.744 48.9711V46.7082C163.995 47.8849 162.949 48.8452 161.71 49.4932C160.471 50.1411 159.083 50.4539 157.684 50.4002ZM149.428 26.4618C149.348 26.4566 149.268 26.4684 149.193 26.4964C149.118 26.5245 149.05 26.5682 148.993 26.6246C148.936 26.6809 148.892 26.7487 148.864 26.8233C148.836 26.898 148.824 26.9777 148.83 27.0573V40.3961C148.83 46.3509 152.18 50.0429 157.564 50.0429C158.933 50.0929 160.29 49.7903 161.506 49.1643C162.722 48.5383 163.755 47.6102 164.505 46.47L165.103 45.6364V48.852C165.098 48.9315 165.109 49.0113 165.138 49.0859C165.166 49.1606 165.21 49.2283 165.266 49.2847C165.323 49.3411 165.391 49.3848 165.466 49.4129C165.541 49.4409 165.621 49.4527 165.701 49.4474H169.53C169.61 49.4527 169.69 49.4409 169.765 49.4129C169.84 49.3848 169.908 49.3411 169.965 49.2847C170.022 49.2283 170.066 49.1606 170.094 49.0859C170.122 49.0113 170.134 48.9315 170.129 48.852V27.0573C170.134 26.9777 170.122 26.898 170.094 26.8233C170.066 26.7487 170.022 26.6809 169.965 26.6246C169.908 26.5682 169.84 26.5245 169.765 26.4964C169.69 26.4684 169.61 26.4566 169.53 26.4618H165.701C165.621 26.4566 165.541 26.4684 165.466 26.4964C165.391 26.5245 165.323 26.5682 165.266 26.6246C165.21 26.6809 165.166 26.7487 165.138 26.8233C165.109 26.898 165.098 26.9777 165.103 27.0573V38.6097C165.103 42.778 162.829 45.5173 159.24 45.5173C155.889 45.5173 153.855 43.2544 153.855 39.3242V27.0573C153.86 26.9777 153.849 26.898 153.82 26.8233C153.792 26.7487 153.748 26.6809 153.692 26.6246C153.635 26.5682 153.567 26.5245 153.492 26.4964C153.417 26.4684 153.337 26.4566 153.257 26.4618H149.428Z" fill="currentColor"/>
<path d="M187.479 31.2258H187.958C188.163 31.236 188.364 31.1676 188.519 31.0347C188.675 30.9017 188.774 30.7144 188.795 30.5112V26.581C188.781 26.3961 188.701 26.2222 188.569 26.091C188.438 25.9599 188.263 25.8802 188.077 25.8664H187.838C186.377 25.8553 184.944 26.2655 183.713 27.0475C182.481 27.8295 181.503 28.9498 180.898 30.273L180.658 30.9876V27.0574C180.645 26.8724 180.565 26.6986 180.433 26.5674C180.301 26.4363 180.126 26.3566 179.941 26.3428H176.231C176.045 26.3566 175.871 26.4363 175.739 26.5674C175.607 26.6986 175.527 26.8724 175.513 27.0574V48.9711C175.527 49.1561 175.607 49.33 175.739 49.4611C175.871 49.5923 176.045 49.672 176.231 49.6857H180.06C180.246 49.672 180.421 49.5923 180.552 49.4611C180.684 49.33 180.764 49.1561 180.778 48.9711V39.4434C180.778 34.4414 183.411 31.2258 187.479 31.2258Z" fill="currentColor"/>
<path d="M179.94 49.924H176.111C176.001 49.9273 175.89 49.908 175.787 49.8673C175.684 49.8265 175.59 49.7653 175.512 49.6872C175.433 49.6091 175.372 49.5159 175.331 49.4132C175.29 49.3106 175.27 49.2007 175.274 49.0903V27.0575C175.27 26.9471 175.29 26.8372 175.331 26.7346C175.372 26.632 175.433 26.5387 175.512 26.4607C175.59 26.3826 175.684 26.3213 175.787 26.2806C175.89 26.2398 176.001 26.2205 176.111 26.2238H179.821C179.932 26.2205 180.042 26.2398 180.145 26.2806C180.248 26.3213 180.342 26.3826 180.42 26.4607C180.499 26.5387 180.56 26.632 180.601 26.7346C180.642 26.8372 180.662 26.9471 180.658 27.0575V30.2731C181.263 28.9154 182.254 27.7635 183.508 26.9593C184.763 26.1552 186.226 25.7339 187.718 25.7474H187.957C188.068 25.7441 188.179 25.7634 188.282 25.8042C188.385 25.8449 188.479 25.9062 188.557 25.9843C188.636 26.0624 188.697 26.1556 188.738 26.2582C188.779 26.3609 188.798 26.4707 188.795 26.5811V30.5113C188.791 30.7322 188.706 30.944 188.556 31.1068C188.356 31.2751 188.099 31.3604 187.838 31.345H187.359C183.291 31.345 180.778 34.5606 180.778 39.4435V48.9712C180.793 49.0899 180.783 49.2105 180.748 49.325C180.713 49.4395 180.654 49.5452 180.575 49.6353C180.496 49.7253 180.398 49.7976 180.289 49.8474C180.179 49.8972 180.061 49.9233 179.94 49.924V49.924ZM176.231 26.462C176.151 26.4568 176.071 26.4685 175.996 26.4966C175.921 26.5247 175.853 26.5684 175.796 26.6247C175.74 26.6811 175.696 26.7489 175.668 26.8235C175.639 26.8982 175.627 26.9779 175.633 27.0575V48.9712C175.627 49.0508 175.639 49.1306 175.668 49.2052C175.696 49.2798 175.74 49.3476 175.796 49.404C175.853 49.4604 175.921 49.5041 175.996 49.5321C176.071 49.5602 176.151 49.572 176.231 49.5667H180.06C180.14 49.572 180.22 49.5602 180.295 49.5321C180.37 49.5041 180.438 49.4604 180.495 49.404C180.552 49.3476 180.595 49.2798 180.624 49.2052C180.652 49.1306 180.664 49.0508 180.658 48.9712V39.4435C180.658 34.3224 183.41 31.1068 187.598 31.1068H188.077C188.246 31.1246 188.415 31.0824 188.556 30.9877C188.629 30.931 188.688 30.8588 188.729 30.7764C188.771 30.694 188.793 30.6034 188.795 30.5113V26.5811C188.8 26.5016 188.789 26.4218 188.76 26.3471C188.732 26.2725 188.688 26.2047 188.632 26.1484C188.575 26.092 188.507 26.0483 188.432 26.0202C188.357 25.9922 188.277 25.9804 188.197 25.9856H187.957C186.506 25.9477 185.078 26.3485 183.86 27.1352C182.642 27.9219 181.693 29.0575 181.137 30.3922L180.898 31.1068H180.658V27.1766C180.664 27.097 180.652 27.0173 180.624 26.9426C180.595 26.868 180.552 26.8002 180.495 26.7438C180.438 26.6875 180.37 26.6438 180.295 26.6157C180.22 26.5876 180.14 26.5758 180.06 26.5811L176.231 26.462V26.462Z" fill="currentColor"/>
<path d="M202.675 45.5175C201.175 45.5649 199.695 45.1655 198.424 44.3704C197.153 43.5753 196.15 42.4207 195.542 41.0546C194.935 39.6884 194.751 38.1729 195.014 36.7021C195.278 35.2313 195.976 33.8722 197.02 32.7989C198.064 31.7257 199.407 30.987 200.875 30.6777C202.344 30.3683 203.871 30.5024 205.263 31.0626C206.654 31.6228 207.846 32.5837 208.685 33.8222C209.525 35.0607 209.974 36.5204 209.974 38.0144C209.995 38.9853 209.822 39.9507 209.466 40.8548C209.109 41.7588 208.576 42.5835 207.897 43.2812C207.218 43.9789 206.407 44.5358 205.511 44.9196C204.615 45.3035 203.651 45.5067 202.675 45.5175V45.5175ZM215 48.9713V27.0575C214.986 26.8725 214.906 26.6987 214.774 26.5675C214.643 26.4364 214.468 26.3567 214.282 26.3429H210.573C210.387 26.3567 210.212 26.4364 210.08 26.5675C209.949 26.6987 209.869 26.8725 209.855 27.0575V29.9158L209.615 29.5585C208.7 28.3501 207.502 27.3823 206.126 26.7389C204.75 26.0955 203.237 25.7961 201.718 25.8665C195.257 25.8665 190.231 31.2259 190.231 38.1335C190.231 45.0411 195.257 50.4004 201.718 50.4004C203.257 50.4408 204.783 50.1033 206.16 49.4179C207.538 48.7325 208.724 47.7201 209.615 46.4702L209.855 46.1129V49.0904C209.869 49.2753 209.949 49.4492 210.08 49.5803C210.212 49.7115 210.387 49.7912 210.573 49.8049H214.282C214.478 49.7654 214.655 49.6619 214.785 49.5109C214.915 49.3598 214.991 49.1699 215 48.9713V48.9713Z" fill="currentColor"/>
<path d="M201.598 50.4002C195.137 50.4002 189.992 44.9217 189.992 38.0141C189.992 31.1066 195.137 25.6281 201.598 25.6281C203.144 25.5782 204.678 25.8983 206.073 26.5615C207.469 27.2247 208.683 28.2116 209.615 29.4392V27.0573C209.612 26.9469 209.632 26.837 209.672 26.7344C209.713 26.6317 209.775 26.5385 209.853 26.4604C209.932 26.3824 210.026 26.3211 210.129 26.2803C210.232 26.2396 210.342 26.2203 210.453 26.2236H214.162C214.273 26.2203 214.384 26.2396 214.487 26.2803C214.59 26.3211 214.684 26.3824 214.762 26.4604C214.841 26.5385 214.902 26.6317 214.943 26.7344C214.984 26.837 215.003 26.9469 215 27.0573V48.971C215.003 49.0814 214.984 49.1913 214.943 49.2939C214.902 49.3966 214.841 49.4898 214.762 49.5679C214.684 49.6459 214.59 49.7072 214.487 49.748C214.384 49.7887 214.273 49.808 214.162 49.8047H210.453C210.342 49.808 210.232 49.7887 210.129 49.748C210.026 49.7072 209.932 49.6459 209.853 49.5679C209.775 49.4898 209.713 49.3966 209.672 49.2939C209.632 49.1913 209.612 49.0814 209.615 48.971V46.47C208.691 47.7137 207.48 48.7193 206.086 49.4029C204.691 50.0866 203.153 50.4285 201.598 50.4002V50.4002ZM201.598 25.9854C195.257 25.9854 190.351 31.3447 190.351 38.1332C190.351 44.9217 195.257 50.2811 201.598 50.2811C203.119 50.308 204.623 49.9639 205.978 49.2788C207.334 48.5937 208.501 47.5884 209.376 46.3509L209.974 45.6363V49.0901C209.969 49.1697 209.981 49.2495 210.009 49.3241C210.037 49.3987 210.081 49.4665 210.138 49.5229C210.195 49.5793 210.263 49.6229 210.338 49.651C210.413 49.6791 210.493 49.6909 210.573 49.6856H214.282C214.362 49.6909 214.442 49.6791 214.517 49.651C214.592 49.6229 214.66 49.5793 214.717 49.5229C214.774 49.4665 214.817 49.3987 214.846 49.3241C214.874 49.2495 214.886 49.1697 214.88 49.0901V27.0573C214.886 26.9777 214.874 26.8979 214.846 26.8233C214.817 26.7487 214.774 26.6809 214.717 26.6245C214.66 26.5681 214.592 26.5244 214.517 26.4964C214.442 26.4683 214.362 26.4565 214.282 26.4618H210.573C210.493 26.4565 210.413 26.4683 210.338 26.4964C210.263 26.5244 210.195 26.5681 210.138 26.6245C210.081 26.6809 210.037 26.7487 210.009 26.8233C209.981 26.8979 209.969 26.9777 209.974 27.0573V30.392L209.376 29.6774C208.477 28.4815 207.299 27.5207 205.944 26.8776C204.59 26.2346 203.098 25.9284 201.598 25.9854V25.9854ZM202.675 45.6363C201.151 45.6838 199.648 45.2773 198.358 44.4692C197.067 43.661 196.048 42.4878 195.432 41.0999C194.815 39.7119 194.629 38.1724 194.897 36.6785C195.165 35.1846 195.875 33.8043 196.936 32.7144C197.997 31.6245 199.36 30.8745 200.852 30.5606C202.344 30.2466 203.895 30.383 205.309 30.9523C206.722 31.5215 207.932 32.4977 208.785 33.7558C209.638 35.0139 210.093 36.4966 210.094 38.0141C210.125 39.0033 209.955 39.9884 209.596 40.9112C209.237 41.834 208.696 42.6757 208.004 43.3865C207.312 44.0972 206.484 44.6626 205.569 45.049C204.654 45.4355 203.67 45.6352 202.675 45.6363V45.6363ZM202.675 30.7493C201.715 30.7585 200.766 30.9575 199.883 31.3348C199.001 31.7121 198.202 32.2602 197.534 32.9472C196.867 33.6341 196.342 34.4463 195.992 35.3366C195.642 36.2269 195.474 37.1775 195.496 38.1332C195.464 39.0915 195.626 40.0464 195.972 40.941C196.319 41.8357 196.842 42.6518 197.512 43.3408C198.182 44.0298 198.984 44.5775 199.871 44.9514C200.759 45.3253 201.712 45.5178 202.675 45.5172C203.636 45.508 204.585 45.309 205.467 44.9317C206.35 44.5544 207.148 44.0063 207.816 43.3193C208.484 42.6324 209.008 41.8202 209.358 40.9299C209.708 40.0396 209.877 39.089 209.855 38.1332C209.887 37.175 209.725 36.2201 209.379 35.3255C209.032 34.4308 208.508 33.6147 207.839 32.9257C207.169 32.2367 206.366 31.689 205.479 31.3151C204.592 30.9411 203.639 30.7487 202.675 30.7493V30.7493Z" fill="currentColor"/>
<path d="M31.4339 47.5421V57.4986C31.4339 59.4875 30.2373 61.0715 28.7296 61.0715C27.222 61.0715 26.0613 59.4518 26.0613 57.4867V47.5421C26.0613 45.5294 27.2579 43.9692 28.7296 43.9692C30.2014 43.9692 31.4339 45.5294 31.4339 47.5421Z" fill="currentColor"/>
<path d="M31.4339 6.63198V16.7075C31.4339 18.6965 30.2373 20.2804 28.7296 20.2804C27.222 20.2804 26.0613 18.6965 26.0613 16.7075V6.63198C26.0613 4.64307 27.2579 3.05908 28.7775 3.05908C30.2971 3.05908 31.4339 4.66689 31.4339 6.63198Z" fill="currentColor"/>
<path d="M16.9553 31.5953C16.9553 33.227 15.4237 34.406 13.3656 34.406H3.52978C2.67934 34.5068 1.82349 34.2673 1.15037 33.7403C0.477237 33.2132 0.0419078 32.4417 -0.0599365 31.5953C-0.0599365 29.9518 1.47168 28.7847 3.52978 28.7847H13.4254C14.2662 28.7006 15.1066 28.9478 15.7665 29.4732C16.4264 29.9986 16.8531 30.7604 16.9553 31.5953V31.5953Z" fill="currentColor"/>
<path d="M57.1722 31.595C57.1722 33.2505 55.6885 34.4415 53.6902 34.4415H43.6749C42.8245 34.5422 41.9686 34.3028 41.2955 33.7757C40.6224 33.2487 40.187 32.4772 40.0852 31.6308C40.0852 29.9872 41.6168 28.8201 43.6749 28.8201H53.6902C54.5177 28.7484 55.3412 28.9967 55.9896 29.5135C56.638 30.0302 57.0615 30.7757 57.1722 31.595V31.595Z" fill="currentColor"/>
<path d="M21.7776 41.7897C21.6402 42.7993 21.1883 43.7407 20.4853 44.4813L13.5332 51.508C13.1847 51.8755 12.766 52.1702 12.3017 52.3747C11.8373 52.5792 11.3366 52.6894 10.829 52.6989C10.5031 52.7072 10.1791 52.6491 9.8766 52.5283C9.57414 52.4075 9.29966 52.2264 9.06999 51.9963C8.6176 51.5197 8.36507 50.8893 8.36401 50.2336C8.40603 49.218 8.83367 48.2561 9.56059 47.5421L16.4887 40.4915C16.8395 40.1236 17.2603 39.8288 17.7266 39.6244C18.1929 39.4199 18.6955 39.3098 19.205 39.3006C19.5308 39.2923 19.8548 39.3504 20.1573 39.4712C20.4598 39.592 20.7342 39.7731 20.9639 40.0032C21.3786 40.5231 21.658 41.1367 21.7776 41.7897V41.7897Z" fill="currentColor"/>
<path d="M49.9929 13.6594C49.9619 14.7125 49.5349 15.7155 48.7963 16.4701L41.7366 23.6159C41.4002 24.0214 40.9781 24.348 40.5003 24.5724C40.0225 24.7968 39.5008 24.9135 38.9725 24.9141C38.6641 24.912 38.3593 24.8487 38.0758 24.7281C37.7923 24.6075 37.5358 24.4318 37.3212 24.2114C36.8739 23.7317 36.6222 23.1032 36.6152 22.4488C36.7263 21.3966 37.1801 20.4095 37.9075 19.6381L44.9673 12.4923C45.2996 12.0951 45.7146 11.7744 46.1835 11.5524C46.6525 11.3303 47.1642 11.2121 47.6835 11.2061C47.9919 11.2082 48.2967 11.2714 48.5802 11.392C48.8637 11.5127 49.1202 11.6883 49.3348 11.9087C49.5574 12.1413 49.7305 12.4163 49.8436 12.7171C49.9567 13.018 50.0075 13.3385 49.9929 13.6594V13.6594Z" fill="currentColor"/>
<path d="M21.6579 22.2225V22.3297C21.6569 22.6351 21.5931 22.9371 21.4705 23.2171C21.3478 23.4971 21.1689 23.7492 20.9448 23.9578C20.7206 24.1664 20.4559 24.3272 20.167 24.4302C19.8781 24.5332 19.5711 24.5763 19.2648 24.5568C18.7553 24.5475 18.2528 24.4374 17.7864 24.233C17.3201 24.0285 16.8993 23.7337 16.5486 23.3658L9.60846 16.3391C9.20565 16.0116 8.88083 15.5992 8.65737 15.1318C8.43391 14.6643 8.31737 14.1533 8.31616 13.6356V13.5165C8.31888 13.2116 8.38383 12.9104 8.50707 12.6312C8.6303 12.352 8.80925 12.1006 9.03305 11.8923C9.25685 11.6841 9.52084 11.5232 9.80899 11.4196C10.0971 11.3159 10.4034 11.2716 10.7093 11.2894C11.2187 11.2993 11.721 11.4097 12.1873 11.6141C12.6535 11.8185 13.0744 12.113 13.4255 12.4804L20.3656 19.5071C21.0994 20.2359 21.5562 21.1957 21.6579 22.2225Z" fill="currentColor"/>
<path d="M49.9927 50.5792V50.6863C49.99 50.9913 49.925 51.2925 49.8018 51.5717C49.6786 51.8509 49.4996 52.1023 49.2758 52.3105C49.052 52.5188 48.788 52.6796 48.4999 52.7833C48.2117 52.8869 47.9054 52.9312 47.5995 52.9135C46.5588 52.8595 45.582 52.3969 44.8833 51.6272L37.8235 44.4814C37.4193 44.1317 37.0949 43.7 36.872 43.2152C36.6491 42.7304 36.5329 42.2038 36.5312 41.6707V41.5874C36.534 41.2824 36.5989 40.9812 36.7221 40.702C36.8454 40.4228 37.0243 40.1715 37.2481 39.9632C37.4719 39.7549 37.7359 39.5941 38.0241 39.4904C38.3122 39.3868 38.6185 39.3425 38.9244 39.3603C39.9606 39.4186 40.9321 39.8807 41.6286 40.6465L48.6884 47.7923C49.4591 48.5254 49.9247 49.5202 49.9927 50.5792Z" fill="currentColor"/>
<path d="M28.8494 35.8109C29.6659 35.8109 30.464 35.5699 31.1429 35.1185C31.8218 34.667 32.3509 34.0253 32.6634 33.2745C32.9758 32.5237 33.0576 31.6975 32.8983 30.9005C32.739 30.1035 32.3458 29.3713 31.7685 28.7967C31.1912 28.2221 30.4556 27.8308 29.6548 27.6722C28.854 27.5137 28.024 27.595 27.2696 27.906C26.5153 28.217 25.8706 28.7437 25.417 29.4193C24.9634 30.095 24.7213 30.8894 24.7213 31.7021C24.7181 32.2426 24.8227 32.7783 25.029 33.2782C25.2354 33.7781 25.5393 34.2323 25.9233 34.6145C26.3073 34.9967 26.7636 35.2992 27.2659 35.5046C27.7682 35.71 28.3064 35.8141 28.8494 35.8109V35.8109Z" fill="currentColor"/>
</g>
<defs>
<clipPath id="clip0_130_146">
<rect width="215" height="64" fill="white"/>
</clipPath>
</defs>
</svg>
