<svg width="291" height="64" viewBox="0 0 291 64" fill="none" xmlns="http://www.w3.org/2000/svg">
<path d="M258.706 22.0755L258.796 21.4304L258.976 20.8739L259.242 20.4154L259.512 19.9517L259.958 19.5807L260.498 19.3035L261.033 19.1221H262.196L262.732 19.3035L263.271 19.5817L263.627 19.9527L263.983 20.4154L264.253 20.875L264.433 21.4304L264.523 22.0744L264.433 22.7236L264.253 23.279L263.983 23.8314L263.627 24.2023L263.271 24.5713L262.732 24.8484L262.196 25.0329L261.57 25.1256L261.033 25.0329L260.498 24.8474L259.958 24.5713L259.512 24.2013L259.242 23.8303L258.976 23.279L258.796 22.7226L258.706 22.0755ZM242.873 54.595L243.858 55.4265L244.841 56.1654L245.826 56.9042L246.898 57.6431L248.063 58.2902L249.136 58.8446L250.297 59.399L251.549 59.8607L252.714 60.2296L253.966 60.5995L255.218 60.9694L256.469 61.2466L257.725 61.4311L258.976 61.5238L260.318 61.6166H262.913L264.254 61.5238L265.505 61.4311L266.758 61.2456L268.012 60.9694L269.265 60.5995L270.516 60.2296L271.678 59.8607L272.933 59.399L274.096 58.8446L275.167 58.2902L276.333 57.6431L277.404 56.9042L278.39 56.1654L279.372 55.4265L280.358 54.595L276.778 50.6225L275.437 51.823L274.006 52.8401L272.483 53.7634L270.962 54.595L269.355 55.2411L267.743 55.7955L265.955 56.1654L264.164 56.4426V35.2861H269.265V31.3136H264.164V28.1727L265.06 27.8028L265.865 27.2494L266.581 26.6023L267.207 25.8635L267.653 25.1246L268.013 24.2003L268.279 23.1853V21.4294L268.189 20.7802L268.012 20.0434L267.832 19.4869L267.473 18.8429L267.207 18.2875L266.757 17.7351L266.401 17.2724L265.865 16.8087L265.329 16.4388L264.79 16.1647L264.254 15.8865L263.628 15.6082L263.002 15.4238L262.287 15.331H260.944L260.229 15.4238L259.603 15.6093L258.977 15.8875L258.442 16.1647L257.902 16.4388L257.366 16.8098L256.83 17.2724L256.47 17.7362L256.025 18.2875L255.755 18.8439L255.398 19.488L255.218 20.0444L255.038 20.7812L254.952 21.4294V23.1853L255.218 24.2003L255.578 25.1246L256.025 25.8635L256.65 26.6023L257.366 27.2494L258.172 27.8028L259.067 28.1738V31.3136H253.967V35.2861H259.067V56.4416L257.276 56.1644L255.488 55.7944L253.877 55.24L252.265 54.5939L250.658 53.7623L249.226 52.839L247.794 51.822L246.453 50.6215L242.873 54.595ZM232.226 31.3146L232.316 29.8369L232.406 28.2665L232.586 26.7878L232.856 25.3101L233.212 23.9231L233.572 22.4454L234.017 21.0594L234.553 19.6745L235.179 18.3812L235.806 17.088L236.521 15.8875L237.327 14.5953L238.133 13.4834L239.028 12.2829L239.92 11.2679L240.905 10.1602L241.888 9.23377L242.963 8.3115L244.035 7.38923L245.2 6.55558L246.452 5.72606L247.613 5.07686L248.866 4.34008L250.207 3.78363L251.549 3.23233L252.894 2.76862L254.322 2.39868L255.754 2.02771L257.185 1.75464L258.616 1.56915L260.138 1.47641L261.57 1.38367L263.091 1.47641L264.613 1.56915L266.041 1.75464L267.473 2.02874L268.904 2.39971L270.335 2.76965L271.677 3.23336L273.019 3.78466L274.274 4.34008L275.616 5.07686L276.777 5.72606L278.029 6.55558L279.191 7.38923L280.267 8.3115L281.338 9.23377L282.324 10.1612L283.305 11.2679L284.201 12.2829L285.097 13.4834L285.903 14.5953L286.709 15.8875L287.421 17.088L288.05 18.3812L288.676 19.6745L289.212 21.0594L289.658 22.4454L290.017 23.9231L290.373 25.3101L290.643 26.7878L290.823 28.2665L290.91 29.8369L291 31.3146L290.91 32.7923L290.823 34.0856L290.643 35.4715L290.463 36.8575L290.193 38.1508L289.838 39.444L289.482 40.7372L289.032 42.0305L288.586 43.232L288.05 44.4325L287.421 45.634L286.795 46.7428L286.169 47.8516L285.453 48.9593L284.651 50.0681L283.845 51.0842L280.087 47.1117L281.248 45.4485L282.414 43.6009L283.305 41.7543L284.111 39.7212L284.651 37.6891L285.097 35.657L285.364 33.5322L285.453 31.3146V30.1141L285.364 28.8209L285.187 27.6194L285.007 26.4189L284.737 25.2174L284.381 24.0158L284.021 22.9081L283.575 21.8003L283.13 20.6895L282.59 19.5817L281.964 18.5667L281.338 17.5517L280.713 16.6243L279.997 15.6103L279.281 14.7797L278.476 13.8544L277.583 13.0238L276.777 12.2829L275.882 11.5461L274.9 10.8042L273.915 10.1602L272.932 9.60371L271.946 9.05241L270.871 8.49596L269.799 8.12602L268.638 7.66746L267.562 7.38923L266.4 7.11101L265.238 6.83278L264.073 6.74004L262.822 6.6473L261.57 6.55455L260.408 6.6473L259.152 6.74004L257.991 6.83278L256.829 7.11101L255.667 7.38923L254.592 7.66746L253.43 8.12602L252.354 8.49699L251.283 9.05344L250.297 9.60474L249.316 10.1612L248.33 10.8052L247.347 11.5461L246.452 12.2829L245.646 13.0249L244.751 13.8544L243.949 14.7797L243.232 15.6103L242.517 16.6253L241.887 17.5517L241.261 18.5667L240.635 19.5817L240.1 20.6895L239.654 21.8003L239.204 22.9081L238.848 24.0158L238.488 25.2174L238.223 26.4189L238.043 27.6194L237.863 28.8209L237.773 30.1141V31.3146L237.863 33.5322L238.133 35.657L238.578 37.6891L239.118 39.7212L239.92 41.7543L240.815 43.6009L241.978 45.4485L243.142 47.1117L239.384 51.0842L238.578 50.0681L237.773 48.9593L237.057 47.8516L236.431 46.7428L235.806 45.634L235.179 44.4325L234.643 43.232L234.197 42.0305L233.748 40.7372L233.392 39.444L233.032 38.1508L232.766 36.8575L232.586 35.4715L232.406 34.0856L232.316 32.7923L232.226 31.3146ZM207.181 40.83V22.1682H212.011V36.5803H220.242V40.83H207.181ZM190.096 40.83H203.602V36.5803H194.656V33.3488H201.991V29.468H194.657V26.2344H203.156V22.1682H190.095L190.096 40.83ZM169.431 31.4991L169.518 30.3913L169.608 29.3743L169.788 28.451L170.058 27.5266L170.414 26.6033L170.86 25.7717L171.309 25.0329L171.845 24.3868L172.471 23.7376L173.097 23.1863L173.902 22.7226L174.618 22.3527L175.514 21.9858L176.406 21.8003L177.302 21.6148H178.377L179.805 21.7076L180.521 21.8003L181.237 21.9858L181.863 22.2599L182.492 22.5381L183.028 22.8164L183.564 23.1863L184.1 23.6459L184.55 24.1096L184.995 24.663L185.351 25.2174L185.621 25.8645L185.891 26.5106L186.067 27.2505L186.247 27.9893H181.417L181.237 27.3422L180.97 26.8805L180.7 26.5106L180.344 26.1417L179.895 25.9562L179.449 25.7717L178.913 25.679H178.463L177.928 25.7717H177.482L177.032 25.9572L176.586 26.1417L176.229 26.4189L175.869 26.6961L175.334 27.3422L174.888 28.2665L174.528 29.1898L174.348 30.2986V32.7006L174.618 33.8094L174.888 34.8254L175.424 35.657L176.05 36.3959L176.406 36.6731L176.766 36.9503L177.212 37.1347L177.662 37.2275L178.197 37.3202L178.733 37.4119L179.629 37.3192L180.434 37.1347L181.15 36.8575L181.776 36.4886V34.0866H178.553V30.3913H186.337V38.7979L185.441 39.444L184.46 39.9984L183.564 40.46L182.578 40.83L181.596 41.1072L180.7 41.3854L179.805 41.4771H177.838L176.856 41.2916L175.87 41.1061L174.888 40.83L174.082 40.46L173.277 39.9984L172.561 39.444L171.935 38.8896L171.399 38.1508L170.86 37.4119L170.414 36.5803L170.057 35.7487L169.787 34.7327L169.607 33.7167L169.517 32.6079L169.431 31.4991ZM156.817 34.1783L159.141 27.065L161.468 34.1783H156.817ZM149.66 40.83H154.58L155.476 38.058H162.719L163.705 40.83H168.626L161.739 22.1682H156.547L149.66 40.83ZM131.498 40.83H135.973V29.6515L142.325 40.83H147.422V22.1682H142.951V33.1633L136.419 22.1682H131.498V40.83ZM111.104 33.3477V30.9447H118.261V23.3708H121.035V30.9447H128.28V33.3477H121.035V40.8289H118.262V33.3477H111.104ZM95.4514 40.8289H108.957V36.5803H100.011V33.3488H107.345V29.468H100.011V26.2344H108.511V22.1682H95.4504L95.4514 40.8289ZM75.2324 40.8289H79.7934V29.6525L86.0556 40.831H91.1563V22.1682H86.6813V33.1633L80.1532 22.1682H75.2324V40.8289ZM54.8375 40.8289H59.6683V33.6249H66.1974V40.83H70.9373V22.1682H66.1974V29.1898H59.6683V22.1672H54.8375V40.8289ZM37.7491 40.8289H51.2591V36.5803H42.3131V33.3488H49.6478V29.468H42.3131V26.2344H50.8093V22.1682H37.7491V40.8289ZM17.891 33.1623V34.271L17.981 35.2871L18.2488 36.2114L18.5167 37.042L18.8756 37.7818L19.2334 38.428L19.6802 39.0751L20.217 39.6295L20.7537 40.0911L21.3804 40.46L22.0062 40.7383L22.7218 41.0144L23.4375 41.2927L24.2432 41.3854L24.9578 41.4771H26.5681L27.2838 41.3844L28.0895 41.2916L28.8051 41.0144L29.4309 40.7372L30.1465 40.46L30.7733 40.0911L31.31 39.6295L31.8458 39.0751L32.2936 38.428L32.6514 37.7818L33.0093 37.042L33.2781 36.2114L33.4561 35.2871L33.636 34.271V22.1672H28.8051V33.9011L28.7152 34.64L28.5363 35.3798L28.3573 35.9332L27.9995 36.3959L27.5527 36.7658L27.1049 37.042L26.4792 37.2275H25.0478L24.4211 37.042L23.8853 36.7658L23.5275 36.3948L23.1687 35.9332L22.9008 35.3798L22.8108 34.64L22.7218 33.9011V22.1682H17.892L17.891 33.1623ZM0 40.83H4.74088V35.5643L6.35116 33.4395L10.5563 40.83H16.1918L9.57172 29.8369L15.3861 22.1672H9.8396L4.74188 28.8209V22.1672H0V40.83Z" fill="currentColor"/>
</svg>
