<svg width="247" height="64" viewBox="0 0 247 64" fill="none" xmlns="http://www.w3.org/2000/svg">
<path d="M151.13 42.7759C155.082 42.07 155.8 39.6768 155.8 31.3962C155.8 19.3953 154.237 19.7271 143.578 19.7271C132.92 19.7271 131.316 19.3812 131.316 31.3962C131.316 43.3971 132.92 43.0583 143.578 43.0583C144.999 43.0583 146.285 43.0583 147.402 43.0583V51.0142H154.9V43.1783H151.13V42.7759ZM139.701 27.3724H147.415V35.42H139.701V27.3724ZM92.9061 19.9601H80.7659V43.023H92.9129C103.558 43.023 105.094 43.4889 105.094 31.5586C105.094 19.6353 103.551 19.9812 92.9129 19.9812L92.9061 19.9601ZM96.7228 35.5683H88.9879V27.5136H96.6889L96.7228 35.5683ZM122.533 19.9954H114.026L103.713 43.0583H112.402L113.614 40.3828H122.972L124.184 43.0583H132.873L122.533 19.9954ZM115.847 33.7399L118.276 28.2266L120.705 33.7399H115.847ZM61.0668 34.6506H72.3273V36.2248H56.3163V43.0512H73.9108C79.6899 42.9594 79.5343 38.9427 79.5343 35.6318C79.5343 32.321 79.6832 28.3113 73.9108 28.2195H62.1563V26.6664H77.8493V19.9671H61.0668C55.3959 20.0589 55.4433 23.9133 55.4433 27.1959C55.4433 30.4785 55.2809 34.5164 61.0668 34.6153V34.6506ZM17.8384 19.9742V30.7679L7.47118 19.9742H0.0273438V43.0371H7.89074V32.2363L18.2444 43.0371H25.7289V19.9742H17.8384ZM45.2656 19.9742H36.739L26.4259 43.0371H35.1149L36.3262 40.3616H45.6784L46.8964 43.0371H55.5854L45.2656 19.9742ZM38.5796 33.7187L41.009 28.2054L43.4384 33.7187H38.5796ZM178.24 19.7624C167.595 19.7624 166.059 19.4165 164.029 31.4033C161.998 43.4042 163.656 43.0442 174.301 43.0442C175.736 43.0442 177.008 43.0442 178.124 43.0442L181.894 42.7759C185.954 42.07 187.077 39.6557 188.471 31.4174C190.502 19.4165 188.877 19.7765 178.233 19.7765L178.24 19.7624ZM179.417 35.4553H171.723L173.076 27.4218H180.777L179.417 35.4553ZM246.993 19.9248H237.756L232.282 25.6358L228.736 19.9248H219.492L226.672 31.488L218.111 40.411L217.969 19.9389H210.83L204.171 31.9398L201.552 19.9389H194.406L186.435 43.0512H192.931L196.802 31.9821L200.023 42.9806H204.57L211.473 31.9821L211.608 43.0512H224.804L230.272 37.3402L233.825 43.0512H243.062L235.889 31.488L246.993 19.9248Z" fill="currentColor"/>
</svg>
