<svg width="200" height="54" viewBox="0 0 200 54" fill="none" xmlns="http://www.w3.org/2000/svg">
<path d="M97.9904 11.5263C88.5537 11.5263 81.8837 18.7676 81.8837 27.4556C81.8837 36.146 88.4667 43.3002 97.9023 43.3002C107.338 43.3002 114.009 36.059 114.009 27.3698C114.009 18.6806 107.426 11.5263 97.9904 11.5263ZM97.995 39.3637C91.3215 39.3637 86.5711 33.9414 86.5711 27.3652C86.5711 20.7902 91.2265 15.4617 97.8965 15.4617C104.57 15.4617 109.322 20.8852 109.322 27.4602C109.322 34.0375 104.666 39.3637 97.995 39.3637Z" fill="currentColor"/>
<path d="M139.359 11.8583H116.586V42.9614H139.581V38.9184H121.076V29.2997H137.448V25.2556H121.076V15.9024H139.359V11.8583Z" fill="currentColor"/>
<path d="M165.812 35.0951C162.946 37.7851 160.436 39.3613 156.325 39.3613C149.923 39.3613 145.173 33.986 145.173 27.3594C145.173 20.7352 149.923 15.456 156.325 15.456C160.148 15.456 162.898 17.0253 165.572 19.5218L168.523 16.2114C165.402 13.2788 162.034 11.3237 156.371 11.3237C147.185 11.3237 140.586 18.566 140.586 27.4533C140.586 36.4287 147.232 43.4936 156.236 43.4936C161.9 43.4936 165.468 41.2958 168.723 38.0061L165.812 35.0951Z" fill="currentColor"/>
<path d="M181.46 11.8583H170.264V42.9614H181.46C191.253 42.9614 197.99 36.1632 197.99 27.3652C197.99 18.5684 191.239 11.8583 181.46 11.8583ZM181.47 38.8509H174.752V15.9688H181.47C188.628 15.9688 193.303 20.8245 193.303 27.4591C193.303 34.0936 188.628 38.8509 181.47 38.8509Z" fill="currentColor"/>
<path d="M1.98669 27.4144C1.98669 40.3435 12.4673 50.8241 25.3964 50.8241C38.3255 50.8241 48.8062 40.3435 48.8062 27.4144C48.8062 14.4852 38.3255 4.0046 25.3964 4.0046C12.4673 4.0046 1.98669 14.4852 1.98669 27.4144Z" fill="currentColor"/>
<path d="M51.8831 3.99438V15.3003L59.4001 27.4053L62.912 21.7529L51.8831 3.99438Z" fill="currentColor"/>
<path fill-rule="evenodd" clip-rule="evenodd" d="M51.8831 50.8184V39.5147L62.912 21.7573V33.0587L51.8831 50.8184V50.8184Z" fill="currentColor"/>
<path d="M63.3755 3.99438V15.3003L70.8949 27.4053L74.4056 21.7529L63.3755 3.99438Z" fill="currentColor"/>
<path fill-rule="evenodd" clip-rule="evenodd" d="M63.3755 50.8184V39.5147L74.4056 21.7573V33.0587L63.3755 50.8184V50.8184Z" fill="currentColor"/>
</svg>
