<svg width="213" height="64" viewBox="0 0 213 64" fill="none" xmlns="http://www.w3.org/2000/svg">
<g clip-path="url(#clip0_130_221)">
<path d="M91.8297 35.9173H105.882L98.4594 24.6506L84.8127 44.9999H78.6071L95.2045 20.5859C95.5663 20.0988 96.0471 19.7002 96.6065 19.4236C97.1659 19.147 97.7878 19.0004 98.4199 18.9962C99.052 18.9919 99.6759 19.1301 100.24 19.3992C100.803 19.6683 101.29 20.0603 101.659 20.5426L118.303 44.9999H112.097L109.174 40.4499H94.9555L91.8574 35.9173H91.8297ZM156.338 40.4499V19.2426H151.064V42.5386C151.063 42.8623 151.132 43.1829 151.267 43.4808C151.401 43.7788 151.599 44.0479 151.848 44.2719C152.097 44.512 152.396 44.7025 152.725 44.832C153.055 44.9615 153.409 45.0275 153.766 45.0259H177.74L180.866 40.4759H156.311L156.338 40.4499ZM69.1374 36.6626C71.5951 36.6626 73.9522 35.745 75.69 34.1115C77.4279 32.4781 78.4042 30.2626 78.4042 27.9526C78.4042 25.6426 77.4279 23.4272 75.69 21.7937C73.9522 20.1603 71.5951 19.2426 69.1374 19.2426H46.0854V44.9999H51.3505V23.8013H68.8146C69.9909 23.8013 71.119 24.2405 71.9508 25.0223C72.7825 25.804 73.2498 26.8643 73.2498 27.9699C73.2498 29.0755 72.7825 30.1359 71.9508 30.9176C71.119 31.6994 69.9909 32.1386 68.8146 32.1386H53.96L69.6906 44.9999H77.3346L66.7676 36.6626H69.1374ZM13.702 44.9999H29.6263C33.1976 44.9128 36.5914 43.5182 39.0846 41.1133C41.5777 38.7084 42.973 35.4834 42.973 32.1256C42.973 28.7678 41.5777 25.5428 39.0846 23.1379C36.5914 20.733 33.1976 19.3384 29.6263 19.2513H13.702C11.8733 19.2067 10.0537 19.5067 8.35033 20.1336C6.64698 20.7606 5.09444 21.7018 3.78426 22.9017C2.47409 24.1016 1.4328 25.5359 0.721813 27.1201C0.0108255 28.7043 -0.355469 30.4062 -0.355469 32.1256C-0.355469 33.845 0.0108255 35.5469 0.721813 37.1311C1.4328 38.7153 2.47409 40.1497 3.78426 41.3496C5.09444 42.5495 6.64698 43.4906 8.35033 44.1176C10.0537 44.7445 11.8733 45.0445 13.702 44.9999V44.9999ZM29.2667 40.4673H14.0524C11.7506 40.3975 9.56781 39.489 7.96576 37.9339C6.36372 36.3787 5.46798 34.2989 5.46798 32.1343C5.46798 29.9696 6.36372 27.8898 7.96576 26.3347C9.56781 24.7796 11.7506 23.8711 14.0524 23.8013H29.2667C30.455 23.7653 31.6389 23.9541 32.7481 24.3567C33.8572 24.7593 34.8689 25.3673 35.723 26.1446C36.5772 26.922 37.2564 27.8528 37.7202 28.8817C38.184 29.9107 38.4231 31.0168 38.4231 32.1343C38.4231 33.2518 38.184 34.3579 37.7202 35.3868C37.2564 36.4158 36.5772 37.3466 35.723 38.1239C34.8689 38.9013 33.8572 39.5093 32.7481 39.9119C31.6389 40.3144 30.455 40.5033 29.2667 40.4673V40.4673ZM129.303 44.9999H145.559L148.639 40.4673H129.663C128.474 40.5033 127.29 40.3144 126.181 39.9119C125.072 39.5093 124.06 38.9013 123.206 38.1239C122.352 37.3466 121.673 36.4158 121.209 35.3868C120.745 34.3579 120.506 33.2518 120.506 32.1343C120.506 31.0168 120.745 29.9107 121.209 28.8817C121.673 27.8528 122.352 26.922 123.206 26.1446C124.06 25.3673 125.072 24.7593 126.181 24.3567C127.29 23.9541 128.474 23.7653 129.663 23.8013H145.107L148.224 19.2513H129.303C127.474 19.2067 125.655 19.5067 123.951 20.1336C122.248 20.7606 120.695 21.7018 119.385 22.9017C118.075 24.1016 117.034 25.5359 116.323 27.1201C115.612 28.7043 115.245 30.4062 115.245 32.1256C115.245 33.845 115.612 35.5469 116.323 37.1311C117.034 38.7153 118.075 40.1497 119.385 41.3496C120.695 42.5495 122.248 43.4906 123.951 44.1176C125.655 44.7445 127.474 45.0445 129.303 44.9999V44.9999ZM193.729 40.4673C191.797 40.468 189.917 39.8758 188.376 38.7808C186.835 37.6858 185.716 36.1478 185.19 34.4006H207.707L210.805 29.8593H185.19C185.715 28.1113 186.833 26.5726 188.375 25.4773C189.916 24.3821 191.796 23.7905 193.729 23.7926H209.183L212.272 19.2426H193.369C189.798 19.3297 186.404 20.7243 183.911 23.1292C181.418 25.5341 180.022 28.7592 180.022 32.1169C180.022 35.4747 181.418 38.6997 183.911 41.1047C186.404 43.5096 189.798 44.9042 193.369 44.9913H209.625L212.714 40.4586H193.719" fill="currentColor"/>
</g>
<defs>
<clipPath id="clip0_130_221">
<rect width="213" height="64" fill="white"/>
</clipPath>
</defs>
</svg>
