<svg width="278" height="64" viewBox="0 0 278 64" fill="none" xmlns="http://www.w3.org/2000/svg">
<path d="M30.5466 11.7702L0.0986176 5V58.987L30.5466 49.9434L61.0204 59V5L30.5466 11.7702ZM4.43432 53.1373V10.4544L20.4453 14.0046L12.7154 15.7269V44.6468L22.8555 47.657L4.43432 53.1373ZM17.0918 41.373V19.2363L30.5466 16.2521L44.0013 19.2363V41.373L30.5466 45.3687L17.0918 41.373ZM56.657 53.1373L38.2358 47.6551L48.3758 44.6449V15.7269L40.6459 14.0046L56.6551 10.4562V53.1373H56.657Z" fill="currentColor"/>
<path d="M70.6464 37.6706C71.8543 38.4166 73.6189 39.0383 75.476 39.0383C78.232 39.0383 79.8431 37.5778 79.8431 35.4658C79.8431 33.5079 78.7278 32.3907 75.9107 31.3031C72.5035 30.0912 70.3985 28.3207 70.3985 25.3681C70.3985 22.1073 73.0917 19.6836 77.15 19.6836C79.2864 19.6836 80.8346 20.1809 81.7631 20.708L81.0195 22.9146C80.3389 22.5435 78.9442 21.9217 77.0556 21.9217C74.2071 21.9217 73.1232 23.631 73.1232 25.06C73.1232 27.0179 74.3921 27.9811 77.272 29.1002C80.8031 30.468 82.5973 32.1754 82.5973 35.2505C82.5973 38.4834 80.2131 41.2784 75.291 41.2784C73.2767 41.2784 71.0792 40.6882 69.9639 39.9422L70.6464 37.6706ZM87.5841 33.9422C87.6452 37.639 89.9999 39.1627 92.7245 39.1627C94.6759 39.1627 95.8523 38.8212 96.8733 38.3851L97.3376 40.343C96.3795 40.7773 94.7369 41.2747 92.3527 41.2747C87.7377 41.2747 84.9835 38.2311 84.9835 33.6935C84.9835 29.1559 87.6452 25.5852 92.0123 25.5852C96.9048 25.5852 98.2051 29.9038 98.2051 32.669C98.2051 33.2276 98.1441 33.6619 98.1126 33.9422H87.5841ZM95.573 31.9842C95.6044 30.2434 94.8609 27.5413 91.7941 27.5413C89.038 27.5413 87.8302 30.0894 87.6156 31.9842H95.573ZM101.734 30.6183C101.734 28.8478 101.705 27.326 101.61 25.9267H103.997L104.089 28.8775H104.213C104.894 26.8583 106.536 25.5852 108.362 25.5852C108.671 25.5852 108.889 25.6168 109.137 25.678V28.2576C108.858 28.1945 108.58 28.1649 108.208 28.1649C106.288 28.1649 104.925 29.6254 104.555 31.6761C104.494 32.0473 104.431 32.4834 104.431 32.9493V40.9647H101.738V30.6183H101.734ZM114.059 25.9267L117 34.3783C117.496 35.7461 117.899 36.9876 118.208 38.231H118.3C118.641 36.9876 119.075 35.7461 119.569 34.3783L122.481 25.9267H125.329L119.447 40.9647H116.845L111.147 25.9267H114.059ZM131.553 21.7009C131.585 22.6325 130.904 23.3786 129.818 23.3786C128.86 23.3786 128.178 22.6325 128.178 21.7009C128.178 20.7396 128.89 19.9916 129.881 19.9916C130.904 19.9916 131.553 20.7377 131.553 21.7009V21.7009ZM128.518 25.9267H131.243V40.9647H128.518V25.9267ZM146.758 40.4043C146.046 40.7773 144.466 41.2747 142.454 41.2747C137.933 41.2747 134.992 38.1995 134.992 33.6007C134.992 28.9703 138.151 25.6149 143.042 25.6149C144.651 25.6149 146.075 26.0195 146.819 26.3925L146.201 28.5063C145.55 28.1333 144.529 27.7918 143.042 27.7918C139.603 27.7918 137.746 30.3399 137.746 33.4763C137.746 36.9561 139.977 39.0996 142.949 39.0996C144.498 39.0996 145.521 38.6969 146.294 38.3535L146.758 40.4043ZM151.743 33.9422C151.804 37.639 154.157 39.1627 156.883 39.1627C158.833 39.1627 160.011 38.8212 161.032 38.3851L161.496 40.343C160.536 40.7773 158.896 41.2747 156.511 41.2747C151.896 41.2747 149.14 38.2311 149.14 33.6935C149.14 29.1559 151.804 25.5852 156.171 25.5852C161.064 25.5852 162.364 29.9038 162.364 32.669C162.364 33.2276 162.301 33.6619 162.271 33.9422H151.743ZM159.732 31.9842C159.761 30.2434 159.02 27.5413 155.953 27.5413C153.197 27.5413 151.989 30.0894 151.773 31.9842H159.732ZM181.656 40.2799C180.667 40.7773 178.684 41.2747 176.144 41.2747C170.26 41.2747 165.832 37.5462 165.832 30.6814C165.832 24.1246 170.26 19.6817 176.732 19.6817C179.333 19.6817 180.974 20.2422 181.686 20.6152L181.037 22.8218C180.016 22.3245 178.56 21.9514 176.827 21.9514C171.934 21.9514 168.682 25.0897 168.682 30.5886C168.682 35.7145 171.624 39.0087 176.701 39.0087C178.344 39.0087 180.014 38.6672 181.1 38.1383L181.656 40.2799ZM185.402 18.9041H188.127V28.2873H188.188C188.62 27.5097 189.303 26.8268 190.139 26.361C190.946 25.8951 191.904 25.5834 192.927 25.5834C194.939 25.5834 198.159 26.8249 198.159 32.0139V40.961H195.435V32.3257C195.435 29.9019 194.538 27.8512 191.967 27.8512C190.202 27.8512 188.807 29.0946 188.313 30.5849C188.158 30.9579 188.127 31.3625 188.127 31.8896V40.961H185.402V18.9041ZM210.887 40.9647L210.669 39.0699H210.576C209.74 40.2502 208.131 41.3062 205.993 41.3062C202.959 41.3062 201.409 39.1627 201.409 36.9876C201.409 33.352 204.63 31.3644 210.421 31.3941V31.0841C210.421 29.8407 210.081 27.6044 207.014 27.6044C205.619 27.6044 204.165 28.0387 203.113 28.7235L202.493 26.9214C203.733 26.1123 205.529 25.5852 207.417 25.5852C212.001 25.5852 213.114 28.7235 213.114 31.7374V37.3606C213.114 38.6653 213.175 39.9403 213.362 40.9647H210.887ZM210.482 33.2907C207.51 33.2295 204.134 33.7566 204.134 36.6777C204.134 38.45 205.31 39.2889 206.705 39.2889C208.656 39.2889 209.894 38.0455 210.327 36.7723C210.419 36.494 210.482 36.1822 210.482 35.9019V33.2907ZM217.202 29.9966C217.202 28.4432 217.171 27.1683 217.078 25.9267H219.494L219.649 28.4117H219.71C220.454 26.9827 222.187 25.5834 224.666 25.5834C226.741 25.5834 229.961 26.8249 229.961 31.9842V40.9629H227.237V32.2941C227.237 29.8722 226.338 27.8512 223.769 27.8512C221.972 27.8512 220.578 29.1243 220.115 30.648C219.991 30.9895 219.929 31.4572 219.929 31.923V40.9647H217.204V29.9966H217.202ZM233.923 29.9966C233.923 28.4432 233.894 27.1683 233.799 25.9267H236.213L236.369 28.4117H236.43C237.173 26.9827 238.906 25.5834 241.385 25.5834C243.459 25.5834 246.679 26.8249 246.679 31.9842V40.9629H243.954V32.2941C243.954 29.8722 243.057 27.8512 240.486 27.8512C238.69 27.8512 237.295 29.1243 236.833 30.648C236.709 30.9895 236.646 31.4572 236.646 31.923V40.9647H233.922V29.9966H233.923ZM252.628 33.9422C252.689 37.639 255.041 39.1627 257.768 39.1627C259.719 39.1627 260.896 38.8212 261.917 38.3851L262.381 40.343C261.421 40.7773 259.78 41.2747 257.396 41.2747C252.781 41.2747 250.025 38.2311 250.025 33.6935C250.025 29.1559 252.689 25.5852 257.054 25.5852C261.946 25.5852 263.249 29.9038 263.249 32.669C263.249 33.2276 263.186 33.6619 263.156 33.9422H252.628ZM260.616 31.9842C260.646 30.2434 259.904 27.5413 256.837 27.5413C254.081 27.5413 252.874 30.0894 252.657 31.9842H260.616ZM266.931 18.9041H269.656V40.9629H266.931V18.9041ZM277.902 21.6508C277.902 23.2208 276.674 24.4531 275.076 24.4531C273.494 24.4531 272.233 23.2208 272.233 21.6508C272.233 20.116 273.494 18.8818 275.076 18.8818C276.674 18.8818 277.902 20.116 277.902 21.6508ZM272.939 21.6508C272.939 22.8831 273.847 23.8611 275.092 23.8611C276.302 23.8611 277.195 22.8812 277.195 21.6675C277.195 20.4352 276.304 19.4386 275.076 19.4386C273.847 19.4386 272.939 20.4352 272.939 21.6508ZM274.637 23.1021H273.997V20.3331C274.251 20.283 274.604 20.2496 275.057 20.2496C275.579 20.2496 275.814 20.3331 276.015 20.4519C276.165 20.5707 276.285 20.7897 276.285 21.0606C276.285 21.365 276.05 21.6007 275.712 21.7009V21.7343C275.98 21.8364 276.132 22.0387 276.217 22.4098C276.3 22.8311 276.352 23 276.418 23.1021H275.729C275.643 23 275.593 22.7476 275.51 22.4284C275.458 22.124 275.292 21.9885 274.937 21.9885H274.633V23.1021H274.637ZM274.656 21.532H274.959C275.312 21.532 275.599 21.4132 275.599 21.1274C275.599 20.8732 275.414 20.7061 275.011 20.7061C274.842 20.7061 274.724 20.7228 274.658 20.7396V21.532H274.656Z" fill="currentColor"/>
</svg>
