<svg width="224" height="64" viewBox="0 0 224 64" fill="none" xmlns="http://www.w3.org/2000/svg">
<path d="M22.4298 26.2642V44.5283H24.8547H27.2796L27.3402 38.9736L27.4312 33.4491L32.4022 38.9736L37.3733 44.5283H40.8287H44.2842L38.5857 38.4604C35.4636 35.1095 32.8569 32.3019 32.7963 32.1812C32.7659 32.0604 35.0696 29.6151 37.9492 26.7774L43.193 21.5849H39.8588H36.5245L31.9172 26.1736L27.2796 30.7925V19.3812V8.00002H24.8547H22.4298V26.2642Z" fill="currentColor"/>
<path d="M89.417 15.9999V23.9999L88.0227 22.9432C86.1131 21.464 83.8397 20.8904 80.8086 21.0414C74.9889 21.3432 70.8968 25.1772 70.0481 31.0338C69.1085 37.5848 72.5943 43.1999 78.505 44.7093C81.9908 45.5848 86.4465 44.7395 88.2349 42.8376C89.1745 41.8414 89.417 41.9319 89.417 43.3206V44.5282H91.8419H94.2668V26.264V7.99985H91.8419H89.417V15.9999ZM85.1128 25.9923C89.3867 27.7734 90.781 33.8716 87.8408 37.9168C85.8403 40.6942 81.3845 41.4187 78.2625 39.4866C76.171 38.2187 75.0192 35.8338 75.0495 32.9357C75.1101 29.6149 76.3529 27.381 78.899 26.1432C80.4449 25.3583 83.4457 25.298 85.1128 25.9923Z" fill="currentColor"/>
<path d="M5.97076 21.5845C2.72746 22.8524 1.09065 25.0562 1.12096 28.226C1.15128 31.8487 3.21244 33.6298 8.78971 34.8977C12.0936 35.6524 13.3364 36.5279 13.3364 38.0373C13.3364 39.3355 12.1239 40.2713 10.0931 40.5128C8.12286 40.7241 6.42543 40.2109 4.90987 38.9128L3.6368 37.826L2.0303 39.1241C1.18159 39.8487 0.332873 40.5128 0.211628 40.6336C-0.182418 40.9355 1.72719 42.9279 3.15182 43.743C5.0008 44.7996 7.30446 45.2524 9.97185 45.0411C15.5188 44.6487 18.459 42.1128 18.4893 37.826C18.4893 33.9015 16.7009 32.1807 11.0024 30.7921C7.81975 30.0072 6.78917 29.4638 6.36481 28.3468C5.42516 25.9015 9.60811 24.5128 12.6392 26.2638C13.3364 26.6864 13.9426 27.1996 13.9426 27.3506C13.9426 27.5317 14.1548 27.6223 14.3973 27.5317C15.246 27.1996 17.8831 25.0864 17.8831 24.7241C17.8831 23.9996 15.0641 21.8864 13.5486 21.4336C11.3965 20.7996 7.78944 20.86 5.97076 21.5845Z" fill="currentColor"/>
<path d="M51.9833 21.4036C48.7097 22.43 46.0727 24.7244 44.648 27.7734C43.8599 29.4338 43.7993 29.8866 43.7993 33.0564C43.7993 36.3168 43.8599 36.6489 44.7693 38.5508C45.9817 41.0866 47.7095 42.8074 50.2556 44.0149C52.1652 44.9206 52.4986 44.981 55.6207 44.981C59.6521 44.9508 61.6223 44.3168 63.926 42.2338L65.4718 40.8451L63.7441 39.3961L62.0164 37.9168L60.9555 38.8527C58.3184 41.147 55.1963 41.4791 52.1046 39.8187C50.4072 38.8828 48.8007 36.83 48.8007 35.5621V34.8677H57.9243H67.0783L66.8662 32.3017C66.4418 26.5961 63.7441 22.7319 59.2884 21.4338C57.4697 20.8904 53.6505 20.8904 51.9833 21.4036ZM59.3187 25.9923C60.5311 26.9583 61.3495 28.3168 61.6829 29.947L61.8951 30.9432H55.3479H48.8007V30.2489C48.8007 29.313 50.3162 26.9583 51.4681 26.1734C52.9533 25.0866 53.6808 24.9055 55.9844 24.9961C57.894 25.0564 58.2881 25.1772 59.3187 25.9923Z" fill="currentColor"/>
<path d="M106.058 21.4038C102.694 22.7019 100.542 24.5736 99.2688 27.3812C96.6317 33.1472 98.3594 39.8189 103.3 42.9585C107.483 45.6151 113.121 45.3736 116.546 42.3849L117.698 41.3585L117.546 43.9547C117.304 47.6076 116.304 49.3585 113.667 50.7472C112.848 51.1698 111.939 51.3208 109.726 51.3208C107.15 51.3208 106.665 51.2302 105.179 50.4755C104.27 49.9925 103.088 49.268 102.542 48.8755L101.572 48.151L100.027 50.1434C99.2082 51.2604 98.511 52.2566 98.511 52.3774C98.511 52.8302 103.543 55.0944 105.634 55.5774C108.423 56.2114 112.515 56 114.97 55.0944C118.577 53.7359 121.366 50.5057 122.123 46.7321C122.336 45.6453 122.457 40.7849 122.457 33.2981V21.5849H120.032H117.607V22.8227V24.0302L116.637 23.3057C114.364 21.6151 113.06 21.1623 110.029 21.0717C108.12 21.0114 106.786 21.1321 106.058 21.4038ZM113.515 26.083C117.91 28.0453 118.971 34.6566 115.516 38.2189C112.939 40.8453 108.514 41.0868 105.634 38.7321C101.785 35.5321 102.512 28.5585 106.968 26.2038C108.665 25.3283 111.696 25.268 113.515 26.083Z" fill="currentColor"/>
<path d="M134.036 21.5545C129.186 23.3658 126.306 27.5922 126.306 33.0564C126.306 39.8488 130.55 44.5281 137.158 45.0413C139.764 45.2224 142.31 44.7998 144.372 43.7734C145.857 43.0186 147.918 41.3583 147.918 40.8752C147.918 40.7847 147.191 40.0601 146.281 39.2752L144.644 37.8866L143.644 38.8224C141.553 40.7847 139.158 41.2979 136.279 40.4828C134.066 39.8488 132.096 38.0073 131.641 36.1356L131.307 34.8677H140.401H149.494L149.373 32.0601C149.191 28.4979 148.373 26.3545 146.372 24.1809C144.281 21.9167 142.553 21.1922 138.673 21.0715C136.218 20.9809 135.339 21.0715 134.036 21.5545ZM140.856 25.3583C141.492 25.63 142.25 26.0526 142.583 26.3545C143.341 27.0488 144.281 29.0715 144.281 30.0979V30.9432H137.794H131.307L131.611 29.7658C132.005 28.196 133.763 26.1733 135.309 25.479C136.824 24.7847 139.37 24.7545 140.856 25.3583Z" fill="currentColor"/>
<path d="M170.955 21.2528C169.53 21.7057 168.075 22.551 167.105 23.4868L166.105 24.4227V23.0038V21.5849H163.832H161.558V33.0566V44.5283H163.983H166.408V37.7962C166.408 30.1283 166.711 28.4679 168.348 26.8378C170.045 25.1472 173.319 24.8151 175.047 26.1736C176.441 27.2604 176.714 29.1321 176.714 37.1925V44.5283H178.957H181.2L181.321 37.0415C181.412 30.0076 181.473 29.4944 182.109 28.1661C183.079 26.2038 184.443 25.4189 186.898 25.3887C189.141 25.3585 190.172 25.9623 191.112 27.8038C191.627 28.8604 191.718 29.7962 191.809 36.7698L191.93 44.5283H194.203H196.477L196.356 35.9849L196.265 27.4717L195.264 25.4189C194.143 23.1547 192.9 22.0378 190.778 21.4038C187.444 20.4076 184.17 21.1321 181.836 23.3962L180.351 24.7849L179.442 23.6378C178.108 21.9774 176.38 21.1925 173.834 21.1019C172.682 21.0415 171.379 21.1019 170.955 21.2528Z" fill="currentColor"/>
<path d="M209.298 21.4036C203.357 23.2753 199.872 28.9205 200.902 35.0187C201.812 40.4828 205.297 43.9847 210.753 44.8904C214.451 45.4941 219.21 44.1055 221.423 41.8111L222.332 40.8451L220.695 39.4262L219.089 38.0073L218.119 38.913C215.421 41.4187 211.147 41.5696 208.086 39.2753C206.964 38.3998 205.813 36.4979 205.813 35.4715C205.813 34.8677 205.964 34.8677 214.906 34.8677H223.999V33.4187C223.969 27.6828 220.999 22.9734 216.513 21.5847C214.269 20.8904 211.147 20.83 209.298 21.4036ZM213.997 24.9054C214.876 25.0866 216.088 25.5696 216.664 25.9922C217.786 26.8677 218.816 28.7998 218.846 30.0979V30.9432H212.33C205.964 30.9432 205.813 30.9432 205.813 30.3394C205.813 28.1658 208.571 25.4187 211.269 24.8753C211.845 24.7545 212.36 24.6639 212.36 24.6338C212.39 24.6338 213.118 24.7545 213.997 24.9054Z" fill="currentColor"/>
<path d="M153.526 38.4606C152.526 38.9134 151.556 40.1512 151.374 41.238C151.162 42.5965 152.223 44.1965 153.738 44.77C154.738 45.1625 154.981 45.1323 156.012 44.6493C157.376 43.9851 158.376 42.204 158.103 41.0568C157.618 39.1248 155.163 37.7361 153.526 38.4606Z" fill="currentColor"/>
</svg>
