<svg width="149" height="64" viewBox="0 0 149 64" fill="none" xmlns="http://www.w3.org/2000/svg">
<path d="M38.2877 45.91C45.8515 41.4918 51.2064 35.918 53.6831 29.9365C54.6871 25.6542 55.2895 21.1001 55.2895 16.2061C55.2895 15.5263 55.2895 14.8466 55.2226 14.2349C54.7541 21.4399 45.6507 30.4123 33.5353 36.3259C19.0101 43.5309 8.03258 45.4342 3.14624 39.9964C4.81965 43.395 7.09548 46.7936 9.70599 49.9204C15.7302 55.2902 25.6368 53.3869 38.2877 45.91Z" fill="currentColor"/>
<path d="M31.8616 31.2961C45.5836 24.5668 55.1554 14.9827 53.549 8.66129C50.7376 3.83525 45.2489 2 39.2916 2C21.6204 2 0 13.8272 0 28.8491C0 30.7523 0.401617 32.9274 1.20485 35.2385C5.22102 40.6763 17.4703 38.3652 31.8616 31.2961Z" fill="currentColor"/>
<path d="M30.7236 52.6397C21.0848 56.6501 15.5291 55.3586 12.45 52.8436L12.3831 52.7756C17.1355 57.6017 22.4904 60.9323 27.2429 60.9323C35.543 60.9323 46.8552 50.7365 52.2101 34.8989C49.198 40.6766 42.7052 47.6777 30.7236 52.6397Z" fill="currentColor"/>
<path d="M67.8735 24.0232C67.1372 24.0232 66.4009 23.4794 65.5976 22.3239C65.1291 21.5082 64.8613 20.8965 64.8613 20.4886C64.8613 19.8089 65.3299 19.1292 66.2001 18.5174C67.1372 17.9057 68.0743 17.6338 69.1452 17.6338H86.8833C88.0213 17.6338 88.5568 18.1776 88.5568 19.1972C88.5568 20.4207 88.2221 21.5082 87.6196 22.5278C86.9503 23.5474 86.2809 24.0232 85.5446 24.0232H79.7881V43.9391C79.7881 45.1626 79.4534 46.2501 78.851 47.2697C78.1816 48.2893 77.5123 48.7651 76.776 48.7651C76.0397 48.7651 75.3034 48.2213 74.5001 47.0658C74.0316 46.2501 73.7638 45.6384 73.7638 45.2306V24.0232H67.8735Z" fill="currentColor"/>
<path d="M90.0292 39.5208C90.3639 40.8802 91.0332 42.0358 92.1042 42.8514C93.1752 43.6671 94.447 44.0749 95.9865 44.0749C97.2583 44.0749 98.7978 43.6671 100.538 42.7835C101.341 42.3756 102.078 42.1717 102.814 42.1717C103.751 42.1717 104.22 42.5795 104.22 43.4632C104.22 44.2109 104.086 44.9586 103.751 45.6383C103.416 46.318 103.015 46.8618 102.479 47.2017C101.475 47.8134 100.404 48.2892 99.1994 48.6291C97.9946 48.9689 96.7897 49.1049 95.6518 49.1049C93.5768 49.1049 91.7026 48.5611 89.9622 47.4056C88.2219 46.318 86.8832 44.8226 85.9461 43.0553C85.009 41.2881 84.5404 39.3848 84.5404 37.4136C84.5404 35.1705 85.0759 33.1314 86.0799 31.3641C87.1509 29.5288 88.4896 28.1694 90.163 27.1498C91.8364 26.1982 93.6437 25.6544 95.6518 25.6544C97.593 25.6544 99.3333 26.1302 100.873 27.0139C102.412 27.9655 103.617 29.189 104.42 30.6844C105.291 32.1798 105.692 33.8791 105.692 35.7143C105.692 36.6659 105.425 37.4816 104.956 38.2293C104.487 38.977 103.952 39.3169 103.349 39.3169L90.0292 39.5208ZM95.3841 30.6164C93.9784 30.6164 92.8405 31.0242 91.8364 31.8399C90.8324 32.6556 90.23 33.7431 90.0292 35.1026H100.27C100.203 33.8111 99.7349 32.7915 98.7978 31.9079C97.8607 31.0242 96.7228 30.6164 95.3841 30.6164Z" fill="currentColor"/>
<path d="M113.591 48.6971C112.319 48.6971 111.181 48.1533 110.177 47.1337C109.173 46.1141 108.771 44.8906 108.771 43.4632V20.0807C108.771 19.469 109.24 18.7892 110.11 18.2455C110.98 17.6337 111.917 17.3618 112.921 17.3618C113.992 17.3618 114.528 17.8376 114.528 18.8572V41.56C114.528 41.9678 114.595 42.2397 114.796 42.5116C114.929 42.7835 115.264 42.9874 115.666 43.1233C116.134 43.3273 116.335 43.7351 116.335 44.3468C116.335 45.4344 116.067 46.454 115.465 47.3376C114.863 48.2892 114.26 48.6971 113.591 48.6971Z" fill="currentColor"/>
<path d="M122.359 23.3431C121.623 23.3431 120.82 22.7314 120.017 21.5079C119.481 20.6242 119.213 20.0125 119.213 19.5367C119.213 18.789 119.682 18.1093 120.686 17.4975C121.69 16.8858 122.694 16.5459 123.832 16.5459C125.037 16.5459 125.639 17.0897 125.639 18.2452C125.639 19.1288 125.505 19.9445 125.171 20.7602C124.836 21.5759 124.434 22.1876 123.899 22.6634C123.363 23.1392 122.895 23.3431 122.359 23.3431ZM122.359 48.6968C121.69 48.6968 120.954 48.153 120.217 46.9975C119.749 46.2498 119.548 45.6381 119.548 45.2982V28.9169C119.548 28.3051 120.017 27.6254 120.887 27.0816C121.757 26.4699 122.694 26.198 123.698 26.198C124.769 26.198 125.305 26.6738 125.305 27.6934V44.1427C125.305 44.9583 125.171 45.706 124.836 46.4537C124.501 47.2014 124.167 47.7452 123.698 48.153C123.23 48.4929 122.761 48.6968 122.359 48.6968Z" fill="currentColor"/>
<path d="M139.227 48.6972C137.152 48.6972 135.278 48.1534 133.538 47.1338C131.864 46.0463 130.526 44.6868 129.589 42.9875C128.651 41.2882 128.183 39.385 128.183 37.3458C128.183 35.1707 128.718 33.1995 129.789 31.4322C130.86 29.665 132.266 28.2375 133.939 27.2859C135.613 26.3343 137.487 25.7905 139.428 25.7905C141.102 25.7905 142.708 26.2663 144.314 27.2179C145.319 26.5382 146.323 26.1984 147.327 26.1984C148.398 26.1984 148.933 26.6742 148.933 27.6938V44.1431C148.933 44.9587 148.799 45.7064 148.465 46.4541C148.13 47.2018 147.795 47.7456 147.327 48.1534C146.858 48.5613 146.456 48.7652 145.988 48.7652C145.319 48.7652 144.582 48.2214 143.846 47.0659C143.578 46.5901 143.377 46.1822 143.244 45.8424C143.043 46.5221 142.708 47.0659 142.306 47.5417C141.905 48.0175 141.503 48.2894 141.102 48.4933C140.566 48.6292 139.897 48.6972 139.227 48.6972ZM139.629 43.2594C140.901 43.2594 142.173 42.9196 143.244 42.1719V32.1799C142.173 31.5682 140.968 31.2283 139.629 31.2283C137.956 31.2283 136.617 31.7721 135.479 32.9276C134.341 34.0832 133.806 35.4426 133.806 37.2099C133.806 38.9772 134.341 40.3366 135.479 41.4921C136.617 42.6477 138.022 43.2594 139.629 43.2594Z" fill="currentColor"/>
</svg>
