<svg width="450" height="450" viewBox="0 0 450 450" fill="none" xmlns="http://www.w3.org/2000/svg">
<path fill-rule="evenodd" clip-rule="evenodd" d="M222.447 117.845C224.537 116.573 226.55 116 228.454 116C232.159 116 236.276 118.169 240.57 123.436C244.839 128.672 248.86 136.491 252.314 146.507C254.573 153.058 256.557 160.454 258.204 168.529C248.717 171.861 238.704 176.066 228.455 181.086C218.205 176.066 208.192 171.861 198.704 168.529C199.437 164.937 200.236 161.48 201.097 158.172C199.787 157.835 198.521 157.388 197.31 156.841C196.439 160.164 195.631 163.63 194.888 167.226C162.827 156.599 137.41 156.332 130.28 168.682C123.149 181.033 136.09 202.911 161.324 225.364C156.947 229.258 152.94 233.135 149.344 236.948C150.472 237.68 151.532 238.506 152.515 239.416C156.064 235.671 160.025 231.856 164.36 228.017C171.989 234.567 180.636 241.136 190.108 247.502C190.886 258.889 192.251 269.662 194.109 279.545C186.293 282.156 178.896 284.135 172.095 285.454C161.694 287.471 152.911 287.898 146.242 286.819C139.534 285.734 135.597 283.253 133.745 280.045C133.719 280 133.693 279.955 133.668 279.91C132.028 279.706 130.441 279.333 128.924 278.809C129.243 279.949 129.694 281.029 130.28 282.045C137.411 294.395 162.827 294.128 194.888 283.501C201.716 316.581 214.193 338.727 228.454 338.727C242.715 338.727 255.193 316.581 262.02 283.501C294.083 294.129 319.501 294.396 326.631 282.046C328.169 279.383 328.773 276.276 328.522 272.817C327.276 273.57 325.954 274.21 324.571 274.724C324.51 276.815 324.013 278.581 323.167 280.046C321.315 283.254 317.378 285.735 310.67 286.82C304.001 287.899 295.218 287.473 284.817 285.456C278.015 284.136 270.617 282.156 262.8 279.545C264.658 269.663 266.023 258.89 266.8 247.503C276.273 241.137 284.92 234.567 292.551 228.017C295.371 230.515 298.034 233.003 300.528 235.468C301.517 234.558 302.584 233.731 303.719 233C301.175 230.471 298.461 227.921 295.587 225.364C320.822 202.911 333.763 181.032 326.632 168.681C319.501 156.331 294.083 156.598 262.02 167.226C255.193 134.146 242.715 112 228.454 112C225.198 112 222.034 113.155 219.009 115.331C220.232 116.065 221.383 116.908 222.447 117.845ZM258.976 172.498C250.668 175.44 241.932 179.067 232.973 183.344C237.948 185.88 242.968 188.604 248.001 191.51C253.034 194.416 257.902 197.401 262.585 200.44C261.81 190.543 260.583 181.165 258.976 172.498ZM223.937 183.344C214.977 179.067 206.241 175.44 197.932 172.498C196.326 181.165 195.099 190.543 194.323 200.441C199.007 197.401 203.877 194.415 208.911 191.509C213.943 188.604 218.963 185.88 223.937 183.344ZM193.972 205.456C199.361 201.883 205.019 198.375 210.911 194.973C216.801 191.572 222.667 188.427 228.455 185.547C234.243 188.427 240.11 191.573 246.001 194.975C251.892 198.376 257.549 201.883 262.937 205.455C263.336 211.908 263.545 218.561 263.545 225.364C263.545 232.166 263.336 238.82 262.937 245.273C257.549 248.844 251.892 252.352 246.002 255.753C240.11 259.154 234.243 262.3 228.455 265.181C222.667 262.3 216.801 259.155 210.91 255.754C205.018 252.352 199.361 248.844 193.972 245.272C193.572 238.819 193.363 232.166 193.363 225.364C193.363 218.561 193.572 211.908 193.972 205.456ZM190.108 203.225C190.886 191.838 192.251 181.065 194.109 171.182C186.293 168.571 178.896 166.592 172.094 165.273C161.693 163.256 152.91 162.829 146.242 163.908C139.534 164.993 135.596 167.474 133.744 170.682C131.892 173.891 131.712 178.541 134.126 184.893C136.526 191.208 141.287 198.6 148.234 206.599C152.777 211.83 158.191 217.247 164.36 222.71C171.989 216.16 180.636 209.592 190.108 203.225ZM167.411 225.364C174.113 219.639 181.622 213.888 189.805 208.267C189.514 213.843 189.363 219.552 189.363 225.364C189.363 231.175 189.514 236.884 189.805 242.46C181.622 236.84 174.113 231.088 167.411 225.364ZM223.937 267.383C218.962 264.847 213.943 262.123 208.91 259.218C203.877 256.312 199.007 253.326 194.323 250.286C195.099 260.184 196.326 269.562 197.932 278.229C206.241 275.287 214.977 271.66 223.937 267.383ZM198.704 282.198C208.192 278.866 218.205 274.662 228.455 269.642C238.704 274.662 248.717 278.866 258.204 282.198C256.557 290.273 254.573 297.67 252.314 304.22C248.86 314.236 244.839 322.055 240.57 327.291C236.276 332.558 232.159 334.727 228.454 334.727C224.75 334.727 220.632 332.558 216.339 327.291C212.07 322.055 208.048 314.236 204.594 304.22C202.336 297.67 200.352 290.273 198.704 282.198ZM232.973 267.383C237.948 264.847 242.968 262.123 248.002 259.217C253.034 256.311 257.902 253.326 262.585 250.287C261.809 260.184 260.583 269.563 258.976 278.229C250.668 275.287 241.932 271.66 232.973 267.383ZM267.104 242.461C275.288 236.84 282.797 231.088 289.499 225.364C282.797 219.639 275.288 213.887 267.104 208.266C267.394 213.842 267.545 219.552 267.545 225.364C267.545 231.175 267.394 236.885 267.104 242.461ZM292.551 222.71C284.92 216.16 276.273 209.591 266.8 203.224C266.023 191.838 264.658 181.065 262.8 171.182C270.617 168.571 278.015 166.591 284.818 165.271C295.219 163.255 304.001 162.828 310.67 163.907C317.378 164.992 321.316 167.473 323.168 170.681C325.02 173.889 325.2 178.54 322.786 184.892C320.386 191.206 315.625 198.599 308.678 206.598C304.134 211.83 298.72 217.246 292.551 222.71Z" fill="currentColor"/>
<path fill-rule="evenodd" clip-rule="evenodd" d="M220.546 135.454C220.546 142.96 214.461 149.045 206.955 149.045C199.449 149.045 193.364 142.96 193.364 135.454C193.364 127.948 199.449 121.863 206.955 121.863C214.461 121.863 220.546 127.948 220.546 135.454ZM224.546 135.454C224.546 145.169 216.67 153.045 206.955 153.045C197.239 153.045 189.364 145.169 189.364 135.454C189.364 125.739 197.239 117.863 206.955 117.863C216.67 117.863 224.546 125.739 224.546 135.454ZM330 252.728C330 260.234 323.915 266.319 316.409 266.319C308.903 266.319 302.818 260.234 302.818 252.728C302.818 245.222 308.903 239.137 316.409 239.137C323.915 239.137 330 245.222 330 252.728ZM334 252.728C334 262.443 326.124 270.319 316.409 270.319C306.694 270.319 298.818 262.443 298.818 252.728C298.818 243.012 306.694 235.137 316.409 235.137C326.124 235.137 334 243.012 334 252.728ZM136.591 270.228C144.097 270.228 150.182 264.143 150.182 256.637C150.182 249.131 144.097 243.046 136.591 243.046C129.085 243.046 123 249.131 123 256.637C123 264.143 129.085 270.228 136.591 270.228ZM136.591 274.228C146.306 274.228 154.182 266.352 154.182 256.637C154.182 246.922 146.306 239.046 136.591 239.046C126.876 239.046 119 246.922 119 256.637C119 266.352 126.876 274.228 136.591 274.228ZM228.454 235.136C233.852 235.136 238.227 230.761 238.227 225.364C238.227 219.966 233.852 215.591 228.454 215.591C223.057 215.591 218.682 219.966 218.682 225.364C218.682 230.761 223.057 235.136 228.454 235.136Z" fill="#E84419"/>
</svg>
