<svg width="450" height="450" viewBox="0 0 450 450" fill="none" xmlns="http://www.w3.org/2000/svg">
<path fill-rule="evenodd" clip-rule="evenodd" d="M198.371 131.44C207.637 129.599 216.915 133.568 222.943 143.045L223.803 144.396L225.31 143.852C232.802 141.148 242.258 145.047 246.17 153.953L247.098 156.064L249.057 154.847C254.267 151.61 260.158 151.642 265.442 154.009C270.758 156.39 275.398 161.123 277.857 167.132L278.388 168.429L279.783 168.374L279.785 168.374L279.788 168.373L279.793 168.373C279.806 168.373 279.83 168.373 279.865 168.372C279.936 168.372 280.049 168.372 280.2 168.376C280.503 168.385 280.957 168.409 281.525 168.472C282.664 168.599 284.239 168.883 285.967 169.506C289.397 170.743 293.413 173.304 295.89 178.708C298.375 184.13 297.965 190.241 296.822 195.174C296.256 197.615 295.525 199.704 294.936 201.181C294.642 201.917 294.385 202.498 294.204 202.889C294.114 203.084 294.043 203.232 293.996 203.328C293.972 203.376 293.955 203.411 293.944 203.432L293.932 203.455L293.931 203.457C293.931 203.457 293.931 203.457 294.314 203.654H155.477L156.756 202.609C154.791 200.207 153.075 196.142 153.002 191.737C152.931 187.411 154.439 182.801 158.859 179.062L159.879 178.199L159.473 176.927C157.434 170.54 157.854 163.085 160.961 157.517C163.987 152.095 169.653 148.271 178.736 149.045L180.061 149.157L180.678 147.979C185.437 138.884 189.679 133.167 198.371 131.44ZM153.505 204.949C151.042 201.841 149.089 197 149.003 191.803C148.92 186.757 150.603 181.337 155.292 176.889C153.397 169.895 153.954 161.865 157.468 155.567C161.115 149.033 167.857 144.549 177.743 144.973C182.407 136.269 187.424 129.537 197.591 127.516C208.197 125.409 218.617 129.797 225.465 139.617C234.167 137.31 243.987 141.605 248.863 150.388C254.856 147.461 261.373 147.803 267.078 150.358C272.996 153.01 278.093 158.054 281.034 164.413C281.312 164.431 281.625 164.458 281.969 164.497C283.346 164.651 285.239 164.992 287.324 165.744C291.519 167.257 296.503 170.446 299.526 177.042C302.541 183.62 301.951 190.759 300.719 196.076C300.097 198.76 299.297 201.046 298.652 202.663C298.328 203.473 298.042 204.12 297.835 204.568C297.731 204.793 297.646 204.969 297.586 205.091C297.556 205.152 297.532 205.2 297.515 205.234L297.494 205.274L297.488 205.287L297.486 205.291L297.485 205.293C297.485 205.293 297.485 205.293 297.282 205.189L276.222 321.523H174.5L153.505 204.949ZM177.844 317.523L158.057 207.654H292.771L272.881 317.523H177.844Z" fill="currentColor"/>
<path fill-rule="evenodd" clip-rule="evenodd" d="M200.238 164.139C196.698 163.64 192.509 163.92 189.052 166.618C185.501 169.39 184.162 172.933 183.707 175.854C183.478 177.319 183.477 178.61 183.533 179.529C183.56 179.987 183.602 180.348 183.635 180.586C183.651 180.705 183.666 180.793 183.675 180.847C183.68 180.874 183.683 180.892 183.685 180.901L183.686 180.907L183.685 180.903C183.685 180.902 183.685 180.901 181.725 181.3C179.765 181.698 179.765 181.697 179.764 181.696L179.764 181.694L179.763 181.689L179.761 181.677L179.754 181.641C179.748 181.612 179.741 181.574 179.733 181.526C179.717 181.431 179.696 181.3 179.673 181.135C179.627 180.806 179.575 180.342 179.54 179.771C179.471 178.631 179.473 177.045 179.754 175.238C180.319 171.612 182.028 167.026 186.591 163.465C191.249 159.83 196.712 159.602 200.797 160.178C202.856 160.469 204.633 160.971 205.895 161.4C206.528 161.615 207.037 161.814 207.394 161.961C207.573 162.035 207.714 162.096 207.813 162.141C207.863 162.163 207.903 162.181 207.931 162.194L207.967 162.21L207.978 162.216L207.982 162.218L207.984 162.218C207.985 162.219 207.985 162.219 207.127 164.026C206.269 165.832 206.269 165.832 206.27 165.833L206.258 165.827C206.244 165.821 206.22 165.81 206.185 165.794C206.117 165.764 206.01 165.717 205.866 165.658C205.579 165.539 205.151 165.372 204.608 165.187C203.519 164.817 201.99 164.386 200.238 164.139ZM200.208 315.875L185.208 206.875L181.245 207.42L196.245 316.42L200.208 315.875ZM218.208 315.875L216.271 207.719L212.272 207.79L214.209 315.947L218.208 315.875ZM242.69 207.719L239.208 316.875L235.21 316.747L238.692 207.591L242.69 207.719ZM259.208 316.875L269.109 207.719L265.125 207.357L255.224 316.514L259.208 316.875ZM234.165 174.992C237.621 172.294 241.81 172.014 245.35 172.513C247.103 172.76 248.631 173.191 249.721 173.561C250.263 173.746 250.692 173.913 250.979 174.032C251.122 174.091 251.229 174.138 251.298 174.168C251.332 174.184 251.356 174.195 251.37 174.201L251.382 174.207C251.382 174.206 251.381 174.206 252.239 172.4C253.098 170.593 253.097 170.593 253.096 170.593L253.094 170.592L253.09 170.59L253.079 170.584L253.044 170.568C253.015 170.555 252.975 170.537 252.926 170.515C252.826 170.47 252.685 170.409 252.506 170.335C252.15 170.188 251.64 169.989 251.007 169.774C249.745 169.345 247.968 168.843 245.909 168.552C241.825 167.976 236.361 168.204 231.704 171.839C227.141 175.4 225.432 179.986 224.867 183.612C224.585 185.419 224.583 187.005 224.652 188.145C224.687 188.716 224.74 189.18 224.785 189.509C224.808 189.674 224.829 189.805 224.845 189.9C224.854 189.948 224.861 189.986 224.866 190.015L224.873 190.051L224.875 190.063L224.876 190.068L224.877 190.07C224.877 190.071 224.877 190.072 226.837 189.674C228.797 189.275 228.797 189.276 228.797 189.277L228.797 189.275C228.795 189.266 228.792 189.248 228.787 189.221C228.778 189.167 228.764 189.079 228.747 188.96C228.714 188.722 228.673 188.361 228.645 187.903C228.589 186.984 228.591 185.693 228.819 184.228C229.274 181.308 230.614 177.764 234.165 174.992Z" fill="#E84419"/>
</svg>
