<svg width="450" height="450" viewBox="0 0 450 450" fill="none" xmlns="http://www.w3.org/2000/svg">
<path fill-rule="evenodd" clip-rule="evenodd" d="M115 139H296V162H115V139ZM296 185V166H115V249H141V253H115H111V249V139V135H115H296H300V139V185H296ZM156 202H335V312H156V202ZM152 198H156H335H339V202V312V316H335H156H152V312V202V198ZM235 268H178V272H235V268ZM178 286H266V290H178V286Z" fill="currentColor"/>
<path fill-rule="evenodd" clip-rule="evenodd" d="M288 261C298.493 261 307 252.493 307 242C307 231.507 298.493 223 288 223C277.507 223 269 231.507 269 242C269 252.493 277.507 261 288 261ZM288 265C300.703 265 311 254.703 311 242C311 229.297 300.703 219 288 219C275.297 219 265 229.297 265 242C265 254.703 275.297 265 288 265Z" fill="#E84419"/>
</svg>
