<svg width="450" height="450" viewBox="0 0 450 450" fill="none" xmlns="http://www.w3.org/2000/svg">
<path fill-rule="evenodd" clip-rule="evenodd" d="M171.36 125.903L169.635 125L168.685 126.7L128.581 198.516L128.215 199.169L128.369 199.902L136 236.208V280.5H140V236.697L176.388 190.828L202.161 204.068L203.989 200.51L178.931 187.638L190.566 173.094L299.006 227.77V247.496L249.831 221.965L247.988 225.515L299.006 252.003V275.037H303.006V250.788V226.538V225.307L301.906 224.752L192.018 169.346V137.934V136.724L190.946 136.163L171.36 125.903ZM174.274 187.056L139.081 231.419L132.438 199.812L171.228 130.35L188.018 139.144V169.876L174.279 187.049L174.274 187.056ZM234.203 231.755C233.124 232.639 231.924 233.381 230.631 233.951L236.434 257H207.263L214.817 231.941C213.602 230.984 212.535 229.848 211.654 228.574L202.656 258.423L202.653 258.434L202.65 258.445L193.407 290.44L193.406 290.445L184.787 320H121V324H186.287H289H314H329.919V320H316V292V290H314H289H287V292V320H259.693L250.917 290.431L250.913 290.417L250.909 290.404L240.926 258.457L234.203 231.755ZM188.954 320L196.827 293H247.507L255.521 320H188.954ZM237.53 261L245.302 285.872L210.77 261H237.53ZM242.801 289L205.705 262.282L197.986 289H242.801ZM312 294V320H291V294H312Z" fill="currentColor"/>
<path fill-rule="evenodd" clip-rule="evenodd" d="M224.094 233.099C232.187 233.099 238.747 226.538 238.747 218.446C238.747 210.353 232.187 203.792 224.094 203.792C216.001 203.792 209.44 210.353 209.44 218.446C209.44 226.538 216.001 233.099 224.094 233.099ZM224.094 237.099C234.396 237.099 242.747 228.748 242.747 218.446C242.747 208.144 234.396 199.792 224.094 199.792C213.792 199.792 205.44 208.144 205.44 218.446C205.44 228.748 213.792 237.099 224.094 237.099Z" fill="#E84419"/>
<path fill-rule="evenodd" clip-rule="evenodd" d="M142 281H134V301H142V281ZM130 277V305H146V277H130Z" fill="currentColor"/>
</svg>
