<svg width="450" height="450" viewBox="0 0 450 450" fill="none" xmlns="http://www.w3.org/2000/svg">
<path fill-rule="evenodd" clip-rule="evenodd" d="M188 264L188 170H184L184 264H188ZM266 264L266 170L262 170L262 264L266 264Z" fill="#E84419"/>
<path fill-rule="evenodd" clip-rule="evenodd" d="M224.473 110L309.137 149.157V170H288.474V264.278H284.474V170H265.744H261.744H188.256H184.256H165.526V264.278H161.526V170H141.896V149.171L224.473 110ZM224.494 114.417L145.896 151.701V166H305.137V151.714L224.494 114.417ZM342.307 297.175H108.115V293.175H342.307V297.175ZM355 319.961H95V315.961H355V319.961ZM105.735 197.82H145.962V201.82H109.735V219.517H145.962V223.517H125.232V265.01H121.232V223.517H105.735V197.82ZM304.038 197.82H344.265V223.517H328.768V264.135H324.768V223.517H304.038V219.517H340.265V201.82H304.038V197.82Z" fill="currentColor"/>
</svg>
