<svg width="450" height="450" viewBox="0 0 450 450" fill="none" xmlns="http://www.w3.org/2000/svg">
<path fill-rule="evenodd" clip-rule="evenodd" d="M225.062 170.846L216.845 162.626C207.432 153.21 194.917 148 181.631 148C168.381 148 155.908 153.173 146.54 162.544C137.13 171.957 131.962 184.432 132 197.72L132 197.732C132 211.017 137.205 223.457 146.622 232.878L223.86 310.142C224.183 310.466 224.607 310.616 224.938 310.616C225.347 310.616 225.746 310.454 226.017 310.184L303.419 233.042C312.829 223.629 318 211.152 318 197.855V197.843C318.038 184.547 312.906 172.075 303.501 162.668C294.095 153.258 281.664 148.123 268.369 148.123C255.079 148.123 242.606 153.296 233.196 162.709L225.062 170.846ZM306.248 235.87L228.845 313.012C227.776 314.081 226.337 314.616 224.938 314.616C223.54 314.616 222.1 314.04 221.031 312.97L143.793 235.706C133.635 225.544 128 212.09 128 197.732C127.959 183.373 133.552 169.878 143.711 159.716C153.828 149.595 167.318 144 181.631 144C195.984 144 209.515 149.636 219.674 159.799L225.062 165.188L230.367 159.881C240.526 149.719 254.016 144.123 268.369 144.123C282.723 144.123 296.172 149.678 306.33 159.84C316.489 170.002 322.041 183.496 322 197.855C322 212.214 316.406 225.708 306.248 235.87Z" fill="currentColor"/>
<path fill-rule="evenodd" clip-rule="evenodd" d="M216.75 214.75L192 214.75V231.25H216.75V256H233.25V231.25H258V214.75L233.25 214.75V190H216.75V214.75ZM220.75 194V218.75L196 218.75V227.25H220.75V252H229.25V227.25H254V218.75L229.25 218.75V194H220.75Z" fill="#E84419"/>
</svg>
