<svg width="450" height="450" viewBox="0 0 450 450" fill="none" xmlns="http://www.w3.org/2000/svg">
<path fill-rule="evenodd" clip-rule="evenodd" d="M225 321C273.47 300.64 305 253.196 305 200.624V156.204L301.117 156.001C273.665 154.566 247.22 145.186 225 129C201.381 145.11 173.547 154.633 145 156.204V200.624C145 253.196 176.53 300.64 225 321ZM149 159.944C176.023 157.806 202.275 148.742 224.927 133.862C247.292 149.505 273.616 158.569 300.909 159.995L301 160V200.624C301 251.023 271.106 296.56 225 316.649C178.894 296.56 149 251.023 149 200.624V159.944Z" fill="currentColor"/>
<path fill-rule="evenodd" clip-rule="evenodd" d="M216.75 209.75L192 209.75V226.25H216.75V251H233.25V226.25H258V209.75L233.25 209.75V185H216.75V209.75ZM220.75 189V213.75L196 213.75V222.25H220.75V247H229.25V222.25H254V213.75L229.25 213.75V189H220.75Z" fill="#E84419"/>
</svg>
