<svg width="450" height="450" viewBox="0 0 450 450" fill="none" xmlns="http://www.w3.org/2000/svg">
<path fill-rule="evenodd" clip-rule="evenodd" d="M283.832 187.098L285.459 191.731C289.378 202.895 303.757 205.9 311.819 197.239L313.417 195.522C316.474 192.239 317.426 187.516 315.882 183.305C313.587 177.046 307.63 172.886 300.964 172.886H145.87C138.46 172.886 132.258 178.508 131.532 185.883C131.274 188.512 131.995 191.145 133.557 193.276L134.944 195.167C142.226 205.097 157.351 204.123 163.299 193.342L166.103 188.26L205.031 187.098H283.832ZM280.997 191.098L281.685 193.056C286.601 207.059 304.635 210.827 314.747 199.964L316.345 198.247C320.428 193.861 321.7 187.554 319.637 181.928C316.765 174.094 309.308 168.886 300.964 168.886H145.87C136.402 168.886 128.478 176.069 127.551 185.491C127.196 189.102 128.186 192.716 130.332 195.641L131.719 197.533C140.728 209.818 159.442 208.614 166.801 195.274L168.503 192.19L205.091 191.098H280.997Z" fill="currentColor"/>
<path fill-rule="evenodd" clip-rule="evenodd" d="M301.933 149.109L299.569 148.872C274.151 146.331 249.764 137.506 228.605 123.192L225.112 120.829L222.215 122.789C200.667 137.366 175.778 146.246 149.87 148.601L143.922 149.142V155.148H301.933V149.109ZM225.112 116L230.846 119.879C251.455 133.821 275.209 142.416 299.967 144.892L305.933 145.489V159.148H139.922V145.489L149.507 144.617C174.743 142.323 198.985 133.674 219.973 119.476L225.112 116Z" fill="currentColor"/>
<path fill-rule="evenodd" clip-rule="evenodd" d="M179.24 296.763V205.02H183.24V296.763H179.24Z" fill="#E84419"/>
<path fill-rule="evenodd" clip-rule="evenodd" d="M201.084 296.763V205.02H205.084V296.763H201.084Z" fill="#E84419"/>
<path fill-rule="evenodd" clip-rule="evenodd" d="M222.927 296.763V205.02H226.927V296.763H222.927Z" fill="#E84419"/>
<path fill-rule="evenodd" clip-rule="evenodd" d="M244.771 296.763V205.02H248.771V296.763H244.771Z" fill="#E84419"/>
<path fill-rule="evenodd" clip-rule="evenodd" d="M266.615 296.763V205.02H270.615V296.763H266.615Z" fill="#E84419"/>
<path fill-rule="evenodd" clip-rule="evenodd" d="M133.553 308.961H318.855V324.067H314.855V312.961H137.553V324.067H133.553V308.961Z" fill="currentColor"/>
</svg>
