<svg width="450" height="450" viewBox="0 0 450 450" fill="none" xmlns="http://www.w3.org/2000/svg">
<path fill-rule="evenodd" clip-rule="evenodd" d="M201.275 149.56L161.244 171.349H169.611L204.224 152.509L201.275 149.56ZM247.417 148.997L287.962 171.349H279.677L244.473 151.941L247.417 148.997ZM136 181H314V301H136V181ZM132 177H136H314H318V181V301V305H314H136H132V301V181V177Z" fill="currentColor"/>
<path fill-rule="evenodd" clip-rule="evenodd" d="M293.021 199.782H289.021V280.652H293.021V199.782ZM161.608 200H157.608V280.87H161.608V200ZM187.891 200H183.891V280.87H187.891V200ZM210.174 200H214.174V280.87H210.174V200ZM240.456 200H236.456V280.87H240.456V200ZM262.739 200H266.739V280.87H262.739V200Z" fill="#E84419"/>
<path fill-rule="evenodd" clip-rule="evenodd" d="M228 119.4C229.781 118.49 231 116.637 231 114.5C231 111.462 228.538 109 225.5 109C222.462 109 220 111.462 220 114.5C220 116.637 221.219 118.49 223 119.4V133H226.242C227.011 133.159 227.745 133.465 228.404 133.905C229.412 134.579 230.197 135.536 230.661 136.655C231.125 137.775 231.246 139.007 231.01 140.195C230.773 141.384 230.19 142.476 229.333 143.333C228.476 144.19 227.384 144.773 226.195 145.01C225.007 145.246 223.775 145.125 222.655 144.661C221.536 144.197 220.579 143.412 219.905 142.404C219.232 141.396 218.873 140.212 218.873 139H214C214 140.744 214.415 142.457 215.202 144C215.397 144.382 215.614 144.753 215.854 145.111C217.063 146.92 218.78 148.33 220.79 149.163C222.8 149.995 225.012 150.213 227.146 149.789C229.28 149.364 231.24 148.317 232.778 146.778C234.317 145.24 235.364 143.28 235.789 141.146C236.213 139.012 235.995 136.8 235.163 134.79C234.33 132.78 232.92 131.063 231.111 129.854C230.753 129.614 230.382 129.397 230 129.202C229.359 128.875 228.689 128.612 228 128.417V119.4Z" fill="currentColor"/>
</svg>
