<svg width="450" height="450" viewBox="0 0 450 450" fill="none" xmlns="http://www.w3.org/2000/svg">
<path fill-rule="evenodd" clip-rule="evenodd" d="M302.81 249.967H148.19C130.964 249.967 117 263.931 117 281.156C117 298.382 130.964 312.346 148.19 312.346H302.81C320.036 312.346 334 298.382 334 281.156C334 263.931 320.036 249.967 302.81 249.967ZM148.19 245.967C128.755 245.967 113 261.722 113 281.156C113 300.591 128.755 316.346 148.19 316.346H302.81C322.245 316.346 338 300.591 338 281.156C338 261.722 322.245 245.967 302.81 245.967H148.19Z" fill="currentColor"/>
<path fill-rule="evenodd" clip-rule="evenodd" d="M240.161 138H209.772V172.654H240.161V138ZM205.772 134V176.654H244.161V134H205.772Z" fill="#E84419"/>
<path fill-rule="evenodd" clip-rule="evenodd" d="M277.483 138H172.45V228.104H277.483V138ZM168.45 134V232.104H281.483V134H168.45Z" fill="currentColor"/>
<path fill-rule="evenodd" clip-rule="evenodd" d="M154.588 293.152C161.212 293.152 166.583 287.781 166.583 281.156C166.583 274.532 161.212 269.161 154.588 269.161C147.963 269.161 142.592 274.532 142.592 281.156C142.592 287.781 147.963 293.152 154.588 293.152ZM154.588 297.152C163.421 297.152 170.583 289.99 170.583 281.156C170.583 272.322 163.421 265.161 154.588 265.161C145.754 265.161 138.592 272.322 138.592 281.156C138.592 289.99 145.754 297.152 154.588 297.152Z" fill="#E84419"/>
<path fill-rule="evenodd" clip-rule="evenodd" d="M226.033 293.152C232.658 293.152 238.029 287.781 238.029 281.156C238.029 274.532 232.658 269.161 226.033 269.161C219.409 269.161 214.038 274.532 214.038 281.156C214.038 287.781 219.409 293.152 226.033 293.152ZM226.033 297.152C234.867 297.152 242.029 289.99 242.029 281.156C242.029 272.322 234.867 265.161 226.033 265.161C217.199 265.161 210.038 272.322 210.038 281.156C210.038 289.99 217.199 297.152 226.033 297.152Z" fill="#E84419"/>
<path fill-rule="evenodd" clip-rule="evenodd" d="M296.412 293.152C303.037 293.152 308.408 287.781 308.408 281.156C308.408 274.532 303.037 269.161 296.412 269.161C289.788 269.161 284.417 274.532 284.417 281.156C284.417 287.781 289.788 293.152 296.412 293.152ZM296.412 297.152C305.246 297.152 312.408 289.99 312.408 281.156C312.408 272.322 305.246 265.161 296.412 265.161C287.578 265.161 280.417 272.322 280.417 281.156C280.417 289.99 287.578 297.152 296.412 297.152Z" fill="#E84419"/>
</svg>
