<svg width="450" height="450" viewBox="0 0 450 450" fill="none" xmlns="http://www.w3.org/2000/svg">
<path fill-rule="evenodd" clip-rule="evenodd" d="M277.01 220.052C283.193 207.752 287.057 196.075 287.057 186.307C287.057 151.172 258.527 119 224.028 119C189.53 119 161 151.172 161 186.307C161 198.125 164.927 210.827 171.068 223.403C177.193 235.946 185.401 248.122 193.678 258.82C201.946 269.508 210.225 278.646 216.44 285.114C219.511 288.311 222.072 290.849 223.872 292.594C223.907 292.557 223.942 292.52 223.977 292.482C225.788 290.53 228.381 287.688 231.497 284.143C237.731 277.046 246.034 267.152 254.327 255.947C262.631 244.728 270.866 232.274 277.01 220.052ZM224.028 298.259C224.028 298.259 291.057 229.091 291.057 186.307C291.057 149.288 261.047 115 224.028 115C187.01 115 157 149.288 157 186.307C157 236.935 224.028 298.259 224.028 298.259Z" fill="currentColor"/>
<path d="M99 298H350V302H99V298Z" fill="currentColor"/>
<path d="M127.522 278H184.568V282H127.522V278Z" fill="currentColor"/>
<path d="M264 278H321.045V282H264V278Z" fill="currentColor"/>
<path fill-rule="evenodd" clip-rule="evenodd" d="M179.473 179.037L225.037 143.453L268.618 179.037L249 179.037L249 175.037L257.394 175.037L224.981 148.571L191.093 175.037L200 175.037L200 179.037L179.473 179.037Z" fill="#E84419"/>
<path fill-rule="evenodd" clip-rule="evenodd" d="M200 178H196V182V214V218H200H249H253V214V182V178H249V182V214H200V182V178Z" fill="#E84419"/>
<path fill-rule="evenodd" clip-rule="evenodd" d="M231 180H218V196H231V180ZM214 176V200H235V176H214Z" fill="#E84419"/>
</svg>
