<svg width="450" height="450" viewBox="0 0 450 450" fill="none" xmlns="http://www.w3.org/2000/svg">
<path fill-rule="evenodd" clip-rule="evenodd" d="M265.082 144L256.578 191.361C253.037 211.085 268.198 229.211 288.237 229.211C308.276 229.211 323.437 211.085 319.895 191.361L311.391 144H265.082ZM314.737 140H261.737L252.641 190.654C248.659 212.831 265.706 233.211 288.237 233.211C310.768 233.211 327.814 212.831 323.832 190.654L314.737 140Z" fill="#E84419"/>
<path fill-rule="evenodd" clip-rule="evenodd" d="M288 307.792V231.842H292V307.792H288Z" fill="#E84419"/>
<path fill-rule="evenodd" clip-rule="evenodd" d="M270.737 305.422H307V309.422H270.737V305.422Z" fill="#E84419"/>
<path fill-rule="evenodd" clip-rule="evenodd" d="M248.794 164.816C235.212 154.495 218.269 148.369 199.895 148.369C155.218 148.369 119 184.587 119 229.264C119 273.941 155.218 310.159 199.895 310.159C240.622 310.159 274.32 280.061 279.96 240.895C278.614 240.798 277.289 240.636 275.987 240.41C270.588 277.596 238.577 306.159 199.895 306.159C157.427 306.159 123 271.732 123 229.264C123 186.796 157.427 152.369 199.895 152.369C218.095 152.369 234.819 158.693 247.989 169.262L248.794 164.816ZM244.087 190.811C233.348 178.48 217.532 170.686 199.895 170.686C167.543 170.686 141.316 196.912 141.316 229.264C141.316 261.617 167.543 287.843 199.895 287.843C231.121 287.843 256.641 263.41 258.379 232.618C257.002 231.547 255.697 230.388 254.474 229.151C254.474 229.189 254.474 229.227 254.474 229.264C254.474 259.408 230.038 283.843 199.895 283.843C169.752 283.843 145.316 259.408 145.316 229.264C145.316 199.121 169.752 174.686 199.895 174.686C217.536 174.686 233.223 183.055 243.2 196.04C243.291 195.32 243.402 194.598 243.533 193.873L244.087 190.811Z" fill="currentColor"/>
</svg>
