<svg width="450" height="450" viewBox="0 0 450 450" fill="none" xmlns="http://www.w3.org/2000/svg">
<path fill-rule="evenodd" clip-rule="evenodd" d="M180.231 187L212.884 146.184L240.082 146.184L275.145 187H180.231ZM176.564 191L176.849 191.228L177.031 191H319V214L308 214H142L131 214V191H176.564ZM175.109 187L210.961 142.184H241.919L280.419 187H323V218H307.406L295.231 300H154.769L142.594 218H127V187H175.109ZM158.219 296L146.638 218H303.362L291.781 296H158.219Z" fill="currentColor"/>
<path fill-rule="evenodd" clip-rule="evenodd" d="M251.56 234.879L249.728 273.346L245.733 273.156L247.565 234.688L251.56 234.879ZM180.122 234.879L183.785 273.346L179.803 273.725L176.14 235.258L180.122 234.879ZM203.935 234.879V273.346H199.935V234.879H203.935ZM227.748 273.346V234.879H223.748V273.346H227.748ZM271.71 273.346L277.205 236.71L273.249 236.117L267.754 272.752L271.71 273.346Z" fill="#E84419"/>
</svg>
