<svg width="450" height="450" viewBox="0 0 450 450" fill="none" xmlns="http://www.w3.org/2000/svg">
<path fill-rule="evenodd" clip-rule="evenodd" d="M336 141H227.488L227.149 196.877C241.764 197.73 253.352 209.852 253.352 224.68C253.352 239.623 241.585 251.816 226.812 252.501L226.474 308.36H336V141ZM226.837 248.495C239.388 247.802 249.352 237.405 249.352 224.68C249.352 212.054 239.54 201.719 227.125 200.884L226.837 248.495ZM223.125 200.946L222.837 248.385C210.918 247.061 201.649 236.953 201.649 224.68C201.649 212.309 211.067 202.138 223.125 200.946ZM223.149 196.927C208.868 198.121 197.649 210.09 197.649 224.68C197.649 239.156 208.692 251.052 222.813 252.404L222.474 308.36H115V141H223.488L223.149 196.927ZM111 137V312.36H340V137H111Z" fill="currentColor"/>
<path fill-rule="evenodd" clip-rule="evenodd" d="M115 184.324H150.324V262.973H115V184.324ZM111 266.973V180.324H154.324V266.973H111ZM300.676 184.324H336V262.973H300.676V184.324ZM296.676 266.973V180.324H340V266.973H296.676Z" fill="#E84419"/>
</svg>
