<svg width="450" height="450" viewBox="0 0 450 450" fill="none" xmlns="http://www.w3.org/2000/svg">
<path fill-rule="evenodd" clip-rule="evenodd" d="M333.852 219.857H119C119 221.197 119.025 222.53 119.074 223.857C121.177 280.421 167.696 325.631 224.773 325.631H228.079C285.157 325.631 331.675 280.421 333.778 223.857C333.828 222.53 333.852 221.197 333.852 219.857ZM329.775 223.857H123.077C125.178 278.211 169.905 321.631 224.773 321.631H228.079C282.947 321.631 327.675 278.211 329.775 223.857Z" fill="currentColor"/>
<path fill-rule="evenodd" clip-rule="evenodd" d="M298.078 299.157C297.172 298.177 296.246 297.215 295.302 296.272C277.662 278.67 253.315 267.786 226.426 267.786C199.537 267.786 175.19 278.67 157.55 296.272C156.606 297.215 155.68 298.177 154.774 299.157C155.774 300.041 156.791 300.905 157.824 301.751C176.059 316.676 199.371 325.631 224.773 325.631H228.079C253.481 325.631 276.793 316.676 295.028 301.751C296.061 300.905 297.078 300.041 298.078 299.157ZM292.237 298.866C275.336 282.121 252.09 271.786 226.426 271.786C200.761 271.786 177.516 282.121 160.615 298.865C178.124 313.102 200.448 321.631 224.773 321.631H228.079C252.404 321.631 274.728 313.102 292.237 298.866Z" fill="currentColor"/>
<path fill-rule="evenodd" clip-rule="evenodd" d="M175.996 223.857C175.923 225.545 175.886 227.242 175.886 228.948C175.886 266.828 194.067 300.461 222.195 321.599C223.051 321.62 223.911 321.631 224.772 321.631H228.078C282.946 321.631 327.674 278.211 329.774 223.857H175.996ZM333.777 223.857C331.674 280.421 285.156 325.631 228.078 325.631H224.772C223.448 325.631 222.129 325.607 220.817 325.558C191.144 303.749 171.886 268.597 171.886 228.948C171.886 225.889 172 222.858 172.225 219.857H333.851C333.851 221.197 333.827 222.53 333.777 223.857Z" fill="currentColor"/>
<path fill-rule="evenodd" clip-rule="evenodd" d="M276.857 223.857C276.93 225.545 276.967 227.242 276.967 228.948C276.967 266.828 258.786 300.461 230.658 321.599C229.801 321.62 228.942 321.631 228.08 321.631H224.775C169.906 321.631 125.179 278.211 123.078 223.857H276.857ZM119.075 223.857C121.178 280.421 167.697 325.631 224.775 325.631H228.08C229.404 325.631 230.723 325.607 232.036 325.558C261.709 303.749 280.967 268.597 280.967 228.948C280.967 225.889 280.852 222.858 280.627 219.857H119.001C119.001 221.197 119.026 222.53 119.075 223.857Z" fill="currentColor"/>
<path fill-rule="evenodd" clip-rule="evenodd" d="M226.426 323.323V222.163H230.426V323.323H226.426Z" fill="currentColor"/>
<path fill-rule="evenodd" clip-rule="evenodd" d="M209 180H179V220H209V180ZM175 176V224H213V176H175Z" fill="currentColor"/>
<path fill-rule="evenodd" clip-rule="evenodd" d="M244.339 141.827H222.409V158.412H244.339V141.827ZM218.409 137.827V162.412H248.339V137.827H218.409Z" fill="currentColor"/>
<path fill-rule="evenodd" clip-rule="evenodd" d="M237 129H230V137H237V129ZM226 125V141H241V125H226Z" fill="currentColor"/>
<path fill-rule="evenodd" clip-rule="evenodd" d="M202.652 168.55H186.066V175.515H202.652V168.55ZM182.066 164.55V179.515H206.652V164.55H182.066Z" fill="currentColor"/>
<path fill-rule="evenodd" clip-rule="evenodd" d="M196.678 146.481V167.485H192.678V146.481H196.678Z" fill="currentColor"/>
<path fill-rule="evenodd" clip-rule="evenodd" d="M188.303 190.15H186.387V192.067H188.303V190.15ZM182.387 186.15V196.067H192.303V186.15H182.387Z" fill="#E84419"/>
<path fill-rule="evenodd" clip-rule="evenodd" d="M202.01 190.15H200.094V192.067H202.01V190.15ZM196.094 186.15V196.067H206.01V186.15H196.094Z" fill="#E84419"/>
<path fill-rule="evenodd" clip-rule="evenodd" d="M188.303 206.678H186.387V208.594H188.303V206.678ZM182.387 202.678V212.594H192.303V202.678H182.387Z" fill="#E84419"/>
<path fill-rule="evenodd" clip-rule="evenodd" d="M202.01 206.678H200.094V208.594H202.01V206.678ZM196.094 202.678V212.594H206.01V202.678H196.094Z" fill="#E84419"/>
<path fill-rule="evenodd" clip-rule="evenodd" d="M275 197H245V220H275V197ZM241 193V224H279V193H241Z" fill="currentColor"/>
<path fill-rule="evenodd" clip-rule="evenodd" d="M216 164H251V195H255V164V160H251H216H212V164V220V224H216H241V220H216V164Z" fill="currentColor"/>
<path fill-rule="evenodd" clip-rule="evenodd" d="M249.565 201.678H271.05V205.678H249.565V201.678Z" fill="#E84419"/>
<path fill-rule="evenodd" clip-rule="evenodd" d="M249.565 209.941H271.05V213.941H249.565V209.941Z" fill="#E84419"/>
<path fill-rule="evenodd" clip-rule="evenodd" d="M226.426 154.749V146.485H230.426V154.749H226.426Z" fill="#E84419"/>
<path fill-rule="evenodd" clip-rule="evenodd" d="M236.827 154.749V146.485H240.827V154.749H236.827Z" fill="#E84419"/>
<path fill-rule="evenodd" clip-rule="evenodd" d="M221.032 219.001L221.468 165.013L225.468 165.045L225.032 219.033L221.032 219.001Z" fill="#E84419"/>
<path fill-rule="evenodd" clip-rule="evenodd" d="M231.494 219.002L231.853 165.013L235.853 165.039L235.494 219.028L231.494 219.002Z" fill="#E84419"/>
<path fill-rule="evenodd" clip-rule="evenodd" d="M241.853 189.803V165.013H245.853V189.803H241.853Z" fill="#E84419"/>
</svg>
